<svg width="110" height="110" viewBox="0 0 110 110" fill="none" xmlns="http://www.w3.org/2000/svg">
<path d="M54.8856 107.301C84.5614 107.301 108.618 93.9257 108.618 77.4268C108.618 60.928 84.5614 47.553 54.8856 47.553C25.2098 47.553 1.1528 60.928 1.1528 77.4268C1.1528 93.9257 25.2098 107.301 54.8856 107.301Z" fill="#F5F5F5"/>
<path d="M23.1968 9.43139L21.2674 10.5446C21.2787 10.46 21.2845 10.3747 21.285 10.2894V9.73059C21.285 8.73619 20.5854 8.33359 19.7252 8.83079C19.3536 9.05715 19.036 9.362 18.7946 9.72399C18.6538 8.47439 17.6726 8.00799 16.4802 8.69659C15.1932 9.44019 14.1482 11.2486 14.1482 12.738V13.574C14.1394 13.9075 14.2071 14.2387 14.3462 14.542L12.7424 15.4682C12.4909 15.6325 12.2818 15.8538 12.132 16.1141C11.9821 16.3744 11.8958 16.6664 11.88 16.9664C11.88 17.5164 12.2672 17.7408 12.7446 17.4658L23.1968 11.44C23.4492 11.2763 23.6593 11.0552 23.8099 10.7949C23.9606 10.5345 24.0475 10.2422 24.0636 9.94179C24.0636 9.37859 23.6764 9.15639 23.1968 9.43139Z" fill="#EBEBEB"/>
<path d="M34.595 13.3914L33.0836 14.2714C33.0836 14.2054 33.0968 14.1372 33.0968 14.0712V13.6312C33.0968 12.8524 32.549 12.5312 31.8736 12.925C31.5825 13.1037 31.3333 13.343 31.1432 13.6268C31.0332 12.6456 30.2632 12.2804 29.3304 12.8194C28.3184 13.4024 27.5 14.8214 27.5 15.9896V16.6496C27.4931 16.911 27.5458 17.1705 27.654 17.4086L26.4 18.1258C26.2026 18.2545 26.0384 18.428 25.9207 18.6321C25.8029 18.8363 25.735 19.0653 25.7224 19.3006C25.7224 19.7406 26.026 19.9078 26.4 19.6922L34.595 14.96C34.7928 14.831 34.9575 14.6573 35.0756 14.4528C35.1937 14.2483 35.2619 14.0188 35.2748 13.783C35.2748 13.3518 34.98 13.1758 34.595 13.3914Z" fill="#EBEBEB"/>
<path d="M80.5618 61.5868C84.462 61.5868 87.6238 59.7616 87.6238 57.5102C87.6238 55.2587 84.462 53.4336 80.5618 53.4336C76.6616 53.4336 73.4998 55.2587 73.4998 57.5102C73.4998 59.7616 76.6616 61.5868 80.5618 61.5868Z" fill="#E0E0E0"/>
<path d="M86.2686 78.452C87.7492 78.8568 89.3266 78.738 90.8358 78.452C93.0644 78.0384 95.3898 77.352 97.5568 78.3948C98.2643 78.7659 98.9322 79.2082 99.55 79.7148C100.166 80.2241 100.838 80.6625 101.552 81.0216C102.272 81.3853 103.093 81.4976 103.884 81.3406C105.457 80.9556 105.838 79.8006 105.849 78.5642C105.851 77.7524 105.702 76.9474 105.409 76.1904C104.229 73.469 101.176 72.7672 98.4368 72.5428C95.4184 72.292 92.3714 72.9278 89.5224 73.8848C88.2816 74.3006 87.0452 74.789 85.9892 75.5612C85.604 75.809 85.2984 76.1627 85.1092 76.5798C84.7902 77.4268 85.5052 78.243 86.2686 78.452Z" fill="#E0E0E0"/>
<path d="M10.7602 82.016L52.5294 57.9018C54.4786 56.7754 57.6378 56.7754 59.587 57.9018L74.0454 66.2486C75.9946 67.375 75.9946 69.1988 74.0454 70.323L66 74.976L86.361 86.7306C89.2848 88.418 89.2848 91.1548 86.361 92.8422L77.0858 98.197C74.162 99.8866 69.4232 99.8866 66.4994 98.197L46.1384 86.4424L32.2894 94.4394C30.3402 95.5636 27.181 95.5636 25.2318 94.4394L10.7602 86.0904C8.8132 84.9662 8.8132 83.1424 10.7602 82.016Z" fill="#E0E0E0"/>
<path d="M15.84 79.9106L14.08 80.9248C13.9854 75.4886 10.78 71.3878 9.24001 69.2824C7.68021 67.1396 9.83621 65.8548 11.66 66.7964C13.4838 67.738 14.96 70.1492 15.5606 73.282C16.0798 75.9616 15.9214 79.1054 15.84 79.9106Z" fill="#FD55A1"/>
<path opacity="0.25" d="M15.84 79.9106L14.08 80.9248C13.9854 75.4886 10.78 71.3878 9.24001 69.2824C7.68021 67.1396 9.83621 65.8548 11.66 66.7964C13.4838 67.738 14.96 70.1492 15.5606 73.282C16.0798 75.9616 15.9214 79.1054 15.84 79.9106Z" fill="white"/>
<path d="M15.0172 79.5696H15.0392C15.0541 79.5688 15.0686 79.565 15.0819 79.5584C15.0953 79.5518 15.1071 79.5425 15.1168 79.5312C15.1265 79.5199 15.1337 79.5068 15.1382 79.4926C15.1426 79.4784 15.1441 79.4634 15.1426 79.4486C14.9732 72.6044 12.9184 69.179 10.5424 67.4366C10.5309 67.4279 10.5177 67.4219 10.5037 67.4188C10.4896 67.4158 10.4751 67.4158 10.4611 67.419C10.447 67.4221 10.4339 67.4283 10.4224 67.437C10.411 67.4457 10.4017 67.4569 10.395 67.4696C10.3788 67.496 10.373 67.5275 10.3787 67.558C10.3844 67.5885 10.4012 67.6158 10.4258 67.6346C12.76 69.3528 14.762 72.71 14.9292 79.4552C14.9289 79.4814 14.9374 79.5069 14.9534 79.5277C14.9693 79.5484 14.9918 79.5632 15.0172 79.5696Z" fill="white"/>
<path d="M6.754 73.535C6.7892 73.9134 7.0642 74.195 7.3282 74.448C7.5922 74.701 7.876 74.9562 7.9486 75.328C8.0938 76.0804 7.2886 76.7734 7.4646 77.5148C7.50726 77.6633 7.57928 77.8017 7.6764 77.9219C7.77352 78.0421 7.89376 78.1415 8.03 78.2144C8.24415 78.3318 8.46447 78.4375 8.69 78.5312C8.79946 78.5677 8.91116 78.5971 9.0244 78.6192C9.37106 78.659 9.69268 78.8194 9.933 79.0724C10.3048 79.5124 10.2564 80.201 10.3884 80.7906C10.5468 81.4946 10.923 81.9082 11.7876 82.2426L14.795 80.5068C15.5342 79.673 15.7454 78.122 15.0656 77.1518C14.6586 76.571 13.8952 76.4918 13.5102 75.9154C13.1648 75.394 13.365 74.6394 13.1538 74.0366C12.9426 73.4338 12.3772 73.227 11.847 73.1236C11.3168 73.0202 10.747 73.2644 10.2344 73.0554C9.7218 72.8464 9.2334 72.5054 8.6944 72.3558C8.43393 72.2725 8.15683 72.2552 7.88801 72.3055C7.6192 72.3558 7.36711 72.4721 7.1544 72.644C7.02355 72.7517 6.91933 72.8881 6.84987 73.0426C6.78042 73.1972 6.74761 73.3657 6.754 73.535Z" fill="#FD55A1"/>
<path opacity="0.6" d="M6.754 73.535C6.7892 73.9134 7.0642 74.195 7.3282 74.448C7.5922 74.701 7.876 74.9562 7.9486 75.328C8.0938 76.0804 7.2886 76.7734 7.4646 77.5148C7.50726 77.6633 7.57928 77.8017 7.6764 77.9219C7.77352 78.0421 7.89376 78.1415 8.03 78.2144C8.24415 78.3318 8.46447 78.4375 8.69 78.5312C8.79946 78.5677 8.91116 78.5971 9.0244 78.6192C9.37106 78.659 9.69268 78.8194 9.933 79.0724C10.3048 79.5124 10.2564 80.201 10.3884 80.7906C10.5468 81.4946 10.923 81.9082 11.7876 82.2426L14.795 80.5068C15.5342 79.673 15.7454 78.122 15.0656 77.1518C14.6586 76.571 13.8952 76.4918 13.5102 75.9154C13.1648 75.394 13.365 74.6394 13.1538 74.0366C12.9426 73.4338 12.3772 73.227 11.847 73.1236C11.3168 73.0202 10.747 73.2644 10.2344 73.0554C9.7218 72.8464 9.2334 72.5054 8.6944 72.3558C8.43393 72.2725 8.15683 72.2552 7.88801 72.3055C7.6192 72.3558 7.36711 72.4721 7.1544 72.644C7.02355 72.7517 6.91933 72.8881 6.84987 73.0426C6.78042 73.1972 6.74761 73.3657 6.754 73.535Z" fill="white"/>
<path d="M12.2716 76.4984C12.2675 76.4844 12.259 76.472 12.2474 76.4632C10.857 74.2742 8.6768 73.2358 7.9398 73.0532C7.92938 73.0513 7.9187 73.0515 7.90837 73.0539C7.89804 73.0562 7.88828 73.0605 7.87966 73.0667C7.87105 73.0728 7.86376 73.0807 7.85821 73.0897C7.85267 73.0987 7.849 73.1087 7.8474 73.1192C7.8426 73.1405 7.84606 73.1628 7.8571 73.1816C7.86813 73.2003 7.8859 73.2142 7.9068 73.2204C8.6042 73.3942 10.6282 74.3534 11.9922 76.3598C11.4385 76.154 10.8452 76.0765 10.2572 76.1333C9.66918 76.1901 9.10172 76.3796 8.5976 76.6876C8.57989 76.7012 8.56784 76.7208 8.56377 76.7428C8.55971 76.7647 8.56392 76.7874 8.5756 76.8064C8.58155 76.8176 8.59041 76.827 8.60125 76.8336C8.6121 76.8402 8.62452 76.8437 8.6372 76.8438C8.64505 76.8449 8.65305 76.8443 8.66065 76.842C8.66824 76.8397 8.67525 76.8359 8.6812 76.8306C9.19791 76.516 9.7829 76.3307 10.3865 76.2905C10.9901 76.2503 11.5945 76.3563 12.1484 76.5996C12.9688 77.921 13.3721 79.4589 13.3056 81.0128C13.3042 81.0333 13.3103 81.0536 13.3229 81.0698C13.3355 81.086 13.3536 81.0971 13.3738 81.1008C13.3846 81.1008 13.3953 81.0986 13.4052 81.0944C13.4151 81.0901 13.424 81.0839 13.4314 81.0761C13.4388 81.0683 13.4446 81.059 13.4483 81.0489C13.452 81.0388 13.4536 81.028 13.453 81.0172C13.5234 79.4263 13.1116 77.8513 12.2716 76.4984Z" fill="white"/>
<path d="M81.213 48.9566C81.2107 48.9323 81.2019 48.9091 81.1876 48.8894C81.1733 48.8697 81.154 48.8541 81.1316 48.8444C81.071 48.8145 81.0044 48.799 80.9369 48.799C80.8694 48.799 80.8028 48.8145 80.7422 48.8444C80.7198 48.8541 80.7005 48.8697 80.6862 48.8894C80.6719 48.9091 80.6631 48.9323 80.6608 48.9566L85.8 56.903C85.8026 56.9195 85.8092 56.9351 85.8191 56.9485C85.8291 56.9619 85.8422 56.9727 85.8572 56.98C85.8998 57.0016 85.9469 57.0129 85.9947 57.0129C86.0425 57.0129 86.0896 57.0016 86.1322 56.98C86.1475 56.9731 86.1607 56.9624 86.1707 56.9489C86.1807 56.9354 86.1872 56.9196 86.1894 56.903L81.213 48.9566Z" fill="#37474F"/>
<path d="M74.8572 56.903C74.8592 56.9194 74.8653 56.9351 74.8749 56.9485C74.8845 56.962 74.8973 56.9728 74.9122 56.98C74.9552 57.0017 75.0027 57.0129 75.0508 57.0129C75.0989 57.0129 75.1464 57.0017 75.1894 56.98C75.2044 56.9727 75.2175 56.9619 75.2275 56.9485C75.2374 56.9351 75.244 56.9195 75.2466 56.903L80.3946 48.9566C80.3923 48.9323 80.3835 48.9091 80.3692 48.8894C80.3549 48.8697 80.3356 48.8541 80.3132 48.8444C80.2526 48.8145 80.186 48.799 80.1185 48.799C80.051 48.799 79.9844 48.8145 79.9238 48.8444C79.9014 48.8541 79.8821 48.8697 79.8678 48.8894C79.8535 48.9091 79.8447 48.9323 79.8424 48.9566L74.8572 56.903Z" fill="#37474F"/>
<path d="M80.74 48.9742C80.6735 48.9406 80.6 48.923 80.5255 48.923C80.451 48.923 80.3775 48.9406 80.311 48.9742C80.2867 48.9851 80.2657 49.0022 80.2503 49.0238C80.2348 49.0455 80.2254 49.0709 80.223 49.0974L80.311 59.8972C80.3134 59.9155 80.3206 59.9328 80.3317 59.9475C80.3429 59.9622 80.3578 59.9737 80.3748 59.9808C80.4214 60.0047 80.4731 60.0172 80.5255 60.0172C80.5779 60.0172 80.6296 60.0047 80.6762 59.9808C80.6932 59.9737 80.7081 59.9622 80.7192 59.9475C80.7304 59.9328 80.7376 59.9155 80.74 59.8972L80.828 49.0974C80.8256 49.0709 80.8162 49.0455 80.8007 49.0238C80.7853 49.0022 80.7643 48.9851 80.74 48.9742Z" fill="#37474F"/>
<path d="M82.0446 48.785C81.9497 48.6365 81.8178 48.5152 81.6618 48.433C81.3118 48.2551 80.9247 48.1623 80.5321 48.1623C80.1395 48.1623 79.7524 48.2551 79.4024 48.433C79.2464 48.5152 79.1145 48.6365 79.0196 48.785H78.9338V49.1348C78.9519 49.2703 79.0042 49.399 79.0858 49.5087C79.1674 49.6184 79.2756 49.7055 79.4002 49.7618C79.7505 49.9386 80.1375 50.0307 80.5299 50.0307C80.9223 50.0307 81.3092 49.9386 81.6596 49.7618C81.7843 49.7055 81.8928 49.6184 81.9747 49.5087C82.0567 49.3991 82.1095 49.2704 82.1282 49.1348V48.785H82.0446Z" fill="#37474F"/>
<path d="M81.6618 48.1338C81.3118 47.9558 80.9247 47.8631 80.5321 47.8631C80.1395 47.8631 79.7524 47.9558 79.4024 48.1338C78.7776 48.4924 78.7776 49.0776 79.4024 49.4384C79.7524 49.6163 80.1395 49.7091 80.5321 49.7091C80.9247 49.7091 81.3118 49.6163 81.6618 49.4384C82.28 49.0776 82.28 48.4924 81.6618 48.1338Z" fill="#455A64"/>
<path d="M80.8984 48.7146V23.76H80.1658V48.7146C80.1689 48.7469 80.1805 48.7777 80.1994 48.804C80.2184 48.8303 80.244 48.8511 80.2736 48.8642C80.3539 48.9043 80.4424 48.9252 80.5321 48.9252C80.6218 48.9252 80.7103 48.9043 80.7906 48.8642C80.8202 48.8511 80.8458 48.8303 80.8648 48.804C80.8837 48.7777 80.8953 48.7469 80.8984 48.7146Z" fill="#263238"/>
<path d="M84.3869 54.2836L80.4339 56.6833L80.5538 56.8808L84.5068 54.4811L84.3869 54.2836Z" fill="#37474F"/>
<path d="M76.6156 54.2863L76.4959 54.4839L80.451 56.8801L80.5707 56.6826L76.6156 54.2863Z" fill="#37474F"/>
<path d="M72.3756 25.762L84.3964 32.703V18.8232L72.3756 11.8822V25.762Z" fill="#37474F"/>
<path d="M72.7716 25.5354L72.7694 12.5664L84.0026 19.0498V32.0188L72.7716 25.5354Z" fill="#FAFAFA"/>
<path d="M84.3964 18.8232L85.1972 18.359L73.1764 11.4202L72.3756 11.8822L84.3964 18.8232Z" fill="#455A64"/>
<path d="M85.1972 18.359V32.2388L84.3964 32.703V18.8232L85.1972 18.359Z" fill="#37474F"/>
<path d="M86.801 17.435L85.1972 18.359V32.2388L86.801 24.838V17.435Z" fill="#263238"/>
<path d="M73.1764 11.4202L80.3902 13.7324L86.801 17.435L85.1972 18.359L73.1764 11.4202Z" fill="#37474F"/>
<path d="M84.3964 18.8232L84.5218 32.6304L84.3964 32.703V18.8232Z" fill="#263238"/>
<path d="M96.8836 20.0948L96.1708 20.5018L96.8924 22.583C96.904 22.616 96.9227 22.646 96.9471 22.671C96.9715 22.696 97.0011 22.7154 97.0338 22.7278C97.0665 22.7401 97.1015 22.7452 97.1364 22.7426C97.1712 22.74 97.2051 22.7299 97.2356 22.7128L97.9484 22.3058C97.9843 22.2846 98.0139 22.2542 98.0342 22.2178L98.6678 21.1178L96.8836 20.0948Z" fill="#263238"/>
<path d="M96.1708 20.5018L96.8924 22.583C96.9056 22.6288 96.9323 22.6695 96.969 22.7C97.0057 22.7304 97.0507 22.749 97.0982 22.7536C97.1456 22.7581 97.1933 22.7482 97.2351 22.7252C97.2769 22.7023 97.3108 22.6673 97.3324 22.6248L97.966 21.5248L96.1708 20.5018Z" fill="#37474F"/>
<path d="M101.352 15.4418V22.0198C101.346 22.1397 101.311 22.2565 101.251 22.3605C101.191 22.4645 101.107 22.5528 101.006 22.6182L100.648 22.825C100.541 22.8793 100.422 22.9076 100.302 22.9076C100.182 22.9076 100.064 22.8793 99.957 22.825L94.171 19.4832C94.0705 19.4181 93.9868 19.3302 93.9267 19.2266C93.8667 19.1229 93.8321 19.0066 93.8256 18.887V12.3068C93.8321 12.1872 93.8667 12.0709 93.9267 11.9673C93.9868 11.8636 94.0705 11.7757 94.171 11.7106L94.5296 11.5016C94.6366 11.4473 94.755 11.419 94.875 11.419C94.995 11.419 95.1134 11.4473 95.2204 11.5016L101.006 14.8434C101.107 14.9088 101.191 14.9972 101.251 15.1012C101.311 15.2052 101.346 15.3219 101.352 15.4418Z" fill="#455A64"/>
<path d="M100.648 22.825L101.006 22.6182C101.107 22.5528 101.191 22.4644 101.251 22.3604C101.311 22.2564 101.346 22.1397 101.352 22.0198V15.4418C101.347 15.3214 101.312 15.2042 101.251 15.1008L99.66 16.0226V22.66L99.9614 22.8338C100.069 22.886 100.186 22.9124 100.306 22.9109C100.425 22.9094 100.542 22.88 100.648 22.825Z" fill="#263238"/>
<path d="M94.171 19.4832L99.957 22.825C100.148 22.935 100.302 22.847 100.302 22.6248V16.0468C100.296 15.9269 100.262 15.8102 100.202 15.7062C100.141 15.6022 100.058 15.5139 99.957 15.4484L94.171 12.1C93.9796 11.99 93.8256 12.078 93.8256 12.298V18.887C93.8321 19.0066 93.8667 19.123 93.9267 19.2266C93.9868 19.3302 94.0705 19.4181 94.171 19.4832Z" fill="#37474F"/>
<path d="M95.5042 18.6406L94.9828 18.3392V17.7364C94.9828 17.7032 94.9696 17.6713 94.9461 17.6477C94.9226 17.6242 94.8907 17.611 94.8574 17.611C94.8243 17.6116 94.7928 17.625 94.7694 17.6484C94.746 17.6718 94.7326 17.7033 94.732 17.7364V18.4118C94.732 18.4339 94.738 18.4555 94.7492 18.4744C94.7604 18.4934 94.7765 18.509 94.7958 18.5196L95.3788 18.8584C95.3988 18.8679 95.4205 18.8731 95.4426 18.8738C95.4646 18.8738 95.4863 18.8679 95.5052 18.8566C95.5242 18.8454 95.5398 18.8293 95.5504 18.81C95.5589 18.796 95.5645 18.7803 95.5667 18.7641C95.569 18.7478 95.5679 18.7313 95.5636 18.7154C95.5544 18.6836 95.5331 18.6567 95.5042 18.6406ZM94.8574 14.4914C94.8907 14.4914 94.9226 14.4782 94.9461 14.4547C94.9696 14.4312 94.9828 14.3993 94.9828 14.366V13.9084L95.3766 14.1284C95.3982 14.1407 95.423 14.1464 95.4478 14.1447C95.4726 14.1431 95.4964 14.1343 95.5163 14.1194C95.5361 14.1044 95.5512 14.084 95.5596 14.0606C95.568 14.0372 95.5694 14.0118 95.5636 13.9876C95.5538 13.9561 95.5326 13.9295 95.5042 13.9128L94.9212 13.5762C94.9021 13.5654 94.8805 13.5598 94.8585 13.5598C94.8365 13.5598 94.8149 13.5654 94.7958 13.5762C94.7765 13.5868 94.7604 13.6024 94.7492 13.6214C94.738 13.6404 94.732 13.662 94.732 13.684V14.366C94.7326 14.3991 94.746 14.4307 94.7694 14.4541C94.7928 14.4775 94.8243 14.4909 94.8574 14.4914ZM99.3344 16.1304L98.7514 15.7938C98.7224 15.7777 98.6883 15.7735 98.6562 15.7821C98.6242 15.7908 98.5968 15.8115 98.5798 15.84C98.5713 15.8541 98.5657 15.8697 98.5635 15.886C98.5612 15.9022 98.5623 15.9188 98.5666 15.9346C98.5749 15.9668 98.5954 15.9944 98.6238 16.0116L99.1452 16.3108V16.9136C99.1458 16.9467 99.1592 16.9783 99.1826 17.0017C99.206 17.0251 99.2375 17.0385 99.2706 17.039C99.3039 17.039 99.3358 17.0258 99.3593 17.0023C99.3828 16.9788 99.396 16.9469 99.396 16.9136V16.2382C99.3958 16.2165 99.39 16.1952 99.3792 16.1763C99.3684 16.1575 99.353 16.1417 99.3344 16.1304ZM98.5138 18.1104L98.2146 17.9388C98.1882 17.1204 97.7042 16.1964 97.0992 15.807V15.4C97.0986 15.3669 97.0852 15.3354 97.0618 15.312C97.0385 15.2886 97.0069 15.2752 96.9738 15.2746C96.9405 15.2746 96.9086 15.2878 96.8851 15.3113C96.8616 15.3349 96.8484 15.3668 96.8484 15.4V15.6838C96.7416 15.6378 96.6258 15.6164 96.5096 15.6214C96.3934 15.6263 96.2799 15.6574 96.1774 15.7124C96.0459 15.802 95.9374 15.9215 95.8609 16.0611C95.7844 16.2006 95.7421 16.3563 95.7374 16.5154L95.5526 16.4076C95.5239 16.3957 95.4918 16.3947 95.4624 16.4047C95.4329 16.4148 95.4082 16.4353 95.3928 16.4623C95.3774 16.4893 95.3724 16.521 95.3787 16.5515C95.3851 16.5819 95.4023 16.609 95.4272 16.6276L95.7264 16.7992C95.755 17.6176 96.239 18.5394 96.844 18.931V19.3424C96.844 19.3757 96.8572 19.4076 96.8807 19.4311C96.9042 19.4546 96.9361 19.4678 96.9694 19.4678C97.0025 19.4673 97.034 19.4539 97.0574 19.4305C97.0808 19.4071 97.0942 19.3755 97.0948 19.3424V19.0476C97.1962 19.0885 97.3044 19.1102 97.4138 19.1114C97.5363 19.1124 97.6569 19.0813 97.7636 19.0212C97.8948 18.9308 98.003 18.8108 98.0794 18.671C98.1558 18.5311 98.1984 18.3753 98.2036 18.216L98.3862 18.3216C98.4047 18.333 98.426 18.3391 98.4478 18.3392C98.476 18.3401 98.5036 18.3314 98.5262 18.3146C98.5488 18.2978 98.5652 18.2739 98.5725 18.2467C98.5799 18.2195 98.5779 18.1906 98.5668 18.1647C98.5558 18.1388 98.5363 18.1173 98.5116 18.1038L98.5138 18.1104ZM97.6338 18.81C97.5477 18.8502 97.4531 18.8685 97.3582 18.8631C97.2634 18.8577 97.1714 18.8289 97.0904 18.7792V18.5878C97.0898 18.5547 97.0764 18.5232 97.053 18.4998C97.0297 18.4764 96.9981 18.463 96.965 18.4624C96.9317 18.4624 96.8998 18.4756 96.8763 18.4992C96.8528 18.5227 96.8396 18.5546 96.8396 18.5878V18.6164C96.3633 18.1788 96.0623 17.5831 95.9926 16.94C96.0111 16.9514 96.0324 16.9575 96.0542 16.9576C96.0824 16.9585 96.11 16.9498 96.1326 16.933C96.1552 16.9162 96.1716 16.8923 96.1789 16.8651C96.1863 16.8379 96.1843 16.809 96.1732 16.7831C96.1622 16.7572 96.1427 16.7357 96.118 16.7222L95.9794 16.643C95.9948 16.2932 96.1092 16.0292 96.3006 15.917C96.368 15.8799 96.4437 15.8603 96.5206 15.8598C96.632 15.864 96.7411 15.8933 96.8396 15.9456V16.1392C96.8396 16.1725 96.8528 16.2044 96.8763 16.2279C96.8998 16.2514 96.9317 16.2646 96.965 16.2646C96.9981 16.2641 97.0297 16.2507 97.053 16.2273C97.0764 16.2039 97.0898 16.1723 97.0904 16.1392V16.1106C97.5687 16.5448 97.8722 17.1385 97.944 17.7804C97.9146 17.7647 97.8803 17.7608 97.848 17.7693C97.8158 17.7779 97.788 17.7984 97.7702 17.8266C97.7541 17.8556 97.7499 17.8898 97.7585 17.9218C97.7671 17.9538 97.7879 17.9812 97.8164 17.9982L97.955 18.0774C97.9506 18.4272 97.8362 18.7 97.6426 18.8034L97.6338 18.81ZM99.2618 20.1652C99.2287 20.1658 99.1972 20.1792 99.1738 20.2026C99.1504 20.226 99.137 20.2575 99.1364 20.2906V20.7482L98.7426 20.5282C98.7135 20.5127 98.6795 20.5088 98.6477 20.5173C98.6158 20.5259 98.5884 20.5463 98.571 20.5744C98.5541 20.603 98.5493 20.6371 98.5575 20.6693C98.5658 20.7015 98.5864 20.7291 98.615 20.746L99.22 21.0694C99.2392 21.0789 99.2602 21.0842 99.2816 21.0848C99.304 21.0845 99.326 21.0784 99.3454 21.0672C99.364 21.056 99.3794 21.0402 99.3902 21.0213C99.401 21.0025 99.4068 20.9811 99.407 20.9594V20.284C99.4071 20.2666 99.4035 20.2493 99.3965 20.2333C99.3895 20.2174 99.3793 20.203 99.3665 20.1912C99.3536 20.1794 99.3385 20.1704 99.322 20.1648C99.3055 20.1592 99.288 20.1571 99.2706 20.1586L99.2618 20.1652Z" fill="#FD55A1"/>
<path opacity="0.3" d="M95.5042 18.6406L94.9828 18.3392V17.7364C94.9828 17.7032 94.9696 17.6713 94.9461 17.6477C94.9226 17.6242 94.8907 17.611 94.8574 17.611C94.8243 17.6116 94.7928 17.625 94.7694 17.6484C94.746 17.6718 94.7326 17.7033 94.732 17.7364V18.4118C94.732 18.4339 94.738 18.4555 94.7492 18.4744C94.7604 18.4934 94.7765 18.509 94.7958 18.5196L95.3788 18.8584C95.3988 18.8679 95.4205 18.8731 95.4426 18.8738C95.4646 18.8738 95.4863 18.8679 95.5052 18.8566C95.5242 18.8454 95.5398 18.8293 95.5504 18.81C95.5589 18.796 95.5645 18.7803 95.5667 18.7641C95.569 18.7478 95.5679 18.7313 95.5636 18.7154C95.5544 18.6836 95.5331 18.6567 95.5042 18.6406ZM94.8574 14.4914C94.8907 14.4914 94.9226 14.4782 94.9461 14.4547C94.9696 14.4312 94.9828 14.3993 94.9828 14.366V13.9084L95.3766 14.1284C95.3982 14.1407 95.423 14.1464 95.4478 14.1447C95.4726 14.1431 95.4964 14.1343 95.5163 14.1194C95.5361 14.1044 95.5512 14.084 95.5596 14.0606C95.568 14.0372 95.5694 14.0118 95.5636 13.9876C95.5538 13.9561 95.5326 13.9295 95.5042 13.9128L94.9212 13.5762C94.9021 13.5654 94.8805 13.5598 94.8585 13.5598C94.8365 13.5598 94.8149 13.5654 94.7958 13.5762C94.7765 13.5868 94.7604 13.6024 94.7492 13.6214C94.738 13.6404 94.732 13.662 94.732 13.684V14.366C94.7326 14.3991 94.746 14.4307 94.7694 14.4541C94.7928 14.4775 94.8243 14.4909 94.8574 14.4914ZM99.3344 16.1304L98.7514 15.7938C98.7224 15.7777 98.6883 15.7735 98.6562 15.7821C98.6242 15.7908 98.5968 15.8115 98.5798 15.84C98.5713 15.8541 98.5657 15.8697 98.5635 15.886C98.5612 15.9022 98.5623 15.9188 98.5666 15.9346C98.5749 15.9668 98.5954 15.9944 98.6238 16.0116L99.1452 16.3108V16.9136C99.1458 16.9467 99.1592 16.9783 99.1826 17.0017C99.206 17.0251 99.2375 17.0385 99.2706 17.039C99.3039 17.039 99.3358 17.0258 99.3593 17.0023C99.3828 16.9788 99.396 16.9469 99.396 16.9136V16.2382C99.3958 16.2165 99.39 16.1952 99.3792 16.1763C99.3684 16.1575 99.353 16.1417 99.3344 16.1304ZM98.5138 18.1104L98.2146 17.9388C98.1882 17.1204 97.7042 16.1964 97.0992 15.807V15.4C97.0986 15.3669 97.0852 15.3354 97.0618 15.312C97.0385 15.2886 97.0069 15.2752 96.9738 15.2746C96.9405 15.2746 96.9086 15.2878 96.8851 15.3113C96.8616 15.3349 96.8484 15.3668 96.8484 15.4V15.6838C96.7416 15.6378 96.6258 15.6164 96.5096 15.6214C96.3934 15.6263 96.2799 15.6574 96.1774 15.7124C96.0459 15.802 95.9374 15.9215 95.8609 16.0611C95.7844 16.2006 95.7421 16.3563 95.7374 16.5154L95.5526 16.4076C95.5239 16.3957 95.4918 16.3947 95.4624 16.4047C95.4329 16.4148 95.4082 16.4353 95.3928 16.4623C95.3774 16.4893 95.3724 16.521 95.3787 16.5515C95.3851 16.5819 95.4023 16.609 95.4272 16.6276L95.7264 16.7992C95.755 17.6176 96.239 18.5394 96.844 18.931V19.3424C96.844 19.3757 96.8572 19.4076 96.8807 19.4311C96.9042 19.4546 96.9361 19.4678 96.9694 19.4678C97.0025 19.4673 97.034 19.4539 97.0574 19.4305C97.0808 19.4071 97.0942 19.3755 97.0948 19.3424V19.0476C97.1962 19.0885 97.3044 19.1102 97.4138 19.1114C97.5363 19.1124 97.6569 19.0813 97.7636 19.0212C97.8948 18.9308 98.003 18.8108 98.0794 18.671C98.1558 18.5311 98.1984 18.3753 98.2036 18.216L98.3862 18.3216C98.4047 18.333 98.426 18.3391 98.4478 18.3392C98.476 18.3401 98.5036 18.3314 98.5262 18.3146C98.5488 18.2978 98.5652 18.2739 98.5725 18.2467C98.5799 18.2195 98.5779 18.1906 98.5668 18.1647C98.5558 18.1388 98.5363 18.1173 98.5116 18.1038L98.5138 18.1104ZM97.6338 18.81C97.5477 18.8502 97.4531 18.8685 97.3582 18.8631C97.2634 18.8577 97.1714 18.8289 97.0904 18.7792V18.5878C97.0898 18.5547 97.0764 18.5232 97.053 18.4998C97.0297 18.4764 96.9981 18.463 96.965 18.4624C96.9317 18.4624 96.8998 18.4756 96.8763 18.4992C96.8528 18.5227 96.8396 18.5546 96.8396 18.5878V18.6164C96.3633 18.1788 96.0623 17.5831 95.9926 16.94C96.0111 16.9514 96.0324 16.9575 96.0542 16.9576C96.0824 16.9585 96.11 16.9498 96.1326 16.933C96.1552 16.9162 96.1716 16.8923 96.1789 16.8651C96.1863 16.8379 96.1843 16.809 96.1732 16.7831C96.1622 16.7572 96.1427 16.7357 96.118 16.7222L95.9794 16.643C95.9948 16.2932 96.1092 16.0292 96.3006 15.917C96.368 15.8799 96.4437 15.8603 96.5206 15.8598C96.632 15.864 96.7411 15.8933 96.8396 15.9456V16.1392C96.8396 16.1725 96.8528 16.2044 96.8763 16.2279C96.8998 16.2514 96.9317 16.2646 96.965 16.2646C96.9981 16.2641 97.0297 16.2507 97.053 16.2273C97.0764 16.2039 97.0898 16.1723 97.0904 16.1392V16.1106C97.5687 16.5448 97.8722 17.1385 97.944 17.7804C97.9146 17.7647 97.8803 17.7608 97.848 17.7693C97.8158 17.7779 97.788 17.7984 97.7702 17.8266C97.7541 17.8556 97.7499 17.8898 97.7585 17.9218C97.7671 17.9538 97.7879 17.9812 97.8164 17.9982L97.955 18.0774C97.9506 18.4272 97.8362 18.7 97.6426 18.8034L97.6338 18.81ZM99.2618 20.1652C99.2287 20.1658 99.1972 20.1792 99.1738 20.2026C99.1504 20.226 99.137 20.2575 99.1364 20.2906V20.7482L98.7426 20.5282C98.7135 20.5127 98.6795 20.5088 98.6477 20.5173C98.6158 20.5259 98.5884 20.5463 98.571 20.5744C98.5541 20.603 98.5493 20.6371 98.5575 20.6693C98.5658 20.7015 98.5864 20.7291 98.615 20.746L99.22 21.0694C99.2392 21.0789 99.2602 21.0842 99.2816 21.0848C99.304 21.0845 99.326 21.0784 99.3454 21.0672C99.364 21.056 99.3794 21.0402 99.3902 21.0213C99.401 21.0025 99.4068 20.9811 99.407 20.9594V20.284C99.4071 20.2666 99.4035 20.2493 99.3965 20.2333C99.3895 20.2174 99.3793 20.203 99.3665 20.1912C99.3536 20.1794 99.3385 20.1704 99.322 20.1648C99.3055 20.1592 99.288 20.1571 99.2706 20.1586L99.2618 20.1652Z" fill="white"/>
<path d="M73.8739 69.2495V36.5311C73.8679 36.2249 73.7892 35.9246 73.6442 35.6549C73.4992 35.3852 73.2921 35.1539 73.0401 34.9801L69.4101 32.3621L56.8855 25.1307C55.2817 24.2045 52.6835 24.2045 51.0819 25.1307L13.3365 46.9239C12.5379 47.3859 12.1375 47.9887 12.1353 48.5937V79.7831C12.1349 80.7953 12.401 81.7897 12.9069 82.6663C13.4128 83.543 14.1407 84.271 15.0173 84.7771L19.8001 87.5425C21.9166 88.765 24.3177 89.4086 26.762 89.4086C29.2062 89.4086 31.6073 88.765 33.7239 87.5425L62.1523 71.1283L64.8759 72.7013C66.3785 73.5681 69.4255 73.2183 71.6805 71.9159C73.1017 71.0953 73.8673 70.0943 73.8651 69.2495H73.8739Z" fill="#37474F"/>
<path d="M12.1352 48.5936V79.783C12.1348 80.7952 12.401 81.7896 12.9069 82.6662C13.4128 83.5429 14.1406 84.2709 15.0172 84.777L19.8 87.5424C21.9163 88.7644 24.317 89.4078 26.7608 89.408V54.8878L13.1582 47.0338C12.4828 47.4782 12.1374 48.0348 12.1352 48.5936Z" fill="#263238"/>
<path d="M62.1588 71.1282L64.8824 72.7012C66.385 73.568 69.432 73.2182 71.687 71.9158C73.1082 71.0952 73.8738 70.0942 73.8716 69.2494V36.531C73.8659 36.2251 73.7875 35.9248 73.6429 35.6552C73.4983 35.3855 73.2917 35.1541 73.04 34.98L69.41 32.362L61.2436 38.1238V71.654L62.1588 71.1282Z" fill="#37474F"/>
<path opacity="0.1" d="M64.8824 72.7012C65.5424 73.0818 66.5038 73.2292 67.562 73.161V39.721L67.4322 33.7656L61.2524 38.126V71.654L62.1588 71.1282L64.8824 72.7012Z" fill="black"/>
<path d="M64.427 39.9564C66.187 40.9684 69.432 40.733 71.687 39.4328C73.942 38.1326 74.547 36.1328 73.0488 34.9778L69.4188 32.3598L56.8942 25.1284C55.2904 24.2022 52.6922 24.2022 51.0906 25.1284L13.3364 46.9238C11.7326 47.85 11.7326 49.3438 13.3364 50.2766L19.8066 54.0166C21.9235 55.238 24.3245 55.881 26.7685 55.881C29.2125 55.881 31.6135 55.238 33.7304 54.0166L61.2524 38.126L64.427 39.9564Z" fill="#455A64"/>
<path d="M54.5468 39.0786C54.4506 38.9079 54.3099 38.7665 54.1398 38.6694L37.8048 29.238C37.6356 29.1401 37.4437 29.0885 37.2482 29.0885C37.0527 29.0885 36.8608 29.1401 36.6916 29.238L25.9226 35.4552C25.323 35.8438 24.8575 36.4076 24.5894 37.07L23.1396 41.25L39.4746 50.6792L55.8096 41.25L54.5468 39.0786Z" fill="#455A64"/>
<path d="M54.5468 39.0786C54.4406 38.9048 54.2883 38.7639 54.1068 38.6716L53.5744 38.379L52.5096 37.7938L50.3888 36.6058L46.1648 34.1968L41.9672 31.7438L39.8772 30.5008C39.1864 30.0806 38.489 29.6648 37.8004 29.238C38.5154 29.6208 39.2216 30.0168 39.9322 30.4062L42.053 31.5942L46.277 34.0032L50.4746 36.4562L52.5624 37.6992L53.603 38.3284L54.1222 38.643C54.3019 38.7454 54.449 38.8964 54.5468 39.0786Z" fill="#263238"/>
<path d="M25.1548 36.1438C24.9125 36.4208 24.7204 36.7379 24.5872 37.081L23.1374 41.261L39.4724 50.6924L41.3886 49.5924L43.0034 46.4508L25.1548 36.1438Z" fill="#37474F"/>
<path d="M40.92 46.5124C41.1881 45.85 41.6536 45.2862 42.2532 44.8976L53.0332 38.6804C53.1603 38.607 53.3006 38.5594 53.4462 38.5402C53.5917 38.521 53.7396 38.5307 53.8814 38.5687C54.0231 38.6067 54.1561 38.6723 54.2725 38.7617C54.3889 38.851 54.4866 38.9625 54.56 39.0896L55.8162 41.2654V42.3126L39.4724 51.744V50.6968L40.92 46.5124Z" fill="#263238"/>
<path d="M52.5052 40.04L43.1024 45.4674C42.7426 45.6998 42.4636 46.0379 42.3038 46.4354L41.4854 48.796C41.3644 49.1458 41.525 49.28 41.8462 49.0952L53.7614 42.2158C53.8385 42.1727 53.9062 42.1146 53.9604 42.0448C54.0146 41.9751 54.0543 41.8952 54.0771 41.8098C54.0998 41.7245 54.1052 41.6354 54.093 41.548C54.0807 41.4605 54.051 41.3764 54.0056 41.3006L53.4204 40.2842C53.3312 40.1307 53.1848 40.0188 53.0133 39.973C52.8417 39.9273 52.659 39.9513 52.5052 40.04Z" fill="#37474F"/>
<path d="M55.8996 48.191L55.6796 48.1734H55.5124H55.3166H55.266H55.0328H54.9998C54.9228 48.1734 54.848 48.1734 54.7798 48.1866L54.5136 48.213C53.108 48.4034 51.756 48.8788 50.5404 49.61C44.6004 53.0068 39.7472 61.314 39.7164 68.1582C39.6753 69.6032 39.9352 71.0409 40.4798 72.38C40.581 72.6 40.6888 72.82 40.8032 73.0246C40.856 73.1214 40.911 73.2138 40.9704 73.3062L40.9968 73.348C41.043 73.4228 41.0936 73.4932 41.142 73.568L41.1728 73.612L39.6482 71.5726L39.6196 71.5374C39.5914 71.5059 39.5649 71.4729 39.5404 71.4384L39.4634 71.335C39.448 71.313 39.4326 71.2932 39.4194 71.2712C38.5658 70.0722 38.084 68.3826 38.0994 66.2816C38.1258 59.9676 42.5962 52.3028 48.083 49.1678C49.6758 48.257 51.1784 47.8302 52.5116 47.8478C52.7418 47.8482 52.9717 47.8621 53.2002 47.8896H53.2266L55.8996 48.191Z" fill="#263238"/>
<path d="M45.98 76.8482C46.1865 77.0253 46.4072 77.1849 46.64 77.3256L42.8362 75.1256C42.828 75.1229 42.821 75.1174 42.8164 75.1102L42.7724 75.086C40.865 73.9442 39.6924 71.544 39.71 68.1516C39.7408 61.3052 44.583 52.998 50.5318 49.6012C52.2566 48.6134 53.8868 48.1514 55.33 48.158C56.311 48.1473 57.2771 48.3987 58.1284 48.8862L61.8376 51.04C59.9192 50.0236 57.3078 50.2128 54.4258 51.8584C48.4858 55.2596 43.6458 63.5624 43.604 70.4132C43.5831 71.5533 43.7367 72.6899 44.0594 73.7836C44.392 74.9684 45.0588 76.0323 45.98 76.8482Z" fill="#37474F"/>
<path d="M53.6404 81.2724C53.8468 81.4502 54.0676 81.6106 54.3004 81.752L50.4966 79.552C50.4891 79.5492 50.4823 79.5447 50.4768 79.5388L50.4328 79.5146C48.5254 78.3706 47.3528 75.9726 47.3682 72.578C47.399 65.7338 52.2434 57.4244 58.1922 54.0298C59.917 53.042 61.5472 52.5778 62.9904 52.5844C63.9685 52.577 64.931 52.829 65.78 53.3148L69.4958 55.4598C67.5774 54.4412 64.966 54.6326 62.084 56.276C56.144 59.6772 51.293 67.98 51.2622 74.8308C51.2414 75.9716 51.3949 77.1089 51.7176 78.2034C52.0486 79.3906 52.7165 80.4566 53.6404 81.2724Z" fill="#37474F"/>
<path d="M49.7464 79.0262C49.9525 79.2038 50.1733 79.3635 50.4064 79.5036L46.6004 77.3036C46.5936 77.2996 46.5877 77.2944 46.5828 77.2882L46.5388 77.264C44.6314 76.1222 43.4588 73.722 43.4742 70.3274C43.505 63.4832 48.3494 55.176 54.296 51.7792C56.0208 50.7914 57.6532 50.3294 59.0942 50.336C60.0759 50.3253 61.0426 50.5767 61.8948 51.0642L65.6084 53.207C63.69 52.1884 61.0808 52.3798 58.1966 54.0254C52.2566 57.4244 47.4166 65.7294 47.3748 72.578C47.3556 73.7189 47.5099 74.8561 47.8324 75.9506C48.1612 77.1386 48.8258 78.2065 49.7464 79.0262Z" fill="#455A64"/>
<path d="M44.1364 65.7382L48.037 67.991C48.0568 67.9162 48.0788 67.8436 48.0986 67.771L44.198 65.5182L44.1364 65.7382ZM44.6974 63.9782L48.598 66.22C48.6222 66.1496 48.6486 66.077 48.675 66L44.7744 63.7472L44.6974 63.9782ZM45.3816 62.2776L49.28 64.5194L49.3724 64.317L45.474 62.0642L45.3816 62.2776ZM46.1824 60.6452L50.083 62.8958L50.1864 62.6978L46.288 60.4384L46.1824 60.6452ZM47.6696 69.6234L43.78 67.364C43.7646 67.441 43.7492 67.518 43.736 67.5972L47.6366 69.8478C47.6388 69.7708 47.6542 69.6938 47.6696 69.6146V69.6234ZM43.9472 73.7638C43.9824 73.8738 44.0198 73.9838 44.0572 74.0872L47.96 76.34C47.9226 76.2344 47.8874 76.12 47.8522 76.021L43.9472 73.7638ZM47.4144 73.6714L43.5138 71.4186C43.5138 71.511 43.5292 71.6012 43.538 71.6892L47.4364 73.942C47.4276 73.843 47.421 73.7528 47.4144 73.6626V73.6714ZM47.4144 71.577L43.516 69.3154C43.516 69.399 43.505 69.4804 43.5006 69.564L47.4012 71.8168C47.4056 71.7332 47.4122 71.6518 47.4166 71.5682L47.4144 71.577ZM47.0888 59.0722L50.9894 61.325L51.1082 61.1358L47.212 58.8764L47.0888 59.0722ZM53.4908 52.2896L57.387 54.538L57.596 54.4016L53.702 52.14L53.4908 52.2896ZM55.3366 51.26L59.2284 53.5062C59.312 53.4666 59.3978 53.4314 59.4814 53.394L55.583 51.1434C55.5038 51.1698 55.4202 51.2116 55.3388 51.26H55.3366ZM57.9766 50.4328C57.8666 50.4482 57.7566 50.4746 57.64 50.4944L61.5318 52.7428C61.6462 52.7208 61.7518 52.6988 61.8728 52.6812L57.9766 50.4328ZM51.9046 53.46L55.803 55.7106L55.9834 55.5566L52.0872 53.306L51.9046 53.46ZM50.4988 54.7448L54.3972 56.9954L54.5622 56.8304L50.6638 54.5798L50.4988 54.7448ZM48.1118 57.5564L52.0102 59.807C52.0542 59.7476 52.096 59.686 52.1422 59.6244L48.2416 57.3738L48.1118 57.5564ZM49.2426 56.1132L53.141 58.3638L53.2906 58.1922L49.39 55.9416L49.2426 56.1132Z" fill="#263238"/>
<path d="M58.4144 79.673C58.3814 86.911 63.4502 89.8678 69.7356 86.273C76.021 82.6782 81.1426 73.9024 81.1756 66.6644C81.2086 59.4264 76.1398 56.4696 69.8544 60.0644C63.569 63.6592 58.4474 72.435 58.4144 79.673Z" fill="#263238"/>
<path d="M70.1624 54.8042L69.8192 54.604C67.7908 53.5282 65.0298 53.724 61.9828 55.4686C55.6952 59.0634 50.5736 67.8436 50.5428 75.086C50.5232 76.2914 50.6856 77.493 51.0246 78.65C51.3802 79.9013 52.0817 81.0269 53.0486 81.8972C53.2683 82.0838 53.5022 82.253 53.7482 82.4032H53.7636C53.7759 82.4115 53.7892 82.4182 53.8032 82.423L53.8538 82.4538L54.0408 82.5616L61.6528 86.9968C61.3394 86.7991 61.0448 86.573 60.7728 86.3214C59.2966 84.9574 58.4276 82.6826 58.4408 79.6686C58.4738 72.4306 63.5954 63.646 69.8808 60.0556C72.4944 58.564 74.899 58.2032 76.813 58.817C77.1331 58.9142 77.4426 59.0432 77.737 59.202L70.1624 54.8042Z" fill="#455A64"/>
<path d="M87.9736 71.2932C87.9428 78.1418 83.0984 86.4468 77.1496 89.8414C75.4248 90.8292 73.7924 91.2978 72.3514 91.2912C71.3781 91.2994 70.4198 91.0513 69.5728 90.5718H69.5574L63.2192 86.9374L63.0608 86.8494C62.7653 86.6626 62.4877 86.4491 62.2314 86.2114C60.8344 84.9222 60.0116 82.7684 60.0314 79.9194C60.06 73.0642 64.9 64.757 70.84 61.3602C73.3128 59.9478 75.5876 59.6002 77.396 60.1876C77.7011 60.2787 77.996 60.4011 78.276 60.5528L78.3244 60.577L78.628 60.7552L84.8496 64.3192C86.7922 65.4478 87.9868 67.8612 87.9736 71.2932Z" fill="#37474F"/>
<path d="M83.2898 62.2314C81.2438 61.0302 78.4102 61.1798 75.2642 62.9772C68.9744 66.5698 63.8506 75.3566 63.8242 82.599C63.8088 86.1476 65.021 88.6578 66.9988 89.8788C67.6588 90.2902 72.1248 92.7212 72.754 93.093C74.8022 94.2986 77.6402 94.1512 80.7906 92.3516C87.0782 88.759 92.2042 79.9722 92.2306 72.7298C92.246 69.1526 91.014 66.6314 89.0076 65.4214C88.352 65.0254 83.9234 62.601 83.2898 62.2314Z" fill="#455A64"/>
<path d="M69.454 85.7428C69.421 92.9874 74.4942 95.9464 80.7818 92.3428C87.0694 88.7392 92.1976 79.9634 92.2218 72.721C92.246 65.4786 87.1816 62.5174 80.8918 66.121C74.602 69.7246 69.487 78.4982 69.454 85.7428Z" fill="#263238"/>
<path d="M75.6052 92.1162C72.1996 92.1008 71.8476 88.0792 71.8652 86.3522C71.896 79.607 76.868 71.0842 82.7222 67.738C84.1676 66.913 85.5448 66.4774 86.702 66.484C90.1098 66.4994 90.4596 70.5188 90.453 72.248C90.4222 78.991 85.4502 87.516 79.5938 90.86C78.1484 91.6872 76.7712 92.1206 75.614 92.1162H75.6052Z" fill="black"/>
<path d="M75.6052 92.1162C72.1996 92.1008 71.8476 88.0792 71.8652 86.3522C71.896 79.607 76.868 71.0842 82.7222 67.738C84.1676 66.913 85.5448 66.4774 86.702 66.484C90.1098 66.4994 90.4596 70.5188 90.453 72.248C90.4222 78.991 85.4502 87.516 79.5938 90.86C78.1484 91.6872 76.7712 92.1206 75.614 92.1162H75.6052Z" fill="black"/>
<path d="M87.7558 70.697C87.7558 69.6652 87.637 67.815 86.8098 66.4884H86.6932C85.536 66.4884 84.1588 66.9174 82.7134 67.7424C76.8592 71.0886 71.8872 79.6224 71.8564 86.3566C71.8564 87.3884 71.9752 89.2386 72.8024 90.5652H72.9168C74.0762 90.5652 75.4512 90.1252 76.8988 89.309C82.753 85.9628 87.725 77.44 87.7558 70.697Z" fill="#FD55A1"/>
<path opacity="0.2" d="M87.7558 70.697C87.7558 69.6652 87.637 67.815 86.8098 66.4884H86.6932C85.536 66.4884 84.1588 66.9174 82.7134 67.7424C76.8592 71.0886 71.8872 79.6224 71.8564 86.3566C71.8564 87.3884 71.9752 89.2386 72.8024 90.5652H72.9168C74.0762 90.5652 75.4512 90.1252 76.8988 89.309C82.753 85.9628 87.725 77.44 87.7558 70.697Z" fill="black"/>
<path opacity="0.1" d="M82.4802 67.8788C76.7272 71.3152 71.885 79.6994 71.8564 86.3588V86.3742C73.2402 87.4896 75.3236 87.5116 77.66 86.1762C81.8576 83.7782 85.2764 77.9174 85.2962 73.0862C85.3094 70.3164 84.2072 68.4904 82.4802 67.8788Z" fill="black"/>
<path opacity="0.2" d="M78.1396 71.5682C75.7671 74.2602 73.9617 77.4027 72.831 80.8082C73.0774 83.49 75.1476 84.5086 77.671 83.0654C80.3726 81.5254 82.5748 77.7458 82.5902 74.6328C82.6078 71.6716 80.6476 70.378 78.1396 71.5682Z" fill="black"/>
<path d="M80.4562 71.3768C82.8432 68.3672 85.844 67.8568 86.4358 68.8204C87.0276 69.784 87.0298 79.8798 78.1506 87.0144C78.1506 87.0144 83.259 81.7124 84.7792 75.6316C86.2202 69.8698 83.1402 68.9854 80.4562 71.3768Z" fill="#FD55A1"/>
<path opacity="0.3" d="M80.4562 71.3768C82.8432 68.3672 85.844 67.8568 86.4358 68.8204C87.0276 69.784 87.0298 79.8798 78.1506 87.0144C78.1506 87.0144 83.259 81.7124 84.7792 75.6316C86.2202 69.8698 83.1402 68.9854 80.4562 71.3768Z" fill="white"/>
<path opacity="0.15" d="M69.454 85.7428C69.457 85.0926 69.4988 84.4432 69.5794 83.798L63.954 80.5486C64.0002 80.2032 64.0486 79.8886 64.1014 79.585L60.2382 77.3542L58.575 77.4422L50.6902 72.8904C50.7342 72.556 50.787 72.2304 50.8442 71.9312L38.1942 64.6272C38.1278 65.1733 38.0926 65.7227 38.0886 66.2728C38.0886 68.3738 38.5594 70.0634 39.4086 71.2624C39.4218 71.2844 39.4372 71.3042 39.4526 71.3262L39.5296 71.4296C39.5541 71.4641 39.5805 71.4971 39.6088 71.5286L39.6374 71.5638L41.162 73.6032L41.1312 73.5592C41.0828 73.4888 41.0322 73.4184 40.986 73.3392C40.9771 73.3265 40.9691 73.3133 40.9618 73.2996C41.4129 74.0283 42.0294 74.6403 42.7614 75.086L42.8054 75.1124L42.8252 75.1256L46.596 77.3036L50.402 79.5036C50.369 79.4838 50.336 79.464 50.3052 79.442L50.4284 79.5168L50.4724 79.541L50.4922 79.5542L51.711 80.2582C52.0553 80.8732 52.5016 81.4253 53.031 81.8906C53.2501 82.0776 53.4833 82.2475 53.7284 82.3988H53.7438C53.7575 82.4079 53.7723 82.4153 53.7878 82.4208L53.8362 82.4494L54.0232 82.5594L61.6352 86.9946C61.5472 86.9396 61.4658 86.8846 61.3822 86.8274C62.3728 87.4853 63.5418 87.8224 64.7306 87.7932L65.153 88.0352C65.6171 88.7769 66.2428 89.4041 66.9834 89.87C67.584 90.2396 71.2668 92.2504 72.4482 92.9192C70.5782 91.6652 69.4386 89.1902 69.454 85.7428Z" fill="black"/>
<path d="M49.599 32.6788C49.2946 32.5311 48.9606 32.4543 48.6222 32.4543C48.2838 32.4543 47.9498 32.5311 47.6454 32.6788H47.19V33.2772C47.2001 33.4037 47.2441 33.5252 47.3172 33.6289C47.3904 33.7326 47.49 33.8148 47.6058 33.8668C47.9197 34.0262 48.2668 34.1093 48.6189 34.1093C48.971 34.1093 49.3181 34.0262 49.632 33.8668C49.7481 33.8162 49.8485 33.7355 49.9228 33.633C49.9971 33.5304 50.0425 33.4099 50.0544 33.2838V32.6832L49.599 32.6788Z" fill="#263238"/>
<path d="M47.6124 32.0848C47.0514 32.4038 47.0492 32.9274 47.6124 33.2552C47.9266 33.4136 48.2736 33.4961 48.6255 33.4961C48.9774 33.4961 49.3244 33.4136 49.6386 33.2552C50.1996 32.934 50.2018 32.4104 49.6386 32.0848C49.3247 31.9254 48.9776 31.8423 48.6255 31.8423C48.2734 31.8423 47.9263 31.9254 47.6124 32.0848Z" fill="#37474F"/>
<path d="M53.3324 31.4072V30.8H52.877C52.5719 30.6533 52.2377 30.5772 51.8991 30.5772C51.5606 30.5772 51.2263 30.6533 50.9212 30.8H50.468V31.4006C50.4795 31.527 50.5242 31.6482 50.5976 31.7517C50.671 31.8553 50.7705 31.9375 50.886 31.9902C51.2002 32.1486 51.5472 32.2311 51.8991 32.2311C52.251 32.2311 52.598 32.1486 52.9122 31.9902C53.0275 31.9388 53.1271 31.8577 53.2009 31.7553C53.2747 31.6529 53.3201 31.5328 53.3324 31.4072Z" fill="#263238"/>
<path d="M50.8904 30.2104C50.3294 30.5316 50.3272 31.0552 50.8904 31.3808C51.2043 31.5402 51.5514 31.6233 51.9035 31.6233C52.2556 31.6233 52.6027 31.5402 52.9166 31.3808C53.4776 31.0596 53.4798 30.536 52.9166 30.2104C52.6027 30.051 52.2556 29.9679 51.9035 29.9679C51.5514 29.9679 51.2043 30.051 50.8904 30.2104Z" fill="#37474F"/>
<path d="M52.8616 34.5818C52.557 34.4347 52.2231 34.3583 51.8848 34.3583C51.5465 34.3583 51.2126 34.4347 50.908 34.5818H50.4526V35.1802C50.4623 35.3068 50.506 35.4285 50.5792 35.5323C50.6524 35.6361 50.7524 35.7182 50.8684 35.7698C51.1823 35.9292 51.5294 36.0123 51.8815 36.0123C52.2336 36.0123 52.5807 35.9292 52.8946 35.7698C53.0107 35.7192 53.1111 35.6385 53.1854 35.5359C53.2597 35.4334 53.3051 35.3128 53.317 35.1868V34.584L52.8616 34.5818Z" fill="#263238"/>
<path d="M50.875 33.9878C50.314 34.3068 50.3118 34.8326 50.875 35.1582C51.1891 35.3171 51.5361 35.3999 51.8881 35.3999C52.2401 35.3999 52.5871 35.3171 52.9012 35.1582C53.4622 34.837 53.4644 34.3134 52.9012 33.9878C52.5873 33.8284 52.2402 33.7453 51.8881 33.7453C51.536 33.7453 51.1889 33.8284 50.875 33.9878Z" fill="#37474F"/>
<path d="M56.595 33.3102V32.7096H56.1396C55.8349 32.563 55.501 32.4868 55.1628 32.4868C54.8246 32.4868 54.4908 32.563 54.186 32.7096H53.7284V33.3102C53.7396 33.4364 53.7842 33.5574 53.8577 33.6606C53.9311 33.7639 54.0308 33.8457 54.1464 33.8976C54.4605 34.0565 54.8075 34.1393 55.1595 34.1393C55.5115 34.1393 55.8585 34.0565 56.1726 33.8976C56.2889 33.8461 56.3893 33.7645 56.4636 33.6613C56.5378 33.558 56.5832 33.4368 56.595 33.3102Z" fill="#263238"/>
<path d="M54.153 32.12C53.592 32.4412 53.5898 32.9648 54.153 33.2904C54.4669 33.4498 54.814 33.5329 55.1661 33.5329C55.5182 33.5329 55.8653 33.4498 56.1792 33.2904C56.7402 32.9692 56.7424 32.4456 56.1792 32.12C55.8653 31.9606 55.5182 31.8775 55.1661 31.8775C54.814 31.8775 54.4669 31.9606 54.153 32.12Z" fill="#37474F"/>
<path d="M29.26 49.72V47.52H27.6034C25.6058 46.42 22.5016 46.42 20.4952 47.4892H18.8386V49.7134C18.8386 50.4834 19.3358 51.2534 20.3544 51.8518C22.3828 53.0354 25.6828 53.0508 27.7244 51.8848C28.7452 51.2732 29.26 50.501 29.26 49.72Z" fill="#263238"/>
<path d="M24.3958 52.7142C24.4816 52.7142 24.5652 52.7142 24.6488 52.701V46.6994L24.3958 46.6862V52.7142Z" fill="black"/>
<path d="M26.543 47.0558L26.29 46.9788V52.4326C26.3758 52.4106 26.4594 52.3864 26.543 52.36V47.0558Z" fill="black"/>
<path d="M27.5 47.443C27.4164 47.4012 27.335 47.3572 27.2492 47.3198V52.0982C27.335 52.0608 27.4164 52.019 27.5 51.9772V47.443Z" fill="black"/>
<path d="M25.5948 46.8204L25.344 46.7764V52.6284C25.4276 52.6167 25.5112 52.6035 25.5948 52.5888V46.8204Z" fill="black"/>
<path d="M29.1302 50.38C29.2149 50.1702 29.259 49.9462 29.26 49.72V47.52H29.1258L29.1302 50.38Z" fill="black"/>
<path d="M28.1842 51.5482C28.2722 51.4822 28.358 51.414 28.4372 51.3436V47.5068H28.1842V51.5482Z" fill="black"/>
<path d="M22.7546 46.7676L22.5038 46.8094V52.58C22.5874 52.5961 22.671 52.6093 22.7546 52.6196V46.7676Z" fill="black"/>
<path d="M18.9684 47.465H18.843V49.6892C18.8435 49.9216 18.8891 50.1517 18.9772 50.3668L18.9684 47.465Z" fill="black"/>
<path d="M19.6636 51.3282C19.7406 51.3986 19.8264 51.4668 19.9144 51.5328V47.4694H19.6636V51.3282Z" fill="black"/>
<path d="M21.8086 46.9634C21.7228 46.9854 21.6392 47.0118 21.5556 47.0382V52.36C21.6392 52.3864 21.7228 52.4106 21.8086 52.4326V46.9634Z" fill="black"/>
<path d="M23.7028 46.684C23.617 46.684 23.5334 46.684 23.4498 46.6972V52.6988C23.5334 52.6988 23.617 52.7098 23.7028 52.712V46.684Z" fill="black"/>
<path d="M20.6096 51.9618C20.691 52.0036 20.7746 52.0454 20.8626 52.0828V47.3C20.7746 47.3396 20.6932 47.3814 20.6096 47.4232V51.9618Z" fill="black"/>
<path d="M20.3786 45.342C18.337 46.508 18.3282 48.422 20.3588 49.599C22.3894 50.776 25.6894 50.798 27.7288 49.632C29.7682 48.466 29.7792 46.552 27.7486 45.3772C25.718 44.2024 22.418 44.176 20.3786 45.342Z" fill="#37474F"/>
<path d="M23.6654 45.4608C23.6198 45.4768 23.5804 45.5066 23.5525 45.546C23.5245 45.5854 23.5095 45.6325 23.5095 45.6808C23.5095 45.7291 23.5245 45.7762 23.5525 45.8156C23.5804 45.855 23.6198 45.8848 23.6654 45.9008C23.7836 45.9611 23.9144 45.9925 24.0471 45.9925C24.1798 45.9925 24.3106 45.9611 24.4288 45.9008C24.4744 45.8848 24.5138 45.855 24.5417 45.8156C24.5697 45.7762 24.5847 45.7291 24.5847 45.6808C24.5847 45.6325 24.5697 45.5854 24.5417 45.546C24.5138 45.5066 24.4744 45.4768 24.4288 45.4608C24.3106 45.4005 24.1798 45.3691 24.0471 45.3691C23.9144 45.3691 23.7836 45.4005 23.6654 45.4608Z" fill="#E0E0E0"/>
<path d="M21.3686 45.9052C21.323 45.9212 21.2836 45.951 21.2557 45.9904C21.2277 46.0298 21.2127 46.0769 21.2127 46.1252C21.2127 46.1735 21.2277 46.2206 21.2557 46.26C21.2836 46.2994 21.323 46.3292 21.3686 46.3452C21.4868 46.4055 21.6176 46.4369 21.7503 46.4369C21.883 46.4369 22.0138 46.4055 22.132 46.3452C22.1786 46.3303 22.2193 46.3009 22.2482 46.2614C22.277 46.2218 22.2926 46.1741 22.2926 46.1252C22.2926 46.0762 22.277 46.0286 22.2482 45.989C22.2193 45.9495 22.1786 45.9201 22.132 45.9052C22.0138 45.8449 21.883 45.8135 21.7503 45.8135C21.6176 45.8135 21.4868 45.8449 21.3686 45.9052Z" fill="#E0E0E0"/>
<path d="M19.9474 47.2428C19.9018 47.2588 19.8624 47.2886 19.8345 47.328C19.8065 47.3674 19.7915 47.4145 19.7915 47.4628C19.7915 47.5111 19.8065 47.5582 19.8345 47.5976C19.8624 47.637 19.9018 47.6668 19.9474 47.6828C20.0658 47.7424 20.1965 47.7734 20.3291 47.7734C20.4617 47.7734 20.5924 47.7424 20.7108 47.6828C20.7564 47.6668 20.7958 47.637 20.8237 47.5976C20.8517 47.5582 20.8667 47.5111 20.8667 47.4628C20.8667 47.4145 20.8517 47.3674 20.8237 47.328C20.7958 47.2886 20.7564 47.2588 20.7108 47.2428C20.5926 47.1825 20.4618 47.1511 20.3291 47.1511C20.1964 47.1511 20.0656 47.1825 19.9474 47.2428Z" fill="#E0E0E0"/>
<path d="M26.6838 45.9052C26.7294 45.9212 26.7688 45.951 26.7967 45.9904C26.8247 46.0298 26.8397 46.0769 26.8397 46.1252C26.8397 46.1735 26.8247 46.2206 26.7967 46.26C26.7688 46.2994 26.7294 46.3292 26.6838 46.3452C26.5656 46.4055 26.4348 46.4369 26.3021 46.4369C26.1694 46.4369 26.0386 46.4055 25.9204 46.3452C25.8748 46.3292 25.8354 46.2994 25.8075 46.26C25.7795 46.2206 25.7645 46.1735 25.7645 46.1252C25.7645 46.0769 25.7795 46.0298 25.8075 45.9904C25.8354 45.951 25.8748 45.9212 25.9204 45.9052C26.0386 45.8449 26.1694 45.8135 26.3021 45.8135C26.4348 45.8135 26.5656 45.8449 26.6838 45.9052Z" fill="#43BAFC"/>
<path d="M23.6654 49.5572C23.6198 49.5412 23.5804 49.5114 23.5525 49.472C23.5245 49.4326 23.5095 49.3855 23.5095 49.3372C23.5095 49.2889 23.5245 49.2418 23.5525 49.2024C23.5804 49.163 23.6198 49.1332 23.6654 49.1172C23.7836 49.0569 23.9144 49.0255 24.0471 49.0255C24.1798 49.0255 24.3106 49.0569 24.4288 49.1172C24.4744 49.1332 24.5138 49.163 24.5417 49.2024C24.5697 49.2418 24.5847 49.2889 24.5847 49.3372C24.5847 49.3855 24.5697 49.4326 24.5417 49.472C24.5138 49.5114 24.4744 49.5412 24.4288 49.5572C24.3106 49.6175 24.1798 49.6489 24.0471 49.6489C23.9144 49.6489 23.7836 49.6175 23.6654 49.5572Z" fill="#E0E0E0"/>
<path d="M21.3686 49.1128C21.323 49.0968 21.2836 49.067 21.2557 49.0276C21.2277 48.9882 21.2127 48.9411 21.2127 48.8928C21.2127 48.8445 21.2277 48.7974 21.2557 48.758C21.2836 48.7186 21.323 48.6888 21.3686 48.6728C21.4868 48.6125 21.6176 48.5811 21.7503 48.5811C21.883 48.5811 22.0138 48.6125 22.132 48.6728C22.1786 48.6877 22.2193 48.7171 22.2482 48.7566C22.277 48.7962 22.2926 48.8438 22.2926 48.8928C22.2926 48.9418 22.277 48.9894 22.2482 49.029C22.2193 49.0685 22.1786 49.0979 22.132 49.1128C22.0138 49.1731 21.883 49.2045 21.7503 49.2045C21.6176 49.2045 21.4868 49.1731 21.3686 49.1128Z" fill="#E0E0E0"/>
<path d="M26.6838 49.1128C26.7294 49.0968 26.7688 49.067 26.7967 49.0276C26.8247 48.9882 26.8397 48.9411 26.8397 48.8928C26.8397 48.8445 26.8247 48.7974 26.7967 48.758C26.7688 48.7186 26.7294 48.6888 26.6838 48.6728C26.5656 48.6125 26.4348 48.5811 26.3021 48.5811C26.1694 48.5811 26.0386 48.6125 25.9204 48.6728C25.8748 48.6888 25.8354 48.7186 25.8075 48.758C25.7795 48.7974 25.7645 48.8445 25.7645 48.8928C25.7645 48.9411 25.7795 48.9882 25.8075 49.0276C25.8354 49.067 25.8748 49.0968 25.9204 49.1128C26.0386 49.1731 26.1694 49.2045 26.3021 49.2045C26.4348 49.2045 26.5656 49.1731 26.6838 49.1128Z" fill="#E0E0E0"/>
<path d="M28.105 47.2428C28.1516 47.2577 28.1923 47.2871 28.2212 47.3266C28.25 47.3662 28.2656 47.4139 28.2656 47.4628C28.2656 47.5118 28.25 47.5594 28.2212 47.599C28.1923 47.6385 28.1516 47.6679 28.105 47.6828C27.9866 47.7426 27.8559 47.7737 27.7233 47.7737C27.5907 47.7737 27.46 47.7426 27.3416 47.6828C27.296 47.6668 27.2566 47.637 27.2287 47.5976C27.2007 47.5582 27.1857 47.5111 27.1857 47.4628C27.1857 47.4145 27.2007 47.3674 27.2287 47.328C27.2566 47.2886 27.296 47.2588 27.3416 47.2428C27.4598 47.1825 27.5906 47.1511 27.7233 47.1511C27.856 47.1511 27.9868 47.1825 28.105 47.2428Z" fill="#E0E0E0"/>
<path d="M24.0812 50.0236C22.867 50.0517 21.6664 49.7644 20.5964 49.1898C19.767 48.7058 19.3116 48.0898 19.3138 47.465C19.316 46.8402 19.778 46.2308 20.6118 45.7534C21.6636 45.2008 22.8384 44.9245 24.0262 44.9504C25.2403 44.9231 26.4408 45.2103 27.511 45.7842C28.3404 46.2682 28.7958 46.8842 28.7936 47.509C28.7914 48.1338 28.3294 48.7454 27.4956 49.2206C26.4442 49.7741 25.2691 50.0505 24.0812 50.0236ZM24.0262 45.0142C22.8492 44.9878 21.6849 45.2611 20.6426 45.8084C19.8286 46.2726 19.3798 46.8622 19.3776 47.4672C19.3754 48.0722 19.8176 48.664 20.6294 49.1348C21.6892 49.7042 22.8785 49.9892 24.0812 49.962C25.2581 49.9873 26.4221 49.7141 27.4648 49.1678C28.2766 48.7014 28.7276 48.114 28.7298 47.509C28.732 46.904 28.2898 46.3122 27.478 45.8392C26.4181 45.2703 25.2288 44.986 24.0262 45.0142Z" fill="#E0E0E0"/>
<path d="M36.9006 55.8206C36.6366 55.6688 36.2604 55.6952 35.8424 55.935L33.3014 57.4024C32.4984 57.8666 31.8494 58.9424 31.8494 59.8224C31.8331 59.9854 31.8609 60.1497 31.9297 60.2983C31.9986 60.4469 32.1061 60.5743 32.241 60.6672C32.3972 60.7596 32.9956 61.1072 33.1518 61.193C33.4158 61.347 33.7898 61.3206 34.2078 61.0786L36.751 59.6112C37.5518 59.1492 38.2008 58.0712 38.2008 57.2022C38.2173 57.0389 38.1896 56.8742 38.1207 56.7252C38.0519 56.5762 37.9443 56.4484 37.8092 56.3552L36.9006 55.8206Z" fill="#263238"/>
<path d="M34.2078 57.9282L36.751 56.4586C37.5518 55.9966 38.2008 56.3244 38.2008 57.1934C38.2008 58.0624 37.5518 59.1404 36.751 59.6024L34.2078 61.0698C33.407 61.534 32.7558 61.204 32.7558 60.3372C32.7558 59.4704 33.407 58.3902 34.2078 57.9282Z" fill="#455A64"/>
<path d="M58.5332 28.2062C58.5332 28.1226 58.443 28.0544 58.267 28.0192L54.56 27.3086C54.34 27.2646 54.1992 27.3416 54.1992 27.4912V28.1512C54.2033 28.2297 54.2284 28.3057 54.2718 28.3712L55.297 30.1488C55.3364 30.2171 55.3889 30.277 55.4515 30.3251C55.5141 30.3731 55.5855 30.4084 55.6617 30.4288C55.7379 30.4492 55.8174 30.4545 55.8956 30.4442C55.9739 30.4339 56.0493 30.4083 56.1176 30.3688L58.3286 29.0928C58.4606 29.0158 58.5244 28.9366 58.5244 28.8728L58.5332 28.2062Z" fill="#263238"/>
<path d="M61.8794 31.5876C61.8753 31.5094 61.8511 31.4336 61.809 31.3676L60.7838 29.5922C60.7444 29.5238 60.6919 29.4639 60.6293 29.4159C60.5667 29.3678 60.4953 29.3326 60.4191 29.3122C60.3429 29.2917 60.2634 29.2865 60.1852 29.2968C60.1069 29.3071 60.0315 29.3327 59.9632 29.3722L57.75 30.6482C57.6202 30.7252 57.5542 30.8044 57.5542 30.8682V31.5282C57.5542 31.6118 57.6444 31.6822 57.8204 31.7152L61.5186 32.428C61.7496 32.472 61.8816 32.3928 61.8816 32.2432C61.8794 32.1816 61.8794 31.702 61.8794 31.5876Z" fill="#263238"/>
<path d="M56.1242 29.711L58.3374 28.4328C58.6234 28.2678 58.5926 28.083 58.267 28.0192L54.56 27.3086C54.2344 27.2448 54.1046 27.4274 54.2718 27.7134L55.297 29.491C55.3364 29.5602 55.3892 29.6209 55.4523 29.6695C55.5154 29.7181 55.5876 29.7537 55.6645 29.7742C55.7415 29.7947 55.8218 29.7996 55.9007 29.7888C55.9796 29.7779 56.0556 29.7515 56.1242 29.711Z" fill="#37474F"/>
<path d="M57.75 30.6482L59.9632 29.3722C60.0315 29.3327 60.107 29.3071 60.1852 29.2968C60.2634 29.2865 60.3429 29.2917 60.4191 29.3122C60.4953 29.3326 60.5667 29.3678 60.6293 29.4159C60.6919 29.4639 60.7444 29.5238 60.7838 29.5922L61.809 31.3676C61.974 31.6558 61.8442 31.8362 61.5186 31.7746L57.8204 31.0618C57.4948 31.0002 57.464 30.8154 57.75 30.6482Z" fill="#37474F"/>
<path d="M70.4242 35.0526C69.2362 34.2254 67.2122 34.0516 65.9032 34.6654C65.2432 34.9756 64.889 35.4288 64.856 35.9062C64.856 35.9854 64.823 36.3088 64.8142 36.3902C64.7702 36.8654 65.0342 37.367 65.6348 37.7828C66.8228 38.61 68.8468 38.7838 70.1558 38.17C70.8158 37.8554 71.1744 37.4 71.203 36.916C71.203 36.8412 71.236 36.5222 71.2448 36.4386C71.28 35.9656 71.0182 35.4662 70.4242 35.0526Z" fill="#E0E0E0"/>
<path d="M71.2461 36.4388C71.3333 35.4195 69.9732 34.4707 68.2081 34.3197C66.443 34.1687 64.9415 34.8726 64.8543 35.8919C64.7671 36.9113 66.1272 37.86 67.8923 38.011C69.6574 38.162 71.1589 37.4581 71.2461 36.4388Z" fill="#FAFAFA"/>
<path d="M58.08 43.1002C58.8324 42.6602 59.4418 43.0166 59.4418 43.8856C59.4162 44.3578 59.2795 44.8173 59.0429 45.2267C58.8063 45.6361 58.4764 45.9839 58.08 46.2418C57.3276 46.6818 56.7182 46.3254 56.7182 45.4564C56.7438 44.9842 56.8805 44.5247 57.1171 44.1153C57.3537 43.7059 57.6836 43.3581 58.08 43.1002Z" fill="#E0E0E0"/>
<path d="M58.7972 42.9242C58.5437 42.8998 58.2894 42.9618 58.0756 43.1002C57.6793 43.3581 57.3493 43.7059 57.1127 44.1153C56.8761 44.5247 56.7394 44.9842 56.7138 45.4564C56.6996 45.7181 56.7774 45.9765 56.9338 46.1868C57.1873 46.2112 57.4416 46.1492 57.6554 46.0108C58.0519 45.7525 58.3819 45.4044 58.6186 44.9946C58.8552 44.5848 58.9918 44.1249 59.0172 43.6524C59.0328 43.3912 58.9548 43.133 58.7972 42.9242Z" fill="#FAFAFA"/>
<path d="M74.7494 43.9076V44.9174C74.7494 45.6038 74.2962 46.288 73.3876 46.805C71.6716 47.7862 68.9458 47.8214 67.1352 46.926V45.9008C68.7295 45.9195 70.3012 45.523 71.6958 44.7502C72.1742 44.4824 72.6108 44.1459 72.9916 43.7514C73.095 43.7976 73.194 43.8482 73.2886 43.901L74.7494 43.9076Z" fill="#263238"/>
<path d="M69.5948 47.5486C69.6696 47.5486 69.7422 47.5596 69.8148 47.5618V46.5432C69.7413 46.5431 69.6678 46.5387 69.5948 46.53V47.5486Z" fill="black"/>
<path d="M67.1264 45.903V46.9216L67.3002 47.0052V45.98L67.2078 45.936L67.1264 45.903Z" fill="black"/>
<path d="M70.6574 46.5366C70.5958 46.5366 70.5298 46.5366 70.466 46.5366H70.4418V47.5508H70.5298H70.664L70.6574 46.5366Z" fill="black"/>
<path d="M67.9162 46.2198V47.2406L68.1362 47.3066V46.288H68.1098C68.046 46.2616 67.98 46.2418 67.9162 46.2198Z" fill="black"/>
<path d="M73.7924 45.5224V46.53C73.869 46.4755 73.9424 46.4167 74.0124 46.354V45.3442L73.9178 45.4256C73.8826 45.4564 73.8364 45.4894 73.7924 45.5224Z" fill="black"/>
<path d="M74.6306 44.5016V45.4872C74.6461 45.4477 74.6593 45.4073 74.6702 45.3662C74.6875 45.3114 74.7015 45.2555 74.712 45.199C74.7131 45.1778 74.7131 45.1565 74.712 45.1352C74.7242 45.0625 74.7308 44.9889 74.7318 44.9152V43.9912C74.726 44.1657 74.6918 44.3381 74.6306 44.5016Z" fill="black"/>
<path d="M68.9216 46.4574L68.7566 46.4288V47.4452L68.871 47.465L68.981 47.4826V46.4662L68.9216 46.4574Z" fill="black"/>
<path d="M73.1764 45.9008L72.9564 46.0064V47.0184L73.1764 46.9106V45.9008Z" fill="black"/>
<path d="M72.1204 47.3132L72.3404 47.2494V46.2352C72.2678 46.2594 72.1974 46.2814 72.1204 46.3012V47.3132Z" fill="black"/>
<path d="M71.5 47.454V46.4398L71.28 46.475V47.487L71.434 47.465L71.5 47.454Z" fill="black"/>
<path d="M73.3876 45.7864C71.6672 46.772 68.937 46.805 67.1264 45.9008C68.7207 45.9193 70.2923 45.5228 71.687 44.7502C72.897 44.0506 73.6318 43.1552 73.821 42.295C75.1916 43.34 75.0464 44.8426 73.3876 45.7864Z" fill="#455A64"/>
<path d="M41.8594 34.6478L35.508 30.9804L28.5824 34.9778L34.936 38.6452L41.8594 34.6478Z" fill="#E0E0E0"/>
<path opacity="0.2" d="M41.8594 34.6478L35.508 30.9804L28.5824 34.9778L34.936 38.6452L41.8594 34.6478Z" fill="black"/>
<path d="M41.679 33.2552L35.3254 29.5878C35.3912 29.6392 35.4426 29.7067 35.4746 29.7838C35.5066 29.8609 35.5181 29.9449 35.508 30.0278V30.9782L41.8594 34.6456V33.6952C41.8693 33.6126 41.8579 33.5288 41.8264 33.4518C41.7948 33.3748 41.7441 33.3071 41.679 33.2552Z" fill="#E0E0E0"/>
<path opacity="0.1" d="M41.679 33.2552L35.3254 29.5878C35.3912 29.6392 35.4426 29.7067 35.4746 29.7838C35.5066 29.8609 35.5181 29.9449 35.508 30.0278V30.9782L41.8594 34.6456V33.6952C41.8693 33.6126 41.8579 33.5288 41.8264 33.4518C41.7948 33.3748 41.7441 33.3071 41.679 33.2552Z" fill="black"/>
<path d="M34.5994 39.226V37.8884C34.6155 37.5439 34.714 37.2082 34.8866 36.9096C35.0593 36.611 35.301 36.3582 35.5916 36.1724L36.5002 35.6466V36.0338L35.7588 36.4606C35.521 36.6192 35.323 36.8306 35.1803 37.0782C35.0376 37.3259 34.954 37.6031 34.936 37.8884V38.6452L41.8594 34.6478V33.6974C41.8845 33.613 41.8804 33.5226 41.8478 33.4407C41.8152 33.3589 41.756 33.2905 41.6797 33.2465C41.6034 33.2025 41.5145 33.1855 41.4273 33.1983C41.3402 33.211 41.2599 33.2528 41.1994 33.3168L40.128 33.9372V33.5522L41.0366 33.0286C41.1487 32.9385 41.2854 32.8841 41.4288 32.8727C41.5722 32.8612 41.7157 32.8931 41.8408 32.9643C41.9658 33.0355 42.0665 33.1426 42.1299 33.2718C42.1932 33.4009 42.2163 33.5462 42.196 33.6886V34.8326L34.5994 39.226Z" fill="#FAFAFA"/>
<path d="M30.14 31.9792L29.2336 32.505C28.943 32.6908 28.7013 32.9436 28.5286 33.2422C28.356 33.5408 28.2575 33.8764 28.2414 34.221V35.5586L34.5928 39.226V37.8884C34.6089 37.5438 34.7074 37.2082 34.88 36.9096C35.0527 36.611 35.2944 36.3582 35.585 36.1724L36.4936 35.6466L30.14 31.9792Z" fill="#EBEBEB"/>
<path d="M34.5994 37.8884C34.6197 37.4289 34.7879 36.9883 35.079 36.6322L28.7254 32.9648C28.4358 33.3216 28.2685 33.7619 28.248 34.221V35.5586L34.5994 39.226V37.8884Z" fill="#E0E0E0"/>
<path d="M33.7766 29.8848L40.1302 33.5522L40.1324 33.9372L33.7788 30.2698L33.7766 29.8848Z" fill="#F5F5F5"/>
<path d="M35.4926 29.2974C35.3647 29.2344 35.2222 29.2071 35.0801 29.2183C34.938 29.2295 34.8016 29.2789 34.6852 29.3612L33.7766 29.8848L40.128 33.5522L41.0366 33.0286C41.1534 32.9463 41.2902 32.897 41.4327 32.8857C41.5751 32.8745 41.7179 32.9018 41.8462 32.9648L35.4926 29.2974Z" fill="#EBEBEB"/>
</svg>
