<svg width="114" height="114" viewBox="0 0 114 114" fill="none" xmlns="http://www.w3.org/2000/svg">
<path d="M114 87.1872H0V87.2442H114V87.1872Z" fill="#EBEBEB"/>
<path d="M19.5122 89.3577H14.7448V89.4147H19.5122V89.3577Z" fill="#EBEBEB"/>
<path d="M44.5352 88.7399H39.0199V88.7969H44.5352V88.7399Z" fill="#EBEBEB"/>
<path d="M31.464 90.101H27.0887V90.158H31.464V90.101Z" fill="#EBEBEB"/>
<path d="M102.577 91.0928H96.216V91.1498H102.577V91.0928Z" fill="#EBEBEB"/>
<path d="M93.3295 89.4147H88.3979V89.4717H93.3295V89.4147Z" fill="#EBEBEB"/>
<path d="M74.2505 90.1307H63.2039V90.1877H74.2505V90.1307Z" fill="#EBEBEB"/>
<path d="M54.036 77.0184H10.0115C9.6666 77.0178 9.33604 76.8803 9.09239 76.6363C8.84873 76.3922 8.71188 76.0614 8.71188 75.7165V13.8305C8.71488 13.4876 8.85306 13.1597 9.09639 12.9181C9.33972 12.6764 9.66856 12.5406 10.0115 12.54H54.036C54.3813 12.54 54.7124 12.6771 54.9566 12.9213C55.2007 13.1654 55.3379 13.4966 55.3379 13.8419V75.7165C55.3379 76.0618 55.2007 76.3929 54.9566 76.6371C54.7124 76.8812 54.3813 77.0184 54.036 77.0184ZM10.0115 12.5856C9.68171 12.5862 9.36566 12.7176 9.13269 12.951C8.89972 13.1844 8.76888 13.5007 8.76888 13.8305V75.7165C8.76888 76.0463 8.89972 76.3626 9.13269 76.596C9.36566 76.8294 9.68171 76.9608 10.0115 76.9614H54.036C54.366 76.9608 54.6823 76.8294 54.9156 76.5961C55.1489 76.3628 55.2803 76.0465 55.2809 75.7165V13.8305C55.2803 13.5005 55.1489 13.1842 54.9156 12.9509C54.6823 12.7175 54.366 12.5862 54.036 12.5856H10.0115Z" fill="#EBEBEB"/>
<path d="M103.355 77.0184H59.3279C58.9828 77.0178 58.652 76.8804 58.408 76.6364C58.164 76.3924 58.0266 76.0616 58.026 75.7165V13.8305C58.0296 13.4873 58.1683 13.1595 58.412 12.9179C58.6557 12.6763 58.9847 12.5406 59.3279 12.54H103.355C103.697 12.5412 104.025 12.6773 104.268 12.9189C104.511 13.1604 104.649 13.4879 104.652 13.8305V75.7165C104.652 76.061 104.515 76.3914 104.272 76.6355C104.029 76.8795 103.699 77.0172 103.355 77.0184ZM59.3279 12.5856C58.9979 12.5862 58.6816 12.7175 58.4483 12.9509C58.215 13.1842 58.0836 13.5005 58.083 13.8305V75.7165C58.0836 76.0465 58.215 76.3628 58.4483 76.5961C58.6816 76.8294 58.9979 76.9608 59.3279 76.9614H103.355C103.685 76.9608 104.001 76.8294 104.234 76.5961C104.468 76.3628 104.599 76.0465 104.6 75.7165V13.8305C104.599 13.5005 104.468 13.1842 104.234 12.9509C104.001 12.7175 103.685 12.5862 103.355 12.5856H59.3279Z" fill="#EBEBEB"/>
<path d="M14.7448 87.1872H70.151L70.151 21.0512H14.7448L14.7448 87.1872Z" fill="#F0F0F0"/>
<path d="M14.7425 87.1872H20.0663L20.0663 21.0512H14.7425L14.7425 87.1872Z" fill="#E0E0E0"/>
<path d="M20.9555 33.817L69.2664 33.817V22.9254L20.9555 22.9254V33.817Z" fill="#EBEBEB"/>
<path d="M63.8446 33.817H69.2641V22.9254H63.8446V33.817Z" fill="#E6E6E6"/>
<path d="M20.9555 46.585L69.2664 46.585V35.6934L20.9555 35.6934V46.585Z" fill="#EBEBEB"/>
<path d="M63.8446 46.585H69.2641V35.6934H63.8446V46.585Z" fill="#E6E6E6"/>
<path d="M20.9555 59.3552L69.2664 59.3552V48.4637L20.9555 48.4637V59.3552Z" fill="#EBEBEB"/>
<path d="M63.8446 59.3552H69.2641V48.4637H63.8446V59.3552Z" fill="#E6E6E6"/>
<path d="M20.9555 72.1232H69.2664V61.2317L20.9555 61.2317V72.1232Z" fill="#EBEBEB"/>
<path d="M63.8446 72.1232H69.2641V61.2317H63.8446V72.1232Z" fill="#E6E6E6"/>
<path d="M20.9555 84.8912H69.2664V73.9997H20.9555V84.8912Z" fill="#EBEBEB"/>
<path d="M63.8446 84.8912H69.2641V73.9997H63.8446V84.8912Z" fill="#E6E6E6"/>
<path d="M64.5217 25.5747H61.6352V33.8192H64.5217V25.5747Z" fill="#FAFAFA"/>
<path d="M56.373 33.817H61.6352V25.5725H56.373V33.817Z" fill="#E6E6E6"/>
<path d="M61.446 25.5747H59.4328V33.8192H61.446V25.5747Z" fill="#FAFAFA"/>
<path d="M54.1705 33.817H59.4328V25.5725H54.1705V33.817Z" fill="#E6E6E6"/>
<path d="M59.2321 25.5747H57.2189V33.8192H59.2321V25.5747Z" fill="#FAFAFA"/>
<path d="M51.9566 33.817H57.2189V25.5725H51.9566V33.817Z" fill="#E6E6E6"/>
<path d="M55.86 26.6258H54.3871V33.8192H55.86V26.6258Z" fill="#FAFAFA"/>
<path d="M50.5385 33.817H54.3871V26.6236H50.5385V33.817Z" fill="#E6E6E6"/>
<path d="M35.2214 38.3427H33.2082V46.5872H35.2214V38.3427Z" fill="#FAFAFA"/>
<path d="M27.946 46.5872H33.2082V38.3427H27.946V46.5872Z" fill="#E6E6E6"/>
<path d="M33.019 38.3427H31.0057V46.5872H33.019V38.3427Z" fill="#FAFAFA"/>
<path d="M25.7435 46.5872H31.0057V38.3427H25.7435V46.5872Z" fill="#E6E6E6"/>
<path d="M30.8051 38.3427H28.7918V46.5872H30.8051V38.3427Z" fill="#FAFAFA"/>
<path d="M23.5296 46.5872H28.7918V38.3427H23.5296V46.5872Z" fill="#E6E6E6"/>
<path d="M27.433 39.3938H25.9601V46.5872H27.433V39.3938Z" fill="#FAFAFA"/>
<path d="M22.1114 46.5872H25.9601V39.3938H22.1114V46.5872Z" fill="#E6E6E6"/>
<path d="M41.7764 51.1107H39.7632V59.3552H41.7764V51.1107Z" fill="#FAFAFA"/>
<path d="M34.501 59.3552H39.7632V51.1107H34.501V59.3552Z" fill="#E6E6E6"/>
<path d="M39.574 51.1107H37.5607V59.3552H39.574V51.1107Z" fill="#FAFAFA"/>
<path d="M32.2985 59.3552H37.5607V51.1107H32.2985V59.3552Z" fill="#E6E6E6"/>
<path d="M37.3601 51.1107H35.3468V59.3552H37.3601V51.1107Z" fill="#FAFAFA"/>
<path d="M30.0846 59.3552H35.3468V51.1107H30.0846V59.3552Z" fill="#E6E6E6"/>
<path d="M33.988 52.1618H32.5151V59.3552H33.988V52.1618Z" fill="#FAFAFA"/>
<path d="M28.6664 59.3552H32.5151V52.1618H28.6664V59.3552Z" fill="#E6E6E6"/>
<path d="M55.5112 76.649H53.4979V84.8935H55.5112V76.649Z" fill="#FAFAFA"/>
<path d="M48.2357 84.8912H53.4979V76.6468H48.2357V84.8912Z" fill="#E6E6E6"/>
<path d="M53.3064 76.649H51.2932V84.8935H53.3064V76.649Z" fill="#FAFAFA"/>
<path d="M46.0309 84.8912H51.2932V76.6468H46.0309V84.8912Z" fill="#E6E6E6"/>
<path d="M51.0925 76.649H49.0793V84.8935H51.0925V76.649Z" fill="#FAFAFA"/>
<path d="M43.817 84.8912H49.0793V76.6468H43.817V84.8912Z" fill="#E6E6E6"/>
<path d="M47.7227 77.7001H46.2498V84.8935H47.7227V77.7001Z" fill="#FAFAFA"/>
<path d="M42.4012 84.8912H46.2498V77.6978H42.4012V84.8912Z" fill="#E6E6E6"/>
<path d="M51.1609 24.3572H50.1554V33.817H51.1609V24.3572Z" fill="#F5F5F5"/>
<path d="M45.6775 33.8192H50.1554V24.3595H45.6775V33.8192Z" fill="#E0E0E0"/>
<path d="M49.9616 24.3572H48.9562V33.817H49.9616V24.3572Z" fill="#F5F5F5"/>
<path d="M44.4782 33.8192H48.9562V24.3595H44.4782V33.8192Z" fill="#E0E0E0"/>
<path d="M48.7624 24.3572H47.7569V33.817H48.7624V24.3572Z" fill="#F5F5F5"/>
<path d="M43.2767 33.8192H47.7546V24.3595H43.2767V33.8192Z" fill="#E0E0E0"/>
<path d="M47.5631 24.3572H46.5576V33.817H47.5631V24.3572Z" fill="#F5F5F5"/>
<path d="M42.0774 33.8192H46.5553V24.3595H42.0774V33.8192Z" fill="#E0E0E0"/>
<path d="M46.3615 24.3572H45.356V33.817H46.3615V24.3572Z" fill="#F5F5F5"/>
<path d="M40.8804 33.8192H45.3583V24.3595H40.8804V33.8192Z" fill="#E0E0E0"/>
<path d="M45.1622 24.3572H44.1568V33.817H45.1622V24.3572Z" fill="#F5F5F5"/>
<path d="M39.6811 33.8192H44.159V24.3595H39.6811V33.8192Z" fill="#E0E0E0"/>
<path d="M43.963 24.3572H42.9575V33.817H43.963V24.3572Z" fill="#F5F5F5"/>
<path d="M38.4796 33.8192H42.9575V24.3595H38.4796V33.8192Z" fill="#E0E0E0"/>
<path d="M42.7637 24.3572H41.7582V33.817H42.7637V24.3572Z" fill="#F5F5F5"/>
<path d="M37.2803 33.8192H41.7582V24.3595H37.2803V33.8192Z" fill="#E0E0E0"/>
<path d="M41.5644 24.3572H40.5589V33.817H41.5644V24.3572Z" fill="#F5F5F5"/>
<path d="M36.081 33.8192H40.5589V24.3595H36.081V33.8192Z" fill="#E0E0E0"/>
<path d="M40.3651 24.3572H39.3596V33.817H40.3651V24.3572Z" fill="#F5F5F5"/>
<path d="M34.8817 33.8192H39.3596V24.3595H34.8817V33.8192Z" fill="#E0E0E0"/>
<path d="M39.1658 24.3572H38.1604V33.817H39.1658V24.3572Z" fill="#F5F5F5"/>
<path d="M33.6802 33.8192H38.1581V24.3595H33.6802V33.8192Z" fill="#E0E0E0"/>
<path d="M37.9666 24.3572H36.9611V33.817H37.9666V24.3572Z" fill="#F5F5F5"/>
<path d="M32.4809 33.8192H36.9588V24.3595H32.4809V33.8192Z" fill="#E0E0E0"/>
<path d="M36.765 24.3572H35.7595V33.817H36.765V24.3572Z" fill="#F5F5F5"/>
<path d="M31.2839 33.8192H35.7618V24.3595H31.2839V33.8192Z" fill="#E0E0E0"/>
<path d="M35.5657 24.3572H34.5602V33.817H35.5657V24.3572Z" fill="#F5F5F5"/>
<path d="M30.0846 33.8192H34.5625V24.3595H30.0846V33.8192Z" fill="#E0E0E0"/>
<path d="M66.0516 62.6635H65.0461V72.1232H66.0516V62.6635Z" fill="#F5F5F5"/>
<path d="M60.5659 72.1232H65.0438V62.6635H60.5659V72.1232Z" fill="#E0E0E0"/>
<path d="M64.8523 62.6635H63.8468V72.1232H64.8523V62.6635Z" fill="#F5F5F5"/>
<path d="M59.3666 72.1232H63.8446V62.6635H59.3666V72.1232Z" fill="#E0E0E0"/>
<path d="M63.6508 62.6635H62.6453V72.1232H63.6508V62.6635Z" fill="#F5F5F5"/>
<path d="M58.1696 72.1232H62.6476V62.6635H58.1696V72.1232Z" fill="#E0E0E0"/>
<path d="M62.4515 62.6635H61.446V72.1232H62.4515V62.6635Z" fill="#F5F5F5"/>
<path d="M56.9704 72.1232H61.4483V62.6635H56.9704V72.1232Z" fill="#E0E0E0"/>
<path d="M61.2522 62.6635H60.2467V72.1232H61.2522V62.6635Z" fill="#F5F5F5"/>
<path d="M55.7688 72.1232H60.2467V62.6635H55.7688V72.1232Z" fill="#E0E0E0"/>
<path d="M60.0529 62.6635H59.0474V72.1232H60.0529V62.6635Z" fill="#F5F5F5"/>
<path d="M54.5695 72.1232H59.0474V62.6635H54.5695V72.1232Z" fill="#E0E0E0"/>
<path d="M58.8536 62.6635H57.8482V72.1232H58.8536V62.6635Z" fill="#F5F5F5"/>
<path d="M53.3702 72.1232H57.8482V62.6635H53.3702V72.1232Z" fill="#E0E0E0"/>
<path d="M57.6544 62.6635H56.6489V72.1232H57.6544V62.6635Z" fill="#F5F5F5"/>
<path d="M52.171 72.1232H56.6489V62.6635H52.171V72.1232Z" fill="#E0E0E0"/>
<path d="M56.4551 62.6635H55.4496V72.1232H56.4551V62.6635Z" fill="#F5F5F5"/>
<path d="M50.9694 72.1232H55.4473V62.6635H50.9694V72.1232Z" fill="#E0E0E0"/>
<path d="M55.2558 62.6635H54.2503V72.1232H55.2558V62.6635Z" fill="#F5F5F5"/>
<path d="M49.7701 72.1232H54.248V62.6635H49.7701V72.1232Z" fill="#E0E0E0"/>
<path d="M54.0542 62.6635H53.0488V72.1232H54.0542V62.6635Z" fill="#F5F5F5"/>
<path d="M48.5731 72.1232H53.051V62.6635H48.5731V72.1232Z" fill="#E0E0E0"/>
<path d="M52.855 62.6635H51.8495V72.1232H52.855V62.6635Z" fill="#F5F5F5"/>
<path d="M47.3738 72.1232H51.8518V62.6635H47.3738V72.1232Z" fill="#E0E0E0"/>
<path d="M51.6557 62.6635H50.6502V72.1232H51.6557V62.6635Z" fill="#F5F5F5"/>
<path d="M46.1723 72.1232H50.6502V62.6635H46.1723V72.1232Z" fill="#E0E0E0"/>
<path d="M50.4564 62.6635H49.4509V72.1232H50.4564V62.6635Z" fill="#F5F5F5"/>
<path d="M44.973 72.1232H49.4509V62.6635H44.973V72.1232Z" fill="#E0E0E0"/>
<path d="M41.0902 76.9614H40.3537V84.8912H41.0902V76.9614Z" fill="#F5F5F5"/>
<path d="M37.0774 84.8912H40.356V76.9614H37.0774V84.8912Z" fill="#E0E0E0"/>
<path d="M40.2124 76.9614H39.4759V84.8912H40.2124V76.9614Z" fill="#F5F5F5"/>
<path d="M36.1973 84.8912H39.4759V76.9614H36.1973V84.8912Z" fill="#E0E0E0"/>
<path d="M39.3346 76.9614H38.5981V84.8912H39.3346V76.9614Z" fill="#F5F5F5"/>
<path d="M35.3195 84.8912H38.5981V76.9614H35.3195V84.8912Z" fill="#E0E0E0"/>
<path d="M38.4568 76.9614H37.7203V84.8912H38.4568V76.9614Z" fill="#F5F5F5"/>
<path d="M34.4417 84.8912H37.7203V76.9614H34.4417V84.8912Z" fill="#E0E0E0"/>
<path d="M37.5767 76.9614H36.8402V84.8912H37.5767V76.9614Z" fill="#F5F5F5"/>
<path d="M33.5639 84.8912H36.8425V76.9614H33.5639V84.8912Z" fill="#E0E0E0"/>
<path d="M36.6989 76.9614H35.9624V84.8912H36.6989V76.9614Z" fill="#F5F5F5"/>
<path d="M32.6838 84.8912H35.9624V76.9614H32.6838V84.8912Z" fill="#E0E0E0"/>
<path d="M35.8211 76.9614H35.0846V84.8912H35.8211V76.9614Z" fill="#F5F5F5"/>
<path d="M31.806 84.8912H35.0846V76.9614H31.806V84.8912Z" fill="#E0E0E0"/>
<path d="M34.9433 76.9614H34.2068V84.8912H34.9433V76.9614Z" fill="#F5F5F5"/>
<path d="M30.9282 84.8912H34.2068V76.9614H30.9282V84.8912Z" fill="#E0E0E0"/>
<path d="M34.0632 76.9614H33.3268V84.8912H34.0632V76.9614Z" fill="#F5F5F5"/>
<path d="M30.0504 84.8912H33.329V76.9614H30.0504V84.8912Z" fill="#E0E0E0"/>
<path d="M33.1854 76.9614H32.449V84.8912H33.1854V76.9614Z" fill="#F5F5F5"/>
<path d="M29.1703 84.8912H32.449V76.9614H29.1703V84.8912Z" fill="#E0E0E0"/>
<path d="M32.3076 76.9614H31.5712V84.8912H32.3076V76.9614Z" fill="#F5F5F5"/>
<path d="M28.2925 84.8912H31.5712V76.9614H28.2925V84.8912Z" fill="#E0E0E0"/>
<path d="M31.4298 76.9614H30.6934V84.8912H31.4298V76.9614Z" fill="#F5F5F5"/>
<path d="M27.4147 84.8912H30.6934V76.9614H27.4147V84.8912Z" fill="#E0E0E0"/>
<path d="M30.5497 76.9614H29.8133V84.8912H30.5497V76.9614Z" fill="#F5F5F5"/>
<path d="M26.5369 84.8912H29.8156V76.9614H26.5369V84.8912Z" fill="#E0E0E0"/>
<path d="M29.6719 76.9614H28.9355V84.8912H29.6719V76.9614Z" fill="#F5F5F5"/>
<path d="M25.6568 84.8912H28.9355V76.9614H25.6568V84.8912Z" fill="#E0E0E0"/>
<path d="M32.3213 31.7672H24.7243V33.8169H32.3213V31.7672Z" fill="#F5F5F5"/>
<path d="M21.7854 33.8192H24.7243V31.7695H21.7854V33.8192Z" fill="#E0E0E0"/>
<path d="M32.0249 28.7462H24.4279V30.1963H32.0249V28.7462Z" fill="#F5F5F5"/>
<path d="M21.489 30.1986H24.4279V28.7485H21.489V30.1986Z" fill="#E0E0E0"/>
<path d="M33.019 30.1963H25.422V31.7672H33.019V30.1963Z" fill="#F0F0F0"/>
<path d="M22.4831 31.7695H25.422V30.1986H22.4831V31.7695Z" fill="#E0E0E0"/>
<path d="M52.8253 57.3055H45.6866V59.3552H52.8253V57.3055Z" fill="#F5F5F5"/>
<path d="M42.9256 59.3552H45.6866V57.3055H42.9256V59.3552Z" fill="#E0E0E0"/>
<path d="M52.5472 54.2845H45.4085V55.7346H52.5472V54.2845Z" fill="#F5F5F5"/>
<path d="M42.6474 55.7346H45.4085V54.2845H42.6474V55.7346Z" fill="#E0E0E0"/>
<path d="M53.4797 55.7346H46.341V57.3055H53.4797V55.7346Z" fill="#F0F0F0"/>
<path d="M43.5822 57.3055H46.3433V55.7346H43.5822V57.3055Z" fill="#E0E0E0"/>
<path d="M32.3646 70.9764H25.2259V72.1232H32.3646V70.9764Z" fill="#F5F5F5"/>
<path d="M22.4671 72.1255H25.2282V70.9786H22.4671V72.1255Z" fill="#E0E0E0"/>
<path d="M32.0864 69.2892H24.9478V70.1009H32.0864V69.2892Z" fill="#F5F5F5"/>
<path d="M22.1867 70.0986H24.9478V69.2869H22.1867V70.0986Z" fill="#E0E0E0"/>
<path d="M33.019 70.0986H25.8803V70.9764H33.019V70.0986Z" fill="#F0F0F0"/>
<path d="M23.1192 70.9786H25.8803V70.1008H23.1192V70.9786Z" fill="#E0E0E0"/>
<path d="M63.7648 45.1371H55.5203V46.5872H63.7648V45.1371Z" fill="#F5F5F5"/>
<path d="M52.3306 46.585H55.5203V45.1349H52.3306V46.585Z" fill="#E0E0E0"/>
<path d="M63.4433 43.0008H55.1988V44.0268H63.4433V43.0008Z" fill="#F5F5F5"/>
<path d="M52.0091 44.0245H55.1988V42.9985H52.0091V44.0245Z" fill="#E0E0E0"/>
<path d="M64.5217 44.0268H56.2772V45.1372H64.5217V44.0268Z" fill="#F0F0F0"/>
<path d="M53.0875 45.1371H56.2772V44.0268H53.0875V45.1371Z" fill="#E0E0E0"/>
<path d="M66.9454 52.2371H66.4415V59.3552H66.9454V52.2371Z" fill="#FAFAFA"/>
<path d="M63.2335 59.3552H66.4415V52.2371H63.2335V59.3552Z" fill="#E0E0E0"/>
<path d="M66.3252 52.9279H65.0986V59.3552H66.3252V52.9279Z" fill="#F5F5F5"/>
<path d="M61.8906 59.3552H65.0986V52.9279H61.8906V59.3552Z" fill="#E0E0E0"/>
<path d="M64.9754 52.5358H63.7488V59.3552H64.9754V52.5358Z" fill="#F0F0F0"/>
<path d="M60.5408 59.3552H63.7488V52.5357H60.5408V59.3552Z" fill="#E0E0E0"/>
<path d="M62.4082 52.9849H63.6371L62.6932 59.3552H61.4665L62.4082 52.9849Z" fill="#FAFAFA"/>
<path d="M62.4082 52.9849H59.2002L58.2586 59.3552H61.4665L62.4082 52.9849Z" fill="#E6E6E6"/>
<path d="M49.4509 38.0144H48.947V46.5484H49.4509V38.0144Z" fill="#FAFAFA"/>
<path d="M45.7414 46.5485H48.947V38.0144H45.7414V46.5485Z" fill="#E0E0E0"/>
<path d="M48.833 38.842H47.6064V46.5484H48.833V38.842Z" fill="#F5F5F5"/>
<path d="M44.3984 46.5485H47.6041V38.8421H44.3984V46.5485Z" fill="#E0E0E0"/>
<path d="M47.4833 38.3701H46.2566V46.5485H47.4833V38.3701Z" fill="#F0F0F0"/>
<path d="M43.0532 46.5507H46.2589V38.3724H43.0532V46.5507Z" fill="#E0E0E0"/>
<path d="M44.9183 38.9105H46.1449L45.2033 46.5485H43.9766L44.9183 38.9105Z" fill="#FAFAFA"/>
<path d="M44.9183 38.9105H41.7126L40.771 46.5485H43.9766L44.9183 38.9105Z" fill="#E6E6E6"/>
<path d="M48.6415 63.7351H48.1376V72.2691H48.6415V63.7351Z" fill="#FAFAFA"/>
<path d="M44.932 72.2668H48.1376V63.7328H44.932V72.2668Z" fill="#E0E0E0"/>
<path d="M48.0214 64.5627H46.7947V72.2691H48.0214V64.5627Z" fill="#F5F5F5"/>
<path d="M43.5913 72.2692H46.797V64.5628H43.5913V72.2692Z" fill="#E0E0E0"/>
<path d="M46.6739 64.0908H45.4472V72.2691H46.6739V64.0908Z" fill="#F0F0F0"/>
<path d="M42.2416 72.2692H45.4472V64.0908H42.2416V72.2692Z" fill="#E0E0E0"/>
<path d="M44.1066 64.6312H45.3332L44.3916 72.2692H43.165L44.1066 64.6312Z" fill="#FAFAFA"/>
<path d="M44.1066 64.6312H40.9032L39.9616 72.2692H43.165L44.1066 64.6312Z" fill="#E6E6E6"/>
<path d="M84.6701 67.1962H77.1392V70.1146H84.6701V67.1962Z" fill="#E0E0E0"/>
<path d="M78.7991 70.1146H77.1392V87.1849H78.7991V70.1146Z" fill="#E0E0E0"/>
<path d="M80.2446 70.1146H78.7991V87.1849H80.2446V70.1146Z" fill="#E6E6E6"/>
<path d="M87.6295 70.1146H85.9697V87.1849H87.6295V70.1146Z" fill="#E0E0E0"/>
<path d="M89.0728 70.1146H87.6272V87.1849H89.0728V70.1146Z" fill="#E6E6E6"/>
<path d="M84.6724 70.1168H94.9483V67.1984H84.6724V70.1168Z" fill="#F0F0F0"/>
<path d="M84.6701 70.1146H83.0125L87.5292 87.1872H89.1868L84.6701 70.1146Z" fill="#E0E0E0"/>
<path d="M84.6701 70.1146H86.1179L90.6346 87.1872H89.1868L84.6701 70.1146Z" fill="#F0F0F0"/>
<path d="M93.5005 70.1146H91.8407L96.3574 87.1872H98.0172L93.5005 70.1146Z" fill="#E0E0E0"/>
<path d="M93.5005 70.1146H94.946L99.4627 87.1872H98.0172L93.5005 70.1146Z" fill="#F0F0F0"/>
<path d="M86.1612 73.7489H95.4089L95.2174 72.9782H85.9697L86.1612 73.7489Z" fill="#F0F0F0"/>
<path d="M87.0436 77.2806H96.2912L96.0997 76.5099H86.852L87.0436 77.2806Z" fill="#F0F0F0"/>
<path d="M87.9236 80.8123H97.1713L96.9798 80.0439H87.7321L87.9236 80.8123Z" fill="#F0F0F0"/>
<path d="M88.806 84.344H98.0537L97.8622 83.5757H88.6122L88.806 84.344Z" fill="#F0F0F0"/>
<path d="M88.7399 26.8082C87.5018 26.8082 86.4941 26.147 86.4941 25.3354C86.4941 24.5237 87.992 23.8625 88.7399 23.8625C89.4877 23.8625 90.988 24.4986 90.988 25.3354C90.988 26.1721 89.9802 26.8082 88.7399 26.8082ZM88.7399 24.0449C88.0559 24.0449 86.6879 24.6422 86.6879 25.3354C86.6879 26.0285 87.6136 26.6258 88.7399 26.6258C89.8662 26.6258 90.8056 26.0467 90.8056 25.3354C90.8056 24.624 89.4193 24.0449 88.7399 24.0449Z" fill="#E6E6E6"/>
<path d="M98.4185 25.1552H79.0636V54.2822H98.4185V25.1552Z" fill="#F0F0F0"/>
<path d="M78.8105 54.2845H79.0636V25.1575H78.8105V54.2845Z" fill="#E6E6E6"/>
<path d="M96.3277 27.2711H81.1543V52.1664H96.3277V27.2711Z" fill="#FAFAFA"/>
<path d="M96.3277 27.2711H96.086V52.1664H96.3277V27.2711Z" fill="#E6E6E6"/>
<path d="M57 97.4837C81.4148 97.4837 101.207 96.3282 101.207 94.9027C101.207 93.4773 81.4148 92.3218 57 92.3218C32.5852 92.3218 12.7931 93.4773 12.7931 94.9027C12.7931 96.3282 32.5852 97.4837 57 97.4837Z" fill="#F5F5F5"/>
<path d="M61.5988 28.5136L86.3436 32.0704C86.4622 32.0875 86.5762 32.1277 86.6793 32.1889C86.7823 32.25 86.8723 32.3308 86.944 32.4267C87.0158 32.5227 87.068 32.6318 87.0976 32.7479C87.1272 32.8639 87.1336 32.9847 87.1165 33.1033L78.204 95.076C78.187 95.1945 78.1467 95.3086 78.0856 95.4116C78.0245 95.5146 77.9436 95.6046 77.8477 95.6764C77.7518 95.7482 77.6427 95.8003 77.5266 95.8299C77.4105 95.8595 77.2897 95.866 77.1712 95.8489L52.44 92.3035C52.3214 92.2864 52.2074 92.2462 52.1043 92.1851C52.0013 92.1239 51.9113 92.0431 51.8396 91.9472C51.7678 91.8513 51.7156 91.7422 51.686 91.6261C51.6564 91.51 51.65 91.3892 51.6671 91.2706L60.575 29.2866C60.6095 29.0489 60.7364 28.8344 60.9281 28.6897C61.1197 28.545 61.3607 28.4817 61.5988 28.5136Z" fill="#FD55A1"/>
<path opacity="0.2" d="M61.5988 28.5136L86.3436 32.0704C86.4622 32.0875 86.5762 32.1277 86.6793 32.1889C86.7823 32.25 86.8723 32.3308 86.944 32.4267C87.0158 32.5227 87.068 32.6318 87.0976 32.7479C87.1272 32.8639 87.1336 32.9847 87.1165 33.1033L78.204 95.076C78.187 95.1945 78.1467 95.3086 78.0856 95.4116C78.0245 95.5146 77.9436 95.6046 77.8477 95.6764C77.7518 95.7482 77.6427 95.8003 77.5266 95.8299C77.4105 95.8595 77.2897 95.866 77.1712 95.8489L52.44 92.3035C52.3214 92.2864 52.2074 92.2462 52.1043 92.1851C52.0013 92.1239 51.9113 92.0431 51.8396 91.9472C51.7678 91.8513 51.7156 91.7422 51.686 91.6261C51.6564 91.51 51.65 91.3892 51.6671 91.2706L60.575 29.2866C60.6095 29.0489 60.7364 28.8344 60.9281 28.6897C61.1197 28.545 61.3607 28.4817 61.5988 28.5136Z" fill="black"/>
<path opacity="0.3" d="M86.2273 32.0545L86.3436 32.0704C86.4622 32.0875 86.5762 32.1277 86.6793 32.1888C86.7823 32.25 86.8723 32.3308 86.944 32.4267C87.0158 32.5226 87.068 32.6318 87.0976 32.7478C87.1272 32.8639 87.1336 32.9847 87.1165 33.1033L78.204 95.0759C78.187 95.1945 78.1467 95.3086 78.0856 95.4116C78.0244 95.5146 77.9436 95.6046 77.8477 95.6764C77.7518 95.7482 77.6427 95.8003 77.5266 95.8299C77.4105 95.8595 77.2897 95.866 77.1712 95.8489L77.0549 95.8329C76.9363 95.8159 76.8222 95.7756 76.7192 95.7145C76.6162 95.6534 76.5262 95.5725 76.4544 95.4766C76.3827 95.3807 76.3305 95.2716 76.3009 95.1555C76.2713 95.0394 76.2649 94.9186 76.282 94.8001L85.1945 32.8319C85.211 32.713 85.2508 32.5984 85.3117 32.4949C85.3726 32.3913 85.4534 32.3008 85.5493 32.2286C85.6453 32.1564 85.7546 32.1038 85.871 32.0739C85.9873 32.044 86.1084 32.0374 86.2273 32.0545Z" fill="black"/>
<path d="M86.1769 33.2231L62.5057 29.8756L53.8624 90.9961L77.5336 94.3435L86.1769 33.2231Z" fill="white"/>
<path opacity="0.2" d="M62.4241 30.0002L85.4521 33.3085L76.7197 94.0659L53.6416 91.111L62.4241 30.0002Z" fill="#FD55A1"/>
<path d="M62.4241 30.0002L84.9893 32.4945L76.2067 93.6053L53.6416 91.111L62.4241 30.0002Z" fill="white"/>
<path opacity="0.2" d="M62.4241 30.0002L84.3646 32.4056L75.4315 93.2109L53.6416 91.111L62.4241 30.0002Z" fill="#FD55A1"/>
<path d="M62.4241 30.0002L84.1434 32.0818L75.1374 92.8871L53.6416 91.111L62.4241 30.0002Z" fill="white"/>
<path opacity="0.2" d="M62.4241 30.0002L83.261 31.9975L74.4192 92.5018L53.6416 91.111L62.4241 30.0002Z" fill="#FD55A1"/>
<path d="M62.4241 30.0002L82.5862 31.7467L73.644 92.2579L53.6416 91.111L62.4241 30.0002Z" fill="white"/>
<path opacity="0.2" d="M62.4241 30.0002L81.1384 31.6213L72.1939 92.1735L53.6416 91.111L62.4241 30.0002Z" fill="#FD55A1"/>
<path d="M67.1044 27.8048L67.088 28.046L68.5847 28.148L68.6012 27.9069L67.1044 27.8048Z" fill="#FD55A1"/>
<path d="M70.0322 28.0047L70.0157 28.2458L74.4378 28.5473L74.4542 28.3061L70.0322 28.0047Z" fill="#FD55A1"/>
<path d="M79.4512 29.4941L59.6836 28.1489C59.358 28.1277 59.0364 28.23 58.7828 28.4353C58.5293 28.6407 58.3625 28.9341 58.3156 29.2569L49.5148 90.4726C49.4896 90.6492 49.501 90.829 49.5485 91.0008C49.5959 91.1727 49.6782 91.333 49.7903 91.4716C49.9024 91.6102 50.0419 91.7243 50.2 91.8066C50.3582 91.8889 50.5316 91.9378 50.7095 91.9501L70.4771 93.2976C70.803 93.3187 71.1249 93.2161 71.3785 93.0102C71.6321 92.8044 71.7987 92.5105 71.8451 92.1872L80.6436 30.9738C80.6688 30.7973 80.6574 30.6176 80.6101 30.4457C80.5629 30.2739 80.4808 30.1136 80.3689 29.9748C80.2571 29.836 80.1179 29.7217 79.96 29.639C79.8021 29.5563 79.6289 29.507 79.4512 29.4941Z" fill="#FD55A1"/>
<path opacity="0.2" d="M69.0703 91.4075H69.0156L51.4391 90.2105C51.3275 90.2025 51.2187 90.1716 51.1195 90.1199C51.0203 90.0681 50.9328 89.9964 50.8625 89.9094C50.7921 89.8224 50.7404 89.7218 50.7106 89.614C50.6807 89.5061 50.6734 89.3933 50.689 89.2825L59.1751 30.2419C59.2066 30.0409 59.3124 29.8591 59.4716 29.7324C59.6308 29.6057 59.8318 29.5434 60.0347 29.5579L77.6112 30.7549C77.7231 30.7622 77.8322 30.7926 77.9317 30.8442C78.0313 30.8958 78.119 30.9674 78.1895 31.0546C78.26 31.1418 78.3116 31.2426 78.3412 31.3507C78.3708 31.4589 78.3776 31.572 78.3613 31.6829L69.8774 90.7075C69.849 90.9015 69.752 91.0789 69.6038 91.2073C69.4557 91.3358 69.2664 91.4068 69.0703 91.4075ZM59.98 29.7836C59.8427 29.7843 59.7102 29.8341 59.6065 29.924C59.5028 30.014 59.4347 30.138 59.4145 30.2738L50.9284 89.3258C50.9179 89.4038 50.9235 89.483 50.9447 89.5587C50.966 89.6344 51.0025 89.705 51.0521 89.766C51.1016 89.8271 51.1631 89.8774 51.2328 89.9138C51.3025 89.9503 51.3789 89.9721 51.4573 89.9779L69.0316 91.1749C69.1755 91.1834 69.3175 91.1378 69.4297 91.0472C69.5418 90.9565 69.6161 90.8273 69.638 90.6847L78.1219 31.6464C78.1335 31.5687 78.1287 31.4894 78.1079 31.4136C78.0871 31.3379 78.0507 31.2673 78.0011 31.2063C77.9517 31.145 77.8901 31.0944 77.8203 31.058C77.7505 31.0215 77.6738 30.9998 77.5952 30.9943L60.0187 29.7973L59.98 29.7836Z" fill="white"/>
</svg>
