<svg width="114" height="114" viewBox="0 0 114 114" fill="none" xmlns="http://www.w3.org/2000/svg">
<path d="M102.577 90.8557H95.0258V90.9127H102.577V90.8557Z" fill="#EBEBEB"/>
<path d="M75.5182 91.4758H73.5368V91.5328H75.5182V91.4758Z" fill="#EBEBEB"/>
<path d="M94.7978 88.7399H90.4225V88.7969H94.7978V88.7399Z" fill="#EBEBEB"/>
<path d="M21.8082 89.1229H11.9609V89.1799H21.8082V89.1229Z" fill="#EBEBEB"/>
<path d="M25.2829 89.1229H23.8397V89.1799H25.2829V89.1229Z" fill="#EBEBEB"/>
<path d="M51.3342 90.0851H29.9752V90.1421H51.3342V90.0851Z" fill="#EBEBEB"/>
<path d="M54.036 77.0184H10.0115C9.6666 77.0178 9.33605 76.8803 9.09239 76.6363C8.84873 76.3922 8.71188 76.0614 8.71188 75.7165V13.8305C8.71489 13.4876 8.85306 13.1597 9.09639 12.9181C9.33973 12.6764 9.66856 12.5406 10.0115 12.54H54.036C54.3813 12.54 54.7124 12.6771 54.9566 12.9213C55.2007 13.1654 55.3379 13.4966 55.3379 13.8419V75.7165C55.3379 76.0618 55.2007 76.3929 54.9566 76.6371C54.7124 76.8812 54.3813 77.0184 54.036 77.0184ZM10.0115 12.5856C9.68172 12.5862 9.36566 12.7176 9.13269 12.951C8.89973 13.1844 8.76888 13.5007 8.76888 13.8305V75.7165C8.76888 76.0463 8.89973 76.3626 9.13269 76.596C9.36566 76.8294 9.68172 76.9608 10.0115 76.9614H54.036C54.366 76.9608 54.6823 76.8294 54.9156 76.5961C55.1489 76.3628 55.2803 76.0465 55.2809 75.7165V13.8305C55.2803 13.5005 55.1489 13.1842 54.9156 12.9509C54.6823 12.7175 54.366 12.5862 54.036 12.5856H10.0115Z" fill="#EBEBEB"/>
<path d="M103.355 77.0776H59.3279C58.9828 77.077 58.652 76.9397 58.408 76.6957C58.164 76.4516 58.0266 76.1208 58.026 75.7758V13.8897C58.0266 13.5446 58.164 13.2138 58.408 12.9698C58.652 12.7258 58.9828 12.5884 59.3279 12.5878H103.355C103.699 12.589 104.029 12.7267 104.272 12.9708C104.515 13.2148 104.652 13.5452 104.652 13.8897V75.7758C104.652 76.1202 104.515 76.4507 104.272 76.6947C104.029 76.9387 103.699 77.0764 103.355 77.0776ZM59.3279 12.6448C58.9979 12.6454 58.6816 12.7768 58.4483 13.0101C58.215 13.2434 58.0836 13.5597 58.083 13.8897V75.7758C58.0836 76.1057 58.215 76.422 58.4483 76.6553C58.6816 76.8887 58.9979 77.02 59.3279 77.0206H103.355C103.685 77.02 104.001 76.8887 104.234 76.6553C104.468 76.422 104.599 76.1057 104.6 75.7758V13.8897C104.599 13.5597 104.468 13.2434 104.234 13.0101C104.001 12.7768 103.685 12.6454 103.355 12.6448H59.3279Z" fill="#EBEBEB"/>
<path d="M114 87.1872H0V87.2442H114V87.1872Z" fill="#EBEBEB"/>
<path d="M17.2505 33.744H37.9278C40.5772 33.744 41.2156 30.0367 38.7144 29.1657L38.6164 29.1338C41.3843 26.8264 35.3126 21.9655 28.7166 28.696C29.2319 26.4525 23.3677 27.2642 21.5756 30.3262C20.9372 28.3153 15.3467 31.8082 17.2505 33.744Z" fill="#E6E6E6"/>
<path d="M72.5564 24.4986H84.9551C84.9551 24.4986 87.8621 23.4042 87.4859 20.504C87.1097 17.6038 82.7207 20.0206 82.7207 20.0206C82.7207 20.0206 84.0499 15.9736 79.8 17.1228C75.5501 18.2719 75.1351 22.2824 75.1351 22.2824C75.1351 22.2824 69.5514 21.3066 72.5564 24.4986Z" fill="#EBEBEB"/>
<path d="M83.9473 32.6564H92.1325C92.1325 32.6564 94.0523 31.9336 93.8038 30.0184C93.5552 28.1032 90.6574 29.6992 90.6574 29.6992C90.6574 29.6992 91.5352 27.0294 88.7285 27.7863C87.9373 27.9885 87.2233 28.4195 86.6758 29.0253C86.1284 29.6312 85.7717 30.3851 85.6505 31.1926C85.6505 31.1926 81.9637 30.552 83.9473 32.6564Z" fill="#EBEBEB"/>
<path d="M82.3741 74.1479L82.3513 71.7265V71.592L82.3308 69.4328V69.296L82.3103 67.244V67.1095L82.292 65.1555V65.0279L82.2738 63.1628V63.0443L82.2556 61.2613V61.1496L82.2396 59.4464V59.337L82.2259 57.9279C82.1546 57.9729 82.078 58.0089 81.9979 58.0351V59.2253H80.4886L81.7061 58.1103C81.5805 58.1355 81.4532 58.1507 81.3253 58.1559L80.3221 59.0679L80.3404 57.9918C80.2576 57.9586 80.1806 57.9124 80.1124 57.855L80.085 59.3324V59.4419L80.0576 61.145V61.2613L80.0234 63.0374V63.156L79.9915 65.0165V65.1441L79.9573 67.0981V67.2326L79.9208 69.2846V69.4237L79.8821 71.5806V71.7265L79.841 74.1456L79.6085 84.588L82.5178 84.6222L82.3741 74.1479ZM82.0709 73.6919L80.3176 71.7972H82.0595L82.0709 73.6919ZM82.0435 71.5715H80.3084L82.0298 69.7611L82.0435 71.5715ZM82.0618 68.9107L80.3928 67.2007H82.0526L82.0618 68.9107ZM82.0412 66.9659H80.3905L82.0321 65.322L82.0412 66.9659ZM82.0298 64.7018L80.4338 63.1491H82.0162L82.0298 64.7018ZM82.0298 62.9075H80.4521L82.0162 61.4072L82.0298 62.9075ZM82.0025 59.4533V60.8737L80.4817 59.4601L82.0025 59.4533ZM80.2879 59.777L81.8087 61.1952H80.2674L80.2879 59.777ZM80.2651 61.4414H81.8064L80.2309 62.928L80.2651 61.4414ZM80.2332 63.5185L81.8292 65.0735H80.2195L80.2332 63.5185ZM80.2104 65.3106H81.8269L80.1876 66.9476L80.2104 65.3106ZM80.1785 67.5746L81.8497 69.2915H80.1557L80.1785 67.5746ZM80.1625 69.5217H81.852L80.1283 71.3229L80.1625 69.5217ZM80.1511 71.9066L81.9044 73.8081H80.1238L80.1511 71.9066Z" fill="#EBEBEB"/>
<path d="M82.2008 57.6703H82.0846L82.0002 57.5928L81.3162 58.2312C81.4433 58.2249 81.5698 58.2097 81.6947 58.1856L81.9797 57.9257V58.1012C82.0595 58.0742 82.136 58.0383 82.2077 57.9941L82.2008 57.6703ZM80.0896 57.684V57.9393C80.1592 57.9948 80.2359 58.0408 80.3176 58.0761V57.684H80.0896Z" fill="#EBEBEB"/>
<path d="M82.536 57.4811C82.5441 57.5443 82.5375 57.6085 82.5165 57.6686C82.4955 57.7288 82.4608 57.7832 82.4152 57.8276L82.3331 57.9052C82.2899 57.9397 82.2442 57.971 82.1963 57.9986C82.1246 58.0429 82.0481 58.0788 81.9683 58.1058C81.8762 58.1431 81.7808 58.1713 81.6833 58.1902C81.5584 58.2143 81.4319 58.2295 81.3048 58.2358H81.1338C80.8542 58.2363 80.5774 58.1804 80.3198 58.0716C80.2381 58.0362 80.1615 57.9903 80.0918 57.9348L80.0713 57.9188L79.9961 57.8459C79.952 57.8031 79.919 57.7502 79.9 57.6918C79.8809 57.6334 79.8763 57.5713 79.8866 57.5107L80.0599 56.5394H79.6039L81.1999 55.73L82.862 56.487H82.3946L82.536 57.4811Z" fill="#EBEBEB"/>
<path d="M89.8594 58.6986L89.9209 84.5926H91.7996H102.721H104.6L104.682 58.6986H89.8594Z" fill="#EBEBEB"/>
<path d="M92.7253 55.404L92.7322 61.177H93.895H100.655H101.818L101.829 55.404H92.7253Z" fill="#EBEBEB"/>
<path d="M92.7139 61.1769H90.7942L90.7919 59.4487H92.7116L92.7139 61.1769Z" fill="#FAFAFA"/>
<path d="M96.3961 59.4464H94.4764V61.1769H96.3961V59.4464Z" fill="#FAFAFA"/>
<path d="M100.081 59.4464H98.1608V61.1769H100.081V59.4464Z" fill="#FAFAFA"/>
<path d="M103.763 61.1769H101.843L101.848 59.4487H103.767L103.763 61.1769Z" fill="#F0F0F0"/>
<path d="M92.6888 64.3302H90.8147L90.8101 62.643H92.6866L92.6888 64.3302Z" fill="#F0F0F0"/>
<path d="M96.3665 62.643H94.49V64.3302H96.3665V62.643Z" fill="#F0F0F0"/>
<path d="M100.046 62.643H98.17V64.3302H100.046V62.643Z" fill="#FAFAFA"/>
<path d="M103.722 64.3302H101.845L101.85 62.643H103.726L103.722 64.3302Z" fill="#FAFAFA"/>
<path d="M92.6729 67.4036H90.842L90.8375 65.7574H92.6706L92.6729 67.4036Z" fill="#F0F0F0"/>
<path d="M96.3482 65.7574H94.5151V67.4036H96.3482V65.7574Z" fill="#FAFAFA"/>
<path d="M100.021 65.7574H98.1882V67.4036H100.021V65.7574Z" fill="#FAFAFA"/>
<path d="M96.3847 56.9362H94.4285V58.7009H96.3847V56.9362Z" fill="#FAFAFA"/>
<path d="M100.074 56.9362H98.1152V58.7009H100.074V56.9362Z" fill="#F0F0F0"/>
<path d="M103.692 67.4036H101.861L101.864 65.7574H103.697L103.692 67.4036Z" fill="#F0F0F0"/>
<path d="M92.6683 70.4063H90.8785L90.874 68.799H92.666L92.6683 70.4063Z" fill="#FAFAFA"/>
<path d="M96.3368 68.799H94.547V70.4063H96.3368V68.799Z" fill="#F0F0F0"/>
<path d="M100.008 70.4063H98.2178L98.2201 68.799H100.01L100.008 70.4063Z" fill="#F0F0F0"/>
<path d="M103.676 70.4063H101.886L101.891 68.799H103.681L103.676 70.4063Z" fill="#FAFAFA"/>
<path d="M92.7481 73.7808H90.7531L90.7486 71.991H92.7458L92.7481 73.7808Z" fill="#F0F0F0"/>
<path d="M96.4098 73.7808H94.4171L94.4148 71.991H96.4121L96.4098 73.7808Z" fill="#FAFAFA"/>
<path d="M100.074 73.7808H98.0788V71.991H100.076L100.074 73.7808Z" fill="#FAFAFA"/>
<path d="M103.735 73.7808H101.74L101.745 71.991H103.74L103.735 73.7808Z" fill="#F0F0F0"/>
<path d="M92.7595 76.6308H90.8101L90.8056 74.8843H92.7572L92.7595 76.6308Z" fill="#F0F0F0"/>
<path d="M96.4189 74.8843H94.4695V76.6308H96.4189V74.8843Z" fill="#FAFAFA"/>
<path d="M100.083 74.8843H98.1335V76.6308H100.083V74.8843Z" fill="#F0F0F0"/>
<path d="M103.742 76.6308H101.793L101.797 74.8843H103.749L103.742 76.6308Z" fill="#FAFAFA"/>
<path d="M92.7185 79.8388H90.817L90.8147 78.1379H92.7162L92.7185 79.8388Z" fill="#FAFAFA"/>
<path d="M96.3733 78.1379H94.4718V79.8388H96.3733V78.1379Z" fill="#FAFAFA"/>
<path d="M100.028 78.1379H98.1266V79.8388H100.028V78.1379Z" fill="#F0F0F0"/>
<path d="M103.681 79.8388H101.781L101.784 78.1379H103.685L103.681 79.8388Z" fill="#F0F0F0"/>
<path d="M92.7185 82.7548H90.8626L90.8603 81.0973H92.7162L92.7185 82.7548Z" fill="#F0F0F0"/>
<path d="M103.674 82.7548H101.82L101.823 81.0973H103.678L103.674 82.7548Z" fill="#FAFAFA"/>
<path d="M100.037 81.0973H94.4969L94.5083 81.5145H94.661L94.6633 84.5925H95.2174L95.2151 81.5145H99.3282L99.3236 84.5925H99.8777L99.8822 81.5145H100.049L100.037 81.0973Z" fill="#F5F5F5"/>
<path d="M97.2944 84.5925H95.2424V81.5145H97.2967L97.2944 84.5925Z" fill="#E6E6E6"/>
<path d="M99.2986 84.5925H97.2443L97.2466 81.5145H99.3031L99.2986 84.5925Z" fill="#EBEBEB"/>
<path d="M89.8799 66.9362L89.9209 84.5925H87.5657H73.872H71.5145L71.3458 66.9362H89.8799Z" fill="#F5F5F5"/>
<path d="M86.3573 70.8601H88.6555L88.6487 68.799H86.3504L86.3573 70.8601Z" fill="#E6E6E6"/>
<path d="M81.7722 70.8601H84.0704L84.0613 68.799H81.7608L81.7722 70.8601Z" fill="#E6E6E6"/>
<path d="M77.1871 70.8601H79.4854L79.4717 68.799H77.1734L77.1871 70.8601Z" fill="#E6E6E6"/>
<path d="M72.602 70.8601H74.9003L74.882 68.799H72.5838L72.602 70.8601Z" fill="#E6E6E6"/>
<path d="M86.2706 74.8843H88.7467L88.7399 72.6658H86.2615L86.2706 74.8843Z" fill="#E6E6E6"/>
<path d="M81.6947 74.8843H84.1708L84.1594 72.6658H81.681L81.6947 74.8843Z" fill="#E6E6E6"/>
<path d="M77.1164 74.8843H79.5925L79.5788 72.6658H77.1005L77.1164 74.8843Z" fill="#E6E6E6"/>
<path d="M72.5405 74.8843H75.0166L74.9983 72.6658H72.52L72.5405 74.8843Z" fill="#E6E6E6"/>
<path d="M86.3345 78.5642H88.7376L88.733 76.4142H86.3276L86.3345 78.5642Z" fill="#E6E6E6"/>
<path d="M81.7631 78.5642H84.1662L84.1571 76.4142H81.7517L81.7631 78.5642Z" fill="#E6E6E6"/>
<path d="M77.1917 78.5642H79.5948L79.5811 76.4142H77.1757L77.1917 78.5642Z" fill="#E6E6E6"/>
<path d="M72.618 78.5642H75.0211L75.0052 76.4142H72.5998L72.618 78.5642Z" fill="#E6E6E6"/>
<path d="M86.3869 82.3422H88.7171L88.7125 80.2582H86.3778L86.3869 82.3422Z" fill="#E6E6E6"/>
<path d="M72.6887 82.3422H75.0211L75.0029 80.2582H72.6704L72.6887 82.3422Z" fill="#E6E6E6"/>
<path d="M77.0822 80.2582H84.2939L84.2962 80.8875H83.8356L83.8538 84.5925H83.1858L83.1676 80.8875H78.22L78.245 84.5925H77.5793L77.5519 80.8875H77.0891L77.0822 80.2582Z" fill="#F5F5F5"/>
<path d="M80.7325 84.5925H83.2018L83.1835 80.8875H80.7097L80.7325 84.5925Z" fill="#E6E6E6"/>
<path d="M78.2291 84.5925H80.6983L80.6778 80.8875H78.204L78.2291 84.5925Z" fill="#EBEBEB"/>
<path d="M34.6788 51.8221V50.9922C34.6752 50.9684 34.6632 50.9468 34.645 50.9312C34.6268 50.9155 34.6036 50.9069 34.5796 50.9069C34.5556 50.9069 34.5324 50.9155 34.5142 50.9312C34.496 50.9468 34.484 50.9684 34.4804 50.9922V51.9042C34.4815 51.93 34.4921 51.9546 34.5102 51.9731C34.5283 51.9916 34.5526 52.0028 34.5785 52.0045C34.6575 52.0045 34.7347 52.0279 34.8004 52.0719C34.866 52.1158 34.9172 52.1783 34.9473 52.2513C34.9774 52.3244 34.9852 52.4047 34.9696 52.4822C34.9541 52.5596 34.9158 52.6307 34.8598 52.6864C34.8038 52.7421 34.7325 52.78 34.6549 52.7951C34.5774 52.8102 34.4971 52.802 34.4242 52.7715C34.3513 52.7409 34.2892 52.6894 34.2456 52.6235C34.202 52.5576 34.179 52.4802 34.1795 52.4012C34.1795 52.2758 33.9697 52.2758 33.9811 52.4012C34.0313 52.896 34.6081 53.222 35.0003 52.8253C35.0755 52.7476 35.1283 52.651 35.1529 52.5457C35.1775 52.4404 35.1731 52.3304 35.1401 52.2274C35.1071 52.1244 35.0467 52.0323 34.9655 51.9609C34.8843 51.8895 34.7852 51.8416 34.6788 51.8221Z" fill="#EBEBEB"/>
<path d="M20.064 45.8554V47.652L18.1693 45.7573L18.0758 45.8508H17.9436V62.9508H20.3285V45.8508L20.064 45.8554ZM18.2081 58.9015L19.877 60.5705H18.2081V58.9015ZM18.2081 54.6584L19.877 56.3274H18.2081V54.6584ZM18.2081 50.4176L19.877 52.0866H18.2081V50.4176ZM18.2081 46.1746L19.877 47.8458H18.2081V46.1746ZM19.877 48.108L18.2081 49.7792V48.108H19.877ZM20.064 48.295V49.9662H18.395L20.064 48.295ZM19.877 52.3511L18.2081 54.02V52.3511H19.877ZM20.064 52.538V54.207H18.395L20.064 52.538ZM19.877 56.5919L18.2081 58.2631V56.5919H19.877ZM20.064 56.772V58.4432H18.395L20.064 56.772ZM19.877 60.8281L18.2081 62.4971V60.8281H19.877ZM18.395 62.7L20.064 61.0219V62.7H18.395ZM20.064 60.3835L18.395 58.7146H20.064V60.3835ZM20.064 56.1404L18.395 54.4715H20.064V56.1404ZM20.064 51.8996L18.395 50.2307H20.064V51.8996Z" fill="#F0F0F0"/>
<path d="M18.2081 40.2238V43.548H18.468V42.278L19.836 43.646L19.9295 43.5526H20.064V40.2238H18.2081ZM19.608 40.4882L18.468 41.6282V40.4882H19.608ZM19.795 43.2242L18.655 42.0842H19.795V43.2242ZM18.655 41.822L19.795 40.682V41.822H18.655Z" fill="#F0F0F0"/>
<path d="M13.8533 45.8553H10.6727V49.0359H13.8533V45.8553Z" fill="#E6E6E6"/>
<path d="M34.6218 50.445H34.444V44.33L19.6308 39.4166H18.6527L10.7206 44.3392L10.6271 44.191L18.6002 39.2411H19.6604L19.6741 39.2456L34.6218 44.2024V50.445Z" fill="#E6E6E6"/>
<path d="M32.8092 45.9944H32.9916L34.8521 44.1339H10.5404V45.9875H32.8092V45.9944ZM33.0737 44.3984H34.2137L33.0737 45.5384V44.3984ZM10.8049 45.7231V44.5831L11.9449 45.7231H10.8049ZM12.1319 45.5361L10.9919 44.3961H12.1319V45.5361ZM12.3964 44.3961H13.5364L12.3964 45.5361V44.3961ZM13.7233 45.7208H12.5833L13.7233 44.5808V45.7208ZM13.9878 45.7208V44.5808L15.1278 45.7208H13.9878ZM15.3125 45.5338L14.1725 44.3938H15.3125V45.5338ZM15.577 44.3938H16.717L15.577 45.5338V44.3938ZM16.9039 45.7185H15.7639L16.9039 44.5785V45.7185ZM17.1684 45.7185V44.5785L18.3084 45.7185H17.1684ZM18.4954 45.5315L17.3554 44.3915H18.4954V45.5315ZM18.7598 44.3915H19.8998L18.7598 45.5315V44.3915ZM20.0845 45.7162H18.9445L20.0845 44.5762V45.7162ZM20.349 45.7162V44.5762L21.489 45.7162H20.349ZM21.676 45.5293L20.536 44.3893H21.676V45.5293ZM21.9404 44.3893H23.0804L21.9404 45.5293V44.3893ZM23.2651 45.7139H22.1251L23.2651 44.5739V45.7139ZM23.5296 45.7139V44.5739L24.6696 45.7139H23.5296ZM24.8566 45.527L23.7166 44.387H24.8566V45.527ZM25.121 44.387H26.261L25.121 45.527V44.387ZM26.448 45.7117H25.308L26.448 44.5717V45.7117ZM26.7125 45.7117V44.5717L27.8525 45.7117H26.7125ZM28.0372 45.5247L26.8972 44.3847H28.0372V45.5247ZM28.3016 44.3847H29.4416L28.3016 45.5247V44.3847ZM29.6286 45.7094H28.4886L29.6286 44.5694V45.7094ZM29.8931 44.3847H31.0331L29.8931 45.5247V44.3847ZM31.22 45.7094H30.08L31.22 44.5694V45.7094ZM31.4845 45.7094V44.5694L32.6245 45.7094H31.4845ZM31.6715 44.3847H32.8115V45.5247L31.6715 44.3847Z" fill="#F0F0F0"/>
<path d="M21.505 46.5781H16.6121L16.7922 44.5261C16.8151 44.2578 16.9379 44.0078 17.1364 43.8258C17.3349 43.6438 17.5945 43.543 17.8638 43.5434H20.194C20.458 43.5438 20.7126 43.6411 20.9097 43.8167C21.1068 43.9924 21.2326 44.2342 21.2633 44.4964L21.505 46.5781Z" fill="#F0F0F0"/>
<path d="M18.3403 44.3916H17.401V45.331H18.3403V44.3916Z" fill="#FAFAFA"/>
<path d="M19.5282 44.3916H18.5888V45.331H19.5282V44.3916Z" fill="#FAFAFA"/>
<path d="M20.7161 44.3916H19.7767V45.331H20.7161V44.3916Z" fill="#FAFAFA"/>
<path d="M19.7767 39.7153C19.7767 39.842 19.7391 39.9659 19.6687 40.0713C19.5983 40.1766 19.4983 40.2587 19.3812 40.3072C19.2641 40.3557 19.1353 40.3684 19.0111 40.3437C18.8868 40.319 18.7726 40.258 18.683 40.1684C18.5934 40.0788 18.5324 39.9646 18.5077 39.8403C18.483 39.716 18.4956 39.5872 18.5441 39.4701C18.5926 39.3531 18.6747 39.253 18.7801 39.1826C18.8855 39.1122 19.0093 39.0746 19.136 39.0746C19.306 39.0746 19.4689 39.1421 19.5891 39.2623C19.7092 39.3824 19.7767 39.5454 19.7767 39.7153Z" fill="#E6E6E6"/>
<path d="M34.5785 51.5393C34.5066 51.5393 34.4355 51.5252 34.3691 51.4977C34.3027 51.4702 34.2424 51.4299 34.1916 51.3791C34.1407 51.3283 34.1004 51.2679 34.0729 51.2015C34.0454 51.1352 34.0313 51.064 34.0313 50.9921V50.4449H35.1257V50.9921C35.1257 51.064 35.1115 51.1352 35.084 51.2015C35.0565 51.2679 35.0162 51.3283 34.9654 51.3791C34.9146 51.4299 34.8543 51.4702 34.7879 51.4977C34.7215 51.5252 34.6503 51.5393 34.5785 51.5393Z" fill="#E6E6E6"/>
<path d="M8.67312 58.6986L9.0972 84.5926H10.9782H21.8994H23.7781L23.4977 58.6986H8.67312Z" fill="#F5F5F5"/>
<path d="M9.5988 59.4487L9.65124 62.5996L9.66492 63.4638L9.6786 64.3302H11.6006L11.587 63.4638L11.5756 62.5996L11.5254 59.4487H9.5988Z" fill="#E6E6E6"/>
<path d="M13.2833 59.4487L13.3312 62.5996L13.3426 63.4638L13.3562 64.3302H15.2783L15.2669 63.4638L15.2555 62.5996L15.2122 59.4487H13.2833Z" fill="#E6E6E6"/>
<path d="M16.9678 59.4487L17.0111 62.5996L17.0225 63.4638L17.0339 64.3302H18.9559L18.9468 63.4638L18.9354 62.5996L18.8966 59.4487H16.9678Z" fill="#E6E6E6"/>
<path d="M20.6545 59.4487L20.691 62.5996L20.707 63.9357L20.7115 64.3302H22.6358L22.6313 63.9357L22.6153 62.5996L22.5811 59.4487H20.6545Z" fill="#E6E6E6"/>
<path d="M9.71508 65.7574L9.76752 68.9061L9.7812 69.7702L9.79488 70.6344H11.7192L11.7078 69.7702L11.6941 68.9061L11.6462 65.7574H9.71508Z" fill="#E6E6E6"/>
<path d="M13.3904 65.7574L13.436 68.9061L13.4543 70.1236L13.4611 70.6344H15.3877L15.3809 70.1236L15.3649 68.9061L15.3193 65.7574H13.3904Z" fill="#E6E6E6"/>
<path d="M17.0635 65.7574L17.1068 68.9061L17.1182 69.7702L17.1296 70.6344H19.0562L19.0448 69.7702L19.0334 68.9061L18.9947 65.7574H17.0635Z" fill="#E6E6E6"/>
<path d="M20.7389 65.7574L20.7776 68.9061L20.7868 69.7702L20.7982 70.6344H22.7225L22.7134 69.7702L22.7042 68.9061L22.67 65.7574H20.7389Z" fill="#E6E6E6"/>
<path d="M9.82452 71.991L9.87468 75.126L9.89064 75.9878L9.90432 76.8474H11.8264L11.8127 75.9878L11.799 75.126L11.7534 71.991H9.82452Z" fill="#E6E6E6"/>
<path d="M13.4908 71.991L13.5364 75.126L13.5478 75.9878L13.5614 76.8474H15.4835L15.4721 75.9878L15.4607 75.126L15.4174 71.991H13.4908Z" fill="#E6E6E6"/>
<path d="M17.1547 71.991L17.1958 75.126L17.2072 75.9878L17.2186 76.8474H19.1429L19.1315 75.9878L19.1201 75.126L19.0813 71.991H17.1547Z" fill="#E6E6E6"/>
<path d="M20.821 71.991L20.8574 75.126L20.8711 76.3161L20.878 76.8474H22.8L22.7954 76.3161L22.7818 75.126L22.7476 71.991H20.821Z" fill="#E6E6E6"/>
<path d="M21.888 78.1379H20.9372H19.1566H17.2528H15.4721H13.5706H9.88608L9.91344 79.8388H13.5956H15.4949H17.2756H19.1771H20.9578H21.9085H22.8593L22.841 78.1379H21.888Z" fill="#E6E6E6"/>
<path d="M19.1543 81.0973H13.6139L13.6093 81.5145H13.7758L13.8214 84.5925H14.3754L14.3298 81.5145H18.4429L18.4817 84.5925H19.0334L18.997 81.5145H19.1497L19.1543 81.0973Z" fill="#FAFAFA"/>
<path d="M16.4525 84.5925H14.4005L14.3549 81.5145H16.4114L16.4525 84.5925Z" fill="#E6E6E6"/>
<path d="M18.4543 84.5925H16.4023L16.3613 81.5145H18.4156L18.4543 84.5925Z" fill="#E6E6E6"/>
<path d="M37.4786 60.192L37.6451 84.5925H35.8735H25.5839H23.8123L23.5091 60.192H37.4786Z" fill="#E6E6E6"/>
<path d="M32.5447 78.5642H33.2994H36.6852L36.6898 79.3463L36.6943 80.1283L36.7171 82.96H34.9638L34.941 80.0485H33.231H32.5561H31.5712L31.5575 78.5642H32.5447Z" fill="#F0F0F0"/>
<path d="M25.8643 78.5642H26.5392H29.754L29.77 80.0485H26.4434L26.4776 82.96H24.7243L24.6924 80.1283L24.6787 78.9974L24.6719 78.5642H25.8643Z" fill="#F0F0F0"/>
<path d="M28.313 81.3048H33.0805L33.0851 81.722H33.1375L33.1603 84.5926H32.645L32.62 81.722H28.785L28.8146 84.5926H28.2994L28.2674 81.722H28.3176L28.313 81.3048Z" fill="#F5F5F5"/>
<path d="M30.7093 84.5926H32.6245L32.5994 81.722H30.682L30.7093 84.5926Z" fill="#EBEBEB"/>
<path d="M28.8352 84.5926H30.7504L30.723 81.722H28.8055L28.8352 84.5926Z" fill="#E0E0E0"/>
<path d="M31.3067 61.1769H36.6214L36.6533 65.7575H31.35L31.3067 61.1769Z" fill="#F0F0F0"/>
<path d="M24.4165 61.1769H29.7312L29.7745 65.7575H24.4712L24.4165 61.1769Z" fill="#F0F0F0"/>
<path d="M31.4549 66.9362H36.5416L36.5758 71.3138H31.4936L31.4549 66.9362Z" fill="#F0F0F0"/>
<path d="M24.5761 66.9362H29.6628L29.7084 71.3138H24.6263L24.5761 66.9362Z" fill="#F0F0F0"/>
<path d="M31.5073 72.8893H36.6236L36.6556 77.2783H31.5461L31.5073 72.8893Z" fill="#F0F0F0"/>
<path d="M24.6491 72.8893H29.7654L29.8087 77.2783H24.6992L24.6491 72.8893Z" fill="#F0F0F0"/>
<path d="M57 97.3583C81.4148 97.3583 101.207 96.2027 101.207 94.7773C101.207 93.3519 81.4148 92.1964 57 92.1964C32.5852 92.1964 12.7931 93.3519 12.7931 94.7773C12.7931 96.2027 32.5852 97.3583 57 97.3583Z" fill="#F5F5F5"/>
<path d="M36.6692 19.2933L37.5197 20.3923H76.4758L77.333 19.2933H36.6692Z" fill="#FD55A1"/>
<g opacity="0.4">
<path d="M36.6692 19.2933L37.5197 20.3923H76.4758L77.333 19.2933H36.6692Z" fill="black"/>
</g>
<path d="M76.4849 17.8774H37.4399V87.0937H76.4849V17.8774Z" fill="#FD55A1"/>
<g opacity="0.4">
<path d="M76.4849 17.8774H37.4399V87.0937H76.4849V17.8774Z" fill="white"/>
</g>
<g opacity="0.8">
<path d="M39.0222 19.5806C39.0372 19.6812 39.0305 19.7838 39.0024 19.8815C38.9743 19.9792 38.9255 20.0698 38.8593 20.147C38.7931 20.2242 38.7111 20.2862 38.6188 20.329C38.5266 20.3717 38.4262 20.3941 38.3245 20.3946C38.1058 20.386 37.8975 20.299 37.7376 20.1496C37.5777 20.0002 37.4769 19.7982 37.4536 19.5806C37.4378 19.4794 37.4441 19.376 37.472 19.2775C37.4999 19.1789 37.5487 19.0875 37.6152 19.0096C37.6816 18.9317 37.7641 18.869 37.8571 18.8259C37.95 18.7828 38.0511 18.7602 38.1535 18.7598C38.3729 18.7692 38.5815 18.8573 38.741 19.0081C38.9006 19.1589 39.0004 19.3622 39.0222 19.5806Z" fill="#F0F0F0"/>
<path d="M40.4609 19.5806C40.4749 19.6818 40.467 19.7847 40.438 19.8826C40.4089 19.9805 40.3592 20.071 40.2923 20.1481C40.2253 20.2252 40.1427 20.287 40.0498 20.3296C39.957 20.3721 39.8562 20.3942 39.7541 20.3946C39.537 20.3839 39.3309 20.296 39.1729 20.1467C39.0149 19.9975 38.9153 19.7967 38.8922 19.5806C38.8772 19.4792 38.8842 19.3757 38.9126 19.2771C38.9411 19.1786 38.9904 19.0873 39.0572 19.0095C39.124 18.9316 39.2067 18.869 39.2998 18.826C39.3929 18.7829 39.4942 18.7604 39.5968 18.7598C39.8153 18.7702 40.0228 18.8589 40.1814 19.0095C40.3401 19.1602 40.4392 19.3629 40.4609 19.5806Z" fill="#F0F0F0"/>
<path d="M41.8973 19.5806C41.9105 19.682 41.9021 19.7851 41.8724 19.8829C41.8428 19.9808 41.7927 20.0712 41.7254 20.1482C41.6581 20.2252 41.5752 20.287 41.4822 20.3295C41.3892 20.372 41.2882 20.3942 41.1859 20.3946C40.9684 20.3866 40.7613 20.2994 40.6035 20.1496C40.4457 19.9997 40.3479 19.7974 40.3286 19.5806C40.3147 19.4788 40.3226 19.3751 40.3519 19.2766C40.3812 19.1781 40.4312 19.0869 40.4985 19.0092C40.5659 18.9315 40.649 18.8691 40.7424 18.8261C40.8357 18.7831 40.9372 18.7605 41.04 18.7598C41.2586 18.768 41.4666 18.8561 41.6246 19.0074C41.7825 19.1587 41.8796 19.3626 41.8973 19.5806Z" fill="#F0F0F0"/>
<path d="M43.3337 19.5806C43.3455 19.6823 43.3358 19.7854 43.3052 19.8831C43.2746 19.9808 43.2238 20.071 43.1561 20.1477C43.0883 20.2245 43.0052 20.2862 42.912 20.3287C42.8189 20.3712 42.7179 20.3937 42.6155 20.3946C42.3987 20.3864 42.1925 20.299 42.0358 20.149C41.879 19.999 41.7827 19.7968 41.765 19.5806C41.7525 19.4783 41.7617 19.3744 41.7921 19.2759C41.8226 19.1774 41.8734 19.0864 41.9415 19.0089C42.0095 18.9314 42.0931 18.8691 42.1869 18.8262C42.2806 18.7833 42.3824 18.7607 42.4855 18.7598C42.7031 18.7683 42.91 18.8567 43.0665 19.0081C43.223 19.1595 43.3181 19.3634 43.3337 19.5806Z" fill="#F0F0F0"/>
<path d="M44.7724 19.5806C44.7832 19.6827 44.7725 19.7859 44.7411 19.8836C44.7097 19.9813 44.6582 20.0714 44.5899 20.148C44.5217 20.2247 44.4381 20.2862 44.3447 20.3286C44.2512 20.3711 44.15 20.3936 44.0473 20.3946C43.8311 20.3867 43.6254 20.2993 43.4697 20.1491C43.314 19.9988 43.2193 19.7964 43.2037 19.5806C43.1919 19.478 43.2018 19.3741 43.2327 19.2756C43.2637 19.177 43.315 19.0861 43.3834 19.0087C43.4517 18.9313 43.5356 18.8691 43.6296 18.8263C43.7236 18.7834 43.8255 18.7607 43.9288 18.7598C44.1462 18.7673 44.3531 18.8556 44.5091 19.0073C44.665 19.1591 44.7589 19.3634 44.7724 19.5806Z" fill="#F0F0F0"/>
<path d="M46.2088 19.5806C46.2186 19.6831 46.207 19.7864 46.1747 19.8841C46.1425 19.9818 46.0904 20.0718 46.0216 20.1483C45.9528 20.2248 45.8688 20.2862 45.7751 20.3286C45.6813 20.371 45.5798 20.3935 45.4769 20.3946C45.2612 20.3871 45.0561 20.2996 44.9014 20.1491C44.7467 19.9986 44.6536 19.796 44.6401 19.5806C44.6293 19.4777 44.6401 19.3736 44.6719 19.275C44.7037 19.1765 44.7557 19.0857 44.8246 19.0084C44.8935 18.9311 44.9778 18.8691 45.072 18.8263C45.1663 18.7835 45.2685 18.7608 45.372 18.7598C45.5889 18.767 45.7953 18.8553 45.9502 19.0073C46.1052 19.1592 46.1975 19.3639 46.2088 19.5806Z" fill="#F0F0F0"/>
<path d="M47.652 19.5806C47.6608 19.6834 47.6483 19.7869 47.6153 19.8846C47.5822 19.9824 47.5294 20.0722 47.4601 20.1486C47.3907 20.225 47.3064 20.2863 47.2123 20.3286C47.1182 20.3709 47.0164 20.3934 46.9133 20.3946C46.6982 20.3875 46.4935 20.2999 46.3399 20.1492C46.1862 19.9985 46.0947 19.7956 46.0834 19.5806C46.0732 19.4774 46.0847 19.3732 46.117 19.2747C46.1493 19.1761 46.2017 19.0854 46.271 19.0082C46.3403 18.931 46.4248 18.8691 46.5193 18.8263C46.6138 18.7836 46.7161 18.7609 46.8198 18.7598C47.0363 18.767 47.2421 18.8555 47.3963 19.0076C47.5505 19.1597 47.6418 19.3643 47.652 19.5806Z" fill="#F0F0F0"/>
<path d="M49.0838 19.5806C49.0916 19.684 49.0782 19.7878 49.0442 19.8857C49.0102 19.9836 48.9566 20.0735 48.8864 20.1498C48.8163 20.2261 48.7313 20.2872 48.6366 20.3293C48.5419 20.3714 48.4396 20.3936 48.336 20.3946C48.1214 20.3879 47.9173 20.3002 47.7646 20.1493C47.6119 19.9983 47.522 19.7951 47.5129 19.5806C47.5041 19.4771 47.5168 19.3729 47.55 19.2745C47.5832 19.1761 47.6364 19.0856 47.7061 19.0086C47.7758 18.9316 47.8606 18.8698 47.9553 18.827C48.0499 18.7842 48.1523 18.7613 48.2562 18.7598C48.4726 18.766 48.6785 18.8543 48.8322 19.0067C48.9859 19.1592 49.0758 19.3643 49.0838 19.5806Z" fill="#F0F0F0"/>
<path d="M50.5202 19.5806C50.5271 19.6839 50.5128 19.7875 50.4783 19.8852C50.4439 19.9828 50.3899 20.0724 50.3198 20.1485C50.2496 20.2246 50.1647 20.2857 50.0702 20.328C49.9757 20.3703 49.8736 20.393 49.7701 20.3946C49.5558 20.3883 49.3519 20.3007 49.1998 20.1495C49.0478 19.9983 48.959 19.7949 48.9516 19.5806C48.9438 19.4766 48.9574 19.3721 48.9916 19.2735C49.0257 19.1749 49.0797 19.0844 49.1502 19.0075C49.2207 18.9305 49.3062 18.8689 49.4015 18.8263C49.4967 18.7837 49.5997 18.7611 49.704 18.7598C49.9193 18.7662 50.1239 18.8548 50.2757 19.0075C50.4276 19.1602 50.5151 19.3653 50.5202 19.5806Z" fill="#F0F0F0"/>
<path d="M51.9589 19.5806C51.9645 19.6844 51.949 19.7882 51.9135 19.8858C51.878 19.9835 51.8232 20.073 51.7523 20.149C51.6814 20.225 51.596 20.2859 51.501 20.3281C51.4061 20.3703 51.3036 20.3929 51.1997 20.3946C50.9857 20.3894 50.7819 20.3019 50.6307 20.1503C50.4796 19.9987 50.3926 19.7947 50.388 19.5806C50.3812 19.4764 50.3956 19.3719 50.4304 19.2735C50.4652 19.175 50.5197 19.0847 50.5905 19.0079C50.6613 18.9312 50.7469 18.8696 50.8423 18.8269C50.9376 18.7843 51.0406 18.7615 51.145 18.7598C51.3604 18.7651 51.5654 18.8535 51.7171 19.0065C51.8688 19.1595 51.9555 19.3652 51.9589 19.5806Z" fill="#F0F0F0"/>
<path d="M53.3953 19.5806C53.3999 19.6845 53.3837 19.7883 53.3475 19.8858C53.3114 19.9834 53.2561 20.0727 53.1849 20.1485C53.1138 20.2244 53.0281 20.2852 52.9331 20.3275C52.8381 20.3697 52.7355 20.3926 52.6315 20.3946C52.4183 20.3887 52.2156 20.3008 52.0657 20.1492C51.9158 19.9975 51.8301 19.7939 51.8267 19.5806C51.8208 19.4761 51.8362 19.3714 51.8718 19.273C51.9073 19.1745 51.9625 19.0842 52.0338 19.0076C52.1051 18.9309 52.1912 18.8695 52.2869 18.8269C52.3825 18.7843 52.4858 18.7615 52.5905 18.7598C52.805 18.7652 53.009 18.8538 53.1593 19.0071C53.3095 19.1603 53.3942 19.366 53.3953 19.5806Z" fill="#F0F0F0"/>
<path d="M54.8317 19.5806C54.8354 19.6849 54.8182 19.7888 54.7813 19.8864C54.7445 19.9839 54.6885 20.0732 54.6168 20.1489C54.5451 20.2247 54.459 20.2854 54.3636 20.3276C54.2682 20.3698 54.1654 20.3925 54.0611 20.3946C53.8485 20.3887 53.6466 20.3005 53.4977 20.1487C53.3489 19.9969 53.2648 19.7932 53.2631 19.5806C53.2585 19.4758 53.2749 19.3712 53.3114 19.2728C53.3479 19.1744 53.4037 19.0843 53.4755 19.0079C53.5473 18.9314 53.6337 18.87 53.7295 18.8274C53.8254 18.7848 53.9288 18.7619 54.0337 18.7598C54.2478 18.7646 54.4515 18.8533 54.6007 19.0069C54.75 19.1604 54.833 19.3665 54.8317 19.5806Z" fill="#F0F0F0"/>
<path d="M56.2704 19.5806C56.2731 19.6852 56.2551 19.7893 56.2175 19.8869C56.1798 19.9845 56.1233 20.0737 56.051 20.1493C55.9787 20.225 55.8922 20.2856 55.7964 20.3277C55.7007 20.3698 55.5975 20.3925 55.4929 20.3946C55.2806 20.3898 55.0787 20.3018 54.9307 20.1495C54.7828 19.9973 54.7005 19.793 54.7018 19.5806C54.6981 19.4755 54.7154 19.3707 54.7527 19.2723C54.7899 19.1739 54.8463 19.0839 54.9187 19.0075C54.991 18.9311 55.0779 18.8699 55.1741 18.8273C55.2703 18.7848 55.3741 18.7619 55.4792 18.7598C55.6925 18.7652 55.8951 18.8543 56.0432 19.008C56.1912 19.1616 56.2729 19.3673 56.2704 19.5806Z" fill="#F0F0F0"/>
<path d="M57.7068 19.5806C57.6997 19.734 57.6477 19.8819 57.5573 20.006C57.4668 20.1301 57.342 20.2249 57.1982 20.2787C57.0544 20.3325 56.898 20.343 56.7483 20.3087C56.5987 20.2744 56.4623 20.197 56.3563 20.086C56.2502 19.975 56.179 19.8353 56.1516 19.6842C56.1242 19.5332 56.1417 19.3774 56.202 19.2362C56.2623 19.095 56.3627 18.9746 56.4908 18.8899C56.6188 18.8052 56.7689 18.76 56.9225 18.7598C57.028 18.7619 57.132 18.7848 57.2286 18.8272C57.3252 18.8697 57.4125 18.9308 57.4854 19.0071C57.5583 19.0834 57.6154 19.1733 57.6534 19.2717C57.6914 19.3702 57.7095 19.4751 57.7068 19.5806Z" fill="#F0F0F0"/>
<path d="M59.1432 19.5806C59.145 19.7927 59.0633 19.9971 58.9157 20.1494C58.7681 20.3017 58.5664 20.3898 58.3543 20.3946C58.2497 20.3925 58.1466 20.3698 58.0508 20.3277C57.955 20.2856 57.8685 20.225 57.7963 20.1493C57.724 20.0737 57.6674 19.9845 57.6298 19.8869C57.5921 19.7893 57.5741 19.6852 57.5768 19.5806C57.5732 19.3673 57.6541 19.1613 57.8019 19.0074C57.9497 18.8536 58.1524 18.7646 58.3657 18.7598C58.4709 18.7619 58.5746 18.7848 58.6709 18.8273C58.7671 18.8699 58.8539 18.9311 58.9263 19.0075C58.9986 19.0839 59.0551 19.1739 59.0923 19.2723C59.1295 19.3707 59.1468 19.4755 59.1432 19.5806Z" fill="#F0F0F0"/>
<path d="M60.5819 19.5806C60.5813 19.7936 60.4976 19.9979 60.3485 20.15C60.1994 20.302 59.9968 20.3898 59.7839 20.3946C59.6796 20.3925 59.5768 20.3698 59.4813 20.3276C59.3859 20.2854 59.2999 20.2247 59.2282 20.1489C59.1564 20.0732 59.1005 19.9839 59.0636 19.8864C59.0267 19.7888 59.0096 19.6849 59.0132 19.5806C59.012 19.3669 59.0946 19.1611 59.2434 19.0077C59.3922 18.8542 59.5953 18.7652 59.809 18.7598C59.914 18.7619 60.0175 18.7848 60.1135 18.8274C60.2095 18.87 60.296 18.9313 60.368 19.0077C60.44 19.0842 60.496 19.1742 60.5327 19.2726C60.5694 19.371 60.5861 19.4757 60.5819 19.5806Z" fill="#F0F0F0"/>
<path d="M62.016 19.5806C62.0131 19.7937 61.928 19.9973 61.7784 20.149C61.6289 20.3007 61.4264 20.3887 61.2134 20.3946C61.1094 20.3925 61.0067 20.3698 60.9115 20.3275C60.8164 20.2853 60.7306 20.2245 60.6593 20.1487C60.5879 20.0729 60.5324 19.9836 60.496 19.886C60.4596 19.7885 60.4431 19.6846 60.4474 19.5806C60.4485 19.366 60.5331 19.1603 60.6834 19.0071C60.8336 18.8538 61.0377 18.7652 61.2522 18.7598C61.3568 18.7618 61.4599 18.7848 61.5554 18.8275C61.6509 18.8702 61.7369 18.9317 61.8082 19.0082C61.8794 19.0848 61.9346 19.175 61.9703 19.2733C62.006 19.3716 62.0215 19.4762 62.016 19.5806Z" fill="#F0F0F0"/>
<path d="M63.457 19.5806C63.4518 19.7945 63.3647 19.9982 63.2136 20.1497C63.0626 20.3011 62.8591 20.3888 62.6453 20.3946C62.5415 20.3929 62.4391 20.3703 62.3443 20.3281C62.2494 20.2858 62.1641 20.2249 62.0934 20.1489C62.0227 20.0728 61.9681 19.9833 61.9329 19.8857C61.8976 19.788 61.8825 19.6843 61.8883 19.5806C61.8912 19.3658 61.977 19.1604 62.1279 19.0074C62.2788 18.8544 62.4829 18.7657 62.6977 18.7598C62.8022 18.7615 62.9053 18.7843 63.0007 18.8269C63.0962 18.8695 63.182 18.9311 63.2529 19.0078C63.3239 19.0845 63.3786 19.1749 63.4136 19.2733C63.4487 19.3718 63.4635 19.4763 63.457 19.5806Z" fill="#F0F0F0"/>
<path d="M64.8934 19.5806C64.8858 19.7961 64.7961 20.0005 64.6426 20.1518C64.4891 20.3032 64.2835 20.3901 64.068 20.3946C63.9644 20.3929 63.8622 20.3703 63.7676 20.328C63.673 20.2857 63.588 20.2247 63.5176 20.1486C63.4473 20.0725 63.3931 19.983 63.3584 19.8853C63.3237 19.7877 63.3091 19.684 63.3156 19.5806C63.3208 19.3653 63.4083 19.1602 63.5601 19.0075C63.712 18.8548 63.9166 18.7662 64.1318 18.7598C64.2369 18.7598 64.3409 18.7816 64.4372 18.8236C64.5335 18.8656 64.6201 18.9271 64.6916 19.0041C64.7631 19.0812 64.8179 19.1721 64.8526 19.2713C64.8873 19.3705 64.9012 19.4758 64.8934 19.5806Z" fill="#F0F0F0"/>
<path d="M66.3298 19.5806C66.3212 19.7949 66.2318 19.9981 66.0795 20.1491C65.9272 20.3001 65.7233 20.3878 65.509 20.3946C65.4047 20.3945 65.3015 20.373 65.2059 20.3313C65.1103 20.2897 65.0243 20.2288 64.9533 20.1524C64.8823 20.076 64.8277 19.9858 64.7931 19.8875C64.7585 19.7891 64.7445 19.6846 64.752 19.5806C64.7594 19.3649 64.8486 19.1601 65.0014 19.0077C65.1543 18.8552 65.3593 18.7666 65.5751 18.7598C65.6799 18.7598 65.7836 18.7815 65.8796 18.8236C65.9756 18.8657 66.0618 18.9273 66.1327 19.0044C66.2037 19.0816 66.2578 19.1727 66.2917 19.2719C66.3256 19.371 66.3386 19.4762 66.3298 19.5806Z" fill="#F0F0F0"/>
<path d="M67.7684 19.5806C67.7571 19.7956 67.6656 19.9985 67.5119 20.1492C67.3583 20.2999 67.1536 20.3875 66.9385 20.3946C66.8354 20.3934 66.7336 20.3709 66.6395 20.3286C66.5454 20.2863 66.4611 20.225 66.3917 20.1486C66.3224 20.0722 66.2696 19.9824 66.2365 19.8846C66.2035 19.7869 66.191 19.6834 66.1998 19.5806C66.2089 19.3643 66.2995 19.1594 66.4535 19.0072C66.6074 18.8549 66.8133 18.7665 67.0297 18.7598C67.1334 18.7613 67.2357 18.7842 67.3301 18.827C67.4245 18.8698 67.5091 18.9318 67.5784 19.0088C67.6478 19.0859 67.7005 19.1765 67.7332 19.2749C67.7659 19.3733 67.7779 19.4774 67.7684 19.5806Z" fill="#F0F0F0"/>
<path d="M69.2048 19.5806C69.1919 19.7958 69.0993 19.9984 68.945 20.1489C68.7907 20.2994 68.5858 20.387 68.3704 20.3946C68.2674 20.3934 68.1658 20.371 68.0719 20.3286C67.978 20.2863 67.894 20.2249 67.825 20.1484C67.756 20.072 67.7036 19.982 67.6711 19.8843C67.6386 19.7866 67.6267 19.6832 67.6362 19.5806C67.6475 19.3639 67.7398 19.1592 67.8947 19.0073C68.0497 18.8553 68.256 18.767 68.473 18.7598C68.5765 18.7608 68.6787 18.7835 68.7729 18.8263C68.8672 18.8691 68.9515 18.9311 69.0204 19.0084C69.0893 19.0857 69.1413 19.1765 69.173 19.275C69.2048 19.3736 69.2156 19.4777 69.2048 19.5806Z" fill="#F0F0F0"/>
<path d="M70.6412 19.5806C70.6267 19.7964 70.5326 19.9991 70.3772 20.1495C70.2217 20.2998 70.0161 20.3872 69.7999 20.3946C69.6982 20.392 69.5981 20.3684 69.5059 20.3252C69.4137 20.2821 69.3314 20.2204 69.2642 20.144C69.1969 20.0676 69.1462 19.9781 69.1152 19.8811C69.0842 19.7842 69.0736 19.6819 69.084 19.5806C69.0975 19.3634 69.1913 19.1591 69.3473 19.0073C69.5032 18.8556 69.7101 18.7673 69.9276 18.7598C70.0299 18.7623 70.1306 18.7861 70.2232 18.8297C70.3158 18.8732 70.3983 18.9356 70.4654 19.0129C70.5326 19.0901 70.5829 19.1805 70.6132 19.2782C70.6434 19.376 70.653 19.479 70.6412 19.5806Z" fill="#F0F0F0"/>
<path d="M72.0799 19.5806C72.0628 19.7966 71.9669 19.9988 71.8106 20.1489C71.6543 20.2989 71.4483 20.3863 71.2318 20.3946C71.1292 20.394 71.0279 20.3718 70.9345 20.3294C70.8411 20.287 70.7577 20.2254 70.6897 20.1486C70.6217 20.0718 70.5706 19.9815 70.5399 19.8836C70.5092 19.7858 70.4994 19.6825 70.5113 19.5806C70.5263 19.3632 70.6213 19.1591 70.7779 19.0075C70.9345 18.856 71.1417 18.7678 71.3594 18.7598C71.4626 18.7607 71.5643 18.7833 71.6581 18.8262C71.7518 18.8691 71.8355 18.9314 71.9035 19.0089C71.9715 19.0864 72.0224 19.1774 72.0528 19.2759C72.0832 19.3744 72.0925 19.4783 72.0799 19.5806Z" fill="#F0F0F0"/>
<path d="M73.5163 19.5806C73.4971 19.797 73.3997 19.999 73.2423 20.1489C73.085 20.2987 72.8784 20.386 72.6613 20.3946C72.5591 20.3938 72.4582 20.3713 72.3653 20.3287C72.2723 20.2862 72.1895 20.2244 72.1221 20.1476C72.0547 20.0707 72.0043 19.9804 71.9742 19.8827C71.9442 19.785 71.9351 19.6821 71.9477 19.5806C71.9653 19.363 72.062 19.1593 72.2196 19.0081C72.3771 18.8569 72.5845 18.7686 72.8027 18.7598C72.9056 18.7605 73.0071 18.7831 73.1006 18.8261C73.194 18.8691 73.2773 18.9315 73.3448 19.0091C73.4123 19.0868 73.4625 19.1779 73.4921 19.2764C73.5216 19.375 73.5299 19.4787 73.5163 19.5806Z" fill="#F0F0F0"/>
<path d="M74.955 19.5806C74.9321 19.7956 74.8336 19.9955 74.677 20.1446C74.5204 20.2937 74.3159 20.3823 74.1 20.3946C73.9979 20.3942 73.8971 20.3721 73.8042 20.3296C73.7114 20.287 73.6288 20.2252 73.5618 20.1481C73.4949 20.071 73.4452 19.9805 73.4161 19.8826C73.387 19.7847 73.3792 19.6818 73.3932 19.5806C73.4148 19.3633 73.5136 19.1609 73.6718 19.0103C73.8299 18.8596 74.0369 18.7708 74.255 18.7598C74.3571 18.7614 74.4577 18.7847 74.55 18.8281C74.6424 18.8716 74.7244 18.9343 74.7907 19.0119C74.8569 19.0896 74.9058 19.1805 74.9342 19.2786C74.9625 19.3766 74.9696 19.4796 74.955 19.5806Z" fill="#F0F0F0"/>
<path d="M76.3914 19.5806C76.3681 19.7979 76.2676 19.9995 76.1082 20.1489C75.9488 20.2983 75.741 20.3855 75.5227 20.3946C75.421 20.394 75.3205 20.3716 75.2282 20.3289C75.1358 20.2862 75.0537 20.2242 74.9873 20.1471C74.921 20.0699 74.872 19.9794 74.8436 19.8817C74.8152 19.784 74.8081 19.6813 74.8228 19.5806C74.8445 19.3622 74.9443 19.1589 75.1039 19.0081C75.2635 18.8573 75.4721 18.7692 75.6914 18.7598C75.7939 18.7602 75.895 18.7828 75.9879 18.8259C76.0808 18.869 76.1633 18.9317 76.2298 19.0096C76.2962 19.0875 76.3451 19.1789 76.373 19.2775C76.4009 19.376 76.4072 19.4794 76.3914 19.5806Z" fill="#F0F0F0"/>
</g>
<path d="M36.667 18.1807H77.3353L77.333 19.2934H36.6692L36.667 18.1807Z" fill="#FD55A1"/>
<path d="M36.6647 17.0681L37.5128 18.1807H76.4803L77.3376 17.0681H36.6647Z" fill="#FD55A1"/>
<g opacity="0.4">
<path d="M36.6647 17.0681L37.5128 18.1807H76.4803L77.3376 17.0681H36.6647Z" fill="black"/>
</g>
<path d="M36.6601 15.9509H77.3399L77.3376 17.0681H36.6647L36.6601 15.9509Z" fill="#FD55A1"/>
<g opacity="0.8">
<path d="M37.5106 17.0681H76.4826L76.4803 18.1807H37.5128L37.5106 17.0681Z" fill="white"/>
</g>
<g opacity="0.7">
<path d="M76.494 40.0847H37.4513V40.5749H76.494V40.0847Z" fill="white"/>
</g>
<g opacity="0.8">
<path d="M76.4917 64.4146H37.5311V64.9025H76.4917V64.4146Z" fill="white"/>
</g>
<path d="M50.3698 22.5241H45.543V27.7385H50.3698V22.5241Z" fill="#FD55A1"/>
<path d="M59.6402 22.5241H54.8135V27.7385H59.6402V22.5241Z" fill="#FD55A1"/>
<path d="M68.9107 22.5241H64.084V27.7385H68.9107V22.5241Z" fill="#FD55A1"/>
<path d="M50.3698 30.3308H45.543V35.5452H50.3698V30.3308Z" fill="#FD55A1"/>
<path d="M59.6402 30.3308H54.8135V35.5452H59.6402V30.3308Z" fill="#FD55A1"/>
<path d="M68.9107 30.3308H64.084V35.5452H68.9107V30.3308Z" fill="#FD55A1"/>
<path d="M50.3698 68.1697H45.543V73.384H50.3698V68.1697Z" fill="#FD55A1"/>
<path d="M59.6402 68.1697H54.8135V73.384H59.6402V68.1697Z" fill="#FD55A1"/>
<path d="M68.9107 68.1697H64.084V73.384H68.9107V68.1697Z" fill="#FD55A1"/>
<path d="M45.1987 79.1479H40.372V84.3622H45.1987V79.1479Z" fill="#FD55A1"/>
<path d="M73.5574 79.1479H68.7306V84.3622H73.5574V79.1479Z" fill="#FD55A1"/>
<path d="M50.3698 44.6834H45.543V49.8978H50.3698V44.6834Z" fill="#FD55A1"/>
<path d="M59.6402 44.6834H54.8135V49.8978H59.6402V44.6834Z" fill="#FD55A1"/>
<path d="M68.9107 44.6834H64.084V49.8978H68.9107V44.6834Z" fill="#FD55A1"/>
<path d="M50.3698 52.4902H45.543V57.7045H50.3698V52.4902Z" fill="#FD55A1"/>
<path d="M59.6402 52.4902H54.8135V57.7045H59.6402V52.4902Z" fill="#FD55A1"/>
<path d="M68.9107 52.4902H64.084V57.7045H68.9107V52.4902Z" fill="#FD55A1"/>
<g opacity="0.8">
<path d="M51.3798 79.759H56.3753L56.3548 84.946H51.3456L51.3798 79.759Z" fill="white"/>
</g>
<g opacity="0.8">
<path d="M57.3397 79.759H62.5404L62.2942 84.946H57.285L57.3397 79.759Z" fill="white"/>
</g>
<path d="M63.3361 85.9902H50.1554L50.103 84.9459H63.3863L63.3361 85.9902Z" fill="#FD55A1"/>
<g opacity="0.1">
<path d="M63.3361 85.9902H50.1554L50.103 84.9459H63.3863L63.3361 85.9902Z" fill="white"/>
</g>
<path d="M63.8674 87.0937H49.6903L49.6333 86.0654H63.9198L63.8674 87.0937Z" fill="#FD55A1"/>
<g opacity="0.4">
<path d="M64.337 77.9213H49.1842L49.118 76.7471H64.3963L64.337 77.9213Z" fill="white"/>
</g>
<path d="M49.1842 77.9213L51.3798 79.7589H62.5404L64.337 77.9213H49.1842Z" fill="#263238"/>
<path d="M50.2102 78.7808L50.9854 84.9368H51.601L51.3524 78.7808C51.1761 78.6902 50.9807 78.6429 50.7824 78.6429C50.5842 78.6429 50.3888 78.6902 50.2124 78.7808H50.2102Z" fill="#FD55A1"/>
<path d="M63.5254 78.7808L62.7661 84.9368H62.1505L62.3785 78.7808C62.5479 78.6698 62.746 78.6107 62.9485 78.6107C63.151 78.6107 63.3492 78.6698 63.5185 78.7808H63.5254Z" fill="#FD55A1"/>
<path d="M44.1043 14.2591C44.1043 13.2513 44.8772 12.5377 45.9283 12.5377C46.198 12.5248 46.4669 12.5745 46.7141 12.6829C46.9614 12.7912 47.1801 12.9554 47.3533 13.1624L46.7582 13.7005C46.6662 13.5804 46.5478 13.483 46.4123 13.4158C46.2767 13.3486 46.1275 13.3134 45.9762 13.3129C45.7253 13.3129 45.4846 13.4126 45.3071 13.59C45.1297 13.7675 45.03 14.0082 45.03 14.2591C45.03 14.5101 45.1297 14.7507 45.3071 14.9282C45.4846 15.1056 45.7253 15.2053 45.9762 15.2053C46.1276 15.2053 46.277 15.1703 46.4126 15.1031C46.5483 15.0359 46.6666 14.9382 46.7582 14.8177L47.3533 15.3581C47.1798 15.5647 46.9609 15.7286 46.7138 15.8369C46.4667 15.9453 46.1979 15.9952 45.9283 15.9828C44.8772 15.9828 44.1043 15.276 44.1043 14.2591Z" fill="#263238"/>
<path d="M47.5243 14.2591C47.5243 13.2673 48.3064 12.5377 49.3666 12.5377C50.4268 12.5377 51.2065 13.2673 51.2065 14.2591C51.2065 15.2509 50.4268 15.9828 49.3666 15.9828C48.3064 15.9828 47.5243 15.2532 47.5243 14.2591ZM50.2603 14.2591C50.2505 14.0843 50.1897 13.9161 50.0854 13.7755C49.981 13.6348 49.8378 13.5278 49.6733 13.4677C49.5088 13.4076 49.3304 13.397 49.1599 13.4372C48.9895 13.4774 48.8345 13.5667 48.7143 13.694C48.594 13.8213 48.5137 13.9811 48.4833 14.1535C48.4528 14.326 48.4736 14.5036 48.543 14.6643C48.6124 14.8251 48.7274 14.9621 48.8737 15.0582C49.0201 15.1543 49.1914 15.2055 49.3666 15.2053C49.4888 15.2065 49.6099 15.1825 49.7224 15.1347C49.8348 15.0869 49.9362 15.0163 50.0201 14.9275C50.1041 14.8386 50.1687 14.7334 50.2101 14.6184C50.2514 14.5034 50.2685 14.3811 50.2603 14.2591Z" fill="#263238"/>
<path d="M54.6881 15.9167V14.1611L53.8354 15.5906H53.4204L52.5722 14.2089V15.9167H51.7058V12.6038H52.4788L53.6416 14.5145L54.7816 12.6038H55.5522V15.9167H54.6881Z" fill="#263238"/>
<path d="M59.1956 13.8305C59.1956 14.5806 58.6279 15.0503 57.725 15.0503H57.1459V15.9167H56.2111V12.6038H57.725C58.6279 12.6038 59.1956 13.0712 59.1956 13.8305ZM58.2494 13.8305C58.2494 13.5227 58.0556 13.3425 57.668 13.3425H57.1459V14.3115H57.668C58.0556 14.3115 58.2494 14.136 58.2494 13.8305Z" fill="#263238"/>
<path d="M61.7036 15.276H60.3014L60.0415 15.9212H59.0862L60.5477 12.6084H61.4711L62.928 15.9167H61.9544L61.7036 15.276ZM61.4278 14.592L61.0014 13.5341L60.5773 14.592H61.4278Z" fill="#263238"/>
<path d="M66.348 12.6038V15.9167H65.5774L64.1159 14.1519V15.9167H63.2039V12.6038H63.9745L65.436 14.364V12.6038H66.348Z" fill="#263238"/>
<path d="M68.7876 14.7288V15.9167H67.8505V14.7151L66.5874 12.6038H67.5769L68.3635 13.9194L69.1478 12.6038H70.0598L68.7876 14.7288Z" fill="#263238"/>
<path d="M37.5106 17.0681H76.4826L76.4803 18.1807H37.5128L37.5106 17.0681Z" fill="#FD55A1"/>
<path d="M86.8338 19.0266C86.6709 18.9884 86.5115 18.9366 86.3573 18.8715C86.07 18.7598 85.7029 18.5706 85.3176 18.3859C84.9983 18.2274 84.6545 18.1241 84.3007 18.0804C84.0294 18.0507 83.8447 18.0804 83.8196 18.0097C83.7946 17.939 83.9542 17.8068 84.2756 17.7452C84.7003 17.6876 85.1324 17.7616 85.5137 17.9572C85.8709 18.1436 86.1964 18.3852 86.4781 18.6732C86.7016 18.8852 86.8338 19.0266 86.8338 19.0266Z" fill="#FD55A1"/>
<path d="M88.5073 17.6791L88.163 17.8136C87.9578 17.898 87.707 18.0166 87.4106 18.142C86.8338 18.3973 86.3413 18.6618 86.2706 18.5455C86.2342 18.4931 86.3094 18.3631 86.4758 18.2035C86.6967 17.9943 86.953 17.826 87.2328 17.7065C87.5197 17.5822 87.8348 17.5381 88.1448 17.5788C88.2388 17.5912 88.3313 17.6134 88.4207 17.6449L88.5073 17.6791Z" fill="#FD55A1"/>
<path d="M83.7284 20.0321L83.635 19.9751C83.5757 19.9363 83.4868 19.8861 83.3796 19.8291C83.1092 19.6833 82.827 19.5605 82.536 19.4621C81.8657 19.2204 81.266 19.2751 81.2478 19.1725C81.2478 19.1269 81.3846 19.0494 81.6445 19.0129C81.9846 18.9733 82.3292 19.0115 82.6523 19.1246C82.9756 19.2384 83.2645 19.4331 83.4913 19.6901C83.5601 19.7659 83.6212 19.8484 83.6737 19.9363L83.7284 20.0321Z" fill="#FD55A1"/>
<path d="M84.3874 18.6458L84.1457 18.7849L83.6099 19.0835C83.2063 19.3115 82.894 19.5646 82.8164 19.4962C82.7822 19.462 82.8164 19.3549 82.919 19.2158C83.0582 19.0288 83.2354 18.8734 83.4389 18.7598C83.6437 18.651 83.8728 18.5961 84.1046 18.6002C84.2004 18.6034 84.2954 18.6188 84.3874 18.6458Z" fill="#FD55A1"/>
<path d="M83.1721 17.857C83.1721 17.857 82.9441 17.7772 82.5976 17.629C82.251 17.4808 81.7836 17.2756 81.2706 17.1068C80.8386 16.9611 80.3831 16.8977 79.9277 16.9199C79.5766 16.9404 79.3531 17.0088 79.3212 16.945C79.2893 16.8811 79.474 16.717 79.8661 16.5916C80.3786 16.459 80.9189 16.4812 81.4188 16.6554C81.8999 16.8253 82.343 17.0879 82.723 17.4283C82.8807 17.5626 83.0306 17.7057 83.1721 17.857Z" fill="#FD55A1"/>
<path d="M84.7134 15.8984L84.5857 15.9349C84.5014 15.9554 84.3851 15.9919 84.246 16.0352C83.8965 16.1508 83.554 16.2863 83.22 16.4411C82.4402 16.7899 81.9386 17.3075 81.8315 17.2254C81.7813 17.1866 81.8452 16.9974 82.0435 16.7511C82.31 16.434 82.6442 16.1808 83.0216 16.0101C83.3988 15.8399 83.8129 15.7677 84.2255 15.8004C84.3488 15.8091 84.471 15.8297 84.5903 15.8619L84.7134 15.8984Z" fill="#FD55A1"/>
<path d="M31.904 24.7859C31.7415 24.7464 31.5822 24.6946 31.4275 24.6308C31.1402 24.5191 30.7709 24.3299 30.3878 24.1429C30.0674 23.9854 29.723 23.8821 29.3687 23.8374C29.0974 23.8077 28.9127 23.8374 28.8876 23.7667C28.8625 23.696 29.0221 23.5638 29.3436 23.5045C29.7683 23.4456 30.2008 23.5196 30.5816 23.7165C30.9395 23.9008 31.2652 24.1418 31.5461 24.4302C31.7718 24.6422 31.904 24.7859 31.904 24.7859Z" fill="#FD55A1"/>
<path d="M33.5776 23.4384L33.231 23.5729C33.0258 23.655 32.775 23.7735 32.4786 23.9012C31.9018 24.1543 31.4116 24.4188 31.3386 24.3048C31.2998 24.25 31.3774 24.1224 31.5415 23.9605C31.7628 23.7518 32.019 23.5836 32.2985 23.4634C32.5858 23.3408 32.9005 23.2967 33.2105 23.3358C33.3036 23.3489 33.3952 23.371 33.4841 23.4019C33.5159 23.4123 33.5471 23.4245 33.5776 23.4384Z" fill="#FD55A1"/>
<path d="M28.7987 25.789L28.7029 25.732C28.6436 25.6933 28.557 25.6431 28.4498 25.5861C28.179 25.4411 27.8969 25.3184 27.6062 25.219C26.9359 24.991 26.334 25.0321 26.3158 24.9295C26.3158 24.8839 26.4548 24.8064 26.7125 24.7699C27.0534 24.7301 27.399 24.7691 27.7225 24.8839C28.0458 24.9967 28.3347 25.1906 28.5616 25.447C28.6298 25.5228 28.6901 25.6053 28.7417 25.6933L28.7987 25.789Z" fill="#FD55A1"/>
<path d="M29.4553 24.396L29.2159 24.5351L28.6801 24.852C28.2743 25.08 27.9642 25.3331 27.8867 25.2624C27.8502 25.2305 27.8867 25.1233 27.9893 24.9819C28.1293 24.7993 28.3064 24.6485 28.5091 24.5396C28.7128 24.4299 28.9412 24.3741 29.1726 24.3777C29.2672 24.372 29.3622 24.3782 29.4553 24.396Z" fill="#FD55A1"/>
</svg>
