<svg width="100" height="100" viewBox="0 0 100 100" fill="none" xmlns="http://www.w3.org/2000/svg">
<path d="M14.964 48.514C-4.386 59.686 -4.384 77.798 14.964 88.97C34.312 100.142 65.684 100.142 85.034 88.97C104.384 77.798 104.382 59.686 85.034 48.514C65.686 37.342 34.314 37.344 14.964 48.514Z" fill="#FAFAFA"/>
<path d="M4.376 67.912L15.096 61.724L25.816 67.912L15.096 74.102L4.376 67.912Z" fill="#E0E0E0"/>
<path d="M64.62 68.9L33.688 86.75C33.326 86.95 33.326 87.298 33.688 87.506L38.528 90.294C38.7311 90.3965 38.9555 90.4499 39.183 90.4499C39.4105 90.4499 39.6349 90.3965 39.838 90.294L70.772 72.446C71.134 72.236 71.134 71.898 70.772 71.688L65.93 68.9C65.7269 68.7975 65.5025 68.7441 65.275 68.7441C65.0475 68.7441 64.8231 68.7975 64.62 68.9Z" fill="#E0E0E0"/>
<path d="M17.906 78.902L28.626 72.712L39.346 78.902L28.626 85.092L17.906 78.902Z" fill="#E0E0E0"/>
<path d="M66.586 47.06L78.508 40.176L90.432 47.06L78.508 53.944L66.586 47.06Z" fill="#E0E0E0"/>
<path d="M72.432 60.18L84.356 53.296L96.28 60.18L84.356 67.064L72.432 60.18Z" fill="#E0E0E0"/>
<path d="M51.818 96.226L45.3 92.464C44.814 92.182 44.814 91.726 45.3 91.444L69.718 77.346C69.9916 77.2069 70.2941 77.1344 70.601 77.1344C70.9079 77.1344 71.2104 77.2069 71.484 77.346L78 81.108C78.488 81.39 78.486 81.846 78 82.128L67 88.48L53.584 96.226C53.3102 96.3644 53.0078 96.4364 52.701 96.4364C52.3943 96.4364 52.0918 96.3644 51.818 96.226Z" fill="#E0E0E0"/>
<path d="M15.096 73.052L5.63 67.58V55.934L5.43 55.818V53.028L15.096 58.608V73.052Z" fill="#E0E0E0"/>
<path opacity="0.15" d="M15.096 61.4L11.472 59.308L5.63 55.934V56.336L15.096 61.8V61.4Z" fill="black"/>
<path d="M15.096 73.052L24.51 67.62V55.964L24.762 55.818V53.028L15.096 58.608V73.052Z" fill="#F0F0F0"/>
<path opacity="0.1" d="M24.512 55.964L15.096 61.4V61.8L24.512 56.37V55.964Z" fill="black"/>
<path d="M24.762 53.028L15.096 47.448L5.43 53.028L15.096 58.608L24.762 53.028Z" fill="#FAFAFA"/>
<path d="M19.022 70.788V56.342L20.592 55.436V69.88L19.022 70.788Z" fill="#EBEBEB"/>
<path d="M11.17 70.788V56.342L9.6 55.436V69.88L11.17 70.788Z" fill="#E0E0E0"/>
<path opacity="0.15" d="M11.17 70.788V56.342L9.6 55.436V69.88L11.17 70.788Z" fill="black"/>
<path d="M20.592 55.436L10.926 49.856L9.356 50.762L19.022 56.342L20.592 55.436Z" fill="#F5F5F5"/>
<path opacity="0.25" d="M15.224 54.15L16.794 53.244L15.224 52.338L13.654 53.244L15.224 54.15Z" fill="black"/>
<path d="M11.17 56.342L20.836 50.762L19.266 49.856L9.6 55.436L11.17 56.342Z" fill="#F5F5F5"/>
<path d="M10.92 50.7C11.072 51.358 12.032 53.27 15.08 53.478L15.4 53.2C15.4 53.2 11.86 52.314 12.628 49.212L10.92 50.7Z" fill="#E0E0E0"/>
<path d="M15.426 53.84C15.426 53.84 15.426 51.964 14.714 50.858C14.002 49.752 12.618 49.218 12.618 49.218C11.9325 49.5555 11.3471 50.0664 10.92 50.7C11.7727 50.7232 12.6095 50.9356 13.37 51.322C14.57 51.956 15.08 53.478 15.08 53.478L15.426 53.84Z" fill="#EBEBEB"/>
<path d="M13.34 51.308L14.574 50.658C14.3712 50.3972 14.1368 50.1628 13.876 49.96L12.248 50.892C12.6262 50.9901 12.9924 51.1296 13.34 51.308Z" fill="#FAFAFA"/>
<path d="M10.692 54.146C10.692 54.146 12.778 54.694 15.426 53.84L15.226 53.478C15.226 53.478 13.848 53.71 12.872 53.478C11.896 53.246 11.072 51.86 11.072 51.86L10.692 54.146Z" fill="#E0E0E0"/>
<path d="M15.426 53.84C15.426 53.84 15.402 53.326 14.678 52.652C13.728 51.77 11.878 51.77 11.064 51.852C10.7344 52.1034 10.5116 52.4697 10.44 52.878C10.342 53.38 10.692 54.138 10.692 54.138C10.9593 53.8175 11.2897 53.5554 11.6627 53.3683C12.0357 53.1811 12.4433 53.0727 12.86 53.05C13.6251 52.9837 14.3862 53.2159 14.984 53.698L15.426 53.84Z" fill="#EBEBEB"/>
<path d="M12.616 51.87C12.3085 51.8365 11.9993 51.8218 11.69 51.826C11.4601 52.0577 11.2987 52.3484 11.2235 52.666C11.1483 52.9836 11.1623 53.3159 11.264 53.626C11.558 53.4215 11.8846 53.2686 12.23 53.174C12.2092 52.7084 12.3451 52.2493 12.616 51.87Z" fill="#FAFAFA"/>
<path d="M12.692 56.574C12.692 56.574 13.818 56.438 14.528 55.622C14.9742 55.1142 15.2834 54.5008 15.426 53.84L15.08 53.478C14.8179 54.0938 14.339 54.592 13.734 54.878C12.934 55.232 11.442 55.228 11.442 55.228L12.692 56.574Z" fill="#E0E0E0"/>
<path d="M15.426 53.84L15.08 53.478C15.08 53.478 13.742 53.208 13.02 53.478C12.298 53.748 11.458 54.878 11.442 55.222C11.5349 55.527 11.6956 55.8071 11.9121 56.0412C12.1285 56.2753 12.3952 56.4575 12.692 56.574C12.692 56.574 12.624 55.342 13.552 54.62C14.0931 54.1927 14.7415 53.9228 15.426 53.84Z" fill="#EBEBEB"/>
<path d="M14.03 54.308L12.856 53.562C12.5919 53.711 12.353 53.9007 12.148 54.124L13.302 54.854C13.3785 54.769 13.4621 54.6907 13.552 54.62C13.7032 54.504 13.863 54.3997 14.03 54.308Z" fill="#FAFAFA"/>
<path d="M18.81 50.516C18.884 50.876 18.61 51.868 17.744 52.516C16.878 53.164 15.4 53.42 15.4 53.42L15.2 53.292C15.2 53.292 16.666 52.372 17.142 51.528C17.618 50.684 17.268 49.328 17.268 49.328L18.81 50.516Z" fill="#E0E0E0"/>
<path d="M15.4 53.42C15.6667 52.5959 16.1789 51.8729 16.868 51.348C17.966 50.57 18.82 50.516 18.82 50.516C18.6506 50.2256 18.4253 49.9716 18.1572 49.7688C17.8891 49.5659 17.5835 49.4181 17.258 49.334C17.258 49.334 16 50.072 15.518 51.2C15.2384 51.8599 15.1225 52.5776 15.18 53.292L15.4 53.42Z" fill="#EBEBEB"/>
<path d="M17.414 51C17.6553 50.8667 17.9076 50.7543 18.168 50.664C17.7797 50.2328 17.3019 49.8915 16.768 49.664C16.4946 49.883 16.2446 50.1296 16.022 50.4C16.5303 50.4756 17.01 50.6824 17.414 51Z" fill="#FAFAFA"/>
<path d="M20.068 52.86C19.64 53.44 18.152 54.408 15.55 53.618L15.39 53.314C15.39 53.314 16.87 53.43 18.09 52.808C19.31 52.186 19.4 51.348 19.4 51.348L20.068 52.86Z" fill="#E0E0E0"/>
<path d="M15.4 53.314C15.799 52.5742 16.432 51.9876 17.2 51.646C17.8898 51.3386 18.6533 51.2352 19.4 51.348C19.4 51.348 20.168 51.948 20.068 52.86C19.3974 52.5382 18.6459 52.424 17.91 52.532C16.67 52.712 15.71 53.272 15.55 53.618L15.4 53.314Z" fill="#EBEBEB"/>
<path d="M18.8 52.512C19.1019 52.5385 19.3994 52.6017 19.686 52.7C19.5514 52.1555 19.2508 51.6662 18.826 51.3C18.6399 51.3033 18.4541 51.3187 18.27 51.346C18.5425 51.6836 18.7248 52.0847 18.8 52.512Z" fill="#FAFAFA"/>
<path d="M18.428 56.866C17.756 56.884 15.654 55.932 15.428 53.84L15.654 53.338C15.654 53.338 16.15 54.496 17.098 55.026C18.046 55.556 19.428 55.546 19.428 55.546L18.428 56.866Z" fill="#E0E0E0"/>
<path d="M15.4 53.314C15.4 53.314 16.6 53.286 17.424 53.618C18.88 54.218 19.372 54.9 19.436 55.546C19.2677 56.0896 18.9137 56.5568 18.436 56.866C18.436 56.866 17.836 55.31 17.104 54.656C16.124 53.782 15.434 53.84 15.434 53.84L15.4 53.314Z" fill="#EBEBEB"/>
<path d="M18.248 56.444C18.6821 56.088 19.0498 55.6581 19.334 55.174C19.193 54.824 18.9559 54.521 18.65 54.3C18.2975 54.63 17.8676 54.8659 17.4 54.986C17.7383 55.4374 18.0229 55.9267 18.248 56.444Z" fill="#FAFAFA"/>
<path d="M28.626 84.022L19.16 78.55V70.356L18.96 70.24V67.45L28.626 73.03V84.022Z" fill="#E0E0E0"/>
<path opacity="0.15" d="M28.626 75.82L25.002 73.728L19.16 70.356V70.756L28.626 76.222V75.82Z" fill="black"/>
<path d="M28.626 84.022L38.04 78.59V70.384L38.292 70.24V67.45L28.626 73.03V84.022Z" fill="#F0F0F0"/>
<path opacity="0.1" d="M38.04 70.384L28.626 75.82V76.222L38.04 70.79V70.384Z" fill="black"/>
<path d="M38.292 67.45L28.626 61.87L18.96 67.45L28.626 73.03L38.292 67.45Z" fill="#FAFAFA"/>
<path d="M32.55 81.758V70.764L34.122 69.858V80.852L32.55 81.758Z" fill="#EBEBEB"/>
<path d="M24.7 81.758V70.764L23.13 69.858V80.852L24.7 81.758Z" fill="#E0E0E0"/>
<path opacity="0.15" d="M24.7 81.758V70.764L23.13 69.858V80.852L24.7 81.758Z" fill="black"/>
<path d="M34.122 69.858L24.456 64.278L22.886 65.184L32.55 70.764L34.122 69.858Z" fill="#F5F5F5"/>
<path opacity="0.25" d="M28.754 68.572L30.324 67.666L28.754 66.76L27.184 67.666L28.754 68.572Z" fill="black"/>
<path d="M24.7 70.764L34.366 65.184L32.796 64.278L23.13 69.858L24.7 70.764Z" fill="#F5F5F5"/>
<path d="M24.45 65.122C24.602 65.78 25.562 67.692 28.61 67.9L28.92 67.628C28.92 67.628 25.38 66.742 26.148 63.64L24.45 65.122Z" fill="#E0E0E0"/>
<path d="M28.956 68.26C28.956 68.26 28.956 66.386 28.244 65.28C27.532 64.174 26.148 63.64 26.148 63.64C25.4625 63.9775 24.8771 64.4884 24.45 65.122C25.3027 65.1452 26.1395 65.3576 26.9 65.744C28.1 66.376 28.61 67.9 28.61 67.9L28.956 68.26Z" fill="#EBEBEB"/>
<path d="M26.87 65.73L28.104 65.08C27.9007 64.8191 27.6663 64.584 27.406 64.38L25.778 65.314C26.1562 65.4121 26.5224 65.5516 26.87 65.73Z" fill="#FAFAFA"/>
<path d="M24.222 68.568C24.222 68.568 26.308 69.114 28.956 68.26L28.756 67.9C28.756 67.9 27.378 68.132 26.402 67.9C25.426 67.668 24.602 66.282 24.602 66.282L24.222 68.568Z" fill="#E0E0E0"/>
<path d="M28.956 68.26C28.956 68.26 28.932 67.746 28.208 67.074C27.258 66.192 25.408 66.192 24.594 66.274C24.2638 66.5248 24.0408 66.8914 23.97 67.3C23.872 67.802 24.222 68.56 24.222 68.56C24.4912 68.2397 24.8235 67.9782 25.1982 67.7921C25.573 67.6059 25.9821 67.499 26.4 67.478C27.165 67.4129 27.9256 67.645 28.524 68.126L28.956 68.26Z" fill="#EBEBEB"/>
<path d="M26.146 66.292C25.8386 66.2575 25.5293 66.2428 25.22 66.248C24.9901 66.4797 24.8287 66.7704 24.7535 67.088C24.6783 67.4056 24.6923 67.7378 24.794 68.048C25.0875 67.8427 25.4143 67.6897 25.76 67.596C25.7392 67.1304 25.8751 66.6712 26.146 66.292Z" fill="#FAFAFA"/>
<path d="M26.222 71C26.222 71 27.348 70.862 28.058 70.048C28.5045 69.5396 28.8136 68.9255 28.956 68.264L28.61 67.904C28.347 68.5198 27.8674 69.0179 27.262 69.304C26.462 69.658 24.972 69.654 24.972 69.654L26.222 71Z" fill="#E0E0E0"/>
<path d="M28.956 68.26L28.61 67.9C28.61 67.9 27.272 67.63 26.55 67.9C25.828 68.17 24.988 69.3 24.972 69.644C25.0649 69.949 25.2256 70.2291 25.4421 70.4632C25.6585 70.6973 25.9252 70.8795 26.222 70.996C26.222 70.996 26.154 69.764 27.082 69.042C27.6227 68.6136 28.2712 68.343 28.956 68.26Z" fill="#EBEBEB"/>
<path d="M27.56 68.728L26.386 67.982C26.122 68.1319 25.8831 68.3222 25.678 68.546L26.832 69.276C26.9085 69.191 26.9921 69.1127 27.082 69.042C27.2331 68.9254 27.3929 68.8204 27.56 68.728Z" fill="#FAFAFA"/>
<path d="M32.34 64.938C32.414 65.298 32.15 66.29 31.274 66.938C30.398 67.586 28.92 67.834 28.92 67.834L28.72 67.708C28.72 67.708 30.186 66.786 30.662 65.944C31.138 65.102 30.788 63.744 30.788 63.744L32.34 64.938Z" fill="#E0E0E0"/>
<path d="M28.92 67.84C29.1871 67.0166 29.6993 66.2944 30.388 65.77C31.486 64.992 32.34 64.938 32.34 64.938C32.1709 64.6473 31.9458 64.3931 31.6776 64.1902C31.4095 63.9873 31.1037 63.8397 30.778 63.756C30.778 63.756 29.526 64.494 29.048 65.62C28.7684 66.2806 28.6525 66.999 28.71 67.714L28.92 67.84Z" fill="#EBEBEB"/>
<path d="M30.944 65.424C31.1853 65.2912 31.4376 65.1795 31.698 65.09C31.3086 64.6624 30.8309 64.3246 30.298 64.1C30.0265 64.3123 29.7779 64.5523 29.556 64.816C30.0634 64.8956 30.5415 65.105 30.944 65.424Z" fill="#FAFAFA"/>
<path d="M33.6 67.282C33.17 67.862 31.684 68.828 29.082 68.04L28.922 67.736C28.922 67.736 30.402 67.852 31.622 67.228C32.842 66.604 32.932 65.77 32.932 65.77L33.6 67.282Z" fill="#E0E0E0"/>
<path d="M28.92 67.736C29.319 66.9962 29.952 66.4096 30.72 66.068C31.4128 65.7587 32.18 65.6552 32.93 65.77C32.93 65.77 33.698 66.37 33.598 67.282C32.9277 66.9591 32.1759 66.8448 31.44 66.954C30.2 67.134 29.24 67.694 29.08 68.04L28.92 67.736Z" fill="#EBEBEB"/>
<path d="M32.324 66.932C32.6256 66.9605 32.9228 67.0236 33.21 67.12C33.0744 66.5759 32.774 66.0869 32.35 65.72C32.1632 65.7224 31.9767 65.7377 31.792 65.766C32.0662 66.1027 32.2493 66.5042 32.324 66.932Z" fill="#FAFAFA"/>
<path d="M31.958 71.288C31.286 71.306 29.184 70.354 28.958 68.26L29.184 67.758C29.184 67.758 29.68 68.918 30.628 69.448C31.576 69.978 32.958 69.966 32.958 69.966L31.958 71.288Z" fill="#E0E0E0"/>
<path d="M28.92 67.736C28.92 67.736 30.12 67.706 30.944 68.04C32.4 68.63 32.892 69.322 32.956 69.966C32.7876 70.5101 32.4337 70.9779 31.956 71.288C31.956 71.288 31.356 69.732 30.624 69.078C29.644 68.204 28.954 68.26 28.954 68.26L28.92 67.736Z" fill="#EBEBEB"/>
<path d="M31.778 70.864C32.2125 70.5092 32.5802 70.0798 32.864 69.596C32.7222 69.2465 32.4852 68.9437 32.18 68.722C31.828 69.0521 31.3979 69.2875 30.93 69.406C31.2675 69.858 31.552 70.3472 31.778 70.864Z" fill="#FAFAFA"/>
<path d="M78.508 52.776L67.98 46.69V28.726L67.758 28.6V25.496L78.508 31.702V52.776Z" fill="#E0E0E0"/>
<path opacity="0.15" d="M78.508 34.806L74.478 32.478L67.98 28.726V29.174L78.508 35.252V34.806Z" fill="black"/>
<path d="M78.508 52.776L88.98 46.734V28.76L89.258 28.6V25.496L78.508 31.702V52.776Z" fill="#F0F0F0"/>
<path opacity="0.1" d="M88.98 28.76L78.508 34.806V35.252L88.98 29.212V28.76Z" fill="black"/>
<path d="M89.258 25.496L78.508 19.288L67.758 25.496L78.508 31.702L89.258 25.496Z" fill="#FAFAFA"/>
<path d="M82.874 50.256V29.182L84.62 28.174V49.248L82.874 50.256Z" fill="#EBEBEB"/>
<path d="M74.142 50.256V29.182L72.396 28.174V49.248L74.142 50.256Z" fill="#E0E0E0"/>
<path opacity="0.15" d="M74.142 50.256V29.182L72.396 28.174V49.248L74.142 50.256Z" fill="black"/>
<path d="M84.62 28.174L73.87 21.966L72.124 22.974L82.874 29.182L84.62 28.174Z" fill="#F5F5F5"/>
<path opacity="0.25" d="M78.652 26.744L80.398 25.736L78.652 24.726L76.904 25.736L78.652 26.744Z" fill="black"/>
<path d="M74.142 29.182L84.892 22.974L83.146 21.966L72.396 28.174L74.142 29.182Z" fill="#F5F5F5"/>
<path d="M73.862 22.906C74.034 23.638 75.1 25.764 78.49 25.996L78.834 25.694C78.834 25.694 74.898 24.708 75.754 21.256L73.862 22.906Z" fill="#E0E0E0"/>
<path d="M78.874 26.4C78.874 26.4 78.874 24.314 78.084 23.084C77.294 21.854 75.754 21.258 75.754 21.258C74.991 21.6347 74.339 22.2033 73.862 22.908C74.8108 22.933 75.7421 23.1694 76.588 23.6C77.916 24.304 78.49 26 78.49 26L78.874 26.4Z" fill="#EBEBEB"/>
<path d="M76.554 23.582L77.928 22.86C77.7029 22.5692 77.4422 22.3079 77.152 22.082L75.34 23.118C75.7606 23.2271 76.1678 23.3828 76.554 23.582Z" fill="#FAFAFA"/>
<path d="M73.61 26.738C73.61 26.738 75.932 27.338 78.874 26.398L78.652 25.998C78.652 25.998 77.118 26.256 76.034 25.998C74.95 25.74 74.024 24.198 74.024 24.198L73.61 26.738Z" fill="#E0E0E0"/>
<path d="M78.874 26.4C78.874 26.4 78.848 25.828 78.042 25.08C76.988 24.098 74.924 24.098 74.024 24.198C73.6561 24.4767 73.408 24.885 73.33 25.34C73.22 25.898 73.61 26.74 73.61 26.74C73.9085 26.3856 74.2766 26.0962 74.6915 25.8898C75.1064 25.6834 75.5592 25.5643 76.022 25.54C76.8726 25.4672 77.7186 25.725 78.384 26.26L78.874 26.4Z" fill="#EBEBEB"/>
<path d="M75.75 24.2C75.4081 24.1607 75.0641 24.144 74.72 24.15C74.4651 24.4078 74.2861 24.7308 74.2025 25.0835C74.1189 25.4363 74.1339 25.8052 74.246 26.15C74.5731 25.9215 74.9371 25.751 75.322 25.646C75.2986 25.1296 75.4493 24.6204 75.75 24.2Z" fill="#FAFAFA"/>
<path d="M75.836 29.438C75.836 29.438 77.088 29.286 77.876 28.38C78.3733 27.8156 78.7176 27.1333 78.876 26.398L78.492 25.998C78.1989 26.6804 77.666 27.2318 76.994 27.548C76.104 27.948 74.446 27.948 74.446 27.948L75.836 29.438Z" fill="#E0E0E0"/>
<path d="M78.874 26.4L78.49 26C78.49 26 77.002 25.7 76.2 26C75.398 26.3 74.46 27.554 74.444 27.94C74.5485 28.28 74.7288 28.5918 74.9713 28.852C75.2138 29.1121 75.5122 29.3139 75.844 29.442C75.844 29.442 75.766 28.074 76.798 27.27C77.3971 26.7951 78.1153 26.4941 78.874 26.4Z" fill="#EBEBEB"/>
<path d="M77.324 26.918L76.016 26.088C75.7226 26.2547 75.4568 26.4659 75.228 26.714L76.514 27.526C76.5987 27.4319 76.691 27.3449 76.79 27.266C76.9587 27.1364 77.1373 27.02 77.324 26.918Z" fill="#FAFAFA"/>
<path d="M82.64 22.702C82.722 23.102 82.428 24.204 81.454 24.932C80.48 25.66 78.834 25.932 78.834 25.932L78.6 25.8C78.6 25.8 80.23 24.774 80.76 23.836C81.29 22.898 80.9 21.396 80.9 21.396L82.64 22.702Z" fill="#E0E0E0"/>
<path d="M78.834 25.93C79.1314 25.0135 79.7015 24.2097 80.468 23.626C81.688 22.76 82.64 22.702 82.64 22.702C82.4515 22.3788 82.2009 22.0961 81.9026 21.8702C81.6043 21.6443 81.2642 21.4797 80.902 21.386C80.902 21.386 79.502 22.208 78.978 23.46C78.665 24.198 78.5353 25.0009 78.6 25.8L78.834 25.93Z" fill="#EBEBEB"/>
<path d="M81.088 23.242C81.3564 23.0948 81.6368 22.9704 81.926 22.87C81.491 22.3933 80.9573 22.0172 80.362 21.768C80.0616 22.0068 79.7856 22.2748 79.538 22.568C80.1042 22.6552 80.6381 22.8874 81.088 23.242Z" fill="#FAFAFA"/>
<path d="M84.04 25.308C83.562 25.954 81.908 27.03 79.014 26.152L78.834 25.812C78.834 25.812 80.482 25.942 81.834 25.25C83.186 24.558 83.29 23.626 83.29 23.626L84.04 25.308Z" fill="#E0E0E0"/>
<path d="M78.834 25.812C79.2783 24.9906 79.9814 24.3389 80.834 23.958C81.6039 23.6143 82.4564 23.4991 83.29 23.626C83.29 23.626 84.146 24.298 84.036 25.308C83.2902 24.9502 82.4544 24.8234 81.636 24.944C80.258 25.144 79.182 25.768 79.012 26.144L78.834 25.812Z" fill="#EBEBEB"/>
<path d="M82.62 24.92C82.9564 24.951 83.288 25.0215 83.608 25.13C83.4558 24.5265 83.1213 23.9846 82.65 23.578C82.4431 23.5799 82.2365 23.5966 82.032 23.628C82.346 23.952 82.524 24.492 82.62 24.92Z" fill="#FAFAFA"/>
<path d="M82.214 29.764C81.466 29.784 79.128 28.726 78.874 26.398L79.126 25.838C79.126 25.838 79.678 27.128 80.726 27.718C81.774 28.308 83.326 28.294 83.326 28.294L82.214 29.764Z" fill="#E0E0E0"/>
<path d="M78.834 25.812C78.834 25.812 80.168 25.78 81.086 26.152C82.706 26.806 83.254 27.578 83.326 28.294C83.1379 28.8985 82.7446 29.4184 82.214 29.764C82.214 29.764 81.55 28.034 80.732 27.306C79.642 26.334 78.874 26.398 78.874 26.398L78.834 25.812Z" fill="#EBEBEB"/>
<path d="M82.014 29.294C82.4947 28.8983 82.9011 28.4202 83.214 27.882C83.0567 27.4926 82.7925 27.1557 82.452 26.91C82.0607 27.2777 81.5824 27.5399 81.062 27.672C81.4407 28.1742 81.7602 28.7185 82.014 29.294Z" fill="#FAFAFA"/>
<path d="M84.356 65.874L73.826 59.788V55.522L73.604 55.392V52.29L84.356 58.496V65.874Z" fill="#E0E0E0"/>
<path opacity="0.15" d="M84.354 61.6L80.324 59.272L73.826 55.522V55.968L84.354 62.046V61.6Z" fill="black"/>
<path d="M84.356 65.874L94.826 59.834V55.554L95.106 55.392V52.29L84.356 58.496V65.874Z" fill="#F0F0F0"/>
<path opacity="0.1" d="M94.828 55.554L84.354 61.6V62.046L94.828 56.006V55.554Z" fill="black"/>
<path d="M95.106 52.29L84.356 46.082L73.604 52.29L84.356 58.496L95.106 52.29Z" fill="#FAFAFA"/>
<path d="M88.722 63.356V55.976L90.468 54.968V62.348L88.722 63.356Z" fill="#EBEBEB"/>
<path d="M79.99 63.356V55.976L78.242 54.968V62.348L79.99 63.356Z" fill="#E0E0E0"/>
<path opacity="0.15" d="M79.99 63.356V55.976L78.242 54.968V62.348L79.99 63.356Z" fill="black"/>
<path d="M90.468 54.9679L79.718 48.7599L77.97 49.7679L88.722 55.9759L90.468 54.9679Z" fill="#F5F5F5"/>
<path opacity="0.25" d="M84.498 53.538L86.244 52.53L84.498 51.52L82.752 52.53L84.498 53.538Z" fill="black"/>
<path d="M79.99 55.9759L90.74 49.7679L88.994 48.7599L78.242 54.9679L79.99 55.9759Z" fill="#F5F5F5"/>
<path d="M79.71 49.7C79.88 50.432 80.946 52.558 84.336 52.79L84.682 52.488C84.682 52.488 80.744 51.502 81.6 48.05L79.71 49.7Z" fill="#E0E0E0"/>
<path d="M84.722 53.2C84.722 53.2 84.722 51.114 83.922 49.884C83.122 48.654 81.6 48.05 81.6 48.05C80.8375 48.4267 80.1862 48.9953 79.71 49.7C80.6588 49.7276 81.5895 49.9667 82.434 50.4C83.764 51.104 84.336 52.8 84.336 52.8L84.722 53.2Z" fill="#EBEBEB"/>
<path d="M82.4 50.376L83.772 49.654C83.5474 49.3627 83.2867 49.1013 82.996 48.876L81.184 49.912C81.6054 50.0208 82.0133 50.1764 82.4 50.376Z" fill="#FAFAFA"/>
<path d="M79.456 53.5319C79.456 53.5319 81.778 54.1319 84.722 53.1919L84.498 52.7919C84.498 52.7919 82.964 53.0499 81.88 52.7919C80.796 52.5339 79.88 50.9919 79.88 50.9919L79.456 53.5319Z" fill="#E0E0E0"/>
<path d="M84.722 53.2C84.722 53.2 84.694 52.628 83.89 51.88C82.834 50.898 80.772 50.898 79.87 50.998C79.5028 51.2774 79.2549 51.6854 79.176 52.14C79.068 52.698 79.456 53.54 79.456 53.54C79.7542 53.1844 80.122 52.8935 80.5368 52.6854C80.9516 52.4773 81.4047 52.3564 81.868 52.33C82.7187 52.2567 83.5648 52.5147 84.23 53.05L84.722 53.2Z" fill="#EBEBEB"/>
<path d="M81.6 50.9999C81.2581 50.9606 80.9141 50.9439 80.57 50.9499C80.3155 51.208 80.1367 51.531 80.0532 51.8836C79.9696 52.2363 79.9844 52.6051 80.096 52.9499C80.4231 52.7215 80.7871 52.551 81.172 52.4459C81.1497 51.9297 81.3003 51.4208 81.6 50.9999Z" fill="#FAFAFA"/>
<path d="M81.682 56.232C81.682 56.232 82.934 56.08 83.724 55.174C84.2213 54.6097 84.5656 53.9273 84.724 53.192L84.338 52.792C84.046 53.4745 83.5137 54.026 82.842 54.342C81.952 54.742 80.294 54.732 80.294 54.732L81.682 56.232Z" fill="#E0E0E0"/>
<path d="M84.722 53.2L84.336 52.8C84.336 52.8 82.85 52.5 82.046 52.8C81.242 53.1 80.308 54.354 80.292 54.74C80.3962 55.0801 80.5764 55.392 80.819 55.6523C81.0615 55.9125 81.36 56.1141 81.692 56.242C81.692 56.242 81.616 54.874 82.648 54.07C83.2464 53.5951 83.9639 53.2941 84.722 53.2Z" fill="#EBEBEB"/>
<path d="M83.17 53.712L81.864 52.882C81.5706 53.0487 81.3048 53.2598 81.076 53.508L82.36 54.32C82.4457 54.2268 82.5379 54.1399 82.636 54.06C82.8047 53.9303 82.9833 53.8139 83.17 53.712Z" fill="#FAFAFA"/>
<path d="M88.486 49.4959C88.568 49.8959 88.276 50.9979 87.3 51.7259C86.324 52.4539 84.682 52.7259 84.682 52.7259L84.448 52.5859C84.448 52.5859 86.08 51.5599 86.608 50.6239C87.136 49.6879 86.748 48.1819 86.748 48.1819L88.486 49.4959Z" fill="#E0E0E0"/>
<path d="M84.682 52.724C84.9791 51.8079 85.5484 51.0042 86.314 50.42C87.536 49.554 88.486 49.496 88.486 49.496C88.298 49.1723 88.0476 48.8893 87.7492 48.6634C87.4508 48.4375 87.1105 48.2731 86.748 48.18C86.748 48.18 85.348 49.002 84.826 50.254C84.5153 50.9892 84.3856 51.7883 84.448 52.584L84.682 52.724Z" fill="#EBEBEB"/>
<path d="M86.934 50.0359C87.2025 49.8888 87.4828 49.7643 87.772 49.664C87.3374 49.1877 86.8044 48.8116 86.21 48.562C85.9091 48.8002 85.6331 49.0683 85.386 49.362C85.9517 49.4487 86.4851 49.6809 86.934 50.0359Z" fill="#FAFAFA"/>
<path d="M89.886 52.102C89.408 52.748 87.756 53.824 84.86 52.946L84.682 52.606C84.682 52.606 86.328 52.736 87.682 52.044C89.036 51.352 89.14 50.42 89.14 50.42L89.886 52.102Z" fill="#E0E0E0"/>
<path d="M84.682 52.6C85.1264 51.7787 85.8294 51.127 86.682 50.746C87.4525 50.4019 88.3058 50.2866 89.14 50.414C89.14 50.414 89.996 51.086 89.884 52.096C89.1383 51.7378 88.3024 51.611 87.484 51.732C86.106 51.932 85.03 52.556 84.86 52.932L84.682 52.6Z" fill="#EBEBEB"/>
<path d="M88.468 51.714C88.8032 51.7428 89.134 51.8099 89.454 51.914C89.3028 51.3111 88.9689 50.7697 88.498 50.364C88.2904 50.3658 88.0832 50.3825 87.878 50.414C88.2 50.746 88.37 51.286 88.468 51.714Z" fill="#FAFAFA"/>
<path d="M88.062 56.558C87.314 56.578 84.976 55.52 84.722 53.192L84.974 52.632C84.974 52.632 85.524 53.922 86.574 54.512C87.624 55.102 89.174 55.088 89.174 55.088L88.062 56.558Z" fill="#E0E0E0"/>
<path d="M84.682 52.6C84.682 52.6 86.014 52.568 86.932 52.94C88.554 53.594 89.1 54.366 89.172 55.082C88.9847 55.6864 88.5921 56.2064 88.062 56.552C88.062 56.552 87.396 54.822 86.58 54.094C85.49 53.122 84.722 53.186 84.722 53.186L84.682 52.6Z" fill="#EBEBEB"/>
<path d="M87.86 56.088C88.3436 55.6925 88.7532 55.2144 89.07 54.676C88.9113 54.2875 88.6474 53.9509 88.308 53.704C87.9136 54.0727 87.4318 54.335 86.908 54.466C87.2869 54.9681 87.6063 55.5124 87.86 56.088Z" fill="#FAFAFA"/>
<path d="M67.916 70.11L63.84 10.352C63.736 8.814 62.882 8.408 62.124 8.032C61.366 7.656 60.146 7.444 59.144 8.032L33.496 22.832C32.496 23.41 31.744 24.782 31.82 25.894L35.894 85.652C35.97 86.766 36.768 87.406 37.526 87.782C38.284 88.158 39.59 88.56 40.592 87.982L66.24 73.182C67.242 72.6 68.022 71.66 67.916 70.11Z" fill="#37474F"/>
<path d="M66.262 70.712L39.888 85.938L35.8 25.922L32.25 24.16C31.9471 24.6857 31.7968 25.2855 31.816 25.892L35.89 85.65C35.966 86.764 36.764 87.404 37.522 87.78C38.28 88.156 39.586 88.558 40.588 87.98L66.236 73.18C66.9357 72.8132 67.4749 72.2005 67.75 71.46L67.64 71.406L66.262 70.712Z" fill="#263238"/>
<path d="M61.874 9.876L36.152 24.728C35.7902 24.9574 35.4924 25.2747 35.2864 25.6503C35.0804 26.0259 34.9729 26.4476 34.974 26.876L39.016 86.148C39.098 87.348 40.048 87.812 41.124 87.19L66.16 72.736C66.96 72.276 67.56 71.182 67.494 70.3L63.426 10.646C63.366 9.764 62.666 9.418 61.874 9.876Z" fill="#455A64"/>
<path d="M66.094 68.912C66.152 69.754 65.582 70.794 64.828 71.228L41.64 84.616C40.884 85.056 40.224 84.728 40.168 83.886L36.368 28.072C36.3664 27.6973 36.4421 27.3262 36.5904 26.9821C36.7387 26.638 36.9565 26.3281 37.23 26.072C37.274 26.034 37.314 25.994 37.358 25.958C37.4447 25.8873 37.537 25.8237 37.634 25.768L44.148 22L44.574 21.754C44.808 21.618 45.014 21.72 45.032 21.982C45.05 22.244 45.266 22.338 45.518 22.182L53.12 17.8C53.2462 17.7233 53.3511 17.6161 53.4248 17.4881C53.4986 17.3601 53.5389 17.2157 53.542 17.068C53.5414 16.9331 53.5725 16.8 53.633 16.6794C53.6935 16.5588 53.7815 16.4542 53.89 16.374L53.934 16.346L62.184 11.586L66.094 68.912Z" fill="black"/>
<path d="M62.662 69.8C63.416 69.366 63.986 68.326 63.928 67.484L60.2 12.73L53.94 16.342L53.896 16.37C53.7875 16.4502 53.6995 16.5548 53.639 16.6754C53.5785 16.796 53.5474 16.9291 53.548 17.064C53.5449 17.2129 53.504 17.3586 53.4292 17.4874C53.3543 17.6161 53.2479 17.7237 53.12 17.8L45.52 22.188C45.268 22.336 45.052 22.24 45.034 21.988C45.016 21.736 44.81 21.624 44.576 21.76L44.148 22L36.258 26.556L40.094 82.828L62.662 69.8Z" fill="#FAFAFA"/>
<path d="M34.778 33.01C34.7478 32.7707 34.6618 32.5418 34.5271 32.3417C34.3923 32.1416 34.2124 31.976 34.002 31.858C33.9308 31.8132 33.8494 31.7873 33.7654 31.7827C33.6814 31.7782 33.5976 31.7951 33.522 31.832C33.438 31.882 33.108 32.066 33.02 32.12C32.949 32.172 32.8941 32.2429 32.8616 32.3246C32.829 32.4063 32.8202 32.4955 32.836 32.582L33.168 37.45C33.1982 37.6894 33.2842 37.9183 33.4189 38.1184C33.5537 38.3184 33.7336 38.4841 33.944 38.602C34.0125 38.6445 34.0902 38.67 34.1706 38.6763C34.251 38.6825 34.3317 38.6694 34.406 38.638C34.5 38.59 34.838 38.394 34.926 38.342C34.9973 38.2899 35.0525 38.2187 35.085 38.1366C35.1176 38.0545 35.1262 37.9648 35.11 37.878L34.778 33.01Z" fill="#455A64"/>
<path d="M34.278 33.296L34.612 38.166C34.64 38.604 34.342 38.8 33.944 38.602C33.7336 38.4841 33.5537 38.3184 33.4189 38.1183C33.2842 37.9183 33.1982 37.6894 33.168 37.45L32.836 32.582C32.806 32.144 33.106 31.948 33.504 32.146C33.7143 32.2634 33.894 32.4287 34.0285 32.6285C34.163 32.8283 34.2485 33.057 34.278 33.296Z" fill="#37474F"/>
<path d="M35.358 41.532C35.3278 41.2929 35.2421 41.0642 35.1077 40.8641C34.9733 40.6641 34.794 40.4983 34.584 40.38C34.5128 40.3352 34.4314 40.3092 34.3474 40.3047C34.2634 40.3001 34.1796 40.3171 34.104 40.354C34.02 40.404 33.688 40.588 33.602 40.642C33.5307 40.6936 33.4755 40.7645 33.4429 40.8463C33.4103 40.9281 33.4017 41.0175 33.418 41.104L33.75 45.972C33.7796 46.2115 33.8653 46.4407 34.0001 46.6409C34.135 46.841 34.3151 47.0066 34.526 47.124C34.5945 47.1665 34.6722 47.192 34.7526 47.1982C34.833 47.2045 34.9137 47.1914 34.988 47.16C35.08 47.112 35.42 46.916 35.506 46.864C35.5773 46.8119 35.6325 46.7407 35.665 46.6586C35.6976 46.5765 35.7062 46.4868 35.69 46.4L35.358 41.532Z" fill="#455A64"/>
<path d="M34.86 41.82L35.2 46.688C35.23 47.126 34.932 47.322 34.534 47.124C34.3231 47.0066 34.143 46.841 34.0081 46.6409C33.8733 46.4407 33.7876 46.2115 33.758 45.972L33.426 41.104C33.396 40.666 33.694 40.47 34.092 40.668C34.3012 40.7866 34.4796 40.9526 34.613 41.1527C34.7463 41.3528 34.8309 41.5813 34.86 41.82Z" fill="#37474F"/>
<path d="M36.258 26.55L62.186 11.58L70.092 16.688L44.164 31.658L36.258 26.55Z" fill="white"/>
<path d="M36.258 26.55L44.164 31.658L47.044 29.994L39.138 24.886L36.258 26.55Z" fill="#FD55A1"/>
<path d="M42.02 23.224L49.926 28.332L52.806 26.668L44.9 21.56L42.02 23.224Z" fill="#FD55A1"/>
<path d="M47.782 19.896L55.688 25.004L58.568 23.342L50.662 18.234L47.782 19.896Z" fill="#FD55A1"/>
<path d="M53.544 16.57L61.45 21.678L64.33 20.014L56.424 14.906L53.544 16.57Z" fill="#FD55A1"/>
<path d="M59.306 13.244L67.212 18.352L70.092 16.688L62.186 11.58L59.306 13.244Z" fill="#FD55A1"/>
<path d="M44.164 31.658C44.164 32.576 44.808 32.95 45.604 32.49C46.0234 32.2164 46.3723 31.8479 46.6225 31.4142C46.8727 30.9805 47.0171 30.4939 47.044 29.994L44.164 31.658Z" fill="#FD55A1"/>
<path d="M49.926 28.332C49.926 29.25 50.57 29.622 51.366 29.164C51.784 28.8895 52.1316 28.5206 52.3807 28.087C52.6299 27.6534 52.7735 27.1673 52.8 26.668L49.926 28.332Z" fill="#FD55A1"/>
<path d="M55.688 25C55.688 25.92 56.334 26.292 57.128 25.832C57.5475 25.5589 57.8966 25.1908 58.1472 24.7574C58.3977 24.3241 58.5426 23.8378 58.57 23.338L55.688 25Z" fill="#FD55A1"/>
<path d="M61.45 21.678C61.45 22.596 62.096 22.968 62.89 22.51C63.3095 22.2364 63.6587 21.8679 63.9092 21.4343C64.1597 21.0006 64.3046 20.514 64.332 20.014L61.45 21.678Z" fill="#FD55A1"/>
<path d="M67.212 18.35C67.212 19.27 67.858 19.642 68.654 19.182C69.0731 18.9087 69.4219 18.5404 69.6721 18.1071C69.9223 17.6738 70.0668 17.1876 70.094 16.688L67.212 18.35Z" fill="#FD55A1"/>
<g opacity="0.3">
<path d="M44.164 31.658C44.164 32.576 44.808 32.95 45.604 32.49C46.0234 32.2165 46.3723 31.8479 46.6225 31.4142C46.8727 30.9806 47.0171 30.494 47.044 29.994L44.164 31.658Z" fill="black"/>
<path d="M49.926 28.332C49.926 29.25 50.57 29.622 51.366 29.164C51.784 28.8895 52.1316 28.5206 52.3808 28.087C52.6299 27.6534 52.7735 27.1673 52.8 26.668L49.926 28.332Z" fill="black"/>
<path d="M55.688 25C55.688 25.92 56.334 26.292 57.128 25.832C57.5475 25.5589 57.8967 25.1908 58.1472 24.7574C58.3977 24.3241 58.5426 23.8378 58.57 23.338L55.688 25Z" fill="black"/>
<path d="M61.45 21.678C61.45 22.596 62.096 22.968 62.89 22.51C63.3095 22.2364 63.6587 21.8679 63.9092 21.4343C64.1597 21.0006 64.3046 20.514 64.332 20.014L61.45 21.678Z" fill="black"/>
<path d="M67.212 18.35C67.212 19.27 67.858 19.642 68.654 19.182C69.0731 18.9087 69.4219 18.5404 69.6721 18.1071C69.9223 17.6738 70.0668 17.1876 70.094 16.688L67.212 18.35Z" fill="black"/>
</g>
<path d="M47.044 30C47.044 30.92 47.69 31.292 48.486 30.832C48.9051 30.5587 49.2539 30.1904 49.5041 29.7571C49.7543 29.3238 49.8988 28.8376 49.926 28.338L47.044 30Z" fill="#E0E0E0"/>
<path d="M52.8 26.668C52.8 27.586 53.446 27.958 54.242 27.5C54.6614 27.2264 55.0103 26.8579 55.2605 26.4242C55.5107 25.9905 55.6551 25.5039 55.682 25.004L52.8 26.668Z" fill="#E0E0E0"/>
<path d="M58.57 23.342C58.57 24.26 59.214 24.632 60.01 24.172C60.4293 23.8989 60.7783 23.5307 61.0285 23.0973C61.2787 22.664 61.4231 22.1777 61.45 21.678L58.57 23.342Z" fill="#E0E0E0"/>
<path d="M64.332 20.014C64.332 20.932 64.976 21.306 65.772 20.846C66.1914 20.5725 66.5403 20.2039 66.7905 19.7702C67.0407 19.3365 67.1851 18.8499 67.212 18.35L64.332 20.014Z" fill="#E0E0E0"/>
<path d="M62.028 65.732L76.678 57.264V46.854L76.988 46.676V42.356L62.028 50.994V65.732Z" fill="#FD55A1"/>
<g opacity="0.45">
<path d="M62.028 65.732L76.678 57.264V46.854L76.988 46.676V42.356L62.028 50.994V65.732Z" fill="white"/>
</g>
<path opacity="0.15" d="M62.028 55.3119L67.638 52.0739L76.678 46.8539V47.4759L62.028 55.9319V55.3119Z" fill="black"/>
<path d="M62.028 65.732L47.458 57.326V46.9L47.068 46.676V42.356L62.028 50.994V65.732Z" fill="#FD55A1"/>
<path opacity="0.3" d="M62.028 65.732L47.458 57.326V46.9L47.068 46.676V42.356L62.028 50.994V65.732Z" fill="white"/>
<path opacity="0.1" d="M47.456 46.9L62.028 55.312V55.932L47.456 47.528V46.9Z" fill="black"/>
<path d="M47.068 42.356L62.028 33.72L76.988 42.356L62.028 50.994L47.068 42.356Z" fill="#FD55A1"/>
<g opacity="0.6">
<path d="M47.068 42.356L62.028 33.72L76.988 42.356L62.028 50.994L47.068 42.356Z" fill="white"/>
</g>
<path d="M55.952 62.226V47.486L53.522 46.084V60.824L55.952 62.226Z" fill="#EBEBEB"/>
<path d="M55.952 62.226V47.486L53.522 46.084V60.824L55.952 62.226Z" fill="#FD55A1"/>
<path opacity="0.4" d="M55.952 62.226V47.486L53.522 46.084V60.824L55.952 62.226Z" fill="black"/>
<path d="M68.104 62.226V47.486L70.534 46.084V60.824L68.104 62.226Z" fill="#FD55A1"/>
<path opacity="0.15" d="M68.104 62.226V47.486L70.534 46.084V60.824L68.104 62.226Z" fill="black"/>
<path d="M53.522 46.084L68.482 37.446L70.912 38.85L55.952 47.486L53.522 46.084Z" fill="#FD55A1"/>
<path opacity="0.25" d="M61.83 44.094L59.4 42.69L61.83 41.288L64.26 42.69L61.83 44.094Z" fill="black"/>
<path d="M68.104 47.486L53.144 38.85L55.574 37.446L70.534 46.084L68.104 47.486Z" fill="#FD55A1"/>
<path d="M61.444 43.688L64.884 49.348V59.21L67.012 56.202V48.128L61.942 42.646L61.444 43.688Z" fill="#FD55A1"/>
<path d="M62.034 43.094L71.944 43.4L73.654 41.096L62.012 42.144L62.034 43.094Z" fill="#FD55A1"/>
<path d="M52.424 38.624C52.424 38.624 53.024 41.024 55.81 41.95C58.596 42.876 61.824 43.096 61.824 43.096L55.494 35.542L52.424 38.624Z" fill="#FD55A1"/>
<path opacity="0.4" d="M52.424 38.624C52.424 38.624 53.024 41.024 55.81 41.95C58.596 42.876 61.824 43.096 61.824 43.096L55.494 35.542L52.424 38.624Z" fill="black"/>
<path d="M61.824 43.096C61.824 43.096 61.892 40.73 60.67 38.942C59.448 37.154 55.494 35.542 55.494 35.542C54.3416 36.4322 53.3097 37.4682 52.424 38.624C52.424 38.624 57.68 38.582 61.292 43.014L61.824 43.096Z" fill="#FD55A1"/>
<path opacity="0.1" d="M61.824 43.096C61.824 43.096 61.892 40.73 60.67 38.942C59.448 37.154 55.494 35.542 55.494 35.542C54.3416 36.4322 53.3097 37.4682 52.424 38.624C52.424 38.624 57.68 38.582 61.292 43.014L61.824 43.096Z" fill="white"/>
<path opacity="0.3" d="M55.722 39.232C56.7027 39.5507 57.6394 39.9915 58.51 40.544L60.436 38.642C59.794 37.892 58.732 37.192 57.754 36.642L55.722 39.232Z" fill="white"/>
<path d="M61.824 43.096C61.2383 44.1623 60.3274 45.0137 59.224 45.526C57.324 46.448 54.144 46.4 54.144 46.4L53.84 42.4C54.2052 42.9545 54.7026 43.4094 55.2874 43.7236C55.8722 44.0378 56.5261 44.2016 57.19 44.2C58.6177 44.21 60.0003 43.7003 61.08 42.766L61.824 43.096Z" fill="#FD55A1"/>
<path opacity="0.4" d="M61.824 43.096C61.2383 44.1623 60.3274 45.0137 59.224 45.526C57.324 46.448 54.144 46.4 54.144 46.4L53.84 42.4C54.2052 42.9545 54.7026 43.4094 55.2874 43.7236C55.8722 44.0378 56.5261 44.2016 57.19 44.2C58.6177 44.21 60.0003 43.7003 61.08 42.766L61.824 43.096Z" fill="black"/>
<path d="M61.824 43.096C59.834 41.068 57.972 40.872 56.274 41.268C54.394 41.708 53.838 42.394 53.838 42.394L54.142 46.394C54.142 46.394 55.142 44.438 57.858 43.558C60.574 42.678 61.824 43.096 61.824 43.096Z" fill="#FD55A1"/>
<path opacity="0.1" d="M61.824 43.096C59.834 41.068 57.972 40.872 56.274 41.268C54.394 41.708 53.838 42.394 53.838 42.394L54.142 46.394C54.142 46.394 55.142 44.438 57.858 43.558C60.574 42.678 61.824 43.096 61.824 43.096Z" fill="white"/>
<path opacity="0.3" d="M54.77 41.776C55.232 42.44 55.97 43.526 56.432 44.212C56.8826 43.9452 57.3607 43.7279 57.858 43.564C58.3291 43.412 58.8086 43.2871 59.294 43.19L57.566 41.102C57.1306 41.1106 56.6974 41.1663 56.274 41.268C55.7563 41.3844 55.2522 41.5546 54.77 41.776Z" fill="white"/>
<path d="M61.712 42.65C61.712 42.65 64.512 42.25 66.446 40.174C68.38 38.098 68.8 35.2 68.8 35.2L65.276 33C65.5689 33.899 65.6642 34.8506 65.5555 35.7898C65.4467 36.729 65.1365 37.6337 64.646 38.442C63.392 40.582 61.646 41.02 61.646 41.02L61.712 42.65Z" fill="#FD55A1"/>
<path opacity="0.4" d="M61.712 42.65C61.712 42.65 64.512 42.25 66.446 40.174C68.38 38.098 68.8 35.2 68.8 35.2L65.276 33C65.5689 33.899 65.6642 34.8506 65.5555 35.7898C65.4467 36.729 65.1365 37.6337 64.646 38.442C63.392 40.582 61.646 41.02 61.646 41.02L61.712 42.65Z" fill="black"/>
<path d="M61.712 42.65L62.228 42.544C62.5234 40.5199 63.4963 38.6557 64.988 37.256C67.556 34.904 68.8 35.2 68.8 35.2C67.768 34.164 66.548 33.524 65.276 33C65.276 33 63.092 34.276 62.126 36.082C60.968 38.244 61.348 41.448 61.712 42.65Z" fill="#FD55A1"/>
<path opacity="0.1" d="M61.712 42.65L62.228 42.544C62.5234 40.5199 63.4963 38.6557 64.988 37.256C67.556 34.904 68.8 35.2 68.8 35.2C67.768 34.164 66.548 33.524 65.276 33C65.276 33 63.092 34.276 62.126 36.082C60.968 38.244 61.348 41.448 61.712 42.65Z" fill="white"/>
<g opacity="0.3">
<path d="M66.912 35.8L63.938 33.97C63.796 34.088 63.654 34.212 63.508 34.348L66.412 36.118C66.588 36 66.756 35.888 66.912 35.8Z" fill="white"/>
<path d="M65.97 36.432L63.094 34.762C62.8196 35.0515 62.5713 35.3648 62.352 35.698L62.332 35.726C62.258 35.84 62.188 35.958 62.132 36.076C62.096 36.146 62.072 36.226 62.038 36.298L64.438 37.812C64.608 37.624 64.79 37.438 64.988 37.256C65.342 36.932 65.666 36.664 65.97 36.432Z" fill="white"/>
</g>
<path d="M61.8 43.092C61.8 43.092 62.704 43.994 64.826 44.454C66.948 44.914 69.6 44.512 70.706 43.212L70.354 39.496C70.354 39.496 68.658 41.936 66.096 42.424C64.144 42.794 61.774 42.092 61.774 42.092L61.8 43.092Z" fill="#FD55A1"/>
<path opacity="0.4" d="M61.8 43.092C61.8 43.092 62.704 43.994 64.826 44.454C66.948 44.914 69.6 44.512 70.706 43.212L70.354 39.496C70.354 39.496 68.658 41.936 66.096 42.424C64.144 42.794 61.774 42.092 61.774 42.092L61.8 43.092Z" fill="black"/>
<path d="M61.65 42.24C61.65 42.24 63.624 40.04 65.814 39.64C68.78 39.094 70.362 39.496 70.362 39.496C70.93 40.822 71.03 42.058 70.714 43.212C70.714 43.212 69.384 41.868 66.364 41.852C63.976 41.84 61.808 43.092 61.808 43.092L61.65 42.24Z" fill="#FD55A1"/>
<path opacity="0.1" d="M61.65 42.24C61.65 42.24 63.624 40.04 65.814 39.64C68.78 39.094 70.362 39.496 70.362 39.496C70.93 40.822 71.03 42.058 70.714 43.212C70.714 43.212 69.384 41.868 66.364 41.852C63.976 41.84 61.808 43.092 61.808 43.092L61.65 42.24Z" fill="white"/>
<path opacity="0.3" d="M70.07 42.758C69.4121 42.3922 68.6975 42.1393 67.956 42.01L67.488 39.41C68.2261 39.3396 68.969 39.3342 69.708 39.394C70.0489 40.4806 70.1719 41.6238 70.07 42.758Z" fill="white"/>
<path opacity="0.15" d="M67.012 48.128L64.884 49.348V59.21L67.012 56.202V48.128Z" fill="black"/>
<path d="M59.544 57.386C59.37 57.786 58.438 57.586 58.104 57.586C58.0151 57.5812 57.926 57.5907 57.84 57.614C57.7378 57.6558 57.6427 57.7132 57.558 57.784C57.1174 58.0527 56.5966 58.1588 56.086 58.084C55.542 58.034 54.822 57.656 54.33 57.952C53.838 58.248 53.162 58.114 52.592 57.93C51.6029 57.6122 50.6411 57.215 49.716 56.742C49.116 56.438 48.566 56.094 48.012 55.742L47.87 55.648C47.27 55.26 46.64 54.942 46.05 54.54C44.85 53.72 43.728 52.812 42.486 52.066C42.104 51.836 41.658 51.584 41.164 51.316L40.99 51.222L40.974 51.21C40.604 50.948 40.374 50.41 40.374 49.68C40.374 48.242 41.248 46.572 42.328 45.948C42.834 45.654 43.296 45.646 43.644 45.87L43.806 45.996C44.457 46.5244 45.1411 47.0108 45.854 47.452C47.75 48.506 48.536 48.492 49.734 48.43C50.5 48.392 51.254 48.48 52.018 48.496C52.986 48.518 53.962 48.542 54.936 48.552C54.9768 48.5474 55.0181 48.5508 55.0576 48.5621C55.0971 48.5734 55.1339 48.5924 55.166 48.618C55.1974 48.6567 55.2181 48.7029 55.226 48.752C55.326 49.152 55.24 49.378 54.916 49.642C54.418 50.042 53.716 50.242 53.086 50.338C52.804 50.384 51.96 50.404 51.832 50.738C51.742 50.974 52.19 51.292 52.366 51.4C53.352 52 54.526 52.368 55.596 52.8C56.182 53.04 56.764 53.286 57.336 53.556C58.074 53.904 59.206 54.278 59.318 55.222C59.3273 55.2623 59.3231 55.3044 59.306 55.342C59.2771 55.385 59.2327 55.4151 59.182 55.426C58.9339 55.4884 58.6753 55.4959 58.424 55.448C58.066 55.402 57.712 55.33 57.358 55.26C57.004 55.19 56.742 55.118 56.334 55.01C56.044 54.934 55.652 54.794 55.304 54.732C55.304 54.732 57.57 55.75 58.58 56.174C58.8883 56.2741 59.1671 56.4486 59.392 56.682C59.4739 56.7775 59.5307 56.8918 59.5572 57.0148C59.5838 57.1377 59.5792 57.2653 59.544 57.386Z" fill="#FFA8A7"/>
<path d="M55.3 54.726C54.192 54.344 52.672 53.82 52.288 53.596C52.966 54.104 54.244 54.522 55.3 54.726Z" fill="#F28F8F"/>
<path d="M57.6 57.42C56.664 57.138 55.736 56.81 54.824 56.456C54.364 56.276 53.906 56.088 53.45 55.898C52.994 55.708 52.562 55.498 52.116 55.298C52.116 55.298 52.102 55.314 52.116 55.318C52.9805 55.795 53.8773 56.2107 54.8 56.562C55.7155 56.9126 56.6504 57.2104 57.6 57.454C57.61 57.458 57.614 57.422 57.6 57.42Z" fill="#F28F8F"/>
<path d="M54.8 57.73C54.07 57.48 53.346 57.184 52.634 56.86C52.272 56.696 51.916 56.522 51.558 56.348C51.2 56.174 50.864 55.974 50.514 55.788C50.514 55.788 50.514 55.804 50.514 55.808C51.185 56.2514 51.8914 56.6387 52.626 56.966C53.3308 57.2838 54.0573 57.5511 54.8 57.766C54.812 57.77 54.816 57.734 54.8 57.73Z" fill="#F28F8F"/>
<path d="M41.104 46.086C40.8681 46.344 40.6566 46.6231 40.472 46.92C40.2904 47.2258 40.141 47.5495 40.026 47.886C39.9162 48.206 39.8359 48.5354 39.786 48.87C39.737 49.2408 39.733 49.6162 39.774 49.988C39.774 50.002 39.786 49.988 39.786 49.988C39.7867 49.6597 39.8134 49.332 39.866 49.008C39.9126 48.6614 39.9917 48.3199 40.102 47.988C40.3209 47.3079 40.6655 46.6749 41.118 46.122C41.126 46.108 41.118 46.072 41.104 46.086Z" fill="#E0E0E0"/>
<path d="M41.088 51.822C40.8588 51.8483 40.6266 51.8237 40.408 51.75C40.1893 51.6643 39.9944 51.5271 39.84 51.35C39.6746 51.1514 39.5508 50.9215 39.476 50.674C39.4306 50.5327 39.3952 50.3883 39.37 50.242C39.3499 50.0841 39.3219 49.9272 39.286 49.772C39.286 49.772 39.274 49.772 39.274 49.772C39.2468 50.0568 39.2816 50.344 39.376 50.614C39.4496 50.8928 39.5796 51.1535 39.758 51.38C39.922 51.5825 40.1337 51.7413 40.374 51.842C40.4874 51.8985 40.6108 51.9318 40.7372 51.94C40.8635 51.9483 40.9903 51.9313 41.11 51.89C41.136 51.874 41.114 51.82 41.088 51.822Z" fill="#E0E0E0"/>
<path d="M44.08 45.714C43.9536 45.4421 43.7519 45.2121 43.4988 45.0511C43.2457 44.8902 42.9519 44.8052 42.652 44.806C41.908 44.792 41.194 45.206 40.69 45.712C40.3767 46.03 40.1161 46.3959 39.918 46.796C39.918 46.808 39.918 46.848 39.936 46.828C40.536 45.874 41.03 45.372 41.904 45.046C42.652 44.77 43.668 44.958 44.042 45.738C44.06 45.774 44.092 45.744 44.08 45.714Z" fill="#E0E0E0"/>
<path d="M77.574 80.2682C77.5548 80.5292 77.4743 80.782 77.3391 81.0061C77.204 81.2302 77.0179 81.4194 76.796 81.5582L53.56 94.9742C53.3189 95.0964 53.0524 95.1602 52.782 95.1602C52.5117 95.1602 52.2451 95.0964 52.004 94.9742L46.268 91.6622C46.0331 91.5381 45.8366 91.3523 45.6994 91.1249C45.5623 90.8974 45.4899 90.6368 45.4899 90.3712C45.4899 90.1055 45.5623 89.845 45.6994 89.6175C45.8366 89.39 46.0331 89.2042 46.268 89.0802L69.504 75.6642C69.7451 75.5419 70.0117 75.4781 70.282 75.4781C70.5524 75.4781 70.8189 75.5419 71.06 75.6642L76.8 78.9762C77.0214 79.1156 77.2069 79.3052 77.3413 79.5297C77.4758 79.7542 77.5555 80.0072 77.574 80.2682Z" fill="#FD55A1"/>
<path opacity="0.2" d="M77.574 80.2682C77.5548 80.5292 77.4743 80.782 77.3391 81.0061C77.204 81.2302 77.0179 81.4194 76.796 81.5582L53.56 94.9742C53.3189 95.0964 53.0524 95.1602 52.782 95.1602C52.5117 95.1602 52.2451 95.0964 52.004 94.9742L46.268 91.6622C46.0331 91.5381 45.8366 91.3523 45.6994 91.1249C45.5623 90.8974 45.4899 90.6368 45.4899 90.3712C45.4899 90.1055 45.5623 89.845 45.6994 89.6175C45.8366 89.39 46.0331 89.2042 46.268 89.0802L69.504 75.6642C69.7451 75.5419 70.0117 75.4781 70.282 75.4781C70.5524 75.4781 70.8189 75.5419 71.06 75.6642L76.8 78.9762C77.0214 79.1156 77.2069 79.3052 77.3413 79.5297C77.4758 79.7542 77.5555 80.0072 77.574 80.2682Z" fill="black"/>
<path d="M76.914 79.056C77.222 79.306 77.182 79.656 76.796 79.874L67.11 85.474L53.56 93.29C53.3208 93.4174 53.053 93.4814 52.782 93.476V95.16C53.0527 95.1655 53.3204 95.1022 53.56 94.976L76.8 81.558C77.024 81.4402 77.2134 81.2658 77.3492 81.0522C77.4851 80.8386 77.5627 80.5931 77.5744 80.3402C77.5862 80.0874 77.5316 79.8358 77.4161 79.6105C77.3006 79.3853 77.1282 79.1941 76.916 79.056H76.914Z" fill="#FD55A1"/>
<path d="M52 93.29L46.264 89.978C45.834 89.73 45.834 89.328 46.264 89.08L69.5 75.664C69.7411 75.5417 70.0077 75.478 70.278 75.478C70.5484 75.478 70.8149 75.5417 71.056 75.664L76.8 78.976C77.23 79.224 77.23 79.626 76.8 79.874L67.114 85.474L53.56 93.29C53.3184 93.4129 53.0511 93.477 52.78 93.477C52.5089 93.477 52.2416 93.4129 52 93.29Z" fill="#FAFAFA"/>
<path d="M70.282 75.76C70.5037 75.7551 70.7231 75.806 70.92 75.908L76.656 79.22C76.768 79.284 76.838 79.364 76.838 79.42C76.838 79.476 76.768 79.56 76.656 79.62L66.97 85.22L53.418 93.044C53.2201 93.1414 53.0025 93.192 52.782 93.192C52.5615 93.192 52.3439 93.1414 52.146 93.044L46.4 89.736C46.288 89.67 46.218 89.592 46.218 89.536C46.218 89.48 46.288 89.394 46.4 89.336L69.638 75.92C69.8341 75.8178 70.0529 75.7669 70.274 75.772M70.274 75.49C70.0031 75.4851 69.7354 75.5491 69.496 75.676L46.268 89.08C45.838 89.328 45.838 89.73 46.268 89.978L52 93.29C52.2411 93.4123 52.5077 93.476 52.778 93.476C53.0484 93.476 53.3149 93.4123 53.556 93.29L67.106 85.466L76.792 79.866C77.222 79.618 77.222 79.216 76.792 78.968L71.06 75.664C70.8206 75.5371 70.5529 75.4731 70.282 75.478L70.274 75.49Z" fill="#FD55A1"/>
<path d="M55.8954 90.9904L51.4816 88.4537L53.1377 87.5042C53.477 87.3096 53.8249 87.1828 54.1814 87.1236C54.5393 87.0635 54.8878 87.0633 55.227 87.1229C55.5661 87.1808 55.8758 87.2903 56.156 87.4513C56.439 87.614 56.6308 87.7927 56.7313 87.9874C56.8318 88.1822 56.8288 88.3827 56.7224 88.5889C56.6145 88.7942 56.3902 88.9946 56.0494 89.1899L54.9518 89.8193L54.2944 89.4415L55.2843 88.874C55.4827 88.7602 55.6106 88.6473 55.6682 88.5351C55.7257 88.4229 55.7244 88.3148 55.6641 88.2109C55.6052 88.1061 55.4974 88.0086 55.3408 87.9186C55.1842 87.8286 55.0154 87.7671 54.8343 87.734C54.6547 87.7001 54.4678 87.7008 54.2738 87.7362C54.0797 87.7699 53.8828 87.844 53.6829 87.9586L52.9497 88.379L56.6955 90.5317L55.8954 90.9904ZM58.1127 85.9187L58.7161 86.2655L56.812 87.3573L56.2085 87.0104L58.1127 85.9187ZM55.8855 86.2851L56.6661 85.8375L59.774 87.6236C59.8789 87.6839 59.9751 87.7211 60.0628 87.7352C60.1505 87.7476 60.2309 87.7443 60.3043 87.7254C60.3776 87.7064 60.4466 87.6784 60.5113 87.6413C60.5601 87.6133 60.6011 87.5857 60.6342 87.5585C60.6687 87.5305 60.6939 87.5086 60.7097 87.4929L61.4512 87.768C61.4238 87.8002 61.38 87.8435 61.3196 87.8979C61.2606 87.9515 61.1772 88.0109 61.0694 88.076C60.8796 88.1914 60.6741 88.2754 60.4527 88.3281C60.2299 88.38 60.0035 88.3927 59.7736 88.3661C59.5451 88.3388 59.3281 88.2653 59.1226 88.1455L55.8855 86.2851ZM63.5499 86.6761C63.2264 86.8616 62.875 86.9814 62.4955 87.0357C62.1161 87.0899 61.733 87.0811 61.3465 87.0091C60.9613 86.9363 60.5978 86.8016 60.2558 86.6051C59.9138 86.4086 59.679 86.1993 59.5512 85.9773C59.4248 85.7545 59.4091 85.5342 59.5041 85.3165C59.599 85.0987 59.8083 84.8971 60.1317 84.7116C60.4552 84.5262 60.8067 84.4063 61.1861 84.3521C61.5656 84.2978 61.9486 84.3075 62.3352 84.3811C62.7232 84.4539 63.0882 84.5886 63.4302 84.7851C63.7721 84.9816 64.0056 85.1909 64.1305 85.4129C64.2569 85.6341 64.2726 85.8535 64.1776 86.0713C64.0826 86.289 63.8734 86.4906 63.5499 86.6761ZM62.9292 86.3144C63.1046 86.2139 63.2031 86.1021 63.2247 85.9792C63.2449 85.8555 63.2019 85.73 63.0956 85.6029C62.9907 85.475 62.8377 85.3532 62.6366 85.2376C62.434 85.1212 62.2213 85.0328 61.9986 84.9725C61.7758 84.9105 61.5567 84.8852 61.3411 84.8966C61.1255 84.9081 60.93 84.9641 60.7546 85.0646C60.5749 85.1677 60.4742 85.2815 60.4526 85.406C60.4324 85.5298 60.4755 85.656 60.5818 85.7848C60.688 85.9119 60.8425 86.0337 61.0451 86.1501C61.2462 86.2657 61.4575 86.3541 61.6788 86.4153C61.9015 86.4756 62.1207 86.5 62.3363 86.4886C62.5519 86.4755 62.7495 86.4175 62.9292 86.3144ZM67.2445 84.5578C66.9211 84.7433 66.5696 84.8632 66.1901 84.9174C65.8107 84.9717 65.4277 84.9628 65.0411 84.8908C64.6559 84.818 64.2924 84.6834 63.9504 84.4868C63.6085 84.2903 63.3736 84.081 63.2458 83.8591C63.1194 83.6362 63.1037 83.4159 63.1987 83.1982C63.2937 82.9804 63.5029 82.7788 63.8264 82.5934C64.1498 82.4079 64.5013 82.2881 64.8808 82.2338C65.2602 82.1796 65.6432 82.1892 66.0298 82.2629C66.4178 82.3357 66.7828 82.4703 67.1248 82.6669C67.4668 82.8634 67.7002 83.0727 67.8251 83.2946C67.9515 83.5158 67.9672 83.7353 67.8722 83.953C67.7772 84.1708 67.568 84.3724 67.2445 84.5578ZM66.6238 84.1962C66.7992 84.0956 66.8977 83.9839 66.9194 83.861C66.9396 83.7372 66.8965 83.6118 66.7902 83.4847C66.6854 83.3568 66.5324 83.235 66.3312 83.1194C66.1286 83.003 65.9159 82.9146 65.6932 82.8542C65.4705 82.7922 65.2513 82.767 65.0357 82.7784C64.8201 82.7898 64.6246 82.8458 64.4492 82.9464C64.2695 83.0494 64.1689 83.1632 64.1472 83.2878C64.127 83.4115 64.1701 83.5378 64.2764 83.6665C64.3827 83.7936 64.5371 83.9154 64.7397 84.0318C64.9409 84.1474 65.1521 84.2358 65.3734 84.297C65.5961 84.3573 65.8153 84.3818 66.0309 84.3704C66.2465 84.3573 66.4441 84.2992 66.6238 84.1962ZM65.7964 80.2465L70.2103 82.7832L69.4297 83.2308L65.0158 80.6941L65.7964 80.2465ZM70.9699 82.3477L70.4742 82.0628L70.0421 79.8537L70.014 79.8376L68.3622 80.7846L67.7156 80.413L70.3228 78.9182L70.8551 79.2242L71.3326 81.3653L71.3607 81.3814L73.0427 80.417L73.6893 80.7886L70.9699 82.3477Z" fill="#FD55A1"/>
<path d="M92.334 65.638C92.3403 66.1589 92.1919 66.67 91.9075 67.1065C91.6232 67.543 91.2156 67.8853 90.7366 68.0901C90.2575 68.2948 89.7285 68.3528 89.2165 68.2567C88.7044 68.1605 88.2325 67.9146 87.8603 67.55C87.4882 67.1854 87.2326 66.7186 87.1259 66.2087C87.0193 65.6987 87.0664 65.1686 87.2612 64.6854C87.4561 64.2023 87.7899 63.7878 88.2205 63.4945C88.6511 63.2013 89.159 63.0424 89.68 63.038C90.3767 63.031 91.0476 63.301 91.5452 63.7886C92.0429 64.2761 92.3266 64.9413 92.334 65.638Z" fill="#455A64"/>
<path d="M91.022 65.982L88.068 67.724C88.5622 68.1115 89.1787 68.3096 89.8061 68.2824C90.4336 68.2552 91.0306 68.0045 91.4894 67.5756C91.9482 67.1468 92.2385 66.568 92.308 65.9438C92.3774 65.3196 92.2213 64.6912 91.868 64.172C92.112 64.84 91.972 65.422 91.022 65.982Z" fill="#37474F"/>
<path d="M89.2 67.4819L87.358 66.4399C87.984 68.9266 88.2533 71.4895 88.158 74.0519L88.894 74.4699C89.316 73.0639 89.386 70.1999 89.2 67.4819Z" fill="#37474F"/>
<path d="M91.43 67.444L90.666 68.444V71.324C90.6668 71.9582 90.5038 72.5818 90.1926 73.1344C89.8814 73.687 89.4327 74.1498 88.89 74.478C89.314 72.806 89.338 69.97 89.194 67.49L91.43 67.444Z" fill="#455A64"/>
<path d="M89.022 70.748L89.076 70.778C89.1243 70.8025 89.1778 70.8154 89.232 70.8154C89.2862 70.8154 89.3397 70.8025 89.388 70.778L89.806 70.532C89.892 70.482 89.962 70.52 89.964 70.62V70.682C89.9615 70.7362 89.9462 70.7891 89.9195 70.8363C89.8927 70.8836 89.8552 70.9239 89.81 70.954L89.386 71.2C89.3378 71.225 89.2843 71.2381 89.23 71.2381C89.1757 71.2381 89.1222 71.225 89.074 71.2L89.024 71.17C88.9786 71.1397 88.9407 71.0995 88.9133 71.0524C88.8859 71.0052 88.8697 70.9524 88.866 70.898V70.836C88.866 70.74 88.934 70.698 89.022 70.748Z" fill="#FD55A1"/>
<path d="M88.964 71.692L89.018 71.722C89.0667 71.7466 89.1205 71.7594 89.175 71.7594C89.2295 71.7594 89.2833 71.7466 89.332 71.722L89.748 71.476C89.834 71.426 89.906 71.464 89.906 71.564V71.626C89.904 71.6803 89.8889 71.7334 89.8621 71.7807C89.8353 71.8281 89.7976 71.8683 89.752 71.898L89.328 72.148C89.2802 72.173 89.227 72.1861 89.173 72.1861C89.119 72.1861 89.0658 72.173 89.018 72.148L88.966 72.118C88.9205 72.088 88.8827 72.0478 88.8556 72.0006C88.8285 71.9533 88.8129 71.9004 88.81 71.846V71.784C88.8 71.684 88.878 71.642 88.964 71.692Z" fill="#FD55A1"/>
<path d="M88.906 72.636L88.962 72.666C89.0103 72.6906 89.0638 72.7034 89.118 72.7034C89.1722 72.7034 89.2257 72.6906 89.274 72.666L89.692 72.42C89.778 72.368 89.848 72.408 89.848 72.508V72.57C89.8455 72.6242 89.8302 72.6771 89.8035 72.7244C89.7767 72.7716 89.7392 72.8119 89.694 72.842L89.27 73.092C89.2218 73.117 89.1683 73.1301 89.114 73.1301C89.0597 73.1301 89.0062 73.117 88.958 73.092L88.908 73.062C88.8623 73.0321 88.8242 72.992 88.7967 72.9447C88.7693 72.8975 88.7533 72.8445 88.75 72.79V72.728C88.75 72.628 88.82 72.586 88.906 72.636Z" fill="#FD55A1"/>
<path d="M86.26 64.11C86.61 63.91 87.084 63.91 87.612 64.162C87.666 64.188 87.724 64.216 87.78 64.248C87.836 64.28 87.912 64.328 87.98 64.372C88.0897 64.4453 88.1952 64.5248 88.296 64.61C88.4892 64.7735 88.6679 64.9535 88.83 65.148C89.2797 65.6868 89.6151 66.3115 89.816 66.984C89.9103 67.3003 89.9614 67.6279 89.968 67.958C89.968 68.626 89.748 69.104 89.378 69.338L90.696 68.564C90.9401 68.4028 91.1389 68.1818 91.2733 67.922C91.4078 67.6622 91.4734 67.3723 91.464 67.08C91.4582 66.7653 91.4118 66.4527 91.326 66.15C91.1268 65.4607 90.7862 64.8204 90.326 64.27C90.1651 64.0757 89.987 63.8964 89.794 63.734C89.6933 63.648 89.5878 63.5679 89.478 63.494C89.412 63.45 89.346 63.41 89.278 63.372C89.21 63.334 89.164 63.312 89.106 63.286C88.8698 63.1768 88.6117 63.1235 88.3516 63.1301C88.0915 63.1367 87.8364 63.203 87.606 63.324L87.568 63.344L87.522 63.374L86.26 64.11Z" fill="#FD55A1"/>
<path opacity="0.1" d="M90.696 68.564C90.9401 68.4028 91.1389 68.1818 91.2733 67.922C91.4078 67.6622 91.4734 67.3723 91.464 67.08C91.4582 66.7653 91.4118 66.4527 91.326 66.15L89.818 66.988C89.9123 67.3043 89.9634 67.6319 89.97 67.962C89.97 68.63 89.75 69.108 89.38 69.342L90.696 68.564Z" fill="black"/>
<path d="M85.64 65.512C85.654 66.884 86.64 68.544 87.826 69.22C88.426 69.56 88.968 69.586 89.356 69.352L89.378 69.338C89.748 69.104 89.978 68.626 89.968 67.958C89.956 66.586 88.978 64.926 87.782 64.248C87.182 63.912 86.648 63.884 86.262 64.11C85.876 64.336 85.634 64.824 85.64 65.512Z" fill="#FD55A1"/>
<path opacity="0.2" d="M85.64 65.512C85.654 66.884 86.64 68.544 87.826 69.22C88.426 69.56 88.968 69.586 89.356 69.352L89.378 69.338C89.748 69.104 89.978 68.626 89.968 67.958C89.956 66.586 88.978 64.926 87.782 64.248C87.182 63.912 86.648 63.884 86.262 64.11C85.876 64.336 85.634 64.824 85.64 65.512Z" fill="black"/>
<path d="M79.038 65.216C79.038 65.216 81.22 66.31 83.104 69.506C83.4426 70.079 83.742 70.6744 84 71.288C84.952 73.564 84.888 75.138 84.888 75.138C85.52 73.548 86.31 71.9 87.642 70.632C88.163 70.1368 88.7098 69.6695 89.28 69.232C89.634 69.032 89.838 68.574 89.832 67.956C89.8203 67.5239 89.7344 67.097 89.578 66.694C89.4755 66.4223 89.3497 66.16 89.202 65.91C88.8461 65.2778 88.3346 64.747 87.716 64.368C87.178 64.064 86.686 64.024 86.332 64.232C85.6737 64.5226 85.0008 64.7789 84.316 65C82.562 65.54 80.736 65.432 79.038 65.216Z" fill="#FD55A1"/>
<path opacity="0.6" d="M79.038 65.216C79.038 65.216 81.22 66.31 83.104 69.506C83.4426 70.079 83.742 70.6744 84 71.288C84.952 73.564 84.888 75.138 84.888 75.138C85.52 73.548 86.31 71.9 87.642 70.632C88.163 70.1368 88.7098 69.6695 89.28 69.232C89.634 69.032 89.838 68.574 89.832 67.956C89.8203 67.5239 89.7344 67.097 89.578 66.694C89.4755 66.4223 89.3497 66.16 89.202 65.91C88.8461 65.2778 88.3346 64.747 87.716 64.368C87.178 64.064 86.686 64.024 86.332 64.232C85.6737 64.5226 85.0008 64.7789 84.316 65C82.562 65.54 80.736 65.432 79.038 65.216Z" fill="white"/>
<path opacity="0.1" d="M84 71.288C84.952 73.564 84.888 75.138 84.888 75.138C85.52 73.548 86.31 71.9 87.642 70.632C88.163 70.1368 88.7098 69.6695 89.28 69.232C89.634 69.032 89.838 68.574 89.832 67.956C89.8203 67.5239 89.7344 67.097 89.578 66.694C87.938 67.536 85.288 69.078 84 71.288Z" fill="black"/>
<path d="M74.976 68.35C74.99 69.782 75.444 71.35 76.19 72.784C77.148 74.628 78.59 76.27 80.178 77.172C83.022 78.772 85.302 77.436 85.272 74.172C85.2581 73.3886 85.1377 72.6108 84.914 71.86C84.3245 69.8771 83.2406 68.0767 81.764 66.628C81.564 66.428 81.354 66.25 81.14 66.078L80.872 65.878C80.744 65.784 80.614 65.692 80.484 65.606C80.354 65.52 80.21 65.434 80.072 65.356C77.228 63.74 74.946 65.084 74.976 68.35Z" fill="#FD55A1"/>
<path opacity="0.1" d="M76.2 72.7859C77.158 74.6299 78.6 76.2719 80.188 77.1739C83.032 78.7739 85.312 77.4379 85.282 74.1739C85.2681 73.3906 85.1477 72.6128 84.924 71.8619C84.738 72.2859 84.054 72.8939 83.744 72.4759C83.9388 73.1424 84.0444 73.8317 84.058 74.5259C84.058 75.4639 83.858 76.2239 83.474 76.7259C83.3127 76.9347 83.1044 77.1025 82.8659 77.2154C82.6275 77.3284 82.3657 77.3834 82.102 77.3759C81.429 77.351 80.7738 77.1525 80.2 76.7999C78.842 76.0319 77.586 74.6419 76.692 73.0619C76.692 73.0559 76.516 73.1999 76.2 72.7859Z" fill="black"/>
<path d="M75.328 68.53C75.342 69.972 75.862 71.596 76.692 73.056C77.586 74.636 78.842 76.026 80.2 76.794C80.7703 77.1446 81.4211 77.3429 82.09 77.37C82.3537 77.3774 82.6155 77.3224 82.8539 77.2094C83.0924 77.0965 83.3007 76.9288 83.462 76.72C83.852 76.222 84.062 75.462 84.046 74.52C84.0324 73.8258 83.9268 73.1364 83.732 72.47C83.656 72.204 83.57 71.938 83.47 71.67C83.2949 71.2016 83.0892 70.7453 82.854 70.304L82.706 70.032C82.622 69.882 82.534 69.734 82.444 69.588C82.1394 69.0922 81.7977 68.6202 81.422 68.176L81.408 68.162C81.1662 67.8764 80.9084 67.6046 80.636 67.348C80.436 67.168 80.248 66.998 80.048 66.842C79.964 66.776 79.88 66.712 79.794 66.642C79.708 66.572 79.594 66.5 79.484 66.432C79.374 66.364 79.284 66.304 79.178 66.246C78.6073 65.8944 77.9558 65.6954 77.286 65.668C76.044 65.696 75.312 66.76 75.328 68.53Z" fill="#FD55A1"/>
<path opacity="0.4" d="M75.328 68.53C75.342 69.972 75.862 71.596 76.692 73.056C77.586 74.636 78.842 76.026 80.2 76.794C80.7703 77.1446 81.4211 77.3429 82.09 77.37C82.3537 77.3774 82.6155 77.3224 82.8539 77.2094C83.0924 77.0965 83.3007 76.9288 83.462 76.72C83.852 76.222 84.062 75.462 84.046 74.52C84.0324 73.8258 83.9268 73.1364 83.732 72.47C83.656 72.204 83.57 71.938 83.47 71.67C83.2949 71.2016 83.0892 70.7453 82.854 70.304L82.706 70.032C82.622 69.882 82.534 69.734 82.444 69.588C82.1394 69.0922 81.7977 68.6202 81.422 68.176L81.408 68.162C81.1662 67.8764 80.9084 67.6046 80.636 67.348C80.436 67.168 80.248 66.998 80.048 66.842C79.964 66.776 79.88 66.712 79.794 66.642C79.708 66.572 79.594 66.5 79.484 66.432C79.374 66.364 79.284 66.304 79.178 66.246C78.6073 65.8944 77.9558 65.6954 77.286 65.668C76.044 65.696 75.312 66.76 75.328 68.53Z" fill="black"/>
<path d="M79.044 69.74L80.818 72.814C81.548 72.414 82.436 71.928 83.564 71.942C83.534 71.854 83.504 71.768 83.47 71.678C83.2945 71.2104 83.0887 70.7548 82.854 70.314C82.806 70.222 82.756 70.13 82.706 70.042C82.622 69.892 82.534 69.742 82.444 69.596C82.1394 69.1009 81.7977 68.6295 81.422 68.186L81.408 68.17L81.244 67.97C80.692 68.986 79.044 69.74 79.044 69.74Z" fill="#37474F"/>
<path d="M80.576 72.864C80.956 72.864 81.176 72.552 81.176 72.036V72.02C81.1503 71.5771 81.0198 71.1468 80.7951 70.7643C80.5705 70.3818 80.2582 70.0581 79.884 69.82H79.87C79.7095 69.7216 79.5262 69.6665 79.338 69.66C78.956 69.66 78.738 69.972 78.738 70.488V70.504C78.7653 70.9464 78.8965 71.3762 79.121 71.7584C79.3455 72.1407 79.6569 72.4646 80.03 72.704H80.044C80.2052 72.8029 80.3891 72.8587 80.578 72.866L80.576 72.864Z" fill="#FD55A1"/>
</svg>
