<svg width="122" height="122" viewBox="0 0 122 122" fill="none" xmlns="http://www.w3.org/2000/svg">
<path d="M61.3172 114.507C91.7939 114.507 116.5 100.841 116.5 83.9824C116.5 67.1242 91.7939 53.458 61.3172 53.458C30.8405 53.458 6.13416 67.1242 6.13416 83.9824C6.13416 100.841 30.8405 114.507 61.3172 114.507Z" fill="#F0F0F0"/>
<path d="M17.2581 66.5608C17.5387 64.638 16.7311 60.4486 15.1012 57.6596C13.4712 54.8707 10.5994 52.5844 8.26916 53.0236C6.0878 53.4287 5.91456 56.1956 8.16912 58.3599C10.4237 60.5242 13.8787 63.357 14.5302 66.6388L16.2943 70.8064L17.2581 66.5608Z" fill="#FD55A1"/>
<g opacity="0.15">
<path d="M17.2581 66.5608C17.5387 64.638 16.7311 60.4486 15.1012 57.6596C13.4712 54.8707 10.5994 52.5844 8.26916 53.0236C6.0878 53.4287 5.91456 56.1956 8.16912 58.3599C10.4237 60.5242 13.8787 63.357 14.5302 66.6388L16.2943 70.8064L17.2581 66.5608Z" fill="black"/>
</g>
<path d="M17.0141 69.2155C16.9841 69.2082 16.9572 69.1915 16.9375 69.1677C16.9177 69.144 16.9061 69.1146 16.9043 69.0837C16.5774 62.3274 12.0463 56.2127 9.0402 54.5682C9.02105 54.561 9.00367 54.5499 8.98924 54.5354C8.97482 54.5209 8.9637 54.5035 8.95665 54.4843C8.9496 54.4652 8.94679 54.4447 8.9484 54.4243C8.95002 54.4039 8.95602 54.3842 8.966 54.3664C8.97598 54.3485 8.98971 54.3331 9.00623 54.3211C9.02275 54.309 9.04168 54.3007 9.06171 54.2967C9.08174 54.2927 9.10241 54.2931 9.12228 54.2978C9.14216 54.3026 9.16077 54.3115 9.17684 54.3242C12.2415 56.0004 16.858 62.2176 17.1874 69.074C17.1883 69.0925 17.1857 69.1112 17.1794 69.1287C17.1732 69.1463 17.1636 69.1624 17.1511 69.1762C17.1387 69.1901 17.1236 69.2013 17.1068 69.2093C17.09 69.2173 17.0718 69.2219 17.0532 69.2228L17.0141 69.2155Z" fill="white"/>
<path d="M16.7506 75.4521C16.6018 74.3273 15.5306 72.3484 13.6201 70.5721C11.4973 68.5957 8.61564 67.4001 8.11056 66.0362C7.50788 64.3916 9.0036 63.1399 11.385 63.7962C13.7665 64.4526 17.5534 68.3883 17.5046 73.4757L16.7506 75.4521Z" fill="#FD55A1"/>
<path d="M17.3874 74.3858C17.3607 74.3801 17.3363 74.3666 17.3172 74.3471C17.2981 74.3276 17.2852 74.3029 17.2801 74.276C16.0894 68.3566 12.0853 65.7531 10.1358 65.2041C10.1178 65.199 10.1011 65.1904 10.0864 65.1788C10.0718 65.1672 10.0596 65.1528 10.0506 65.1365C10.0415 65.1202 10.0358 65.1022 10.0336 65.0837C10.0315 65.0652 10.033 65.0464 10.0382 65.0284C10.0433 65.0105 10.0519 64.9937 10.0635 64.9791C10.0751 64.9645 10.0895 64.9523 10.1058 64.9433C10.1221 64.9342 10.14 64.9284 10.1586 64.9263C10.1771 64.9242 10.1959 64.9257 10.2138 64.9308C12.3708 65.5384 16.348 68.1785 17.568 74.2199C17.5752 74.2571 17.5675 74.2956 17.5464 74.3271C17.5254 74.3587 17.4929 74.3806 17.4558 74.3883C17.4331 74.3924 17.4098 74.3916 17.3874 74.3858Z" fill="white"/>
<path d="M40.6406 16.3919L39.1498 17.2508C39.1574 17.186 39.1615 17.1209 39.162 17.0556V16.6213C39.162 15.8527 38.6228 15.5428 37.9566 15.9259C37.6701 16.102 37.4247 16.3375 37.2368 16.6164C37.1295 15.6404 36.3706 15.289 35.4483 15.821C34.9236 16.1639 34.4869 16.6256 34.1737 17.1686C33.8604 17.7116 33.6794 18.3207 33.6452 18.9466V19.5932C33.6384 19.8511 33.6901 20.1072 33.7964 20.3423L32.5594 21.0572C32.3638 21.1834 32.2012 21.3543 32.0849 21.5559C31.9687 21.7574 31.9021 21.9838 31.8908 22.2162C31.8908 22.6432 32.1885 22.814 32.5594 22.6017L40.6406 17.9365C40.8355 17.8096 40.9976 17.6385 41.1138 17.437C41.23 17.2356 41.2969 17.0096 41.3092 16.7775C41.3092 16.348 41.0115 16.1772 40.6406 16.3919Z" fill="#EBEBEB"/>
<path d="M25.4492 17.4167L24.6269 17.7315V15.921C24.6269 14.4838 23.4801 14.1398 22.2357 14.8572C20.984 15.5745 19.9836 17.324 19.9836 18.7587V19.032C19.8082 18.9785 19.6231 18.9651 19.4418 18.993C19.2606 19.0209 19.088 19.0893 18.9368 19.193C18.4676 19.5006 18.0772 19.9141 17.797 20.4003C17.5169 20.8864 17.3549 21.4315 17.324 21.9917V22.1113L16.1748 22.775C15.8643 22.9779 15.606 23.2511 15.4207 23.5724C15.2355 23.8937 15.1285 24.2541 15.1085 24.6245C15.1085 25.3052 15.5965 25.581 16.1748 25.2394L25.4468 19.8714C25.7572 19.6684 26.0155 19.3953 26.2008 19.0739C26.386 18.7526 26.493 18.3922 26.513 18.0218C26.5155 17.3508 26.0372 17.08 25.4492 17.4167Z" fill="#EBEBEB"/>
<path d="M44.9228 91.4707L79.6977 71.3944C80.1144 71.1222 80.4612 70.7557 80.71 70.3246C80.9588 69.8935 81.1027 69.4099 81.13 68.9129V56.7007C81.1027 56.2037 80.9588 55.7201 80.71 55.289C80.4612 54.858 80.1144 54.4915 79.6977 54.2192L55.6784 40.3503C55.234 40.1252 54.743 40.0079 54.2449 40.0079C53.7468 40.0079 53.2557 40.1252 52.8114 40.3503L18.0389 60.4266C17.6222 60.6988 17.2755 61.0653 17.0266 61.4964C16.7778 61.9275 16.6339 62.4111 16.6066 62.9081V75.1203C16.6336 75.6177 16.7773 76.1018 17.0261 76.5333C17.2749 76.9648 17.6219 77.3317 18.0389 77.6042L42.0583 91.4707C42.5023 91.6954 42.9929 91.8125 43.4906 91.8125C43.9882 91.8125 44.4788 91.6954 44.9228 91.4707Z" fill="#FD55A1"/>
<path d="M43.4906 90.6436V78.4314C43.4633 77.9344 43.3194 77.4508 43.0706 77.0197C42.8217 76.5886 42.475 76.2221 42.0583 75.9499L18.0389 62.0809C17.2459 61.6246 16.6066 61.9955 16.6066 62.9081V75.1203C16.6336 75.6177 16.7773 76.1018 17.0261 76.5333C17.2749 76.9648 17.6219 77.3317 18.0389 77.6042L42.0583 91.4707C42.8488 91.927 43.4906 91.5586 43.4906 90.6436Z" fill="#263238"/>
<path d="M80.4663 54.9244L42.8293 76.655C42.6216 76.3712 42.3595 76.1315 42.0583 75.9499L18.0414 62.0833C17.324 61.6685 16.7335 61.9272 16.6262 62.6567C16.6883 62.2056 16.8469 61.7731 17.0911 61.3887C17.3353 61.0043 17.6594 60.677 18.0414 60.429L52.8114 40.3478C53.2557 40.1227 53.7468 40.0054 54.2449 40.0054C54.743 40.0054 55.234 40.1227 55.6784 40.3478L79.6953 54.2217C79.9974 54.401 80.2598 54.6401 80.4663 54.9244Z" fill="#FD55A1"/>
<path d="M80.4663 54.9244L42.8293 76.655C42.6216 76.3712 42.3595 76.1315 42.0583 75.9499L18.0414 62.0833C17.324 61.6685 16.7335 61.9272 16.6262 62.6567C16.6883 62.2056 16.8469 61.7731 17.0911 61.3887C17.3353 61.0043 17.6594 60.677 18.0414 60.429L52.8114 40.3478C53.2557 40.1227 53.7468 40.0054 54.2449 40.0054C54.743 40.0054 55.234 40.1227 55.6784 40.3478L79.6953 54.2217C79.9974 54.401 80.2598 54.6401 80.4663 54.9244Z" fill="#455A64"/>
<path d="M81.1276 56.7007V68.9007C81.1028 69.3983 80.96 69.8828 80.7109 70.3143C80.4619 70.7458 80.1137 71.1118 79.6953 71.3822L44.9253 91.461C44.5168 91.6673 44.0688 91.7832 43.6115 91.8009C43.1543 91.8186 42.6986 91.7376 42.2754 91.5634C42.9611 91.8465 43.4954 91.461 43.4954 90.6314V78.4314C43.4673 77.7845 43.2359 77.1629 42.8342 76.655L80.4663 54.9244C80.8679 55.4323 81.0992 56.0538 81.1276 56.7007Z" fill="#37474F"/>
<path d="M73.7051 60.8048V64.0354C73.6835 64.4333 73.5688 64.8206 73.37 65.1661C73.1712 65.5115 72.894 65.8054 72.5607 66.024L53.0407 77.3016C52.4088 77.6701 51.8939 77.3724 51.8939 76.6428V73.4123C51.8947 72.8111 51.7051 72.2251 51.3522 71.7384L73.178 59.1358C73.5238 59.6234 73.7081 60.2071 73.7051 60.8048Z" fill="#FD55A1"/>
<path opacity="0.15" d="M73.7051 60.8048V64.0354C73.6835 64.4333 73.5688 64.8206 73.37 65.1661C73.1712 65.5115 72.894 65.8054 72.5607 66.024L53.0407 77.3016C52.4088 77.6701 51.8939 77.3724 51.8939 76.6428V73.4123C51.8947 72.8111 51.7051 72.2251 51.3522 71.7384L73.178 59.1358C73.5238 59.6234 73.7081 60.2071 73.7051 60.8048Z" fill="black"/>
<path d="M73.1683 59.1358L51.3425 71.736C51.1075 71.4049 50.8037 71.1285 50.4519 70.9259L34.2112 61.549C33.5793 61.1854 33.5793 60.5901 34.2112 60.2265L53.7312 48.944C54.0869 48.7646 54.4797 48.6712 54.878 48.6712C55.2764 48.6712 55.6692 48.7646 56.0248 48.944L72.2752 58.316C72.6287 58.5215 72.9334 58.8012 73.1683 59.1358Z" fill="#FD55A1"/>
<path d="M51.5206 59.1578C49.9444 60.0679 49.9444 61.5441 51.5206 62.4542C53.0968 63.3644 55.654 63.3644 57.2302 62.4542C58.8064 61.5441 58.8089 60.0704 57.2302 59.1578C55.6515 58.2452 53.0968 58.2477 51.5206 59.1578Z" fill="#FAFAFA"/>
<path d="M48.7512 84.1166C48.7685 83.7753 48.8659 83.4429 49.0355 83.1461C49.205 82.8494 49.442 82.5968 49.7272 82.4086L76.4232 66.9951C76.9674 66.6828 77.3992 66.9365 77.3992 67.566V72.712L48.7512 89.2625V84.1166Z" fill="#263238"/>
<path d="M49.6857 85.6172V84.0653L76.5721 68.5445V70.0963L49.6857 85.6172Z" fill="black"/>
<path d="M24.6708 59.7019L51.5572 44.1786L52.8724 44.9424L25.9909 60.4632L24.6708 59.7019Z" fill="#263238"/>
<path d="M25.2955 60.0679L21.4305 42.9879L48.3169 27.4646L52.1794 44.5471L25.2955 60.0679Z" fill="#37474F"/>
<path d="M21.4305 42.9879L20.8083 42.6219L24.6708 59.7019L25.2955 60.0679L21.4305 42.9879Z" fill="#263238"/>
<path d="M20.8083 42.6219L21.4305 42.9879L48.3169 27.4646L47.6947 27.0986L20.8083 42.6219Z" fill="#455A64"/>
<path d="M26.0738 59.619L21.4061 38.9619L46.0282 24.7465L50.6959 45.4035L26.0738 59.619Z" fill="#E0E0E0"/>
<path d="M26.7595 60.0191L22.0893 39.3621L46.7138 25.1466L51.3815 45.8037L26.7595 60.0191Z" fill="#FAFAFA"/>
<path d="M22.0893 39.3621L21.4061 38.9619L26.2324 60.3241L26.7595 60.0191L22.0893 39.3621Z" fill="#E0E0E0"/>
<path d="M21.4061 38.9619L22.0893 39.3621L46.7138 25.1466L46.0282 24.7465L21.4061 38.9619Z" fill="#EBEBEB"/>
<path d="M47.1676 72.2752V71.9654C47.1607 71.8935 47.1343 71.8248 47.0914 71.7668C47.0484 71.7088 46.9904 71.6635 46.9236 71.636L46.277 71.2626C46.0994 71.1724 45.9029 71.1254 45.7036 71.1254C45.5044 71.1254 45.3079 71.1724 45.1302 71.2626L42.6902 72.6705C42.6233 72.6985 42.5652 72.7442 42.5223 72.8026C42.4793 72.8611 42.453 72.9301 42.4462 73.0024V73.3171C42.4548 73.3879 42.4818 73.4552 42.5246 73.5122C42.5675 73.5691 42.6246 73.6138 42.6902 73.6416L43.3368 74.015C43.5145 74.1052 43.711 74.1522 43.9102 74.1522C44.1095 74.1522 44.306 74.1052 44.4836 74.015L46.9236 72.6071C46.9897 72.5793 47.0472 72.5343 47.0901 72.4768C47.133 72.4193 47.1598 72.3514 47.1676 72.2801V72.2752Z" fill="#263238"/>
<path d="M43.3466 73.7051L42.7 73.3318C42.3852 73.1488 42.3852 72.8437 42.7 72.6705L45.14 71.2626C45.3177 71.1724 45.5141 71.1254 45.7134 71.1254C45.9127 71.1254 46.1091 71.1724 46.2868 71.2626L46.9334 71.636C47.2482 71.8165 47.2482 72.1239 46.9334 72.2972L44.4934 73.7051C44.3154 73.7942 44.1191 73.8406 43.92 73.8406C43.7209 73.8406 43.5246 73.7942 43.3466 73.7051Z" fill="#37474F"/>
<path d="M43.9542 73.444C43.7842 73.4473 43.6162 73.4069 43.4662 73.3269C43.4169 73.3023 43.3731 73.268 43.3375 73.2261C43.3018 73.1842 43.2751 73.1354 43.2588 73.0829C43.2492 73.0459 43.2473 73.0073 43.2532 72.9695C43.259 72.9318 43.2726 72.8956 43.2929 72.8633C43.2962 72.8573 43.3007 72.852 43.3061 72.8478C43.3114 72.8435 43.3176 72.8404 43.3242 72.8386C43.3308 72.8368 43.3377 72.8363 43.3445 72.8372C43.3512 72.8381 43.3578 72.8403 43.3637 72.8438C43.3755 72.8513 43.384 72.863 43.3877 72.8766C43.3913 72.8901 43.3897 72.9045 43.3832 72.917C43.3695 72.9371 43.3602 72.9599 43.356 72.9839C43.3517 73.0078 43.3527 73.0325 43.3588 73.056C43.3871 73.1342 43.4449 73.1982 43.5198 73.2342C43.6544 73.3027 43.8032 73.3385 43.9542 73.3385C44.1051 73.3385 44.254 73.3027 44.3885 73.2342C44.4366 73.2206 44.4791 73.1917 44.5093 73.1519C44.5395 73.112 44.5558 73.0634 44.5558 73.0133C44.5558 72.9633 44.5395 72.9147 44.5093 72.8748C44.4791 72.8349 44.4366 72.806 44.3885 72.7925C44.1921 72.6923 43.9671 72.663 43.7516 72.7096C43.7379 72.7113 43.7239 72.7081 43.7123 72.7005C43.7007 72.6929 43.6921 72.6814 43.6882 72.6681C43.6859 72.6542 43.6889 72.64 43.6966 72.6283C43.7043 72.6165 43.7161 72.6081 43.7297 72.6046C43.9713 72.5539 44.2231 72.5884 44.4422 72.7022C44.5057 72.7258 44.5604 72.7682 44.5991 72.8239C44.6378 72.8795 44.6585 72.9456 44.6585 73.0133C44.6585 73.0811 44.6378 73.1472 44.5991 73.2028C44.5604 73.2584 44.5057 73.3009 44.4422 73.3244C44.2924 73.4054 44.1244 73.4465 43.9542 73.444Z" fill="#FAFAFA"/>
<path d="M43.9761 73.0804H43.9517L43.349 72.7315C43.3432 72.728 43.3382 72.7234 43.3342 72.7179C43.3302 72.7125 43.3273 72.7063 43.3257 72.6997C43.3242 72.6931 43.3239 72.6863 43.325 72.6796C43.326 72.6729 43.3284 72.6665 43.332 72.6607C43.3353 72.6548 43.3397 72.6495 43.3451 72.6452C43.3505 72.641 43.3566 72.6379 43.3632 72.6361C43.3698 72.6342 43.3767 72.6338 43.3835 72.6346C43.3903 72.6355 43.3968 72.6378 43.4027 72.6412L44.003 72.9877C44.0093 72.991 44.0149 72.9956 44.0193 73.0011C44.0238 73.0067 44.027 73.0131 44.0289 73.02C44.0307 73.0269 44.0311 73.0341 44.03 73.0411C44.0289 73.0482 44.0263 73.0549 44.0225 73.0609C44.0171 73.0679 44.01 73.0733 44.0019 73.0767C43.9937 73.0802 43.9849 73.0814 43.9761 73.0804Z" fill="#FAFAFA"/>
<path d="M40.1404 73.0194L45.5084 69.9158C45.5438 69.9029 45.5743 69.8795 45.5959 69.8488C45.6174 69.818 45.629 69.7813 45.629 69.7437C45.629 69.7061 45.6174 69.6695 45.5959 69.6387C45.5743 69.6079 45.5438 69.5845 45.5084 69.5717L42.3999 67.7783C42.3084 67.732 42.2072 67.7079 42.1046 67.7079C42.0021 67.7079 41.9009 67.732 41.8094 67.7783L36.4414 70.8844C36.4058 70.8966 36.3749 70.9197 36.353 70.9503C36.3312 70.9809 36.3194 71.0176 36.3194 71.0552C36.3194 71.0929 36.3312 71.1296 36.353 71.1602C36.3749 71.1908 36.4058 71.2138 36.4414 71.226L39.5475 73.0194C39.6394 73.0661 39.7409 73.0905 39.844 73.0905C39.947 73.0905 40.0486 73.0661 40.1404 73.0194Z" fill="#263238"/>
<path d="M42.3877 68.2224C42.2963 68.1755 42.1951 68.1511 42.0924 68.1511C41.9898 68.1511 41.8886 68.1755 41.7972 68.2224L36.5317 71.2748L39.55 73.0194C39.6415 73.0658 39.7426 73.0899 39.8452 73.0899C39.9478 73.0899 40.0489 73.0658 40.1404 73.0194L45.4084 69.9646L42.3877 68.2224Z" fill="#FD55A1"/>
<g opacity="0.4">
<path d="M38.2934 71.4188C38.4334 71.3332 38.5931 71.2849 38.7571 71.2785C38.9211 71.2721 39.084 71.3078 39.2303 71.3822C39.5109 71.5432 39.4987 71.7677 39.1986 71.941L38.94 72.0898L39.2864 72.2899L39.0571 72.4216L37.8054 71.6896L38.2934 71.4188ZM38.8399 72.0337L39.0498 71.9117C39.2547 71.7946 39.2352 71.6677 38.9936 71.5188C38.8968 71.4569 38.7848 71.4228 38.6699 71.4203C38.5551 71.4177 38.4417 71.4467 38.3422 71.5042L38.1323 71.6238L38.8399 72.0337Z" fill="black"/>
<path d="M38.9912 71.004L39.5109 70.7063C39.6308 70.6298 39.7679 70.5845 39.9098 70.5742C40.0516 70.564 40.1938 70.5893 40.3234 70.6477C40.3636 70.6621 40.3989 70.6874 40.4254 70.7207C40.452 70.754 40.4688 70.7941 40.4738 70.8364C40.4789 70.8787 40.4721 70.9216 40.4541 70.9602C40.4362 70.9989 40.4078 71.0318 40.3722 71.0552C40.4528 71.0412 40.5347 71.0371 40.6162 71.043L41.2287 71.0894L41.0896 71.2748L40.5016 71.2089C40.3446 71.1689 40.1785 71.1863 40.0331 71.2577L39.9623 71.2992L40.4723 71.5945L40.2405 71.7262L38.9912 71.004ZM39.323 70.9283L39.8647 71.2431L40.1282 71.0894C40.2746 71.0064 40.2576 70.8844 40.0892 70.7868C40.0119 70.7388 39.9227 70.7134 39.8318 70.7134C39.7408 70.7134 39.6516 70.7388 39.5744 70.7868L39.323 70.9283Z" fill="black"/>
<path d="M40.4284 70.1842L41.6801 70.9162L41.4507 71.0479L40.199 70.3159L40.4284 70.1842Z" fill="black"/>
<path d="M40.8724 69.9279L42.3974 70.0743H42.4511L42.0754 69.8572C41.907 69.7596 41.5874 69.6132 41.4995 69.5644L41.663 69.4692L42.9147 70.2012L42.7561 70.2939L41.2018 70.1451L41.1189 70.1329L41.5337 70.3769L42.0754 70.6892L41.9241 70.7771C41.8289 70.7209 41.5752 70.5501 41.4068 70.455L40.6919 70.028L40.8724 69.9279Z" fill="black"/>
<path d="M42.9001 68.7592L43.027 68.8324C42.944 68.8788 42.7049 68.9837 42.5878 69.052L43.7394 69.7181L43.5076 69.8523L42.356 69.1862C42.2364 69.2545 42.0558 69.3911 41.9729 69.4302L41.846 69.357L42.9001 68.7592Z" fill="black"/>
</g>
<path d="M50.2128 84.9681C52.6268 85.4338 54.9274 86.3644 56.9862 87.7082C59.3194 89.2197 61.2577 91.2668 62.6397 93.6789C64.1908 96.3662 66.4227 98.5973 69.1106 100.147L73.3318 102.587V101.504L69.1106 99.064C66.4266 97.5122 64.4526 95.1161 62.9008 92.4296C61.51 90.0238 59.3237 88.1255 56.9862 86.6249C55.1334 85.4169 53.0852 84.5393 50.9326 84.0312L50.2225 84.4411L50.2128 84.9681Z" fill="#E0E0E0"/>
<g opacity="0.05">
<path d="M50.2128 84.9681C52.6268 85.4338 54.9274 86.3644 56.9862 87.7082C59.3194 89.2197 61.2577 91.2668 62.6397 93.6789C64.1908 96.3662 66.4227 98.5973 69.1106 100.147L73.3318 102.587V101.504L69.1106 99.064C66.4266 97.5122 64.4526 95.1161 62.9008 92.4296C61.51 90.0238 59.3237 88.1255 56.9862 86.6249C55.1334 85.4169 53.0852 84.5393 50.9326 84.0312L50.2225 84.4411L50.2128 84.9681Z" fill="black"/>
</g>
<path d="M97.8928 87.313L73.3318 101.511V102.585L97.8928 88.3792V87.313Z" fill="#EBEBEB"/>
<path d="M73.3318 101.504L69.1106 99.064C66.4266 97.5122 64.4526 95.1161 62.9008 92.4296C61.51 90.0238 59.3237 88.1255 56.9862 86.6249C55.1334 85.4169 53.0852 84.5393 50.9326 84.0312L75.4863 69.8279C77.6411 70.3375 79.6916 71.2158 81.5472 72.4241C83.8872 73.9247 86.0051 75.9157 87.4032 78.324C88.9551 81.008 90.9949 83.3113 93.6814 84.8632L97.9025 87.3032L73.3318 101.504Z" fill="#FAFAFA"/>
<path d="M55.571 83.9872C55.5206 83.9879 55.4713 83.9719 55.4311 83.9415C55.3908 83.9111 55.3619 83.8682 55.3487 83.8195C55.3356 83.7708 55.339 83.7191 55.3585 83.6726C55.378 83.6261 55.4124 83.5874 55.4563 83.5627L69.8523 75.2301C69.9043 75.2019 69.9652 75.1952 70.0221 75.2112C70.0789 75.2273 70.1273 75.2649 70.1569 75.3161C70.1864 75.3673 70.1949 75.428 70.1804 75.4853C70.1659 75.5426 70.1296 75.592 70.0792 75.6229L55.6832 83.9555C55.6494 83.976 55.6106 83.987 55.571 83.9872Z" fill="#E0E0E0"/>
<path d="M57.9036 85.1121C57.8535 85.1117 57.8048 85.0949 57.7651 85.0642C57.7254 85.0335 57.6968 84.9907 57.6838 84.9422C57.6708 84.8937 57.674 84.8424 57.693 84.7959C57.712 84.7495 57.7457 84.7105 57.789 84.6851L72.185 76.3525C72.2109 76.3376 72.2395 76.3279 72.2692 76.3241C72.2989 76.3203 72.3291 76.3223 72.3579 76.3301C72.3868 76.3379 72.4139 76.3514 72.4376 76.3697C72.4613 76.3879 72.4812 76.4107 72.4961 76.4367C72.511 76.4626 72.5206 76.4912 72.5244 76.5209C72.5283 76.5506 72.5262 76.5807 72.5184 76.6096C72.5106 76.6385 72.4972 76.6656 72.4789 76.6893C72.4606 76.713 72.4378 76.7329 72.4119 76.7478L58.0159 85.0804C57.982 85.1008 57.9432 85.1118 57.9036 85.1121Z" fill="#E0E0E0"/>
<path d="M60.024 86.4663C59.984 86.4671 59.9445 86.4571 59.9097 86.4374C59.8749 86.4176 59.8461 86.3888 59.8264 86.354C59.8111 86.3281 59.8011 86.2995 59.797 86.2697C59.7929 86.2399 59.7948 86.2096 59.8025 86.1805C59.8102 86.1515 59.8236 86.1242 59.842 86.1004C59.8603 86.0766 59.8832 86.0566 59.9093 86.0417L74.3053 77.7091C74.3573 77.6847 74.4165 77.6807 74.4713 77.6978C74.5261 77.7149 74.5724 77.752 74.6012 77.8016C74.63 77.8512 74.6392 77.9099 74.6269 77.9659C74.6145 78.022 74.5816 78.0714 74.5347 78.1044L60.1387 86.437C60.1034 86.456 60.064 86.4661 60.024 86.4663Z" fill="#E0E0E0"/>
<path d="M62.0785 88.1352C62.0283 88.1354 61.9794 88.1189 61.9396 88.0883C61.8997 88.0578 61.8712 88.0148 61.8583 87.9663C61.8455 87.9178 61.8491 87.8663 61.8687 87.8201C61.8882 87.7738 61.9225 87.7353 61.9662 87.7107L76.3622 79.3781C76.3881 79.3628 76.4168 79.3528 76.4466 79.3487C76.4764 79.3446 76.5067 79.3465 76.5357 79.3542C76.5648 79.3619 76.592 79.3754 76.6159 79.3937C76.6397 79.412 76.6596 79.4349 76.6746 79.461C76.701 79.5145 76.7069 79.5758 76.6911 79.6334C76.6754 79.6909 76.6391 79.7407 76.5892 79.7733L62.1932 88.1059C62.1579 88.125 62.1185 88.135 62.0785 88.1352Z" fill="#E0E0E0"/>
<path d="M63.867 90.0726C63.827 90.0734 63.7875 90.0634 63.7527 90.0437C63.7179 90.0239 63.6891 89.9951 63.6694 89.9604C63.6541 89.9345 63.6441 89.9058 63.64 89.876C63.6359 89.8462 63.6378 89.8159 63.6455 89.7868C63.6532 89.7578 63.6666 89.7306 63.685 89.7067C63.7033 89.6829 63.7262 89.663 63.7523 89.648L78.1483 81.3154C78.2003 81.291 78.2595 81.287 78.3143 81.3041C78.369 81.3212 78.4154 81.3583 78.4442 81.4079C78.473 81.4576 78.4822 81.5162 78.4699 81.5723C78.4575 81.6283 78.4246 81.6777 78.3777 81.7107L63.9817 90.0433C63.9464 90.0623 63.907 90.0724 63.867 90.0726Z" fill="#E0E0E0"/>
<path d="M65.3017 92.2881C65.2513 92.2888 65.2021 92.2727 65.1618 92.2424C65.1216 92.212 65.0926 92.1691 65.0794 92.1204C65.0663 92.0717 65.0697 92.02 65.0892 91.9735C65.1087 91.927 65.1431 91.8883 65.187 91.8636L79.583 83.531C79.635 83.5028 79.6959 83.496 79.7528 83.5121C79.8097 83.5282 79.858 83.5658 79.8876 83.617C79.9172 83.6682 79.9256 83.7289 79.9111 83.7862C79.8966 83.8435 79.8603 83.8928 79.81 83.9238L65.414 92.2588C65.3794 92.2775 65.3409 92.2875 65.3017 92.2881Z" fill="#E0E0E0"/>
<path d="M66.8267 94.4548C66.7763 94.4556 66.7271 94.4395 66.6868 94.4091C66.6466 94.3787 66.6176 94.3358 66.6044 94.2871C66.5913 94.2384 66.5947 94.1868 66.6142 94.1403C66.6337 94.0937 66.6681 94.055 66.712 94.0303L81.108 85.6977C81.16 85.6695 81.2209 85.6628 81.2778 85.6788C81.3347 85.6949 81.383 85.7325 81.4126 85.7837C81.4422 85.8349 81.4506 85.8956 81.4361 85.9529C81.4216 86.0102 81.3853 86.0596 81.335 86.0905L66.939 94.4231C66.9051 94.4436 66.8663 94.4546 66.8267 94.4548Z" fill="#E0E0E0"/>
<path d="M72.507 74.176C72.467 74.1768 72.4276 74.1668 72.3928 74.1471C72.358 74.1273 72.3292 74.0985 72.3094 74.0638C72.2941 74.0379 72.2842 74.0092 72.2801 73.9794C72.276 73.9496 72.2778 73.9193 72.2856 73.8902C72.2933 73.8612 72.3067 73.834 72.325 73.8101C72.3434 73.7863 72.3662 73.7663 72.3924 73.7514L76.0768 71.6164C76.1292 71.5863 76.1914 71.5783 76.2497 71.5941C76.3081 71.6099 76.3578 71.6482 76.3879 71.7006C76.4179 71.753 76.426 71.8153 76.4102 71.8736C76.3944 71.9319 76.3561 71.9816 76.3037 72.0117L72.6193 74.1467C72.5848 74.1654 72.5463 74.1754 72.507 74.176Z" fill="#E0E0E0"/>
<path d="M74.8372 75.3082C74.7868 75.3089 74.7376 75.2928 74.6973 75.2624C74.6571 75.232 74.6281 75.1891 74.6149 75.1404C74.6018 75.0917 74.6052 75.0401 74.6247 74.9936C74.6442 74.9471 74.6786 74.9084 74.7226 74.8836L78.4094 72.7486C78.4352 72.7327 78.464 72.7222 78.494 72.7176C78.5239 72.713 78.5545 72.7145 78.5839 72.7219C78.6133 72.7294 78.6409 72.7426 78.6651 72.7609C78.6893 72.7792 78.7096 72.8021 78.7247 72.8284C78.7399 72.8547 78.7497 72.8837 78.7534 72.9138C78.7572 72.9439 78.7549 72.9744 78.7466 73.0036C78.7384 73.0328 78.7244 73.06 78.7054 73.0837C78.6865 73.1074 78.663 73.127 78.6363 73.1414L74.9519 75.2789C74.9167 75.2979 74.8773 75.308 74.8372 75.3082Z" fill="#E0E0E0"/>
<path d="M76.9552 76.6648C76.9151 76.6646 76.8757 76.6539 76.841 76.6338C76.8064 76.6137 76.7776 76.5848 76.7575 76.5501C76.7423 76.5244 76.7324 76.4959 76.7283 76.4663C76.7243 76.4367 76.7261 76.4066 76.7339 76.3777C76.7416 76.3489 76.755 76.3218 76.7733 76.2982C76.7916 76.2746 76.8145 76.2549 76.8405 76.2402L80.5249 74.1052C80.5507 74.0902 80.5792 74.0803 80.6088 74.0763C80.6384 74.0723 80.6685 74.0741 80.6974 74.0817C80.7262 74.0893 80.7534 74.1025 80.7771 74.1205C80.8009 74.1386 80.8209 74.1612 80.836 74.187C80.851 74.2128 80.8609 74.2413 80.8649 74.2709C80.869 74.3005 80.8671 74.3306 80.8595 74.3595C80.852 74.3883 80.8387 74.4154 80.8207 74.4392C80.8026 74.463 80.78 74.483 80.7542 74.4981L77.0674 76.6331C77.0338 76.6543 76.9949 76.6653 76.9552 76.6648Z" fill="#E0E0E0"/>
<path d="M79.0145 78.324C78.9744 78.3238 78.9351 78.3131 78.9004 78.293C78.8657 78.2729 78.8369 78.244 78.8169 78.2093C78.8017 78.1836 78.7917 78.1551 78.7877 78.1255C78.7836 78.0959 78.7855 78.0658 78.7932 78.0369C78.8009 78.0081 78.8144 77.9811 78.8327 77.9574C78.851 77.9338 78.8738 77.9141 78.8998 77.8994L82.5842 75.7644C82.6363 75.734 82.6984 75.7256 82.7567 75.7409C82.8151 75.7562 82.8649 75.7941 82.8953 75.8462C82.9257 75.8983 82.9342 75.9603 82.9189 76.0187C82.9036 76.077 82.8657 76.1269 82.8136 76.1573L79.1268 78.2923C79.0932 78.3135 79.0542 78.3245 79.0145 78.324Z" fill="#E0E0E0"/>
<path d="M80.8006 80.276C80.7605 80.2758 80.7212 80.2651 80.6865 80.245C80.6518 80.2249 80.623 80.196 80.603 80.1613C80.5877 80.1356 80.5778 80.1071 80.5737 80.0775C80.5697 80.0479 80.5716 80.0178 80.5793 79.9889C80.587 79.9601 80.6004 79.933 80.6187 79.9094C80.637 79.8858 80.6599 79.8661 80.6859 79.8514L84.3703 77.7164C84.3961 77.7014 84.4246 77.6915 84.4542 77.6875C84.4838 77.6835 84.5139 77.6853 84.5428 77.6929C84.5717 77.7005 84.5988 77.7137 84.6226 77.7317C84.6464 77.7498 84.6663 77.7724 84.6814 77.7982C84.6965 77.824 84.7063 77.8525 84.7103 77.8821C84.7144 77.9117 84.7126 77.9418 84.705 77.9707C84.6974 77.9995 84.6842 78.0267 84.6661 78.0504C84.648 78.0742 84.6255 78.0942 84.5997 78.1093L80.9128 80.2443C80.8793 80.2655 80.8403 80.2765 80.8006 80.276Z" fill="#E0E0E0"/>
<path d="M82.228 82.4866C82.1778 82.4868 82.1289 82.4703 82.0891 82.4397C82.0493 82.4092 82.0207 82.3663 82.0079 82.3177C81.995 82.2692 81.9987 82.2177 82.0182 82.1715C82.0377 82.1252 82.072 82.0867 82.1158 82.0621L85.8002 79.9246C85.8526 79.8945 85.9148 79.8865 85.9731 79.9023C86.0315 79.9181 86.0812 79.9564 86.1113 80.0088C86.1414 80.0612 86.1494 80.1235 86.1336 80.1818C86.1178 80.2401 86.0795 80.2898 86.0271 80.3199L82.3427 82.4549C82.3081 82.4758 82.2684 82.4868 82.228 82.4866Z" fill="#E0E0E0"/>
<path d="M83.7603 84.6533C83.7205 84.6518 83.6817 84.6406 83.6472 84.6206C83.6128 84.6006 83.5838 84.5725 83.5627 84.5387C83.5333 84.4864 83.5255 84.4247 83.541 84.3668C83.5565 84.3089 83.5941 84.2593 83.6456 84.2288L87.3325 82.0913C87.3849 82.0613 87.4471 82.0532 87.5055 82.069C87.5638 82.0848 87.6135 82.1231 87.6436 82.1755C87.6737 82.2279 87.6817 82.2902 87.6659 82.3485C87.6501 82.4069 87.6118 82.4565 87.5594 82.4866L83.875 84.6216C83.8404 84.6426 83.8007 84.6535 83.7603 84.6533Z" fill="#E0E0E0"/>
<path d="M87.6668 85.6147C88.0366 85.4682 88.4304 85.3913 88.8282 85.3878C88.9879 85.3863 89.1473 85.401 89.304 85.4317C89.4243 85.4541 89.5415 85.4909 89.6529 85.5415C89.6993 85.5659 89.7188 85.5928 89.7164 85.6245C89.7133 85.6424 89.7059 85.6593 89.6949 85.6738C89.6838 85.6882 89.6694 85.6998 89.6529 85.7074L89.2845 85.9197C89.2337 85.9518 89.176 85.971 89.1161 85.9758C89.0593 85.9818 89.0021 85.9818 88.9453 85.9758C88.79 85.9527 88.6321 85.9527 88.4768 85.9758C88.2734 86.0116 88.0787 86.0862 87.9034 86.1954C87.8201 86.2418 87.7424 86.2974 87.6716 86.3613C87.6171 86.4102 87.5723 86.469 87.5399 86.5346C87.5195 86.5863 87.5195 86.6439 87.5399 86.6956C87.5648 86.7541 87.6098 86.8017 87.6668 86.8298C87.7414 86.8738 87.8246 86.9012 87.9108 86.9103C88.0184 86.9142 88.126 86.9027 88.2304 86.8762C88.3771 86.8419 88.5214 86.7979 88.6623 86.7444C88.8282 86.6859 89.0307 86.6127 89.265 86.5248C89.4913 86.439 89.7227 86.3673 89.9579 86.3101C90.1473 86.2633 90.3412 86.2371 90.5362 86.232C90.7007 86.2271 90.8651 86.246 91.0242 86.2882C91.1798 86.3298 91.3292 86.3922 91.4683 86.4736C91.5889 86.5379 91.6932 86.6288 91.7733 86.7395C91.8387 86.832 91.8713 86.9436 91.866 87.0568C91.8559 87.1828 91.8111 87.3035 91.7367 87.4057C91.6384 87.5432 91.518 87.6636 91.3804 87.7619L91.7367 87.9693C91.7542 87.9746 91.7696 87.9854 91.7805 88.0002C91.7914 88.0149 91.7973 88.0327 91.7973 88.051C91.7973 88.0694 91.7914 88.0872 91.7805 88.1019C91.7696 88.1167 91.7542 88.1275 91.7367 88.1328L91.3121 88.3768C91.2687 88.4003 91.2199 88.4121 91.1706 88.4109C91.1212 88.4124 91.0723 88.4007 91.0291 88.3768L90.6704 88.1694C90.4866 88.2476 90.2964 88.3096 90.1019 88.3548C89.9135 88.4 89.7217 88.4294 89.5285 88.4427C89.3476 88.4531 89.166 88.445 88.9868 88.4183C88.8229 88.3927 88.664 88.3417 88.5159 88.267C88.472 88.245 88.45 88.2182 88.4524 88.1865C88.4555 88.1685 88.4629 88.1516 88.4739 88.1372C88.485 88.1227 88.4994 88.1112 88.5159 88.1035L88.8843 87.8912C88.9388 87.8625 88.9986 87.845 89.06 87.84C89.1175 87.8318 89.1758 87.8318 89.2332 87.84C89.3083 87.8531 89.3841 87.8621 89.4602 87.8668C89.5474 87.8734 89.635 87.8693 89.7212 87.8546C89.8265 87.837 89.9301 87.8109 90.0311 87.7765C90.1588 87.7297 90.2821 87.6717 90.3996 87.6033C90.4976 87.5467 90.5913 87.4831 90.6802 87.413C90.751 87.3604 90.8114 87.295 90.8583 87.2202C90.8925 87.1657 90.9079 87.1014 90.9022 87.0372C90.8926 87.003 90.8756 86.9713 90.8524 86.9443C90.8292 86.9173 90.8004 86.8957 90.768 86.8811C90.6874 86.8365 90.5966 86.8137 90.5045 86.8152C90.3861 86.8175 90.2687 86.8364 90.1556 86.8713C90.0214 86.9079 89.8628 86.9592 89.6846 87.0275C89.5065 87.0958 89.2967 87.169 89.0551 87.2519C88.8554 87.3231 88.6517 87.3826 88.4451 87.4301C88.268 87.47 88.0874 87.4921 87.9059 87.4959C87.5682 87.4998 87.2361 87.4094 86.947 87.2349C86.8274 87.1721 86.7246 87.0817 86.6468 86.9713C86.5872 86.8807 86.555 86.7748 86.5541 86.6663C86.5567 86.5499 86.5923 86.4365 86.6566 86.3394C86.7353 86.217 86.8334 86.1082 86.947 86.0173L86.5907 85.8099C86.5732 85.8046 86.5578 85.7938 86.5469 85.7791C86.5359 85.7643 86.5301 85.7465 86.5301 85.7282C86.5301 85.7098 86.5359 85.692 86.5469 85.6773C86.5578 85.6626 86.5732 85.6517 86.5907 85.6464L87.0153 85.4024C87.0589 85.3797 87.1077 85.3688 87.1568 85.3707C87.206 85.3685 87.2548 85.3794 87.2983 85.4024L87.6668 85.6147Z" fill="#FD55A1"/>
<path d="M76.738 93.1812L79.3317 94.6769L79.7026 94.4622L77.1089 92.9664L76.738 93.1812Z" fill="#455A64"/>
<path d="M79.6172 91.5195L82.2109 93.0152L82.5818 92.8005L79.9881 91.3024L79.6172 91.5195Z" fill="#455A64"/>
<path d="M82.0328 90.1238L84.6265 91.622L84.8681 91.4829L82.2744 89.9848L82.0328 90.1238Z" fill="#455A64"/>
<path d="M78.2166 92.3272L80.8104 93.8253L80.9958 93.718L78.4021 92.2198L78.2166 92.3272Z" fill="#455A64"/>
<path d="M80.2467 91.1535L82.8404 92.6517L83.0259 92.5443L80.4322 91.0462L80.2467 91.1535Z" fill="#455A64"/>
<path d="M81.557 90.3996L84.1507 91.8953L84.3362 91.7879L81.7424 90.2898L81.557 90.3996Z" fill="#455A64"/>
<path d="M77.3992 92.7981L79.993 94.2962L80.6542 93.9132L78.0605 92.4174L77.3992 92.7981Z" fill="#455A64"/>
<path d="M78.7217 92.0344L81.3154 93.5325L81.9791 93.1494L79.3854 91.6513L78.7217 92.0344Z" fill="#455A64"/>
<path d="M80.7079 90.8876L83.3016 92.3857L83.7554 92.1246L81.1617 90.6265L80.7079 90.8876Z" fill="#455A64"/>
<path d="M70.5941 96.7265L73.1878 98.2246L73.5611 98.0099L70.9674 96.5117L70.5941 96.7265Z" fill="#455A64"/>
<path d="M73.4733 95.0648L76.067 96.563L76.4403 96.3483L73.8466 94.8501L73.4733 95.0648Z" fill="#455A64"/>
<path d="M75.8889 93.6692L78.4826 95.1673L78.8559 94.9526L76.2622 93.4544L75.8889 93.6692Z" fill="#455A64"/>
<path d="M72.0727 95.8749L74.6664 97.3706L74.8519 97.2633L72.2582 95.7675L72.0727 95.8749Z" fill="#455A64"/>
<path d="M74.0882 94.7086L76.6819 96.2068L76.8698 96.0994L74.276 94.6012L74.0882 94.7086Z" fill="#455A64"/>
<path d="M75.4131 93.9449L78.0068 95.443L78.1947 95.3357L75.601 93.8375L75.4131 93.9449Z" fill="#455A64"/>
<path d="M71.2553 96.3458L73.849 97.844L74.3395 97.561L71.7458 96.0628L71.2553 96.3458Z" fill="#455A64"/>
<path d="M72.5802 95.5821L75.174 97.0778L75.7132 96.7679L73.1195 95.2698L72.5802 95.5821Z" fill="#455A64"/>
<path d="M74.5884 94.4207L77.1821 95.9188L77.692 95.626L75.0983 94.1303L74.5884 94.4207Z" fill="#455A64"/>
<path d="M82.6452 89.77L85.239 91.2658L85.6123 91.051L83.0186 89.5529L82.6452 89.77Z" fill="#455A64"/>
<path d="M83.326 89.3772L85.9197 90.8754L86.1052 90.768L83.5114 89.2698L83.326 89.3772Z" fill="#455A64"/>
<path d="M84.5875 88.6501L87.1812 90.1458L87.3666 90.0384L84.7729 88.5427L84.5875 88.6501Z" fill="#455A64"/>
<path d="M83.8677 89.0649L86.4614 90.5606L86.9933 90.2532L84.3996 88.7574L83.8677 89.0649Z" fill="#455A64"/>
</svg>
