<svg width="118" height="118" viewBox="0 0 118 118" fill="none" xmlns="http://www.w3.org/2000/svg">
<path d="M58.7758 105.405C83.4764 105.405 103.5 94.9379 103.5 82.0265C103.5 69.1151 83.4764 58.6484 58.7758 58.6484C34.0752 58.6484 14.0514 69.1151 14.0514 82.0265C14.0514 94.9379 34.0752 105.405 58.7758 105.405Z" fill="#FAFAFA"/>
<path d="M59.3186 87.4238C58.2708 87.4238 57.2064 87.379 56.1562 87.2917C47.875 86.5978 40.4811 83.2537 36.8561 78.5597L36.7098 78.3732L40.0634 75.7772L40.2073 75.9637C43.542 80.2777 51.2309 83.1758 59.3398 83.1758C60.0974 83.1758 60.8597 83.1499 61.6031 83.0979C66.6464 82.7463 71.0077 81.2288 73.6226 78.9278L71.2626 76.3649L79.6288 75.8929L78.8924 84.6414L76.4994 82.0454C73.1576 85.0308 67.9869 86.9046 61.9052 87.3294C61.0508 87.3931 60.18 87.4238 59.3186 87.4238Z" fill="#E0E0E0"/>
<path d="M49.4514 65.4498V62.0656L53.8481 59.5262V62.9105L49.4514 65.4498Z" fill="#F0F0F0"/>
<path d="M49.4514 62.0656L43.9574 58.8914V62.2757L49.4514 65.4499V62.0656Z" fill="#E6E6E6"/>
<path d="M49.4514 62.0656L53.9779 59.4507L48.3517 56.201L43.8252 58.8159L49.4514 62.0656Z" fill="#FAFAFA"/>
<path d="M49.4514 62.0656V62.9105L53.9779 60.298V59.4507L49.4514 62.0656Z" fill="#F0F0F0"/>
<path d="M49.4514 62.9105L53.8481 60.3735V60.5599L49.4514 63.0969V62.9105Z" fill="#E6E6E6"/>
<path d="M43.8252 58.8159L49.4514 62.0656V62.9105L43.8252 59.6632V58.8159Z" fill="#E6E6E6"/>
<path d="M49.4514 62.9105L43.9574 59.7386V59.9251L49.4514 63.0969V62.9105Z" fill="#E0E0E0"/>
<path d="M50.8981 62.5801L52.4014 61.7116C52.4652 61.6762 52.5171 61.7116 52.5171 61.7801V62.6674C52.515 62.7079 52.5035 62.7474 52.4834 62.7827C52.4633 62.8179 52.4352 62.8479 52.4014 62.8704L50.8981 63.7389C50.8344 63.7766 50.7825 63.7389 50.7825 63.6704V62.776C50.7856 62.7367 50.7977 62.6986 50.8177 62.6647C50.8377 62.6308 50.8652 62.6018 50.8981 62.5801Z" fill="#EBEBEB"/>
<path d="M50.9949 62.6792L52.3047 61.924C52.3472 61.9004 52.3826 61.924 52.3826 61.9689V62.6344C52.3808 62.6616 52.3729 62.6881 52.3594 62.7118C52.346 62.7356 52.3272 62.7559 52.3047 62.7713L50.9949 63.5265C50.9524 63.5524 50.917 63.5265 50.917 63.4816V62.8161C50.9187 62.7889 50.9266 62.7624 50.9401 62.7387C50.9536 62.715 50.9723 62.6946 50.9949 62.6792Z" fill="#FAFAFA"/>
<path d="M49.4514 61.6408V58.2566L53.8481 55.7172V59.1015L49.4514 61.6408Z" fill="#F0F0F0"/>
<path d="M49.4514 58.2566L43.9574 55.0824V58.4666L49.4514 61.6408V58.2566Z" fill="#E6E6E6"/>
<path d="M49.4514 58.2566L53.9779 55.6417L48.3517 52.392L43.8252 55.0068L49.4514 58.2566Z" fill="#F5F5F5"/>
<path d="M49.4514 58.2565V59.1014L53.9779 56.4889V55.6417L49.4514 58.2565Z" fill="#F0F0F0"/>
<path d="M49.4514 59.1015L53.8481 56.5645V56.7485L49.4514 59.2879V59.1015Z" fill="#E6E6E6"/>
<path d="M43.8252 55.0068L49.4514 58.2566V59.1014L43.8252 55.8541V55.0068Z" fill="#E6E6E6"/>
<path d="M49.4514 59.1015L43.9574 55.9296V56.1161L49.4514 59.2879V59.1015Z" fill="#E0E0E0"/>
<path d="M50.8981 58.764L52.4014 57.8955C52.4652 57.8577 52.5171 57.8955 52.5171 57.9639V58.8513C52.515 58.8918 52.5035 58.9313 52.4834 58.9665C52.4633 59.0018 52.4352 59.0318 52.4014 59.0543L50.8981 59.9204C50.8344 59.9581 50.7825 59.9204 50.7825 59.8543V58.9669C50.7842 58.9263 50.7956 58.8867 50.8157 58.8514C50.8358 58.8161 50.8641 58.7861 50.8981 58.764Z" fill="#EBEBEB"/>
<path d="M50.9949 58.8702L52.3047 58.115C52.3472 58.089 52.3826 58.115 52.3826 58.1598V58.8254C52.381 58.8523 52.3732 58.8785 52.3597 58.9019C52.3461 58.9253 52.3273 58.9451 52.3047 58.9599L50.9949 59.708C50.9524 59.7316 50.917 59.708 50.917 59.6632V59C50.9194 58.9739 50.9277 58.9487 50.9411 58.9262C50.9546 58.9038 50.973 58.8846 50.9949 58.8702Z" fill="#FAFAFA"/>
<path d="M53.6121 59.2383L49.4514 61.6408L44.1934 58.6011L44.0659 58.679L49.4514 61.7777L53.7396 59.3139L53.6121 59.2383Z" fill="#E0E0E0"/>
<path opacity="0.5" d="M53.6121 59.2383L49.4514 61.6408L44.1934 58.6011L44.0659 58.679L49.4514 61.7777L53.7396 59.3139L53.6121 59.2383Z" fill="#E0E0E0"/>
<path d="M68.5486 65.4498V62.0656L64.1519 59.5262V62.9105L68.5486 65.4498Z" fill="#F0F0F0"/>
<path d="M68.5486 62.0656L74.0426 58.8914V62.2757L68.5486 65.4499V62.0656Z" fill="#E6E6E6"/>
<path d="M68.5486 62.0656L64.0221 59.4507L69.6483 56.201L74.1748 58.8159L68.5486 62.0656Z" fill="#FAFAFA"/>
<path d="M68.5486 62.0656V62.9105L64.0221 60.298V59.4507L68.5486 62.0656Z" fill="#F0F0F0"/>
<path d="M68.5486 62.9105L64.1519 60.3735V60.5599L68.5486 63.0969V62.9105Z" fill="#E6E6E6"/>
<path d="M74.1748 58.8159L68.5486 62.0656V62.9105L74.1748 59.6632V58.8159Z" fill="#E6E6E6"/>
<path d="M68.5486 62.9105L74.045 59.7386L74.0426 59.9251L68.5486 63.0969V62.9105Z" fill="#E0E0E0"/>
<path d="M67.1019 62.5801L65.608 61.7116C65.5443 61.6762 65.4924 61.7116 65.4924 61.7801V62.6674C65.4944 62.7079 65.506 62.7474 65.5261 62.7827C65.5461 62.8179 65.5742 62.8479 65.608 62.8704L67.1113 63.7389C67.175 63.7766 67.227 63.7389 67.227 63.6704V62.776C67.2228 62.7359 67.2093 62.6973 67.1876 62.6633C67.1659 62.6293 67.1365 62.6008 67.1019 62.5801Z" fill="#EBEBEB"/>
<path d="M67.0051 62.6792L65.6953 61.924C65.6528 61.9004 65.6174 61.924 65.6174 61.9689V62.6344C65.6192 62.6616 65.6271 62.6881 65.6406 62.7118C65.654 62.7356 65.6728 62.7559 65.6953 62.7713L67.0051 63.5265C67.0476 63.5524 67.083 63.5265 67.083 63.4816V62.8161C67.0813 62.7889 67.0734 62.7624 67.0599 62.7387C67.0464 62.715 67.0277 62.6946 67.0051 62.6792Z" fill="#FAFAFA"/>
<path d="M68.5486 61.6408V58.2566L64.1519 55.7172V59.1015L68.5486 61.6408Z" fill="#F0F0F0"/>
<path d="M68.5486 58.2565L74.0426 55.0823V58.4666L68.5486 61.6408V58.2565Z" fill="#E6E6E6"/>
<path d="M68.5486 58.2566L64.0221 55.6417L69.6483 52.392L74.1748 55.0068L68.5486 58.2566Z" fill="#F5F5F5"/>
<path d="M68.5486 58.2565V59.1014L64.0221 56.4889V55.6417L68.5486 58.2565Z" fill="#F0F0F0"/>
<path d="M68.5486 59.1015L64.1519 56.5645V56.7485L68.5486 59.2879V59.1015Z" fill="#E6E6E6"/>
<path d="M74.1748 55.0068L68.5486 58.2566V59.1014L74.1748 55.8541V55.0068Z" fill="#E6E6E6"/>
<path d="M68.5486 59.1015L74.045 55.9296L74.0426 56.1161L68.5486 59.2879V59.1015Z" fill="#E0E0E0"/>
<path d="M67.1019 58.764L65.608 57.9026C65.5443 57.8648 65.4924 57.9026 65.4924 57.971V58.8584C65.4944 58.8989 65.506 58.9384 65.5261 58.9736C65.5461 59.0089 65.5742 59.0389 65.608 59.0613L67.1113 59.9275C67.175 59.9652 67.227 59.9275 67.227 59.8614V58.974C67.2254 58.9313 67.2131 58.8897 67.1912 58.853C67.1694 58.8163 67.1387 58.7857 67.1019 58.764Z" fill="#EBEBEB"/>
<path d="M67.0051 58.8701L65.6953 58.1149C65.6528 58.089 65.6174 58.1149 65.6174 58.1598V58.8253C65.619 58.8523 65.6268 58.8785 65.6403 58.9018C65.6539 58.9252 65.6727 58.9451 65.6953 58.9598L67.0051 59.7174C67.0476 59.741 67.083 59.7174 67.083 59.6725V58.9999C67.0806 58.9738 67.0723 58.9486 67.0588 58.9262C67.0454 58.9037 67.027 58.8845 67.0051 58.8701Z" fill="#FAFAFA"/>
<path d="M64.3879 59.2383L68.5486 61.6408L73.8066 58.6011L73.9341 58.679L68.5486 61.7777L64.2604 59.3139L64.3879 59.2383Z" fill="#E0E0E0"/>
<path opacity="0.5" d="M64.3879 59.2383L68.5486 61.6408L73.8066 58.6011L73.9341 58.679L68.5486 61.7777L64.2604 59.3139L64.3879 59.2383Z" fill="#E0E0E0"/>
<path d="M15.1465 79.1568L20.4022 76.1242V64.8552L15.1465 67.8878V79.1568Z" fill="#263238"/>
<path d="M15.1465 67.8878L7.63932 63.5548V74.8238L15.1465 79.1568V67.8878Z" fill="#37474F"/>
<path d="M7.63932 63.5548L15.1465 67.8878L20.4022 64.8552L12.895 60.5198L7.63932 63.5548Z" fill="#455A64"/>
<path d="M14.5352 73.6037L8.52904 70.1368V74.3093L8.3898 74.3896L14.396 77.8564L14.5352 77.7762V73.6037Z" fill="#263238"/>
<path d="M14.396 73.6839L8.3898 70.2147V74.3896L14.396 77.8564V73.6839Z" fill="#455A64"/>
<path d="M12.036 73.0302L11.0212 72.452C10.889 72.3741 10.7852 72.4095 10.7852 72.5298C10.7941 72.6032 10.8201 72.6735 10.8611 72.735C10.902 72.7964 10.9569 72.8474 11.0212 72.8838L12.0431 73.4738C12.1752 73.5517 12.2791 73.5163 12.2791 73.396C12.2712 73.3199 12.245 73.2468 12.2027 73.1831C12.1603 73.1194 12.1031 73.0669 12.036 73.0302Z" fill="#263238"/>
<path d="M14.5352 68.565L8.52904 65.0982V69.2707L8.3898 69.3509L14.396 72.8178L14.5352 72.7375V68.565Z" fill="#263238"/>
<path d="M14.396 68.6453L8.3898 65.1785V69.3509L14.396 72.8178V68.6453Z" fill="#455A64"/>
<path d="M12.036 67.9939L11.0141 67.4039C10.882 67.3261 10.7781 67.3615 10.7781 67.4818C10.787 67.5552 10.813 67.6254 10.854 67.6869C10.895 67.7484 10.9498 67.7994 11.0141 67.8358L12.036 68.4258C12.1682 68.5037 12.272 68.4683 12.272 68.3479C12.2631 68.2746 12.2371 68.2043 12.1962 68.1428C12.1552 68.0814 12.1003 68.0303 12.036 67.9939Z" fill="#263238"/>
<path d="M102.854 79.1568L97.5978 76.1242V64.8552L102.854 67.8878V79.1568Z" fill="#FD55A1"/>
<g opacity="0.2">
<path d="M102.854 79.1568L97.5978 76.1242V64.8552L102.854 67.8878V79.1568Z" fill="black"/>
</g>
<path d="M102.854 67.8878L110.361 63.5548V74.8238L102.854 79.1568V67.8878Z" fill="#FD55A1"/>
<path d="M110.361 63.5548L102.854 67.8878L97.5978 64.8552L105.105 60.5198L110.361 63.5548Z" fill="#FD55A1"/>
<g opacity="0.4">
<path d="M110.361 63.5548L102.854 67.8878L97.5978 64.8552L105.105 60.5198L110.361 63.5548Z" fill="white"/>
</g>
<path d="M103.467 73.6037L109.471 70.1368V74.3093L109.608 74.3896L103.604 77.8564L103.465 77.7762L103.467 73.6037Z" fill="#FD55A1"/>
<g opacity="0.1">
<path d="M103.467 73.6037L109.471 70.1368V74.3093L109.608 74.3896L103.604 77.8564L103.465 77.7762L103.467 73.6037Z" fill="black"/>
</g>
<path d="M103.604 73.6839L109.61 70.2147L109.608 74.3896L103.604 77.8564V73.6839Z" fill="#FD55A1"/>
<g opacity="0.4">
<path d="M103.604 73.6839L109.61 70.2147L109.608 74.3896L103.604 77.8564V73.6839Z" fill="white"/>
</g>
<path d="M105.964 73.0302L106.979 72.452C107.111 72.3741 107.215 72.4095 107.215 72.5298C107.206 72.6032 107.18 72.6735 107.139 72.735C107.098 72.7964 107.043 72.8474 106.979 72.8838L105.957 73.4738C105.825 73.5517 105.721 73.5163 105.721 73.396C105.729 73.3199 105.755 73.2468 105.797 73.1831C105.84 73.1194 105.897 73.0669 105.964 73.0302Z" fill="#FD55A1"/>
<g opacity="0.1">
<path d="M105.964 73.0302L106.979 72.452C107.111 72.3741 107.215 72.4095 107.215 72.5298C107.206 72.6032 107.18 72.6735 107.139 72.735C107.098 72.7964 107.043 72.8474 106.979 72.8838L105.957 73.4738C105.825 73.5517 105.721 73.5163 105.721 73.396C105.729 73.3199 105.755 73.2468 105.797 73.1831C105.84 73.1194 105.897 73.0669 105.964 73.0302Z" fill="black"/>
</g>
<path d="M103.467 68.565L109.471 65.0982V69.2707L109.608 69.3509L103.604 72.8178L103.465 72.7375L103.467 68.565Z" fill="#FD55A1"/>
<g opacity="0.1">
<path d="M103.467 68.565L109.471 65.0982V69.2707L109.608 69.3509L103.604 72.8178L103.465 72.7375L103.467 68.565Z" fill="black"/>
</g>
<path d="M103.604 68.6453L109.61 65.1785L109.608 69.3509L103.604 72.8178V68.6453Z" fill="#FD55A1"/>
<g opacity="0.4">
<path d="M103.604 68.6453L109.61 65.1785L109.608 69.3509L103.604 72.8178V68.6453Z" fill="white"/>
</g>
<path d="M105.964 67.9939L106.986 67.4039C107.118 67.3261 107.222 67.3615 107.222 67.4818C107.213 67.5552 107.187 67.6254 107.146 67.6869C107.105 67.7484 107.05 67.7994 106.986 67.8358L105.964 68.4258C105.832 68.5037 105.728 68.4683 105.728 68.3479C105.737 68.2746 105.763 68.2043 105.804 68.1428C105.845 68.0814 105.9 68.0303 105.964 67.9939Z" fill="#FD55A1"/>
<g opacity="0.1">
<path d="M105.964 67.9939L106.986 67.4039C107.118 67.3261 107.222 67.3615 107.222 67.4818C107.213 67.5552 107.187 67.6254 107.146 67.6869C107.105 67.7484 107.05 67.7994 106.986 67.8358L105.964 68.4258C105.832 68.5037 105.728 68.4683 105.728 68.3479C105.737 68.2746 105.763 68.2043 105.804 68.1428C105.845 68.0814 105.9 68.0303 105.964 67.9939Z" fill="black"/>
</g>
<path d="M71.8809 64.6074L96.4485 78.7933L97.9424 79.6547L98.0108 79.6902C98.051 79.7101 98.0929 79.7267 98.1359 79.7397C98.1861 79.7596 98.2383 79.7739 98.2916 79.7822C98.3258 79.791 98.3605 79.7973 98.3955 79.8011C98.4023 79.8036 98.4099 79.8036 98.4167 79.8011C98.4607 79.8035 98.5049 79.8035 98.5489 79.8011C98.6845 79.8064 98.8193 79.7771 98.9406 79.7161C99.231 79.4992 99.4303 79.1821 99.5 78.8264L103.639 57.3173C103.649 57.2707 103.654 57.2233 103.654 57.1757C103.657 57.1373 103.657 57.0986 103.654 57.0601C103.645 57.0009 103.632 56.9424 103.613 56.8855C103.592 56.8276 103.568 56.7709 103.54 56.7155L103.479 56.6141C103.453 56.5778 103.424 56.5432 103.394 56.5102C103.367 56.4817 103.339 56.4549 103.309 56.43C103.277 56.405 103.244 56.3822 103.21 56.3615L77.1413 41.3213C77.1193 41.3081 77.0964 41.2962 77.0729 41.2859L76.9997 41.2528C76.9884 41.2475 76.9765 41.2435 76.9643 41.241C76.933 41.2365 76.9012 41.2365 76.8699 41.241C76.6984 41.2774 76.5372 41.3516 76.3979 41.4581L75.8197 41.798C75.7751 41.8158 75.7354 41.8442 75.7041 41.8806C75.6553 41.9304 75.6189 41.9911 75.5979 42.0576C75.5871 42.0866 75.5792 42.1167 75.5743 42.1473L71.4325 63.6539C71.408 63.8391 71.4373 64.0274 71.5167 64.1965C71.5962 64.3655 71.7226 64.5081 71.8809 64.6074Z" fill="#FD55A1"/>
<path d="M71.8809 64.6074L96.4485 78.7933L97.9424 79.6547L98.0108 79.6902C98.051 79.7101 98.0929 79.7267 98.1359 79.7397C98.1861 79.7596 98.2383 79.7739 98.2916 79.7822C98.3258 79.791 98.3605 79.7973 98.3955 79.8011C98.4023 79.8036 98.4099 79.8036 98.4167 79.8011C98.4607 79.8035 98.5049 79.8035 98.5489 79.8011C98.6845 79.8064 98.8193 79.7771 98.9406 79.7161C99.231 79.4992 99.4303 79.1821 99.5 78.8264L103.639 57.3173C103.649 57.2707 103.654 57.2233 103.654 57.1757C103.657 57.1373 103.657 57.0986 103.654 57.0601C103.645 57.0009 103.632 56.9424 103.613 56.8855C103.592 56.8276 103.568 56.7709 103.54 56.7155L103.479 56.6141C103.453 56.5778 103.424 56.5432 103.394 56.5102C103.367 56.4817 103.339 56.4549 103.309 56.43C103.277 56.405 103.244 56.3822 103.21 56.3615L77.1413 41.3213C77.1193 41.3081 77.0964 41.2962 77.0729 41.2859L76.9997 41.2528C76.9884 41.2475 76.9765 41.2435 76.9643 41.241C76.933 41.2365 76.9012 41.2365 76.8699 41.241C76.6984 41.2774 76.5372 41.3516 76.3979 41.4581L75.8197 41.798C75.7751 41.8158 75.7354 41.8442 75.7041 41.8806C75.6553 41.9304 75.6189 41.9911 75.5979 42.0576C75.5871 42.0866 75.5792 42.1167 75.5743 42.1473L71.4325 63.6539C71.408 63.8391 71.4373 64.0274 71.5167 64.1965C71.5962 64.3655 71.7226 64.5081 71.8809 64.6074Z" fill="#FD55A1"/>
<path d="M98.0108 79.6901C98.1539 79.7633 98.3112 79.8044 98.4718 79.8105C98.6324 79.8166 98.7924 79.7876 98.9406 79.7255C99.231 79.5086 99.4303 79.1915 99.5 78.8358L103.639 57.3267C103.672 57.1181 103.634 56.9046 103.531 56.7202L102.66 57.2253C102.763 57.4097 102.802 57.6229 102.771 57.8318L98.6244 79.3432C98.6185 79.4123 98.5957 79.479 98.5582 79.5374C98.5207 79.5958 98.4695 79.6442 98.4091 79.6784C98.3486 79.7125 98.2808 79.7315 98.2114 79.7335C98.142 79.7356 98.0731 79.7207 98.0108 79.6901Z" fill="#263238"/>
<path d="M76.4074 41.4487L75.8292 41.7885C75.8993 41.7578 75.976 41.7452 76.0523 41.7518C76.1285 41.7584 76.2019 41.784 76.2658 41.8263L102.325 56.876C102.464 56.961 102.578 57.0826 102.653 57.2277L103.531 56.7226L103.469 56.6211C103.443 56.5849 103.415 56.5503 103.385 56.5173C103.33 56.4595 103.268 56.4095 103.2 56.3686L77.1413 41.3213C77.096 41.2947 77.0487 41.2718 76.9997 41.2528C76.9884 41.2475 76.9765 41.2435 76.9643 41.241C76.933 41.2365 76.9012 41.2365 76.8699 41.241C76.7025 41.2759 76.5447 41.3468 76.4074 41.4487Z" fill="#37474F"/>
<path opacity="0.5" d="M76.4074 41.4487L75.8292 41.7885C75.8993 41.7578 75.976 41.7452 76.0523 41.7518C76.1285 41.7584 76.2019 41.784 76.2658 41.8263L102.325 56.876C102.464 56.961 102.578 57.0826 102.653 57.2277L103.531 56.7226L103.469 56.6211C103.443 56.5849 103.415 56.5503 103.385 56.5173C103.33 56.4595 103.268 56.4095 103.2 56.3686L77.1413 41.3213C77.096 41.2947 77.0487 41.2718 76.9997 41.2528C76.9884 41.2475 76.9765 41.2435 76.9643 41.241C76.933 41.2365 76.9012 41.2365 76.8699 41.241C76.7025 41.2759 76.5447 41.3468 76.4074 41.4487Z" fill="#455A64"/>
<path d="M98.6244 79.3408L102.764 57.8341C102.79 57.6488 102.763 57.4597 102.685 57.2895C102.607 57.1192 102.482 56.9748 102.325 56.8736L76.2658 41.8286C76.2039 41.7836 76.1312 41.7558 76.0552 41.7481C75.9791 41.7404 75.9023 41.753 75.8327 41.7847C75.7631 41.8164 75.7031 41.866 75.659 41.9284C75.6148 41.9909 75.588 42.0639 75.5814 42.1401L71.4419 63.6492C71.4154 63.8345 71.4426 64.0236 71.5204 64.1939C71.5983 64.3641 71.7234 64.5085 71.8809 64.6097L97.94 79.6547C98.0022 79.699 98.075 79.7261 98.151 79.7333C98.227 79.7406 98.3036 79.7276 98.373 79.6958C98.4424 79.6639 98.5022 79.6143 98.5463 79.552C98.5905 79.4897 98.6174 79.4169 98.6244 79.3408Z" fill="#FD55A1"/>
<path d="M98.6244 79.3408L102.764 57.8341C102.79 57.6488 102.763 57.4597 102.685 57.2895C102.607 57.1192 102.482 56.9748 102.325 56.8736L76.2658 41.8286C76.2039 41.7836 76.1312 41.7558 76.0552 41.7481C75.9791 41.7404 75.9023 41.753 75.8327 41.7847C75.7631 41.8164 75.7031 41.866 75.659 41.9284C75.6148 41.9909 75.588 42.0639 75.5814 42.1401L71.4419 63.6492C71.4154 63.8345 71.4426 64.0236 71.5204 64.1939C71.5983 64.3641 71.7234 64.5085 71.8809 64.6097L97.94 79.6547C98.0022 79.699 98.075 79.7261 98.151 79.7333C98.227 79.7406 98.3036 79.7276 98.373 79.6958C98.4424 79.6639 98.5022 79.6143 98.5463 79.552C98.5905 79.4897 98.6174 79.4169 98.6244 79.3408Z" fill="#37474F"/>
<path opacity="0.5" d="M98.6244 79.3408L102.764 57.8341C102.79 57.6488 102.763 57.4597 102.685 57.2895C102.607 57.1192 102.482 56.9748 102.325 56.8736L76.2658 41.8286C76.2039 41.7836 76.1312 41.7558 76.0552 41.7481C75.9791 41.7404 75.9023 41.753 75.8327 41.7847C75.7631 41.8164 75.7031 41.866 75.659 41.9284C75.6148 41.9909 75.588 42.0639 75.5814 42.1401L71.4419 63.6492C71.4154 63.8345 71.4426 64.0236 71.5204 64.1939C71.5983 64.3641 71.7234 64.5085 71.8809 64.6097L97.94 79.6547C98.0022 79.699 98.075 79.7261 98.151 79.7333C98.227 79.7406 98.3036 79.7276 98.373 79.6958C98.4424 79.6639 98.5022 79.6143 98.5463 79.552C98.5905 79.4897 98.6174 79.4169 98.6244 79.3408Z" fill="#263238"/>
<path d="M78.8688 63.7389L96.5429 73.9435L97.6167 74.5642L97.6662 74.5902C97.6953 74.604 97.7253 74.6158 97.7559 74.6256C97.7926 74.6394 97.8306 74.6497 97.8692 74.6563C97.8932 74.6625 97.9177 74.6664 97.9424 74.6681C97.945 74.6692 97.9478 74.6697 97.9506 74.6697C97.9535 74.6697 97.9563 74.6692 97.9589 74.6681C97.9903 74.6704 98.0219 74.6704 98.0533 74.6681C98.1515 74.671 98.249 74.6491 98.3365 74.6043C98.5447 74.4481 98.6876 74.2202 98.7377 73.9648L101.716 58.5021C101.719 58.4683 101.719 58.4343 101.716 58.4006C101.718 58.3723 101.718 58.3439 101.716 58.3156C101.711 58.2722 101.702 58.2295 101.688 58.1882C101.673 58.1471 101.655 58.1069 101.636 58.0678C101.622 58.0442 101.607 58.0183 101.591 57.9947C101.573 57.9682 101.553 57.9437 101.53 57.9215C101.512 57.8989 101.491 57.879 101.468 57.8625C101.447 57.8445 101.424 57.8279 101.4 57.8129L82.6543 46.9876L82.6 46.964L82.5457 46.9404C82.5379 46.9391 82.5299 46.9391 82.5221 46.9404C82.4994 46.9371 82.4764 46.9371 82.4537 46.9404C82.3325 46.9679 82.2188 47.0219 82.1209 47.0985L81.7056 47.3345C81.6732 47.3477 81.6442 47.3678 81.6206 47.3935C81.586 47.4297 81.5602 47.4733 81.5451 47.521C81.5379 47.5418 81.5324 47.5631 81.5286 47.5847L78.5502 63.0592C78.5343 63.191 78.5557 63.3246 78.612 63.4448C78.6684 63.5649 78.7574 63.6669 78.8688 63.7389Z" fill="#FD55A1"/>
<path d="M78.8688 63.7389L96.5429 73.9435L97.6167 74.5642L97.6662 74.5902C97.6953 74.604 97.7253 74.6158 97.7559 74.6256C97.7926 74.6394 97.8306 74.6497 97.8692 74.6563C97.8932 74.6625 97.9177 74.6664 97.9424 74.6681C97.945 74.6692 97.9478 74.6697 97.9506 74.6697C97.9535 74.6697 97.9563 74.6692 97.9589 74.6681C97.9903 74.6704 98.0219 74.6704 98.0533 74.6681C98.1515 74.671 98.249 74.6491 98.3365 74.6043C98.5447 74.4481 98.6876 74.2202 98.7377 73.9648L101.716 58.5021C101.719 58.4683 101.719 58.4343 101.716 58.4006C101.718 58.3723 101.718 58.3439 101.716 58.3156C101.711 58.2722 101.702 58.2295 101.688 58.1882C101.673 58.1471 101.655 58.1069 101.636 58.0678C101.622 58.0442 101.607 58.0183 101.591 57.9947C101.573 57.9682 101.553 57.9437 101.53 57.9215C101.512 57.8989 101.491 57.879 101.468 57.8625C101.447 57.8445 101.424 57.8279 101.4 57.8129L82.6543 46.9876L82.6 46.964L82.5457 46.9404C82.5379 46.9391 82.5299 46.9391 82.5221 46.9404C82.4994 46.9371 82.4764 46.9371 82.4537 46.9404C82.3325 46.9679 82.2188 47.0219 82.1209 47.0985L81.7056 47.3345C81.6732 47.3477 81.6442 47.3678 81.6206 47.3935C81.586 47.4297 81.5602 47.4733 81.5451 47.521C81.5379 47.5418 81.5324 47.5631 81.5286 47.5847L78.5502 63.0592C78.5343 63.191 78.5557 63.3246 78.612 63.4448C78.6684 63.5649 78.7574 63.6669 78.8688 63.7389Z" fill="#FD55A1"/>
<path d="M97.6662 74.5902C97.7696 74.6425 97.883 74.6717 97.9988 74.6758C98.1145 74.6799 98.2298 74.6587 98.3365 74.6138C98.5447 74.4575 98.6876 74.2297 98.7377 73.9742L101.716 58.502C101.737 58.3519 101.71 58.1989 101.638 58.0654L101.008 58.4289C101.083 58.5614 101.111 58.7151 101.088 58.8655L98.1076 74.34C98.1035 74.3898 98.0873 74.4379 98.0603 74.4801C98.0334 74.5222 97.9966 74.5572 97.9531 74.5818C97.9096 74.6065 97.8607 74.6201 97.8107 74.6216C97.7607 74.623 97.7111 74.6122 97.6662 74.5902Z" fill="#E0E0E0"/>
<path d="M82.128 47.0796L81.7126 47.3156C81.7626 47.2932 81.8175 47.284 81.8721 47.2889C81.9267 47.2939 81.979 47.3129 82.0242 47.344L100.772 58.1764C100.873 58.2361 100.955 58.3238 101.008 58.4289L101.64 58.0654C101.626 58.0418 101.612 58.0159 101.596 57.9923C101.578 57.9658 101.557 57.9413 101.534 57.9191C101.497 57.8766 101.453 57.84 101.404 57.8106L82.6543 46.9876C82.6208 46.9687 82.5861 46.9522 82.5504 46.938C82.5426 46.9367 82.5346 46.9367 82.5268 46.938C82.5041 46.9347 82.4811 46.9347 82.4584 46.938C82.3394 46.9609 82.2267 47.0092 82.128 47.0796Z" fill="#FAFAFA"/>
<path d="M98.1076 74.34L101.086 58.8655C101.104 58.7325 101.084 58.597 101.028 58.475C100.972 58.353 100.882 58.2494 100.77 58.1764L82.0242 47.3511C81.9788 47.3183 81.9254 47.2985 81.8697 47.2935C81.814 47.2885 81.758 47.2986 81.7075 47.3227C81.6571 47.3469 81.6141 47.3842 81.583 47.4307C81.5519 47.4772 81.5339 47.5312 81.5309 47.5871L78.555 63.0616C78.5367 63.1944 78.5565 63.3296 78.612 63.4516C78.6676 63.5736 78.7567 63.6773 78.8688 63.7507L97.6167 74.576C97.662 74.6081 97.7152 74.6275 97.7705 74.6321C97.8259 74.6368 97.8815 74.6265 97.9316 74.6024C97.9816 74.5784 98.0244 74.5413 98.0553 74.4952C98.0863 74.4491 98.1043 74.3955 98.1076 74.34Z" fill="#F5F5F5"/>
<path d="M84.252 59.1888C84.3226 59.1405 84.3807 59.0762 84.4218 59.0011C84.4628 58.9261 84.4855 58.8424 84.488 58.7569V30.6186C84.4835 30.5302 84.4581 30.444 84.4137 30.3673C84.3694 30.2905 84.3075 30.2254 84.2331 30.1773L66.552 19.9727C66.4787 19.9241 66.3932 19.897 66.3053 19.8944C66.2173 19.8918 66.1304 19.9138 66.0544 19.958C65.9783 20.0022 65.9161 20.0667 65.8747 20.1444C65.8334 20.222 65.8146 20.3097 65.8204 20.3975V48.5358C65.8249 48.6243 65.8503 48.7104 65.8947 48.7871C65.939 48.8639 66.0009 48.929 66.0753 48.9771L83.7446 59.1817C83.8223 59.2238 83.9091 59.2464 83.9974 59.2476C84.0858 59.2488 84.1731 59.2287 84.252 59.1888Z" fill="#EBEBEB"/>
<path d="M65.8228 20.3527C65.8464 20.2229 65.9502 20.178 66.0776 20.2512L83.7493 30.444C83.825 30.4908 83.8869 30.5567 83.9287 30.6352L84.4007 30.3591C84.3567 30.2807 84.2944 30.2143 84.219 30.1655L66.552 19.9751C66.4752 19.9361 66.3903 19.9158 66.3042 19.9158C66.2181 19.9158 66.1332 19.9361 66.0564 19.9751C65.9943 20.0193 65.9417 20.0755 65.9016 20.1403C65.8614 20.2052 65.8346 20.2773 65.8228 20.3527Z" fill="#FAFAFA"/>
<path d="M83.78 59.1982C83.8522 59.2315 83.9307 59.2487 84.0101 59.2487C84.0895 59.2487 84.168 59.2315 84.2402 59.1982C84.3108 59.1499 84.3689 59.0856 84.41 59.0106C84.451 58.9355 84.4737 58.8518 84.4762 58.7663V30.6186C84.4732 30.5304 84.448 30.4444 84.403 30.3685L83.931 30.6446C83.9777 30.7199 84.0038 30.8062 84.0066 30.8948V59.033C84.016 59.1817 83.9051 59.2525 83.78 59.1982Z" fill="#E0E0E0"/>
<path d="M83.747 59.1817L66.08 48.9771C66.0056 48.929 65.9437 48.8639 65.8994 48.7871C65.8551 48.7104 65.8296 48.6243 65.8251 48.5358V20.3975C65.8251 20.2346 65.9384 20.1615 66.08 20.2512L83.747 30.444C83.8214 30.4921 83.8833 30.5572 83.9276 30.6339C83.9719 30.7107 83.9973 30.7968 84.0018 30.8853V59.0331C84.0018 59.1959 83.8886 59.262 83.747 59.1817Z" fill="#F5F5F5"/>
<g opacity="0.3">
<path d="M82.7133 43.2706C82.7133 43.4877 82.5174 43.5514 82.279 43.4122L67.5456 34.9162C67.4288 34.8497 67.3289 34.7572 67.2535 34.6459C67.1782 34.5346 67.1296 34.4074 67.1113 34.2743C67.1113 34.0572 67.3072 33.9934 67.5456 34.1327L82.279 42.6287C82.3958 42.6952 82.4958 42.7877 82.5711 42.899C82.6464 43.0103 82.695 43.1375 82.7133 43.2706Z" fill="#455A64"/>
<path d="M82.7133 45.6211C82.7133 45.8359 82.5174 45.8996 82.279 45.7627L67.5456 37.2667C67.4284 37.2007 67.3282 37.1083 67.2529 36.9969C67.1775 36.8855 67.1291 36.7581 67.1113 36.6248C67.1113 36.4077 67.3072 36.3463 67.5456 36.4832L82.279 44.991C82.3947 45.0559 82.494 45.1464 82.5693 45.2557C82.6446 45.3649 82.6938 45.4899 82.7133 45.6211Z" fill="#455A64"/>
<path d="M82.7133 47.9693C82.7133 48.1865 82.5174 48.2502 82.279 48.1109L67.5456 39.6149C67.4288 39.5484 67.3289 39.456 67.2535 39.3446C67.1782 39.2333 67.1296 39.1062 67.1113 38.973C67.1113 38.7559 67.3072 38.6922 67.5456 38.8314L82.279 47.3274C82.3958 47.3939 82.4958 47.4864 82.5711 47.5977C82.6464 47.709 82.695 47.8362 82.7133 47.9693Z" fill="#455A64"/>
<path d="M82.7133 50.3199C82.7133 50.5371 82.5174 50.5984 82.279 50.4615L67.5456 41.9655C67.4284 41.8995 67.3282 41.8071 67.2529 41.6957C67.1775 41.5843 67.1291 41.4569 67.1113 41.3236C67.1113 41.1089 67.3072 41.0451 67.5456 41.182L82.279 49.6898C82.3947 49.7547 82.494 49.8452 82.5693 49.9545C82.6446 50.0637 82.6938 50.1887 82.7133 50.3199Z" fill="#455A64"/>
<path d="M82.7133 36.2213C82.7133 36.4384 82.5174 36.5021 82.279 36.3629L67.5456 27.8669C67.4288 27.8004 67.3289 27.7079 67.2535 27.5966C67.1782 27.4853 67.1296 27.3581 67.1113 27.225C67.1113 27.0078 67.3072 26.9441 67.5456 27.0834L82.279 35.5794C82.3958 35.6459 82.4958 35.7383 82.5711 35.8497C82.6464 35.961 82.695 36.0881 82.7133 36.2213Z" fill="#455A64"/>
<path d="M82.7133 38.5718C82.7133 38.7889 82.5174 38.8503 82.279 38.7134L67.5456 30.2174C67.4284 30.1513 67.3282 30.059 67.2529 29.9476C67.1775 29.8362 67.1291 29.7088 67.1113 29.5755C67.1113 29.3607 67.3072 29.297 67.5456 29.4363L82.279 37.9323C82.3957 37.9984 82.4955 38.0905 82.5708 38.2014C82.6461 38.3123 82.6949 38.439 82.7133 38.5718Z" fill="#455A64"/>
<path d="M82.7133 33.8754C82.7133 34.0925 82.5174 34.1563 82.279 34.017L67.5456 25.521C67.4288 25.4545 67.3289 25.362 67.2535 25.2507C67.1782 25.1394 67.1296 25.0123 67.1113 24.8791C67.1113 24.662 67.3072 24.5983 67.5456 24.7375L82.279 33.2335C82.3958 33.3 82.4958 33.3925 82.5711 33.5038C82.6464 33.6151 82.695 33.7423 82.7133 33.8754Z" fill="#455A64"/>
<path d="M82.7133 40.9224C82.7133 41.1371 82.5174 41.2009 82.279 41.0616L67.5456 32.5656C67.4287 32.4993 67.3286 32.4068 67.2533 32.2955C67.178 32.1841 67.1294 32.0569 67.1113 31.9237C67.1113 31.7066 67.3072 31.6429 67.5456 31.7821L82.279 40.2781C82.3961 40.3448 82.4962 40.4377 82.5715 40.5494C82.6469 40.6612 82.6954 40.7888 82.7133 40.9224Z" fill="#455A64"/>
<path d="M82.7133 52.6705C82.7133 52.8852 82.5174 52.949 82.279 52.8097L67.5456 44.3137C67.4288 44.2472 67.3289 44.1547 67.2535 44.0434C67.1782 43.9321 67.1296 43.805 67.1113 43.6718C67.1113 43.4547 67.3072 43.391 67.5456 43.5302L82.279 52.0262C82.3961 52.0929 82.4962 52.1858 82.5715 52.2975C82.6469 52.4093 82.6954 52.5369 82.7133 52.6705Z" fill="#455A64"/>
<path d="M82.7133 55.0187C82.7133 55.2358 82.5174 55.2995 82.279 55.1603L67.5456 46.6643C67.4284 46.5982 67.3282 46.5058 67.2529 46.3944C67.1775 46.283 67.1291 46.1556 67.1113 46.0223C67.1113 45.8076 67.3072 45.7439 67.5456 45.8831L82.279 54.3791C82.3957 54.4452 82.4955 54.5373 82.5708 54.6482C82.6461 54.7591 82.6949 54.8859 82.7133 55.0187Z" fill="#455A64"/>
</g>
<path d="M70.8283 44.1438C70.8215 44.0739 70.8327 44.0033 70.8608 43.9389C70.8889 43.8745 70.9329 43.8183 70.9888 43.7757C71.0014 43.7658 71.0148 43.7572 71.0289 43.7497L71.8738 43.2588C71.9398 43.2288 72.0127 43.2169 72.0849 43.2243C72.1571 43.2318 72.2259 43.2584 72.2844 43.3013L89.175 53.041L89.6682 51.0563C89.7035 50.9227 89.7877 50.8072 89.9042 50.7329L90.7821 50.2208C90.8639 50.1744 90.9568 50.1513 91.0508 50.1538C91.1448 50.1563 91.2363 50.1843 91.3155 50.235L98.5017 54.3815C98.672 54.4923 98.8138 54.6417 98.9155 54.8176C99.0172 54.9936 99.076 55.191 99.087 55.3939V79.3597C99.0938 79.4295 99.0829 79.4998 99.0552 79.5642C99.0276 79.6285 98.9841 79.6848 98.9288 79.7279L98.025 80.2542C97.9596 80.2799 97.8889 80.2889 97.8192 80.2802C97.7496 80.2715 97.6832 80.2456 97.6261 80.2046L71.4018 65.0605C71.2314 64.9497 71.0896 64.8003 70.9879 64.6244C70.8862 64.4484 70.8275 64.251 70.8165 64.0481L70.8283 44.1438Z" fill="#FD55A1"/>
<path d="M89.916 50.7235C89.9975 50.6803 90.0891 50.6598 90.1812 50.6639C90.2733 50.6681 90.3626 50.6968 90.4399 50.7471L97.6332 54.8936C97.8049 55.0027 97.9469 55.1527 98.0462 55.3302L98.9218 54.8205C98.8241 54.6417 98.6818 54.4913 98.5088 54.3839L91.332 50.2373C91.2523 50.1867 91.1604 50.1587 91.0661 50.1562C90.9718 50.1537 90.8785 50.1768 90.7963 50.2232L89.916 50.7235Z" fill="#455A64"/>
<path d="M71.036 43.7497C71.1002 43.7295 71.1682 43.7241 71.2348 43.7339C71.3015 43.7437 71.365 43.7685 71.4207 43.8063L88.3206 53.572C88.3892 53.6176 88.4678 53.6459 88.5497 53.6545C88.6317 53.6631 88.7144 53.6517 88.791 53.6213C88.8675 53.5909 88.9356 53.5424 88.9893 53.48C89.043 53.4176 89.0808 53.3431 89.0994 53.2628L89.1773 53.0504L72.2892 43.3084C72.2111 43.2598 72.1215 43.2329 72.0296 43.2305C71.9768 43.2301 71.9249 43.2431 71.8785 43.2682L71.036 43.7497Z" fill="#455A64"/>
<path d="M70.8283 44.1461L70.8165 64.048C70.8275 64.2509 70.8862 64.4484 70.9879 64.6243C71.0896 64.8002 71.2314 64.9497 71.4018 65.0605L97.704 80.24C97.7565 80.2703 97.816 80.2862 97.8766 80.2861C97.9372 80.2861 97.9967 80.2701 98.0491 80.2397C98.1016 80.2093 98.145 80.1656 98.1752 80.113C98.2053 80.0604 98.2211 80.0009 98.2208 79.9403V55.906C98.2144 55.7034 98.1559 55.5059 98.0509 55.3325C97.9515 55.1551 97.8096 55.0051 97.6379 54.8959L90.4494 50.74C90.3718 50.6904 90.2825 50.6621 90.1906 50.6579C90.0986 50.6538 90.0071 50.6739 89.9254 50.7164H89.9089C89.7921 50.7903 89.7077 50.9059 89.6729 51.0397L89.1797 53.0221L89.1018 53.2369C89.0832 53.3171 89.0454 53.3916 88.9917 53.454C88.9379 53.5165 88.8699 53.5649 88.7933 53.5953C88.7168 53.6257 88.634 53.6371 88.5521 53.6285C88.4702 53.6199 88.3916 53.5916 88.323 53.546L71.4136 43.8087C71.3586 43.7703 71.2954 43.7453 71.2291 43.7355C71.1628 43.7256 71.0951 43.7313 71.0313 43.752L71.0077 43.7662H70.9935C70.9353 43.8097 70.8895 43.8676 70.8605 43.9342C70.8315 44.0009 70.8204 44.0739 70.8283 44.1461Z" fill="#37474F"/>
<path d="M83.0862 63.274C83.1529 63.2431 83.2291 63.2396 83.2984 63.2644C83.3677 63.2891 83.4245 63.34 83.4567 63.4061L84.2402 65.0581V62.1199C84.2366 62.0814 84.2412 62.0425 84.2535 62.0058C84.2658 61.9691 84.2856 61.9353 84.3117 61.9067C84.3378 61.8781 84.3696 61.8552 84.405 61.8396C84.4405 61.8239 84.4788 61.8159 84.5175 61.8159C84.5562 61.8159 84.5945 61.8239 84.63 61.8396C84.6654 61.8552 84.6972 61.8781 84.7233 61.9067C84.7494 61.9353 84.7692 61.9691 84.7815 62.0058C84.7938 62.0425 84.7984 62.0814 84.7948 62.1199V65.6599L85.6397 64.8481C85.6652 64.822 85.6956 64.8012 85.7293 64.7871C85.7629 64.7729 85.7991 64.7656 85.8356 64.7656C85.8721 64.7656 85.9082 64.7729 85.9418 64.7871C85.9755 64.8012 86.0059 64.822 86.0314 64.8481C86.083 64.9002 86.112 64.9706 86.112 65.044C86.112 65.1173 86.083 65.1877 86.0314 65.2399L84.7193 66.5025C84.6883 66.5322 84.6509 66.5542 84.6099 66.5669C84.569 66.5796 84.5256 66.5826 84.4833 66.5756C84.4401 66.5676 84.3995 66.5493 84.365 66.5222C84.3304 66.495 84.303 66.4599 84.285 66.4199L82.9705 63.6421C82.9385 63.5777 82.9327 63.5034 82.9542 63.4348C82.9758 63.3662 83.0231 63.3085 83.0862 63.274Z" fill="#FD55A1"/>
<path d="M86.4043 63.9041C86.3679 63.9044 86.3317 63.8975 86.2979 63.8838C86.2642 63.87 86.2334 63.8497 86.2075 63.8241C86.1817 63.7984 86.1611 63.7678 86.1471 63.7342C86.1331 63.7005 86.1258 63.6644 86.1258 63.628V61.9571L82.9092 60.0998V61.4521C82.9092 61.5253 82.8801 61.5955 82.8283 61.6473C82.7765 61.6991 82.7063 61.7282 82.633 61.7282C82.5598 61.7282 82.4896 61.6991 82.4378 61.6473C82.386 61.5955 82.3569 61.5253 82.3569 61.4521V59.6207C82.3571 59.5728 82.3698 59.5258 82.3939 59.4844C82.4179 59.443 82.4523 59.4086 82.4938 59.3847C82.5359 59.3597 82.5841 59.3466 82.633 59.3469C82.682 59.3468 82.7301 59.3599 82.7723 59.3847L86.5483 61.5606C86.59 61.5844 86.6248 61.6187 86.6492 61.6601C86.6737 61.7015 86.6869 61.7486 86.6875 61.7966V63.6256C86.6878 63.6627 86.6807 63.6994 86.6665 63.7337C86.6524 63.7679 86.6314 63.799 86.605 63.8249C86.5786 63.8509 86.5472 63.8713 86.5127 63.8849C86.4782 63.8985 86.4414 63.905 86.4043 63.9041Z" fill="#FD55A1"/>
<path d="M98.0061 80.2612C98.0146 80.2633 98.0235 80.2633 98.032 80.2612L98.9359 79.7373C98.9909 79.693 99.0341 79.6357 99.0617 79.5707C99.0893 79.5056 99.1004 79.4348 99.094 79.3644V55.3963C99.0873 55.1927 99.0279 54.9943 98.9218 54.8204L98.0462 55.3302C98.1524 55.5041 98.2117 55.7024 98.2185 55.906V79.945C98.2187 80.0129 98.1986 80.0793 98.1607 80.1357C98.1229 80.192 98.069 80.2358 98.0061 80.2612Z" fill="#263238"/>
<path d="M46.1191 64.6074L21.5515 78.7933L20.06 79.6547L19.9916 79.6901C19.9513 79.7101 19.9095 79.7267 19.8665 79.7397C19.8163 79.7596 19.7641 79.7738 19.7107 79.7822C19.6766 79.7909 19.6419 79.7973 19.6069 79.801C19.6 79.8036 19.5925 79.8036 19.5856 79.801C19.5416 79.8035 19.4975 79.8035 19.4535 79.801C19.3178 79.8063 19.183 79.7771 19.0617 79.7161C18.7714 79.4992 18.572 79.1821 18.5024 78.8264L14.3606 57.3268C14.3511 57.2802 14.3464 57.2327 14.3464 57.1852C14.3429 57.1467 14.3429 57.108 14.3464 57.0695C14.3548 57.0103 14.3682 56.9518 14.3866 56.8949C14.4081 56.8371 14.4325 56.7803 14.4597 56.725L14.5211 56.6235C14.5474 56.5873 14.5757 56.5526 14.606 56.5196C14.6326 56.4911 14.661 56.4643 14.691 56.4394C14.7225 56.4145 14.7556 56.3916 14.7901 56.371L40.8492 41.326C40.8713 41.3128 40.8942 41.3009 40.9177 41.2906L40.9908 41.2575C41.0021 41.2522 41.014 41.2482 41.0262 41.2457C41.0575 41.2412 41.0893 41.2412 41.1206 41.2457C41.2921 41.2821 41.4534 41.3563 41.5926 41.4628L42.1708 41.8027C42.2155 41.8205 42.2551 41.8489 42.2865 41.8853C42.3353 41.9351 42.3717 41.9958 42.3927 42.0623C42.4035 42.0913 42.4114 42.1214 42.4163 42.152L46.5581 63.6586C46.5826 63.8421 46.5543 64.0288 46.4765 64.1968C46.3988 64.3648 46.2748 64.5072 46.1191 64.6074Z" fill="#FD55A1"/>
<path d="M46.1191 64.6074L21.5515 78.7933L20.06 79.6547L19.9916 79.6901C19.9513 79.7101 19.9095 79.7267 19.8665 79.7397C19.8163 79.7596 19.7641 79.7738 19.7107 79.7822C19.6766 79.7909 19.6419 79.7973 19.6069 79.801C19.6 79.8036 19.5925 79.8036 19.5856 79.801C19.5416 79.8035 19.4975 79.8035 19.4535 79.801C19.3178 79.8063 19.183 79.7771 19.0617 79.7161C18.7714 79.4992 18.572 79.1821 18.5024 78.8264L14.3606 57.3268C14.3511 57.2802 14.3464 57.2327 14.3464 57.1852C14.3429 57.1467 14.3429 57.108 14.3464 57.0695C14.3548 57.0103 14.3682 56.9518 14.3866 56.8949C14.4081 56.8371 14.4325 56.7803 14.4597 56.725L14.5211 56.6235C14.5474 56.5873 14.5757 56.5526 14.606 56.5196C14.6326 56.4911 14.661 56.4643 14.691 56.4394C14.7225 56.4145 14.7556 56.3916 14.7901 56.371L40.8492 41.326C40.8713 41.3128 40.8942 41.3009 40.9177 41.2906L40.9908 41.2575C41.0021 41.2522 41.014 41.2482 41.0262 41.2457C41.0575 41.2412 41.0893 41.2412 41.1206 41.2457C41.2921 41.2821 41.4534 41.3563 41.5926 41.4628L42.1708 41.8027C42.2155 41.8205 42.2551 41.8489 42.2865 41.8853C42.3353 41.9351 42.3717 41.9958 42.3927 42.0623C42.4035 42.0913 42.4114 42.1214 42.4163 42.152L46.5581 63.6586C46.5826 63.8421 46.5543 64.0288 46.4765 64.1968C46.3988 64.3648 46.2748 64.5072 46.1191 64.6074Z" fill="#FD55A1"/>
<path opacity="0.2" d="M19.9892 79.6901C19.8461 79.7633 19.6888 79.8044 19.5282 79.8105C19.3676 79.8166 19.2076 79.7876 19.0594 79.7255C18.769 79.5086 18.5697 79.1915 18.5 78.8358L14.3606 57.3267C14.3279 57.1181 14.3662 56.9046 14.4692 56.7202L15.34 57.2253C15.2372 57.4097 15.1982 57.6229 15.2291 57.8318L19.3756 79.3432C19.3816 79.4123 19.4043 79.479 19.4418 79.5374C19.4793 79.5958 19.5305 79.6442 19.591 79.6784C19.6514 79.7125 19.7192 79.7315 19.7886 79.7335C19.858 79.7356 19.9269 79.7207 19.9892 79.6901Z" fill="black"/>
<path opacity="0.1" d="M41.5926 41.4487L42.1708 41.7885C42.1007 41.7578 42.024 41.7452 41.9477 41.7518C41.8715 41.7584 41.798 41.784 41.7342 41.8263L15.6751 56.876C15.5334 56.9593 15.4174 57.0802 15.34 57.2253L14.4621 56.7203L14.5234 56.6188C14.5497 56.5826 14.5781 56.5479 14.6084 56.5149C14.6626 56.4572 14.7246 56.4071 14.7925 56.3663L40.8516 41.3213C40.8969 41.2947 40.9442 41.2718 40.9932 41.2528C41.0045 41.2475 41.0164 41.2435 41.0286 41.241C41.0599 41.2365 41.0917 41.2365 41.123 41.241C41.2929 41.2749 41.4532 41.3458 41.5926 41.4487Z" fill="white"/>
<path d="M19.3756 79.3408L15.2362 57.8342C15.2101 57.6492 15.2376 57.4606 15.3154 57.2908C15.3932 57.121 15.518 56.977 15.6751 56.876L41.7342 41.831C41.7961 41.786 41.8688 41.7582 41.9448 41.7505C42.0209 41.7428 42.0977 41.7554 42.1673 41.7871C42.2369 41.8188 42.2969 41.8684 42.341 41.9308C42.3852 41.9933 42.412 42.0663 42.4186 42.1425L46.5581 63.6516C46.5846 63.8369 46.5574 64.0259 46.4796 64.1962C46.4017 64.3665 46.2766 64.5109 46.1191 64.6121L20.06 79.6547C19.9978 79.699 19.925 79.7262 19.849 79.7334C19.773 79.7406 19.6964 79.7276 19.627 79.6958C19.5576 79.6639 19.4978 79.6144 19.4537 79.5521C19.4095 79.4897 19.3826 79.4169 19.3756 79.3408Z" fill="#FD55A1"/>
<path opacity="0.15" d="M19.3756 79.3408L15.2362 57.8342C15.2101 57.6492 15.2376 57.4606 15.3154 57.2908C15.3932 57.121 15.518 56.977 15.6751 56.876L41.7342 41.831C41.7961 41.786 41.8688 41.7582 41.9448 41.7505C42.0209 41.7428 42.0977 41.7554 42.1673 41.7871C42.2369 41.8188 42.2969 41.8684 42.341 41.9308C42.3852 41.9933 42.412 42.0663 42.4186 42.1425L46.5581 63.6516C46.5846 63.8369 46.5574 64.0259 46.4796 64.1962C46.4017 64.3665 46.2766 64.5109 46.1191 64.6121L20.06 79.6547C19.9978 79.699 19.925 79.7262 19.849 79.7334C19.773 79.7406 19.6964 79.7276 19.627 79.6958C19.5576 79.6639 19.4978 79.6144 19.4537 79.5521C19.4095 79.4897 19.3826 79.4169 19.3756 79.3408Z" fill="black"/>
<path d="M39.1312 63.7389L21.4571 73.9435L20.3833 74.576L20.3338 74.602C20.3047 74.6158 20.2747 74.6276 20.2441 74.6374C20.2074 74.6512 20.1694 74.6615 20.1308 74.6681C20.1068 74.6743 20.0823 74.6782 20.0576 74.6799C20.055 74.681 20.0522 74.6815 20.0494 74.6815C20.0465 74.6815 20.0437 74.681 20.0411 74.6799C20.0097 74.6822 19.9781 74.6822 19.9467 74.6799C19.8485 74.6828 19.751 74.6609 19.6635 74.6161C19.4553 74.4599 19.3124 74.232 19.2623 73.9766L16.284 58.5021C16.2805 58.4683 16.2805 58.4343 16.284 58.4006C16.2817 58.3723 16.2817 58.3439 16.284 58.3156C16.2887 58.2722 16.2982 58.2295 16.3123 58.1882C16.3272 58.1471 16.3445 58.1069 16.3642 58.0678C16.3784 58.0442 16.3926 58.0183 16.4091 57.9947C16.4269 57.9682 16.4475 57.9437 16.4704 57.9215C16.4879 57.8989 16.5086 57.879 16.5318 57.8625C16.5535 57.8445 16.5763 57.8279 16.6002 57.8129L35.3481 46.99L35.4 46.964L35.4543 46.9404C35.4621 46.9391 35.4701 46.9391 35.4779 46.9404C35.5006 46.9371 35.5236 46.9371 35.5463 46.9404C35.6675 46.9679 35.7812 47.0219 35.8791 47.0985L36.2944 47.3345C36.3268 47.3477 36.3558 47.3678 36.3794 47.3935C36.414 47.4297 36.4398 47.4733 36.4549 47.521C36.4621 47.5418 36.4676 47.5631 36.4714 47.5847L39.4498 63.0592C39.4657 63.191 39.4443 63.3246 39.388 63.4448C39.3316 63.5649 39.2426 63.6669 39.1312 63.7389Z" fill="#FD55A1"/>
<path d="M39.1312 63.7389L21.4571 73.9435L20.3833 74.576L20.3338 74.602C20.3047 74.6158 20.2747 74.6276 20.2441 74.6374C20.2074 74.6512 20.1694 74.6615 20.1308 74.6681C20.1068 74.6743 20.0823 74.6782 20.0576 74.6799C20.055 74.681 20.0522 74.6815 20.0494 74.6815C20.0465 74.6815 20.0437 74.681 20.0411 74.6799C20.0097 74.6822 19.9781 74.6822 19.9467 74.6799C19.8485 74.6828 19.751 74.6609 19.6635 74.6161C19.4553 74.4599 19.3124 74.232 19.2623 73.9766L16.284 58.5021C16.2805 58.4683 16.2805 58.4343 16.284 58.4006C16.2817 58.3723 16.2817 58.3439 16.284 58.3156C16.2887 58.2722 16.2982 58.2295 16.3123 58.1882C16.3272 58.1471 16.3445 58.1069 16.3642 58.0678C16.3784 58.0442 16.3926 58.0183 16.4091 57.9947C16.4269 57.9682 16.4475 57.9437 16.4704 57.9215C16.4879 57.8989 16.5086 57.879 16.5318 57.8625C16.5535 57.8445 16.5763 57.8279 16.6002 57.8129L35.3481 46.99L35.4 46.964L35.4543 46.9404C35.4621 46.9391 35.4701 46.9391 35.4779 46.9404C35.5006 46.9371 35.5236 46.9371 35.5463 46.9404C35.6675 46.9679 35.7812 47.0219 35.8791 47.0985L36.2944 47.3345C36.3268 47.3477 36.3558 47.3678 36.3794 47.3935C36.414 47.4297 36.4398 47.4733 36.4549 47.521C36.4621 47.5418 36.4676 47.5631 36.4714 47.5847L39.4498 63.0592C39.4657 63.191 39.4443 63.3246 39.388 63.4448C39.3316 63.5649 39.2426 63.6669 39.1312 63.7389Z" fill="#FD55A1"/>
<path d="M20.3338 74.5902C20.2305 74.6425 20.117 74.6717 20.0012 74.6758C19.8855 74.6799 19.7703 74.6587 19.6635 74.6138C19.4553 74.4575 19.3124 74.2297 19.2623 73.9742L16.284 58.502C16.2625 58.3519 16.2898 58.1989 16.3619 58.0654L16.992 58.4289C16.9175 58.5614 16.8893 58.7151 16.9118 58.8655L19.8924 74.34C19.8965 74.3898 19.9127 74.4379 19.9397 74.4801C19.9666 74.5222 20.0034 74.5572 20.0469 74.5818C20.0904 74.6065 20.1393 74.6201 20.1893 74.6216C20.2393 74.623 20.2889 74.6122 20.3338 74.5902Z" fill="#E0E0E0"/>
<path d="M35.872 47.0796L36.2874 47.3156C36.2374 47.2932 36.1825 47.284 36.1279 47.2889C36.0733 47.2939 36.0209 47.3128 35.9758 47.3439L17.228 58.1763C17.1267 58.2361 17.0447 58.3237 16.992 58.4289L16.3619 58.056C16.376 58.0324 16.3902 58.0064 16.4067 57.9828C16.4246 57.9564 16.4451 57.9318 16.4681 57.9097C16.5057 57.8672 16.5494 57.8306 16.5979 57.8011L35.3457 46.9781C35.3792 46.9593 35.4139 46.9427 35.4496 46.9286C35.4574 46.9272 35.4654 46.9272 35.4732 46.9286C35.4959 46.9253 35.5189 46.9253 35.5416 46.9286C35.6614 46.9543 35.7742 47.0058 35.872 47.0796Z" fill="#FAFAFA"/>
<path d="M19.8924 74.34L16.9141 58.8655C16.8958 58.7327 16.9156 58.5974 16.9712 58.4754C17.0268 58.3535 17.1158 58.2497 17.228 58.1764L35.9735 47.3511C36.0189 47.3183 36.0722 47.2985 36.1279 47.2935C36.1836 47.2885 36.2396 47.2986 36.2901 47.3227C36.3406 47.3469 36.3836 47.3842 36.4147 47.4307C36.4457 47.4772 36.4637 47.5312 36.4667 47.5871L39.4427 63.0616C39.461 63.1944 39.4412 63.3296 39.3856 63.4516C39.33 63.5736 39.241 63.6773 39.1288 63.7507L20.3833 74.576C20.338 74.6081 20.2848 74.6275 20.2295 74.6321C20.1741 74.6368 20.1185 74.6265 20.0684 74.6024C20.0184 74.5784 19.9756 74.5413 19.9447 74.4952C19.9138 74.4491 19.8957 74.3955 19.8924 74.34Z" fill="#F5F5F5"/>
<path d="M33.748 59.1888C33.6774 59.1405 33.6193 59.0762 33.5782 59.0011C33.5372 58.9261 33.5145 58.8424 33.512 58.7569V30.6186C33.5165 30.5302 33.5419 30.444 33.5863 30.3673C33.6306 30.2905 33.6925 30.2254 33.7669 30.1773L51.448 19.9727C51.5213 19.9241 51.6068 19.897 51.6947 19.8944C51.7827 19.8918 51.8696 19.9138 51.9456 19.958C52.0217 20.0022 52.0839 20.0667 52.1253 20.1444C52.1666 20.222 52.1854 20.3097 52.1796 20.3975V48.5358C52.1751 48.6243 52.1497 48.7104 52.1053 48.7871C52.061 48.8639 51.9991 48.929 51.9247 48.9771L34.2554 59.1817C34.1777 59.2238 34.0909 59.2464 34.0026 59.2476C33.9142 59.2488 33.8269 59.2287 33.748 59.1888Z" fill="#EBEBEB"/>
<path d="M52.1772 20.3527C52.1536 20.2229 52.0498 20.178 51.9247 20.2512L34.2507 30.444C34.175 30.4908 34.1131 30.5567 34.0713 30.6352L33.5993 30.3591C33.6433 30.2807 33.7056 30.2143 33.781 30.1655L51.448 19.9751C51.5248 19.9361 51.6097 19.9158 51.6958 19.9158C51.7819 19.9158 51.8668 19.9361 51.9436 19.9751C52.0057 20.0193 52.0583 20.0755 52.0984 20.1403C52.1386 20.2052 52.1653 20.2773 52.1772 20.3527Z" fill="#FAFAFA"/>
<path d="M34.22 59.1982C34.1463 59.2333 34.0656 59.2514 33.984 59.2514C33.9024 59.2514 33.8217 59.2333 33.748 59.1982C33.6774 59.1499 33.6193 59.0856 33.5782 59.0106C33.5372 58.9355 33.5145 58.8518 33.512 58.7663V30.6186C33.515 30.5304 33.5402 30.4444 33.5852 30.3685L34.0572 30.6446C34.0105 30.7199 33.9844 30.8062 33.9816 30.8948V59.033C33.9958 59.1817 34.0949 59.2525 34.22 59.1982Z" fill="#E0E0E0"/>
<path d="M34.253 59.1817L51.92 48.9771C51.9944 48.929 52.0563 48.8639 52.1006 48.7871C52.1449 48.7104 52.1704 48.6243 52.1749 48.5358V20.3975C52.1749 20.2346 52.0616 20.1615 51.92 20.2512L34.253 30.444C34.1786 30.4921 34.1167 30.5572 34.0724 30.6339C34.0281 30.7107 34.0027 30.7968 33.9982 30.8853V59.0331C33.9982 59.1959 34.1114 59.262 34.253 59.1817Z" fill="#F5F5F5"/>
<g opacity="0.3">
<path d="M35.2867 43.2706C35.2867 43.4877 35.4826 43.5514 35.721 43.4122L50.4544 34.9162C50.5712 34.8497 50.6711 34.7572 50.7464 34.6459C50.8218 34.5346 50.8704 34.4074 50.8887 34.2743C50.8887 34.0572 50.6928 33.9934 50.4544 34.1327L35.721 42.6287C35.6042 42.6952 35.5043 42.7877 35.4289 42.899C35.3536 43.0103 35.305 43.1375 35.2867 43.2706Z" fill="#455A64"/>
<path d="M35.2867 45.6211C35.2867 45.8359 35.4826 45.8996 35.721 45.7627L50.4544 37.2667C50.5716 37.2007 50.6718 37.1083 50.7471 36.9969C50.8225 36.8855 50.8709 36.7581 50.8887 36.6248C50.8887 36.4077 50.6928 36.3463 50.4544 36.4832L35.721 44.991C35.6053 45.0559 35.506 45.1464 35.4307 45.2557C35.3554 45.3649 35.3062 45.4899 35.2867 45.6211Z" fill="#455A64"/>
<path d="M35.2867 47.9693C35.2867 48.1865 35.4826 48.2502 35.721 48.1109L50.4544 39.6149C50.5712 39.5484 50.6711 39.456 50.7464 39.3446C50.8218 39.2333 50.8704 39.1062 50.8887 38.973C50.8887 38.7559 50.6928 38.6922 50.4544 38.8314L35.721 47.3274C35.6042 47.3939 35.5043 47.4864 35.4289 47.5977C35.3536 47.709 35.305 47.8362 35.2867 47.9693Z" fill="#455A64"/>
<path d="M35.2867 50.3199C35.2867 50.5371 35.4826 50.5984 35.721 50.4615L50.4544 41.9655C50.5716 41.8995 50.6718 41.8071 50.7471 41.6957C50.8225 41.5843 50.8709 41.4569 50.8887 41.3236C50.8887 41.1089 50.6928 41.0451 50.4544 41.182L35.721 49.678C35.6038 49.7441 35.5036 49.8365 35.4283 49.9479C35.3529 50.0592 35.3045 50.1866 35.2867 50.3199Z" fill="#455A64"/>
<path d="M35.2867 36.2213C35.2867 36.4384 35.4826 36.5021 35.721 36.3629L50.4544 27.8669C50.5712 27.8004 50.6711 27.7079 50.7464 27.5966C50.8218 27.4853 50.8704 27.3581 50.8887 27.225C50.8887 27.0078 50.6928 26.9441 50.4544 27.0834L35.721 35.5794C35.6042 35.6459 35.5043 35.7383 35.4289 35.8497C35.3536 35.961 35.305 36.0881 35.2867 36.2213Z" fill="#455A64"/>
<path d="M35.2867 38.5718C35.2867 38.7889 35.4826 38.8503 35.721 38.7134L50.4544 30.2174C50.5716 30.1513 50.6718 30.059 50.7471 29.9476C50.8225 29.8362 50.8709 29.7088 50.8887 29.5755C50.8887 29.3607 50.6928 29.297 50.4544 29.4363L35.721 37.9323C35.6043 37.9984 35.5045 38.0905 35.4292 38.2014C35.3539 38.3123 35.3052 38.439 35.2867 38.5718Z" fill="#455A64"/>
<path d="M35.2867 33.8754C35.2867 34.0925 35.4826 34.1563 35.721 34.017L50.4544 25.521C50.5712 25.4545 50.6711 25.362 50.7464 25.2507C50.8218 25.1394 50.8704 25.0123 50.8887 24.8791C50.8887 24.662 50.6928 24.5983 50.4544 24.7375L35.721 33.2335C35.6042 33.3 35.5043 33.3925 35.4289 33.5038C35.3536 33.6151 35.305 33.7423 35.2867 33.8754Z" fill="#455A64"/>
<path d="M35.2867 40.9224C35.2867 41.1371 35.4826 41.2009 35.721 41.0616L50.4544 32.5656C50.5713 32.4993 50.6714 32.4068 50.7467 32.2955C50.822 32.1841 50.8706 32.0569 50.8887 31.9237C50.8887 31.7066 50.6928 31.6429 50.4544 31.7821L35.721 40.2781C35.6039 40.3448 35.5038 40.4377 35.4285 40.5494C35.3531 40.6612 35.3046 40.7888 35.2867 40.9224Z" fill="#455A64"/>
<path d="M35.2867 52.6705C35.2867 52.8852 35.4826 52.949 35.721 52.8097L50.4544 44.3137C50.5712 44.2472 50.6711 44.1547 50.7464 44.0434C50.8218 43.9321 50.8704 43.805 50.8887 43.6718C50.8887 43.4547 50.6928 43.391 50.4544 43.5302L35.721 52.0262C35.6039 52.0929 35.5038 52.1858 35.4285 52.2975C35.3531 52.4093 35.3046 52.5369 35.2867 52.6705Z" fill="#455A64"/>
<path d="M35.2867 55.0187C35.2867 55.2358 35.4826 55.2995 35.721 55.1603L50.4544 46.6643C50.5716 46.5982 50.6718 46.5058 50.7471 46.3944C50.8225 46.283 50.8709 46.1556 50.8887 46.0223C50.8887 45.8076 50.6928 45.7439 50.4544 45.8831L35.721 54.3791C35.6043 54.4452 35.5045 54.5373 35.4292 54.6482C35.3539 54.7591 35.3052 54.8859 35.2867 55.0187Z" fill="#455A64"/>
</g>
<path d="M47.1717 44.1438C47.1785 44.0739 47.1673 44.0033 47.1392 43.9389C47.1111 43.8745 47.0671 43.8183 47.0112 43.7757C46.9986 43.7658 46.9852 43.7572 46.9711 43.7497L46.1262 43.2588C46.0602 43.2288 45.9873 43.2169 45.9151 43.2243C45.8429 43.2318 45.7741 43.2584 45.7156 43.3013L28.825 53.041L28.32 51.0539C28.2847 50.9203 28.2005 50.8049 28.084 50.7306L27.2061 50.2185C27.1243 50.1721 27.0314 50.1489 26.9374 50.1514C26.8434 50.1539 26.7519 50.182 26.6727 50.2326L19.4912 54.3839C19.3209 54.4946 19.1791 54.6441 19.0774 54.82C18.9757 54.9959 18.9169 55.1934 18.906 55.3963V79.3597C18.8991 79.4295 18.91 79.4998 18.9377 79.5642C18.9653 79.6285 19.0088 79.6848 19.0641 79.7279L19.968 80.2542C20.0333 80.2799 20.104 80.2889 20.1737 80.2802C20.2434 80.2715 20.3098 80.2456 20.3668 80.2046L46.5982 65.0605C46.7686 64.9497 46.9104 64.8003 47.0121 64.6244C47.1138 64.4484 47.1725 64.251 47.1835 64.0481L47.1717 44.1438Z" fill="#FD55A1"/>
<path opacity="0.4" d="M28.084 50.7235C28.0025 50.6803 27.9109 50.6598 27.8188 50.6639C27.7267 50.6681 27.6374 50.6968 27.5601 50.7471L20.3668 54.8936C20.1951 55.0027 20.0532 55.1527 19.9538 55.3302L19.0782 54.8205C19.1759 54.6417 19.3182 54.4913 19.4912 54.3839L26.668 50.2373C26.7477 50.1867 26.8396 50.1587 26.9339 50.1562C27.0282 50.1537 27.1215 50.1768 27.2037 50.2232L28.084 50.7235Z" fill="white"/>
<path opacity="0.4" d="M46.964 43.7497C46.8998 43.7295 46.8318 43.7241 46.7652 43.7339C46.6985 43.7437 46.635 43.7685 46.5793 43.8063L29.6817 53.572C29.6129 53.6175 29.5342 53.6458 29.4521 53.6544C29.3701 53.6629 29.2872 53.6516 29.2105 53.6212C29.1338 53.5909 29.0655 53.5424 29.0116 53.48C28.9576 53.4176 28.9195 53.3431 28.9006 53.2628L28.8227 53.0504L45.7132 43.3084C45.7903 43.2595 45.8792 43.2326 45.9704 43.2305C46.0232 43.2301 46.0751 43.2431 46.1215 43.2682L46.964 43.7497Z" fill="white"/>
<path d="M47.1717 44.1462L47.1835 64.0481C47.1725 64.251 47.1138 64.4484 47.0121 64.6244C46.9104 64.8003 46.7686 64.9497 46.5982 65.0605L20.296 80.24C20.2435 80.2703 20.184 80.2862 20.1234 80.2862C20.0628 80.2861 20.0033 80.2701 19.9509 80.2397C19.8984 80.2093 19.855 80.1656 19.8248 80.1131C19.7947 80.0605 19.7789 80.0009 19.7792 79.9403V55.9061C19.7856 55.7035 19.8441 55.506 19.9491 55.3326C20.0485 55.1551 20.1904 55.0051 20.3621 54.896L27.5506 50.74C27.6282 50.6904 27.7175 50.6621 27.8094 50.6579C27.9014 50.6538 27.9929 50.674 28.0746 50.7164H28.0911C28.2079 50.7904 28.2923 50.9059 28.3271 51.0397L28.8203 53.0221L28.8982 53.2369C28.9168 53.3171 28.9546 53.3916 29.0083 53.4541C29.0621 53.5165 29.1301 53.565 29.2067 53.5954C29.2832 53.6258 29.366 53.6371 29.4479 53.6286C29.5298 53.62 29.6084 53.5917 29.677 53.5461L46.584 43.7922C46.6391 43.7539 46.7022 43.7288 46.7686 43.719C46.8349 43.7092 46.9026 43.7148 46.9664 43.7355L46.99 43.7497H47.0041C47.0654 43.7944 47.1134 43.8549 47.1429 43.9247C47.1724 43.9945 47.1824 44.0711 47.1717 44.1462Z" fill="#FD55A1"/>
<path d="M32.0512 62.6509C32.0883 62.6676 32.1285 62.6765 32.1692 62.6769C32.2215 62.6767 32.2727 62.6618 32.317 62.6338C32.3612 62.6058 32.3967 62.566 32.4193 62.5188L33.2052 60.855V63.805C33.2116 63.8741 33.2436 63.9384 33.2949 63.9851C33.3462 64.0319 33.4131 64.0578 33.4825 64.0578C33.5519 64.0578 33.6188 64.0319 33.6701 63.9851C33.7214 63.9384 33.7534 63.8741 33.7598 63.805V60.265L34.6023 61.0768C34.6552 61.1278 34.7262 61.1557 34.7997 61.1544C34.8731 61.1531 34.9431 61.1226 34.9941 61.0697C35.0451 61.0168 35.073 60.9459 35.0717 60.8724C35.0703 60.7989 35.0399 60.729 34.987 60.678L33.6748 59.4154C33.6431 59.3849 33.6046 59.3624 33.5625 59.3497C33.5203 59.337 33.4758 59.3345 33.4325 59.3423C33.3892 59.3502 33.3484 59.3681 33.3134 59.3948C33.2784 59.4214 33.2502 59.456 33.2312 59.4956L31.919 62.2757C31.9023 62.3089 31.8925 62.3451 31.8901 62.3822C31.8878 62.4192 31.8929 62.4564 31.9053 62.4914C31.9176 62.5265 31.9369 62.5586 31.962 62.586C31.987 62.6135 32.0174 62.6355 32.0512 62.6509Z" fill="#263238"/>
<path d="M35.367 61.7825C35.3307 61.7825 35.2948 61.7896 35.2613 61.8035C35.2278 61.8173 35.1974 61.8377 35.1717 61.8633C35.1461 61.889 35.1257 61.9194 35.1119 61.9529C35.098 61.9864 35.0908 62.0223 35.0908 62.0586V63.72L31.8742 65.5773V64.2274C31.8678 64.1583 31.8358 64.094 31.7845 64.0472C31.7332 64.0005 31.6663 63.9745 31.5969 63.9745C31.5274 63.9745 31.4605 64.0005 31.4092 64.0472C31.3579 64.094 31.3259 64.1583 31.3196 64.2274V66.0564C31.3202 66.1045 31.3334 66.1515 31.3578 66.1929C31.3823 66.2343 31.4171 66.2686 31.4588 66.2924C31.5006 66.3171 31.5483 66.3301 31.5969 66.3301C31.6454 66.3301 31.6931 66.3171 31.7349 66.2924L35.5109 64.1141C35.5524 64.0902 35.5868 64.0558 35.6109 64.0144C35.6349 63.973 35.6476 63.926 35.6478 63.8781V62.068C35.6491 62.0306 35.6427 61.9932 35.6291 61.9583C35.6155 61.9234 35.595 61.8916 35.5687 61.8649C35.5424 61.8382 35.511 61.8171 35.4763 61.8029C35.4416 61.7888 35.4044 61.7818 35.367 61.7825Z" fill="#263238"/>
<path opacity="0.2" d="M19.9939 80.2612C19.9854 80.2633 19.9765 80.2633 19.968 80.2612L19.0641 79.7373C19.0091 79.693 18.9659 79.6357 18.9383 79.5707C18.9107 79.5056 18.8996 79.4348 18.906 79.3644V55.3963C18.9127 55.1927 18.9721 54.9943 19.0782 54.8204L19.9538 55.3302C19.8476 55.5041 19.7883 55.7024 19.7815 55.906V79.945C19.7813 80.0129 19.8014 80.0793 19.8392 80.1357C19.8771 80.192 19.931 80.2358 19.9939 80.2612Z" fill="black"/>
<path d="M71.7723 74.399V76.1973L78.6989 83.7068V81.9085L71.7723 74.399Z" fill="#FD55A1"/>
<path opacity="0.15" d="M71.7723 74.399V76.1973L78.6989 83.7068V81.9085L71.7723 74.399Z" fill="black"/>
<path d="M79.3692 75.7655V73.9672L78.6989 81.9086V83.7069L79.3692 75.7655Z" fill="#FD55A1"/>
<path opacity="0.2" d="M79.3692 75.7655V73.9672L78.6989 81.9086V83.7069L79.3692 75.7655Z" fill="black"/>
<path d="M56.0382 86.5247C47.9623 85.8474 40.5519 82.6 36.9033 77.88L37.0426 76.228L39.8746 75.5743C43.5892 80.3769 52.6728 83.4166 61.478 82.8006C66.6865 82.4348 71.1847 80.8347 73.8137 78.4086L76.5112 79.532L76.3743 81.184C73.0703 84.2237 67.8783 86.14 61.7423 86.5648C59.8427 86.6976 57.9357 86.6842 56.0382 86.5247Z" fill="#FD55A1"/>
<g opacity="0.15">
<path d="M56.0382 86.5247C47.9623 85.8474 40.5519 82.6 36.9033 77.88L37.0426 76.228L39.8746 75.5743C43.5892 80.3769 52.6728 83.4166 61.478 82.8006C66.6865 82.4348 71.1847 80.8347 73.8137 78.4086L76.5112 79.532L76.3743 81.184C73.0703 84.2237 67.8783 86.14 61.7423 86.5648C59.8427 86.6976 57.9357 86.6842 56.0382 86.5247Z" fill="black"/>
</g>
<path d="M79.3692 73.9671L71.7723 74.399L73.96 76.7708C71.3286 79.1969 66.8328 80.797 61.622 81.1628C52.8192 81.7787 43.7332 78.7391 40.0209 73.9365L37.052 76.2398C40.7006 80.9598 48.111 84.1977 56.1869 84.8751C58.0859 85.0357 59.9945 85.0499 61.8957 84.9175C68.0317 84.488 73.2237 82.5764 76.5277 79.5367L78.7154 81.9085L79.3692 73.9671Z" fill="#FD55A1"/>
</svg>
