<svg width="54" height="54" viewBox="0 0 54 54" fill="none" xmlns="http://www.w3.org/2000/svg">
<rect x="0.5" y="0.5" width="53" height="53" rx="9.5" fill="white" stroke="#DFDFDF"/>
<g clip-path="url(#clip0_34_76)">
<path d="M19.828 36L19.808 36.02L19.787 36H17.992C17.7288 35.9997 17.4765 35.895 17.2905 35.7088C17.1045 35.5226 17 35.2702 17 35.007V18.993C17.0018 18.7304 17.1069 18.479 17.2925 18.2932C17.4781 18.1074 17.7294 18.0021 17.992 18H36.008C36.556 18 37 18.445 37 18.993V35.007C36.9982 35.2696 36.8931 35.521 36.7075 35.7068C36.5219 35.8926 36.2706 35.9979 36.008 36H19.828ZM35 30V20H19V34L29 24L35 30ZM35 32.828L29 26.828L21.828 34H35V32.828ZM23 26C22.4696 26 21.9609 25.7893 21.5858 25.4142C21.2107 25.0391 21 24.5304 21 24C21 23.4696 21.2107 22.9609 21.5858 22.5858C21.9609 22.2107 22.4696 22 23 22C23.5304 22 24.0391 22.2107 24.4142 22.5858C24.7893 22.9609 25 23.4696 25 24C25 24.5304 24.7893 25.0391 24.4142 25.4142C24.0391 25.7893 23.5304 26 23 26Z" fill="#DFDFDF"/>
</g>
<defs>
<clipPath id="clip0_34_76">
<rect width="24" height="24" fill="white" transform="translate(15 15)"/>
</clipPath>
</defs>
</svg>
