<svg width="118" height="118" viewBox="0 0 118 118" fill="none" xmlns="http://www.w3.org/2000/svg">
<path d="M58.8513 112.305C88.5804 112.305 112.681 98.2387 112.681 80.8866C112.681 63.5346 88.5804 49.468 58.8513 49.468C29.1223 49.468 5.02208 63.5346 5.02208 80.8866C5.02208 98.2387 29.1223 112.305 58.8513 112.305Z" fill="#F0F0F0"/>
<path d="M36.79 101.822C47.0608 101.822 55.3868 97.0146 55.3868 91.0842C55.3868 85.1538 47.0608 80.3462 36.79 80.3462C26.5193 80.3462 18.1932 85.1538 18.1932 91.0842C18.1932 97.0146 26.5193 101.822 36.79 101.822Z" fill="#E0E0E0"/>
<path d="M81.8448 101.268C92.1155 101.268 100.442 96.46 100.442 90.5296C100.442 84.5992 92.1155 79.7916 81.8448 79.7916C71.5741 79.7916 63.248 84.5992 63.248 90.5296C63.248 96.46 71.5741 101.268 81.8448 101.268Z" fill="#E0E0E0"/>
<path d="M16.992 77.6841L19.2552 76.3908C19.2552 76.3908 20.3408 70.4082 19.529 65.2634C18.3868 58.0324 13.4638 55.5402 11.6749 56.2577C9.88604 56.9751 9.46832 59.118 12.6968 63.2976C14.6037 65.7614 17.0557 70.9746 16.992 77.6841Z" fill="#FD55A1"/>
<g opacity="0.15">
<path d="M16.992 77.6841L19.2552 76.3908C19.2552 76.3908 20.3408 70.4082 19.529 65.2634C18.3868 58.0324 13.4638 55.5402 11.6749 56.2577C9.88604 56.9751 9.46832 59.118 12.6968 63.2976C14.6037 65.7614 17.0557 70.9746 16.992 77.6841Z" fill="black"/>
</g>
<path d="M17.8156 74.812H17.792C17.75 74.8056 17.7122 74.783 17.6866 74.749C17.661 74.7151 17.6497 74.6724 17.6552 74.6303C18.5992 67.8594 15.8686 60.442 12.8077 57.4518C12.7922 57.4363 12.7799 57.4179 12.7715 57.3977C12.7632 57.3775 12.7588 57.3558 12.7588 57.3338C12.7588 57.3119 12.7632 57.2902 12.7715 57.27C12.7799 57.2497 12.7922 57.2313 12.8077 57.2158C12.8232 57.2003 12.8416 57.188 12.8619 57.1797C12.8821 57.1713 12.9038 57.167 12.9257 57.167C12.9476 57.167 12.9693 57.1713 12.9896 57.1797C13.0098 57.188 13.0282 57.2003 13.0437 57.2158C16.1589 60.2579 18.9437 67.7957 17.9832 74.6657C17.979 74.7068 17.9594 74.7447 17.9283 74.7719C17.8972 74.7991 17.8569 74.8134 17.8156 74.812Z" fill="white"/>
<path d="M10.7144 81.3138C10.3557 81.5191 9.61936 81.0778 9.33616 80.8796C8.85185 80.5504 8.46083 80.1016 8.201 79.5769C7.90916 78.9815 7.81016 78.31 7.9178 77.6558C7.97186 77.31 8.05073 76.9685 8.1538 76.6339C8.25056 76.3035 8.34496 75.9731 8.43936 75.6427C8.55549 75.3226 8.60527 74.9821 8.58568 74.6421C8.49836 73.9648 7.89656 73.4881 7.34904 73.0798C6.74488 72.6267 6.11476 72.0272 6.11712 71.2107C6.11712 70.5805 6.44516 69.9953 6.82512 69.502C7.20508 69.0088 7.67944 68.5698 8.03108 68.0483C8.31389 67.6897 8.46472 67.2447 8.45824 66.788C8.4207 66.5078 8.32677 66.238 8.18212 65.9951C7.8942 65.4617 7.51424 64.9755 7.316 64.4044C7.11776 63.8333 7.14372 63.1229 7.58976 62.7147C7.95556 62.3795 8.50072 62.3323 9.00576 62.3654C9.46992 62.4216 9.91617 62.5786 10.3132 62.8256C11.6088 63.5454 12.3499 65.0817 13.7258 65.6363C14.2544 65.8487 14.8373 65.8959 15.3778 66.0423C15.9182 66.1886 16.494 66.4718 16.7513 66.9863C17.2563 67.9963 16.3194 69.2377 16.6734 70.3091C16.9873 71.2531 17.9077 71.6189 18.4245 72.4733C18.6329 72.8507 18.7156 73.2847 18.6605 73.7123C18.6157 74.437 18.4381 75.1474 18.1366 75.8079C17.8015 76.4652 17.4173 77.0964 16.9873 77.6959C16.9731 77.7054 10.7687 81.2808 10.7144 81.3138Z" fill="#FD55A1"/>
<path d="M14.396 79.355C14.353 79.3532 14.3124 79.3346 14.2829 79.3033C14.2534 79.272 14.2372 79.2305 14.2379 79.1874C14.5046 72.78 11.4861 65.7048 9.28188 63.6492C9.26557 63.6342 9.25256 63.6159 9.24366 63.5956C9.23476 63.5753 9.23016 63.5534 9.23016 63.5312C9.23016 63.509 9.23476 63.4871 9.24366 63.4668C9.25256 63.4465 9.26557 63.4282 9.28188 63.4132C9.29709 63.3972 9.31539 63.3845 9.33568 63.3758C9.35596 63.3671 9.37781 63.3626 9.39988 63.3626C9.42195 63.3626 9.44379 63.3671 9.46408 63.3758C9.48436 63.3845 9.50267 63.3972 9.51788 63.4132C11.7575 65.5112 14.8397 72.7022 14.5683 79.1992C14.5674 79.2208 14.5622 79.242 14.553 79.2616C14.5438 79.2812 14.5308 79.2987 14.5148 79.3132C14.4988 79.3277 14.48 79.3389 14.4596 79.3461C14.4392 79.3532 14.4176 79.3563 14.396 79.355Z" fill="white"/>
<path d="M13.4284 71.7841C13.4128 71.7866 13.3968 71.7866 13.3812 71.7841C11.328 71.1399 8.7556 71.036 8.732 71.036C8.71071 71.0351 8.68981 71.03 8.67052 71.0209C8.65124 71.0118 8.63395 70.999 8.61967 70.9832C8.60539 70.9674 8.59441 70.9489 8.58736 70.9288C8.5803 70.9087 8.57733 70.8874 8.5786 70.8661C8.57886 70.8448 8.58348 70.8238 8.59218 70.8044C8.60088 70.7849 8.61347 70.7675 8.62917 70.7531C8.64487 70.7387 8.66335 70.7277 8.68348 70.7208C8.7036 70.7138 8.72493 70.7111 8.74616 70.7127C8.77212 70.7127 11.3776 70.826 13.478 71.4773C13.5147 71.4886 13.5462 71.5127 13.5666 71.5453C13.5871 71.5778 13.5952 71.6166 13.5895 71.6546C13.5838 71.6926 13.5646 71.7273 13.5355 71.7524C13.5064 71.7775 13.4692 71.7912 13.4308 71.7912L13.4284 71.7841Z" fill="white"/>
<path d="M103.566 79.4211L100.3 77.6936C100.3 77.6936 100.052 72.6975 100.442 68.7374C100.987 63.1749 105.124 56.7155 109.41 58.2873C113.695 59.8591 107.446 65.5254 106.054 70.2431C104.661 74.9607 103.566 79.4211 103.566 79.4211Z" fill="#FD55A1"/>
<path opacity="0.3" d="M103.566 79.4211L100.3 77.6936C100.3 77.6936 100.052 72.6975 100.442 68.7374C100.987 63.1749 105.124 56.7155 109.41 58.2873C113.695 59.8591 107.446 65.5254 106.054 70.2431C104.661 74.9607 103.566 79.4211 103.566 79.4211Z" fill="black"/>
<path d="M101.969 78.8429C102.007 78.8411 102.043 78.8242 102.069 78.7959C102.095 78.7677 102.109 78.7303 102.108 78.6919C101.688 66.3302 107.843 60.1116 107.904 60.0479C107.92 60.0353 107.934 60.0194 107.944 60.0012C107.954 59.9829 107.96 59.9628 107.961 59.9421C107.963 59.9214 107.96 59.9006 107.953 59.8812C107.946 59.8617 107.935 59.8439 107.92 59.8291C107.906 59.8142 107.888 59.8027 107.869 59.7951C107.849 59.7875 107.829 59.7842 107.808 59.7852C107.787 59.7863 107.767 59.7917 107.749 59.8012C107.73 59.8107 107.714 59.824 107.701 59.8402C107.637 59.9039 101.395 66.2122 101.817 78.6966C101.818 78.7161 101.822 78.7354 101.83 78.7533C101.837 78.7712 101.849 78.7874 101.863 78.801C101.877 78.8146 101.893 78.8253 101.911 78.8325C101.93 78.8397 101.949 78.8432 101.969 78.8429Z" fill="white"/>
<path d="M105.242 80.4076L103.545 79.4282C103.282 76.6348 103.642 73.8179 104.598 71.18C106.172 66.9084 110.24 64.572 112.112 65.2162C114.396 65.9927 114.41 68.1804 113.58 69.62C112.6 71.3145 106.476 75.605 105.242 80.4076Z" fill="#FD55A1"/>
<path opacity="0.1" d="M105.242 80.4076L103.545 79.4282C103.282 76.6348 103.642 73.8179 104.598 71.18C106.172 66.9084 110.24 64.572 112.112 65.2162C114.396 65.9927 114.41 68.1804 113.58 69.62C112.6 71.3145 106.476 75.605 105.242 80.4076Z" fill="black"/>
<path d="M104.347 80.0347C104.386 80.0347 104.422 80.0195 104.449 79.9925C104.476 79.9655 104.491 79.9289 104.491 79.8907C104.458 72.0744 111.796 66.7927 111.871 66.7385C111.902 66.7162 111.924 66.6825 111.93 66.6446C111.936 66.6068 111.928 66.568 111.905 66.5367C111.883 66.5054 111.849 66.4842 111.812 66.4778C111.774 66.4714 111.735 66.4802 111.704 66.5025C111.628 66.5544 104.168 71.9305 104.201 79.8884C104.201 79.9272 104.217 79.9644 104.244 79.9918C104.271 80.0193 104.309 80.0347 104.347 80.0347Z" fill="white"/>
<path d="M66.847 32.4406C66.9071 32.3522 66.9426 32.2496 66.9501 32.143C66.9576 32.0365 66.9366 31.9299 66.8895 31.834C66.8269 31.7438 66.7415 31.6718 66.642 31.6254C66.5425 31.5789 66.4324 31.5597 66.3231 31.5697C66.1057 31.5901 65.8933 31.6476 65.6953 31.7396C64.4801 32.217 63.2209 32.5735 61.9358 32.804C61.6552 32.8803 61.3569 32.8578 61.091 32.7403C61.047 32.7135 61.0097 32.677 60.9819 32.6337C60.9541 32.5903 60.9365 32.5413 60.9305 32.4901C60.8974 32.1975 61.0579 31.8671 61.1665 31.5697C61.3238 31.1267 61.3451 30.6468 61.2278 30.1915C61.157 29.9224 60.8668 29.4103 60.5505 29.8375C60.1072 30.4782 59.5952 31.0685 59.0236 31.598C58.0041 32.5727 58.1103 33.302 57.1144 34.246C56.909 34.4418 55.7597 34.8548 54.3602 35.662L55.7762 39.6881C56.728 39.0113 57.7264 38.4024 58.764 37.8662C59.2832 37.6113 60.3877 37.5216 60.9092 37.3942C61.4756 37.2668 62.0397 37.1299 62.6084 37.0095C63.4568 36.8282 64.2829 36.5552 65.0723 36.1953C65.4595 36.0499 65.802 35.8058 66.0658 35.4873C66.2278 35.2352 66.3363 34.9524 66.3844 34.6566C66.4411 34.3994 66.5827 34.1846 66.6417 33.9226C66.693 33.7426 66.6983 33.5525 66.657 33.3698C66.6158 33.1871 66.5294 33.0177 66.4057 32.8772C66.578 32.7596 66.7275 32.6116 66.847 32.4406Z" fill="#FFA8A7"/>
<path d="M41.1513 25.5777C42.3998 25.5777 43.6624 25.698 44.6606 26.2385C45.6589 26.7789 45.9421 27.0385 47.6248 30.5289C49.3075 34.0194 50.74 37.026 50.74 37.026L55.8942 34.7486C56.0335 35.9546 57.1875 38.1163 57.8436 38.5671C57.8436 38.5671 55.0541 40.3772 53.0103 41.6493C51.481 42.5933 50.2137 43.3603 49.3995 43.2045C48.5853 43.0487 47.9623 42.7113 46.3834 40.3064C44.9431 38.1231 43.6189 35.8654 42.4163 33.5427C42.4163 33.5427 40.6628 28.8982 41.1513 25.5777Z" fill="#455A64"/>
<path d="M50.74 37.026C49.8739 37.498 48.9535 38.1116 48.4673 39.3058C48.4673 39.3058 48.4343 37.6373 50.4332 36.3865L50.74 37.026Z" fill="#37474F"/>
<path d="M39.1359 18.0516L32.1644 17.5371C30.8169 18.5567 28.3106 20.7066 28.3129 21.3131V21.712C28.3148 21.7292 28.3196 21.7459 28.3271 21.7615C28.5631 22.2335 29.4622 22.5215 30.8476 22.5451C32.4996 22.571 35.0389 22.4223 35.7092 21.8371C36.7192 20.9709 39.1359 18.4316 39.1359 18.4316L38.7842 18.408L39.1359 18.0516Z" fill="#FD55A1"/>
<path opacity="0.2" d="M39.1359 18.0516L32.1644 17.5371C30.8169 18.5567 28.3106 20.7066 28.3129 21.3131V21.712C28.3148 21.7292 28.3196 21.7459 28.3271 21.7615C28.5631 22.2335 29.4622 22.5215 30.8476 22.5451C32.4996 22.571 35.0389 22.4223 35.7092 21.8371C36.7192 20.9709 39.1359 18.4316 39.1359 18.4316L38.7842 18.408L39.1359 18.0516Z" fill="black"/>
<path d="M32.1644 17.936C30.7484 19.0027 28.0816 21.3013 28.3271 21.771C28.5725 22.2406 29.4622 22.5309 30.8476 22.5545C32.4996 22.5805 35.0389 22.4318 35.7092 21.8465C36.7192 20.9804 39.1359 18.441 39.1359 18.441L32.1644 17.936Z" fill="#FD55A1"/>
<path opacity="0.4" d="M32.1644 17.936C30.7484 19.0027 28.0816 21.3013 28.3271 21.771C28.5725 22.2406 29.4622 22.5309 30.8476 22.5545C32.4996 22.5805 35.0389 22.4318 35.7092 21.8465C36.7192 20.9804 39.1359 18.441 39.1359 18.441L32.1644 17.936Z" fill="black"/>
<path d="M32.1644 17.936C32.1432 18.1389 32.8536 18.559 32.8536 18.559L32.6553 17.3365L32.1644 17.936Z" fill="#FD55A1"/>
<path opacity="0.3" d="M32.1644 17.936C32.1432 18.1389 32.8536 18.559 32.8536 18.559L32.6553 17.3365L32.1644 17.936Z" fill="black"/>
<path d="M31.0222 95.0891C30.9278 95.4667 30.7248 96.5381 28.7354 96.5381C26.7459 96.5381 25.5989 95.7216 25.1954 94.7115C24.7918 93.7014 25.0302 92.9486 25.0656 92.0659C25.101 91.1833 24.459 90.624 24.308 90.152C24.0932 89.444 24.6809 88.4811 24.6809 88.4811L31.0222 95.0891Z" fill="#263238"/>
<path d="M49.6945 89.595C49.7677 89.647 49.8125 90.2676 49.6025 90.5532C49.4562 90.7491 48.1228 91.7167 46.4731 91.5161C45.2641 91.3982 44.1007 90.9937 43.0794 90.3361C42.1166 89.7673 41.451 89.6847 40.4834 89.6871C39.5158 89.6894 38.8314 89.5054 38.7512 89.2599C38.6072 88.828 38.5978 88.5519 38.8055 88.5519L49.6945 89.595Z" fill="#263238"/>
<path d="M25.3488 87.025C25.3488 88.8398 28.825 89.1726 28.7401 87.7094L29.9508 83.4614L26.0214 83.046L25.3488 87.025Z" fill="#FFA8A7"/>
<path d="M31.0033 94.1805C30.8735 93.836 30.4346 93.305 30.2505 92.984C29.2842 91.3317 28.8254 89.4317 28.9312 87.5206C28.9312 87.4144 28.9525 87.2091 28.8581 87.1312C28.7637 87.0533 28.6433 87.1312 28.5253 87.1619C28.3219 87.2186 28.111 87.244 27.8999 87.2374C27.1919 87.2185 26.4532 86.9471 26.2762 86.9471C26.1394 86.9471 26.0402 87.3577 25.9907 87.8109C25.7547 87.6197 25.7264 87.3011 25.5187 87.0887C25.4125 86.9754 25.3606 86.966 25.3842 86.8055C25.4007 86.7017 25.4196 86.6096 25.4361 86.5034C25.2662 86.4279 25.0231 87.0887 24.806 87.589C24.5534 88.1672 24.249 88.8186 24.4024 89.4629C24.5062 89.8165 24.647 90.1583 24.8225 90.4824C25.1254 91.0441 25.2873 91.6709 25.2945 92.309C25.2945 92.5875 25.2237 92.8636 25.226 93.1421C25.2262 93.6105 25.3615 94.0689 25.6155 94.4623C25.8696 94.8558 26.2318 95.1676 26.6586 95.3605C27.8008 95.8986 29.5968 96.085 30.7626 95.3959C31.1732 95.1576 31.1308 94.5251 31.0033 94.1805Z" fill="#FD55A1"/>
<path opacity="0.4" d="M31.0033 94.1805C30.8735 93.836 30.4346 93.305 30.2505 92.984C29.2842 91.3317 28.8254 89.4317 28.9312 87.5206C28.9312 87.4144 28.9525 87.2091 28.8581 87.1312C28.7637 87.0533 28.6433 87.1312 28.5253 87.1619C28.3219 87.2186 28.111 87.244 27.8999 87.2374C27.1919 87.2185 26.4532 86.9471 26.2762 86.9471C26.1394 86.9471 26.0402 87.3577 25.9907 87.8109C25.7547 87.6197 25.7264 87.3011 25.5187 87.0887C25.4125 86.9754 25.3606 86.966 25.3842 86.8055C25.4007 86.7017 25.4196 86.6096 25.4361 86.5034C25.2662 86.4279 25.0231 87.0887 24.806 87.589C24.5534 88.1672 24.249 88.8186 24.4024 89.4629C24.5062 89.8165 24.647 90.1583 24.8225 90.4824C25.1254 91.0441 25.2873 91.6709 25.2945 92.309C25.2945 92.5875 25.2237 92.8636 25.226 93.1421C25.2262 93.6105 25.3615 94.0689 25.6155 94.4623C25.8696 94.8558 26.2318 95.1676 26.6586 95.3605C27.8008 95.8986 29.5968 96.085 30.7626 95.3959C31.1732 95.1576 31.1308 94.5251 31.0033 94.1805Z" fill="black"/>
<path d="M39.4875 85.5453C40.4693 86.2533 41.3755 86.3382 42.5319 85.76L43.1148 79.5698H38.8668L39.4875 85.5453Z" fill="#FFA8A7"/>
<path d="M30.1773 45.8619C29.3938 53.0669 28.3507 67.3709 28.3507 67.3709C28.3507 67.3709 27.1707 69.5374 26.7105 73.0137C26.1417 77.3041 25.4738 85.4674 25.4738 85.4674C25.4738 85.4674 27.4822 86.7701 29.4339 86.14C29.4339 86.14 33.899 73.2544 34.7911 69.03C35.5676 65.3437 36.9458 57.7704 36.9458 57.7704L38.6662 68.0765C38.2186 69.711 38.0315 71.4058 38.1116 73.0986C38.1942 75.0834 38.9754 82.6684 38.9754 82.6684C39.622 83.2797 42.1048 83.3623 42.9355 82.8336C42.9355 82.8336 44.1155 70.2029 44.3019 68.1167C44.5379 65.3743 44.9533 45.6967 44.9533 45.6967L30.1773 45.8619Z" fill="#263238"/>
<path d="M36.9458 57.7704L37.9063 53.336C37.9063 53.336 40.0539 52.8451 41.5879 51.6155C41.5879 51.6155 41.0262 53.0315 38.6733 54.1101L37.6916 58.2613L38.5364 67.3662L36.9458 57.7704Z" fill="black"/>
<path d="M48.852 88.356C47.226 87.7472 45.6424 87.0368 44.6394 86.3312C44.3586 86.1329 44.1438 85.9677 43.9621 85.812C43.5491 85.3942 43.2966 84.4904 43.1172 84.396C43.0582 84.3629 42.9756 84.396 42.8576 84.4762C42.8348 84.4456 42.8062 84.4198 42.7734 84.4004C42.7406 84.3809 42.7042 84.3682 42.6664 84.3629L42.6452 84.6131C42.3078 84.8277 41.9277 84.9662 41.5313 85.019C40.533 85.1464 40.4929 84.9458 40.4622 85.2692C40.4518 85.3901 40.4518 85.5117 40.4622 85.6326C39.9312 85.5642 39.5182 85.4108 39.4781 85.2102L39.3884 84.573C38.8621 84.5446 38.8621 85.4886 38.7276 86.553C38.619 87.4144 38.4373 88.0422 38.6969 88.677C39.5206 89.3425 40.9177 89.1207 41.7224 89.2222C42.8623 89.3685 43.4216 90.185 45.0264 90.6712C47.5965 91.4547 49.1612 90.3833 49.6214 89.9231C49.9069 89.3284 49.737 88.6864 48.852 88.356Z" fill="#FD55A1"/>
<path opacity="0.4" d="M48.852 88.356C47.226 87.7472 45.6424 87.0368 44.6394 86.3312C44.3586 86.1329 44.1438 85.9677 43.9621 85.812C43.5491 85.3942 43.2966 84.4904 43.1172 84.396C43.0582 84.3629 42.9756 84.396 42.8576 84.4762C42.8348 84.4456 42.8062 84.4198 42.7734 84.4004C42.7406 84.3809 42.7042 84.3682 42.6664 84.3629L42.6452 84.6131C42.3078 84.8277 41.9277 84.9662 41.5313 85.019C40.533 85.1464 40.4929 84.9458 40.4622 85.2692C40.4518 85.3901 40.4518 85.5117 40.4622 85.6326C39.9312 85.5642 39.5182 85.4108 39.4781 85.2102L39.3884 84.573C38.8621 84.5446 38.8621 85.4886 38.7276 86.553C38.619 87.4144 38.4373 88.0422 38.6969 88.677C39.5206 89.3425 40.9177 89.1207 41.7224 89.2222C42.8623 89.3685 43.4216 90.185 45.0264 90.6712C47.5965 91.4547 49.1612 90.3833 49.6214 89.9231C49.9069 89.3284 49.737 88.6864 48.852 88.356Z" fill="black"/>
<path d="M35.4 25.4361C33.7929 25.5297 32.1916 25.7046 30.6021 25.96C29.0634 26.17 29.2026 27.376 29.2026 30.0027C29.2026 33.8825 30.4652 40.6038 30.4652 40.6038L29.9272 47.2118C31.7326 49.1423 40.3796 49.9872 44.991 47.1575C44.991 47.1575 45.1161 33.9934 44.991 31.775C44.7739 27.8692 42.2369 25.6249 40.795 25.5163C39.0014 25.3514 37.1977 25.3246 35.4 25.4361Z" fill="#37474F"/>
<path d="M33.9958 13.8579C33.9958 13.8579 32.9078 14.0113 32.509 14.8302C32.1621 15.5382 32.2872 17.2681 32.745 19.1443C33.2028 21.0205 33.6442 22.1533 33.925 22.6725C34.1048 22.9939 34.4028 23.2327 34.7557 23.338L34.692 21.1102L34.6118 19.5597C34.6118 19.5597 35.6077 18.1979 35.7186 17.0817C35.8578 15.6468 35.5558 15.0592 35.5558 15.0592L33.9958 13.8579Z" fill="#263238"/>
<path d="M35.754 16.0149C35.7559 16.5613 35.8653 17.102 36.0761 17.6061C36.2869 18.1102 36.595 18.5678 36.9826 18.9529C37.3703 19.3379 37.83 19.6428 38.3355 19.8502C38.841 20.0576 39.3825 20.1633 39.9288 20.1615C42.2251 20.1615 43.9408 18.2735 43.9408 15.9725C43.9408 13.6715 42.1992 11.833 39.9005 11.8401C39.3541 11.842 38.8135 11.9514 38.3094 12.1622C37.8053 12.373 37.3477 12.6811 36.9626 13.0687C36.5776 13.4564 36.2727 13.9161 36.0653 14.4216C35.8579 14.9272 35.7521 15.4686 35.754 16.0149Z" fill="#263238"/>
<path d="M34.6755 19.3119C34.3002 19.6352 33.9958 18.795 33.6819 18.467C33.368 18.139 32.332 17.7 31.8317 18.7738C31.3314 19.8476 32.3037 21.3698 33.0683 21.7238C34.194 22.2454 34.6967 21.1102 34.6967 21.1102L34.8171 25.7972C35.9971 27.9212 37.6845 28.3176 38.7984 28.1973C39.9123 28.0769 40.1601 26.9158 39.3436 25.9812V24.4543C39.3436 24.4543 40.6038 24.6408 41.2174 24.544C42.2393 24.3812 42.775 23.6 43.0818 22.5026C43.575 20.7232 43.7709 17.7307 43.0818 14.2756C41.9372 13.3906 37.9677 13.537 35.5628 15.0592C35.7375 18.1248 35.0507 18.9862 34.6755 19.3119Z" fill="#FFA8A7"/>
<path d="M42.6499 12.7652C42.1776 12.2617 41.6031 11.865 40.9649 11.6017C40.4505 11.3818 39.8982 11.2639 39.3388 11.2548C38.612 11.2548 37.8898 11.1486 37.1653 11.1699C35.905 11.21 34.3852 11.7245 33.8164 12.9493C33.5568 13.5086 33.512 14.0986 34.0265 14.4857C34.4854 14.7952 35.011 14.9917 35.5605 15.0591C36.5045 15.222 37.4202 15.4273 38.3571 15.5524C39.3622 15.7229 40.39 15.7077 41.3897 15.5075C41.8619 15.4013 42.3111 15.211 42.716 14.9459C42.9208 14.8088 43.1107 14.6506 43.2824 14.4739C43.3485 14.4054 43.5184 14.2662 43.5467 14.1718C43.575 14.0774 43.4476 13.8957 43.4004 13.8036C43.1992 13.4246 42.9467 13.0752 42.6499 12.7652Z" fill="#263238"/>
<path d="M39.3365 24.4543C39.3365 24.4543 37.052 24.0012 36.252 23.5787C35.7812 23.3367 35.3952 22.9573 35.1451 22.4908C35.2666 22.9575 35.4809 23.3949 35.7752 23.777C36.3605 24.5204 39.3388 25.0608 39.3388 25.0608L39.3365 24.4543Z" fill="#F28F8F"/>
<path d="M38.9235 18.552C38.9207 18.6412 38.8918 18.7278 38.8404 18.8008C38.7891 18.8739 38.7175 18.9304 38.6344 18.9633C38.5513 18.9961 38.4605 19.004 38.373 18.9859C38.2855 18.9678 38.2053 18.9245 38.1421 18.8613C38.079 18.7981 38.0356 18.7179 38.0175 18.6304C37.9994 18.5429 38.0073 18.4521 38.0402 18.369C38.0731 18.286 38.1295 18.2144 38.2026 18.163C38.2757 18.1116 38.3622 18.0828 38.4515 18.08C38.5767 18.08 38.6967 18.1297 38.7852 18.2182C38.8737 18.3067 38.9235 18.4268 38.9235 18.552Z" fill="#263238"/>
<path d="M38.468 16.959L37.4461 17.4168C37.3886 17.2771 37.3869 17.1206 37.4414 16.9797C37.4958 16.8387 37.6023 16.724 37.7388 16.6592C37.8062 16.63 37.8788 16.6145 37.9523 16.6138C38.0258 16.6131 38.0987 16.6271 38.1667 16.6551C38.2347 16.683 38.2964 16.7243 38.3481 16.7765C38.3999 16.8287 38.4406 16.8907 38.468 16.959Z" fill="#263238"/>
<path d="M38.9683 21.6719L40.4292 22.2147C40.3973 22.3126 40.3461 22.4031 40.2786 22.4808C40.2112 22.5586 40.1288 22.622 40.0364 22.6673C39.9439 22.7127 39.8433 22.739 39.7406 22.7448C39.6378 22.7505 39.5349 22.7356 39.438 22.7008C39.242 22.6231 39.0837 22.4726 38.9961 22.2808C38.9086 22.089 38.8986 21.8708 38.9683 21.6719Z" fill="#B16668"/>
<path d="M39.438 22.7008C39.5681 22.7471 39.7083 22.7577 39.8439 22.7315C39.8366 22.5487 39.7587 22.3758 39.6268 22.2491C39.4948 22.1224 39.3188 22.0517 39.1359 22.0518C39.0693 22.053 39.0033 22.0641 38.94 22.0849C38.9622 22.222 39.0198 22.351 39.1071 22.459C39.1945 22.567 39.3085 22.6504 39.438 22.7008Z" fill="#F28F8F"/>
<path d="M42.7443 17.228L41.687 16.8386C41.709 16.7681 41.7451 16.703 41.7931 16.647C41.8412 16.5911 41.9002 16.5455 41.9666 16.5133C42.0329 16.481 42.1051 16.4626 42.1788 16.4593C42.2525 16.456 42.3261 16.4678 42.395 16.494C42.5359 16.5487 42.6505 16.6552 42.7154 16.7916C42.7804 16.9281 42.7907 17.0842 42.7443 17.228Z" fill="#263238"/>
<path d="M42.6877 18.408C42.6878 18.5304 42.6403 18.648 42.5553 18.736C42.4703 18.8241 42.3545 18.8757 42.2322 18.88C42.1382 18.8833 42.0454 18.8584 41.9656 18.8086C41.8859 18.7588 41.8228 18.6863 41.7845 18.6004C41.7463 18.5145 41.7345 18.4191 41.7508 18.3265C41.7671 18.2338 41.8107 18.1482 41.876 18.0805C41.9413 18.0128 42.0254 17.9662 42.1173 17.9466C42.2093 17.927 42.3051 17.9354 42.3923 17.9706C42.4795 18.0057 42.5542 18.0662 42.6068 18.1441C42.6595 18.2221 42.6876 18.3139 42.6877 18.408Z" fill="#263238"/>
<path d="M40.238 17.9289L40.4622 20.9639L41.8971 20.4683L40.238 17.9289Z" fill="#F28F8F"/>
<path d="M31.86 16.2344C31.8761 16.8223 31.9763 17.4048 32.1574 17.9643C32.2747 17.7826 32.4187 17.6195 32.5845 17.4805C33.5153 16.7026 34.5763 16.0954 35.7186 15.6869C38.3524 14.6697 41.4274 14.5069 43.8795 15.3754C43.839 14.8717 43.7286 14.376 43.5514 13.9027C42.6546 11.5687 40.8469 10.3462 37.9559 10.6459C34.574 10.9976 31.7774 12.8809 31.86 16.2344Z" fill="#FD55A1"/>
<path d="M38.0739 14.16C38.8598 13.8957 40.8681 13.7399 41.4558 13.924C41.7279 13.7006 41.9664 13.4391 42.1638 13.1475C42.4375 12.7109 42.3455 12.1611 42.0859 12.0501C41.8263 11.9392 41.8121 12.2861 40.8138 12.7581C40.8138 12.7581 41.0498 12.1563 40.8941 11.7504C40.7383 11.3445 40.389 12.0737 39.6456 12.541C38.9022 13.0083 38.1683 13.2703 38.0739 14.16Z" fill="#263238"/>
<path d="M30.7248 26.1134C29.7769 26.163 28.8672 26.5026 28.1187 27.0864C27.3703 27.6702 26.8194 28.47 26.5406 29.3773C25.934 31.1473 24.4354 35.669 23.5268 38.4656C21.9386 37.6963 18.0988 35.8342 17.3224 35.1616C16.5997 34.5283 15.9433 33.8229 15.3636 33.0565C14.5669 32.0744 13.9892 30.9335 13.6691 29.71C13.4662 29.1153 12.7039 29.7407 12.7251 30.798C12.7459 31.3763 12.859 31.9476 13.0602 32.4901C12.6803 32.4547 11.5687 32.3414 11.4082 32.3273C10.8088 32.2801 8.97036 32.3108 9.15444 33.2854C9.19692 33.5026 9.34324 33.7032 9.32436 33.925C9.29572 34.0276 9.25533 34.1266 9.204 34.22C9.1448 34.4116 9.1381 34.6156 9.18459 34.8107C9.23108 35.0058 9.32907 35.1849 9.46832 35.3292C9.60308 35.4475 9.69721 35.6052 9.73736 35.78C9.75959 35.9698 9.81893 36.1534 9.912 36.3204C10.0175 36.4329 10.1337 36.5349 10.2589 36.6248C10.407 36.7643 10.5292 36.9289 10.62 37.111C10.7039 37.292 10.8127 37.4605 10.9433 37.6113C11.2737 37.9512 11.8 37.8615 12.2272 37.8473C12.8748 37.827 13.5231 37.8403 14.1694 37.8874C15.2975 38.1494 19.3756 41.6634 22.9014 43.5774C24.1074 44.2335 25.0939 44.5592 25.8585 44.1556C26.5052 43.9007 26.8214 43.1951 27.232 42.1826C28.176 39.8226 30.588 33.5026 30.588 33.5026C31.4895 30.89 31.4116 27.3878 30.7248 26.1134Z" fill="#FFA8A7"/>
<path d="M12.4278 32.8158C12.9965 32.8158 13.2538 33.1014 13.485 33.8471C13.6243 34.2884 14.0255 35.0554 14.6108 35.2206C14.374 35.2722 14.1271 35.2508 13.9028 35.1593C13.5983 35.0035 13.5275 34.9964 13.4473 35.1711C13.3839 35.2903 13.2933 35.393 13.183 35.4708C13.2924 35.5378 13.3776 35.6381 13.426 35.757C13.4744 35.8759 13.4835 36.0072 13.452 36.1316C13.3505 36.5871 12.3239 36.9387 11.328 36.7853C11.328 36.7853 12.8384 36.7546 13.0083 36.2142C13.1782 35.6738 12.2744 35.3717 11.6867 35.4047C11.6867 35.4047 13.1027 35.2773 13.1664 34.777C13.2302 34.2766 12.5694 34.1303 11.7268 34.1917C11.7268 34.1917 12.8832 34.0265 12.947 33.5922C13.039 33.066 12.6213 32.9173 12.4278 32.8158Z" fill="#F28F8F"/>
<path d="M31.2488 25.8609C30.0121 26.0355 29.0374 26.0969 28.117 26.7671C27.1966 27.4373 26.701 27.9471 25.4833 31.6193C24.2655 35.2914 23.3805 38.2627 23.3805 38.2627L18.172 35.7209C18.1932 36.9363 17.1124 39.15 16.52 39.681C16.52 39.681 20.0742 42.1921 21.5751 43.1361C23.0761 44.0801 24.7564 44.9226 25.5446 44.6606C26.3329 44.3987 26.753 43.7402 28.0014 41.1489C29.1436 38.7959 30.1598 36.3837 31.0458 33.9226C31.0458 33.9226 32.1692 29.0893 31.2488 25.8609Z" fill="#455A64"/>
<path d="M23.3805 38.2627C25.0774 39.2067 25.7193 40.4244 25.7193 40.4244C25.7193 40.4244 25.488 38.704 23.626 37.524L23.3805 38.2627Z" fill="#37474F"/>
<path d="M61.1242 7.96264L50.6128 14.0302C50.5114 14.099 50.4275 14.1905 50.3677 14.2975C50.3079 14.4044 50.2738 14.5238 50.2682 14.6462V24.8532C50.2748 24.9763 50.3108 25.096 50.3732 25.2024C50.4357 25.3087 50.5226 25.3986 50.6269 25.4644L51.4624 25.9364C51.5724 25.9909 51.6936 26.0193 51.8164 26.0193C51.9392 26.0193 52.0603 25.9909 52.1704 25.9364L62.6818 19.8688C62.7853 19.8013 62.8715 19.7104 62.9334 19.6034C62.9954 19.4964 63.0312 19.3763 63.0382 19.2529V9.04824C63.0317 8.92474 62.9958 8.80459 62.9334 8.69783C62.871 8.59107 62.7839 8.50082 62.6794 8.43464L61.844 7.96264C61.7324 7.90622 61.6091 7.87683 61.4841 7.87683C61.3591 7.87683 61.2358 7.90622 61.1242 7.96264Z" fill="#FD55A1"/>
<path d="M51.8067 25.724V15.5264C51.8129 15.4036 51.8477 15.284 51.9083 15.177C51.969 15.0701 52.0538 14.9788 52.156 14.9105L62.6816 8.84291C62.8775 8.72727 63.038 8.81931 63.038 9.04823V19.2529C63.031 19.3763 62.9952 19.4964 62.9332 19.6034C62.8713 19.7104 62.7851 19.8013 62.6816 19.8688L52.156 25.9364C51.9672 26.0497 51.8067 25.96 51.8067 25.724Z" fill="#FD55A1"/>
<path opacity="0.2" d="M52.156 25.9364C52.0457 25.99 51.9247 26.0179 51.802 26.0179C51.6794 26.0179 51.5583 25.99 51.448 25.9364L50.6149 25.4644C50.5106 25.3986 50.4237 25.3087 50.3612 25.2024C50.2988 25.096 50.2628 24.9763 50.2562 24.8532V14.6462C50.2618 14.5172 50.3008 14.392 50.3695 14.2827L51.92 15.1748C51.8543 15.2806 51.8177 15.4019 51.8138 15.5264V25.724C51.8067 25.9388 51.953 26.0591 52.156 25.9364Z" fill="black"/>
<path opacity="0.5" d="M63.0332 8.98216C63.0049 8.8028 62.8586 8.74616 62.6816 8.84056L52.156 14.9105C52.0562 14.9772 51.975 15.0681 51.92 15.1748L50.3742 14.2827C50.4312 14.1806 50.5122 14.094 50.6102 14.0302L61.124 7.96264C61.2341 7.90815 61.3552 7.87979 61.478 7.87979C61.6008 7.87979 61.722 7.90815 61.832 7.96264L62.6674 8.43464C62.7644 8.49402 62.8473 8.57372 62.9105 8.66825C62.9736 8.76277 63.0155 8.86988 63.0332 8.98216Z" fill="white"/>
<path d="M50.268 18.1437L47.8396 20.6996C47.8064 20.7327 47.781 20.7728 47.7654 20.8171C47.7497 20.8613 47.7442 20.9084 47.7492 20.9551C47.7542 21.0017 47.7695 21.0466 47.7941 21.0865C47.8188 21.1265 47.852 21.1603 47.8915 21.1857C47.9505 21.2258 49.4349 22.0872 49.4349 22.0872L51.8067 19.0523L50.268 18.1437Z" fill="#FD55A1"/>
<path opacity="0.1" d="M50.268 18.1437L47.8396 20.6996C47.8064 20.7327 47.781 20.7728 47.7654 20.8171C47.7497 20.8613 47.7442 20.9084 47.7492 20.9551C47.7542 21.0017 47.7695 21.0466 47.7941 21.0865C47.8188 21.1265 47.852 21.1603 47.8915 21.1857C47.9505 21.2258 49.4349 22.0872 49.4349 22.0872L51.8067 19.0523L50.268 18.1437Z" fill="black"/>
<path d="M51.8067 19.0523L49.3901 21.6082C49.3439 21.655 49.3135 21.7152 49.3034 21.7802C49.2932 21.8452 49.3038 21.9118 49.3335 21.9705C49.3633 22.0292 49.4107 22.077 49.4691 22.1073C49.5275 22.1376 49.594 22.1487 49.6591 22.1392L51.8067 22.1203C52.0852 22.1203 52.0852 19.0523 51.8067 19.0523Z" fill="#FD55A1"/>
<path d="M60.2768 14.1152L55.4199 16.9188L60.2343 12.718C60.309 12.6454 60.3668 12.5573 60.4035 12.4598C60.4402 12.3623 60.455 12.2579 60.4467 12.154L60.3523 11.4649C60.3263 11.2784 60.1918 11.2289 60.0502 11.3492L54.5018 16.192C54.4254 16.2637 54.3659 16.3515 54.3275 16.449C54.2891 16.5466 54.2729 16.6514 54.28 16.756L54.3744 17.4451C54.3794 17.4995 54.4018 17.5507 54.4381 17.5914C54.3867 17.6883 54.3584 17.7957 54.3555 17.9053V22.3044C54.3555 22.5144 54.483 22.6088 54.6387 22.5191L60.2673 19.2694C60.3534 19.2076 60.4238 19.1266 60.473 19.0327C60.5221 18.9389 60.5487 18.8349 60.5505 18.729V14.3299C60.56 14.1222 60.4325 14.0255 60.2768 14.1152ZM58.3888 13.898L58.764 12.8903C58.8104 12.7735 58.8803 12.6675 58.9693 12.5788L59.708 11.9369C59.7788 11.8755 59.8024 11.9156 59.7599 12.0242L59.3918 13.0343C59.3447 13.1507 59.2749 13.2567 59.1864 13.3458L58.4525 13.9854C58.3817 14.0491 58.3581 14.009 58.3982 13.898H58.3888ZM56.6164 15.4462L56.9869 14.4385C57.0337 14.3212 57.1035 14.2144 57.1922 14.1246L57.9262 13.485C57.997 13.4237 58.0206 13.4614 57.9781 13.5724L57.6076 14.5801C57.5623 14.6976 57.4932 14.8044 57.4046 14.894L56.6707 15.5335C56.607 15.5949 56.5834 15.5571 56.6258 15.4462H56.6164ZM54.8535 16.992L55.224 15.9843C55.2693 15.8675 55.3384 15.7614 55.427 15.6728L56.168 15.0332C56.2412 14.9695 56.2648 15.0096 56.2223 15.1205L55.8518 16.1282C55.8054 16.245 55.7355 16.3511 55.6464 16.4398L54.9125 17.0817C54.8346 17.143 54.811 17.1053 54.8535 16.992ZM56.2695 17.0604L55.8706 17.8298C55.8166 17.9391 55.7354 18.0326 55.6346 18.1012L54.8865 18.5354C54.8134 18.5779 54.7945 18.5354 54.8464 18.4151L55.2476 17.6457C55.302 17.5361 55.3831 17.4419 55.4836 17.372L56.2317 16.9401C56.2978 16.9 56.3143 16.9542 56.2624 17.0628L56.2695 17.0604ZM58.082 16.015L57.6808 16.7843C57.6301 16.8922 57.553 16.9856 57.4566 17.0557L56.7061 17.49C56.6329 17.5301 56.6164 17.4782 56.6683 17.3672L57.0695 16.6002C57.1232 16.4901 57.2045 16.3958 57.3055 16.3265L58.056 15.8946C58.1103 15.8545 58.1268 15.9088 58.0749 16.0173L58.082 16.015ZM59.8921 14.9695L59.4932 15.7365C59.4396 15.8466 59.3583 15.9409 59.2572 16.0102L58.5091 16.4421C58.436 16.4846 58.4194 16.4303 58.469 16.3218L58.8702 15.5524C58.9242 15.4431 59.0055 15.3496 59.1062 15.281L59.8543 14.8468C59.9204 14.809 59.944 14.868 59.885 14.9718L59.8921 14.9695Z" fill="#455A64"/>
<path d="M77.3561 97.704C77.2782 97.6875 77.2263 97.5317 77.2381 97.3547L80.653 42.3856L82.3546 42.5649L77.5307 97.4161C77.5142 97.5931 77.4363 97.7229 77.3561 97.704Z" fill="#37474F"/>
<path d="M93.3168 88.2498C93.3498 88.4245 93.3168 88.5661 93.2412 88.5661C93.1657 88.5661 93.069 88.4268 93.0265 88.2546L82.4206 43.424L84.3794 43.0299L93.3168 88.2498Z" fill="#37474F"/>
<path d="M71.4773 84.8514L78.3001 41.5549L80.096 42.7844L71.7794 84.8656C71.7322 85.0379 71.6307 85.1747 71.5434 85.1724C71.4561 85.17 71.4396 85.0261 71.4773 84.8514Z" fill="#37474F"/>
<path d="M65.3578 29.0563C65.0558 28.8793 64.6357 28.9029 64.1778 29.1696C63.6889 29.4866 63.2818 29.9144 62.9894 30.4184C62.697 30.9224 62.5277 31.4883 62.4952 32.07C62.4952 32.594 62.6745 32.9645 62.9672 33.1438C63.0663 33.2028 64.2486 33.8094 64.3407 33.8636C64.6451 34.0406 65.0628 34.017 65.5207 33.7504C66.0093 33.4331 66.4163 33.0052 66.7087 32.5012C67.001 31.9973 67.1705 31.4316 67.2034 30.8499C67.2034 30.3213 67.0216 29.9508 66.7314 29.7738C66.6299 29.7148 65.4499 29.1106 65.3578 29.0563Z" fill="#455A64"/>
<path d="M62.6864 32.863C62.6946 32.8783 62.7042 32.8928 62.7152 32.9062L62.6816 32.8606L62.6864 32.863Z" fill="#455A64"/>
<path d="M63.8474 32.7804C63.8474 33.8495 64.5956 34.2837 65.523 33.7504C66.0117 33.4331 66.4187 33.0052 66.711 32.5012C67.0034 31.9973 67.1728 31.4316 67.2057 30.8499C67.2057 29.7808 66.4576 29.3466 65.5301 29.88C65.0412 30.1969 64.634 30.6248 64.3416 31.1288C64.0493 31.6328 63.8799 32.1986 63.8474 32.7804Z" fill="#263238"/>
<path opacity="0.15" d="M64.2958 33.84H64.2793H64.2675L64.2392 33.8259L64.2156 33.8117L64.166 33.7858L64.0528 33.722C63.9206 33.6489 63.2433 33.3161 63.1276 33.25L63.0332 33.1981L62.9624 33.1556C62.9241 33.134 62.8884 33.1078 62.8562 33.0778C62.8396 33.0655 62.8245 33.0512 62.8114 33.0353C62.7859 33.0111 62.7623 32.985 62.7406 32.9574C62.7312 32.9454 62.7225 32.9328 62.7146 32.9196C62.7039 32.9064 62.6944 32.8922 62.6863 32.8772C62.5507 32.6364 62.4845 32.3627 62.4952 32.0866C62.5045 31.7062 62.5845 31.3308 62.7312 30.9797C62.75 30.9325 62.7689 30.8853 62.7902 30.8405C62.8114 30.7956 62.8185 30.7697 62.835 30.7366L62.8846 30.6352L64.2345 31.362C63.9993 31.8057 63.8693 32.2974 63.8545 32.7993C63.8442 33.0726 63.9087 33.3434 64.041 33.5828C64.1068 33.6856 64.1937 33.7732 64.2958 33.84Z" fill="black"/>
<path d="M72.839 34.6778C72.8167 35.0726 72.7016 35.4565 72.5032 35.7985C72.3047 36.1405 72.0285 36.4308 71.6968 36.6461C71.5434 36.7417 71.3677 36.7954 71.187 36.8018C71.0846 36.8021 70.9839 36.7761 70.8944 36.7263L65.018 33.4034H65.0015C64.9703 33.3834 64.941 33.3605 64.9142 33.335C64.8309 33.2464 64.7669 33.1416 64.7263 33.027C64.6857 32.9124 64.6693 32.7907 64.6782 32.6695C64.7005 32.2744 64.8155 31.8901 65.014 31.5478C65.2124 31.2054 65.4887 30.9146 65.8204 30.6989C65.9212 30.6313 66.0349 30.5854 66.1543 30.5638C66.2737 30.5423 66.3962 30.5457 66.5142 30.5738C66.5466 30.5839 66.5782 30.5965 66.6086 30.6115L66.6393 30.6304L72.5039 33.9486C72.6191 34.0299 72.7107 34.1401 72.7695 34.2681C72.8284 34.3962 72.8524 34.5375 72.839 34.6778Z" fill="#37474F"/>
<path opacity="0.15" d="M70.42 35.0719C70.3157 35.3244 70.2597 35.5942 70.2548 35.8673C70.2466 36.0659 70.294 36.2629 70.3917 36.436L69.6318 35.9971H69.6153L65.4499 33.6607L65.431 33.6489L65.0274 33.4129C64.9136 33.3297 64.8237 33.2182 64.7665 33.0894C64.7094 32.9606 64.687 32.819 64.7018 32.6789C64.7064 32.422 64.7592 32.1682 64.8575 31.9308L70.42 35.0719Z" fill="black"/>
<path d="M90.886 27.848C90.8817 27.8003 90.8649 27.7546 90.8371 27.7156C90.8093 27.6766 90.7716 27.6457 90.7278 27.6262L77.0398 19.7178C76.9202 19.6573 76.788 19.6257 76.654 19.6257C76.5199 19.6257 76.3877 19.6573 76.2681 19.7178L67.6352 24.7021C67.5912 24.7216 67.5532 24.7523 67.525 24.7913C67.4968 24.8303 67.4794 24.8761 67.4748 24.924V28.2657C67.4775 28.3159 67.4939 28.3645 67.5221 28.4061C67.5504 28.4477 67.5895 28.4807 67.6352 28.5017L81.3232 36.4077C81.4429 36.4683 81.575 36.4998 81.7091 36.4998C81.8432 36.4998 81.9753 36.4683 82.095 36.4077L90.7278 31.4234C90.7716 31.4038 90.8093 31.373 90.8371 31.334C90.8649 31.295 90.8817 31.2493 90.886 31.2016V29.6605L90.9473 29.6274C90.9065 29.5555 90.8854 29.4741 90.886 29.3914V27.848Z" fill="#37474F"/>
<path d="M67.6258 25.1481L81.3138 33.0565C81.4334 33.1171 81.5656 33.1486 81.6997 33.1486C81.8337 33.1486 81.9659 33.1171 82.0855 33.0565L90.7278 28.084C90.7742 28.0679 90.8144 28.0378 90.8429 27.9979C90.8714 27.9579 90.8866 27.91 90.8866 27.861C90.8866 27.8119 90.8714 27.764 90.8429 27.7241C90.8144 27.6841 90.7742 27.654 90.7278 27.6379L77.0398 19.7296C76.9202 19.669 76.788 19.6375 76.654 19.6375C76.5199 19.6375 76.3877 19.669 76.2681 19.7296L67.6352 24.7139C67.5923 24.7311 67.5553 24.7605 67.5289 24.7986C67.5025 24.8367 67.4879 24.8816 67.4869 24.9279C67.4859 24.9742 67.4986 25.0197 67.5232 25.0589C67.5479 25.0981 67.5836 25.1291 67.6258 25.1481Z" fill="#455A64"/>
<path d="M81.3232 33.0542L67.6352 25.1482C67.5915 25.1286 67.5538 25.0977 67.526 25.0587C67.4982 25.0197 67.4814 24.974 67.4771 24.9263V28.2657C67.4794 28.3158 67.4953 28.3642 67.5232 28.4058C67.5511 28.4475 67.5898 28.4806 67.6352 28.5017L81.3232 36.4077C81.4411 36.4718 81.5738 36.5036 81.7079 36.4998V33.1486C81.5736 33.1516 81.4409 33.119 81.3232 33.0542Z" fill="#263238"/>
<path d="M93.7817 31.7632V40.8988C93.7736 41.0323 93.7347 41.1621 93.668 41.278C93.6012 41.3939 93.5084 41.4927 93.397 41.5667L84.986 46.4188C84.8666 46.4788 84.7349 46.5101 84.6013 46.5101C84.4677 46.5101 84.336 46.4788 84.2166 46.4188L83.9806 46.282L83.4661 45.9846V45.8642L82.836 45.5102L82.7345 45.5692L82.2177 45.2719L82.1162 45.2129L82.0902 45.1987C82.0051 45.1481 81.9318 45.0796 81.8755 44.9981C81.8193 44.9276 81.7762 44.8477 81.748 44.7621L81.7315 44.7102C81.7131 44.6522 81.7036 44.5917 81.7032 44.5308V34.9492L81.7646 34.9138L90.9426 29.6156C90.9819 29.6824 91.0381 29.7378 91.1054 29.7761L93.3923 31.0954C93.5046 31.1688 93.5983 31.2674 93.6659 31.3833C93.7335 31.4992 93.7731 31.6293 93.7817 31.7632Z" fill="#455A64"/>
<path d="M84.986 46.4188C84.8692 46.4872 84.7366 46.5239 84.6013 46.525C84.4663 46.5235 84.334 46.4878 84.2166 46.4212L83.9806 46.2843L83.4661 45.9869V45.8666L82.836 45.5102L82.7345 45.5692L82.2177 45.2719L82.1162 45.2129C82.0241 45.1576 81.9439 45.0846 81.8802 44.9981C81.8241 44.9276 81.7809 44.8477 81.7528 44.7621L81.7362 44.7102C81.7174 44.6394 81.7079 44.5664 81.7079 44.4931L81.6702 33.1509L81.7079 34.6943C81.7078 34.7725 81.729 34.8492 81.7693 34.9162C81.8086 34.9828 81.8637 35.0387 81.9298 35.079L84.7146 36.6862C84.6459 36.8015 84.607 36.9321 84.6013 37.0661V46.1993L84.986 46.4188Z" fill="#263238"/>
<path d="M69.443 37.4721C69.3303 37.3992 69.2365 37.3007 69.1692 37.1846C69.102 37.0685 69.0631 36.9382 69.056 36.8042V33.5002L82.4324 41.2221V44.9816L69.443 37.4721Z" fill="#263238"/>
<path d="M93.3946 31.5414L84.9883 36.3959C84.8756 36.4688 84.7818 36.5673 84.7146 36.6834C84.6473 36.7995 84.6085 36.9298 84.6013 37.0638V46.197C84.6013 46.433 84.7736 46.5416 84.9883 46.4188L93.3946 41.5643C93.5076 41.4918 93.6016 41.3933 93.6689 41.2772C93.7362 41.161 93.7749 41.0305 93.7817 40.8964V31.7632C93.7817 31.5178 93.6094 31.4187 93.3946 31.5414Z" fill="#37474F"/>
<path d="M69.0489 28.8935C68.9414 28.9663 68.8527 29.0635 68.79 29.1771C68.7272 29.2907 68.6922 29.4175 68.6878 29.5472V34.5032C68.6951 34.6369 68.7337 34.767 68.8005 34.883C68.8674 34.999 68.9605 35.0977 69.0725 35.1711L80.5987 41.8263C80.714 41.8872 80.8424 41.9191 80.9728 41.9191C81.1032 41.9191 81.2316 41.8872 81.3468 41.8263C81.4539 41.7487 81.542 41.6479 81.6045 41.5314C81.6671 41.4149 81.7024 41.2858 81.7079 41.1537V36.2118C81.7006 36.0782 81.662 35.9481 81.5952 35.8321C81.5284 35.716 81.4352 35.6174 81.3232 35.544L69.797 28.9053C69.682 28.8448 69.5543 28.8122 69.4243 28.8101C69.2944 28.8081 69.1658 28.8366 69.0489 28.8935Z" fill="#FD55A1"/>
<path opacity="0.2" d="M69.0489 28.8935C68.9414 28.9663 68.8527 29.0635 68.79 29.1771C68.7272 29.2907 68.6922 29.4175 68.6878 29.5472V34.5032C68.6951 34.6369 68.7337 34.767 68.8005 34.883C68.8674 34.999 68.9605 35.0977 69.0725 35.1711L80.5987 41.8263C80.714 41.8872 80.8424 41.9191 80.9728 41.9191C81.1032 41.9191 81.2316 41.8872 81.3468 41.8263C81.4539 41.7487 81.542 41.6479 81.6045 41.5314C81.6671 41.4149 81.7024 41.2858 81.7079 41.1537V36.2118C81.7006 36.0782 81.662 35.9481 81.5952 35.8321C81.5284 35.716 81.4352 35.6174 81.3232 35.544L69.797 28.9053C69.682 28.8448 69.5543 28.8122 69.4243 28.8101C69.2944 28.8081 69.1658 28.8366 69.0489 28.8935Z" fill="black"/>
<path d="M69.0725 29.323L80.6011 35.9782C80.713 36.0516 80.8062 36.1503 80.873 36.2663C80.9398 36.3823 80.9785 36.5124 80.9858 36.6461V41.6021C80.9858 41.8381 80.8135 41.9466 80.5987 41.8239L69.0725 35.164C68.9605 35.0906 68.8674 34.9919 68.8005 34.8759C68.7337 34.7599 68.6951 34.6298 68.6878 34.4961V29.5401C68.6878 29.3018 68.8601 29.2003 69.0725 29.323Z" fill="#FD55A1"/>
<path opacity="0.4" d="M69.0725 29.323L80.6011 35.9782C80.713 36.0516 80.8062 36.1503 80.873 36.2663C80.9398 36.3823 80.9785 36.5124 80.9858 36.6461V41.6021C80.9858 41.8381 80.8135 41.9466 80.5987 41.8239L69.0725 35.164C68.9605 35.0906 68.8674 34.9919 68.8005 34.8759C68.7337 34.7599 68.6951 34.6298 68.6878 34.4961V29.5401C68.6878 29.3018 68.8601 29.2003 69.0725 29.323Z" fill="black"/>
<path opacity="0.15" d="M81.7079 36.2118V41.149C81.7019 41.2809 81.6664 41.4099 81.6039 41.5263C81.5414 41.6427 81.4535 41.7436 81.3468 41.8216C81.2422 41.8782 81.1261 41.9107 81.0072 41.9164C80.8883 41.9221 80.7697 41.901 80.6601 41.8546C80.8442 41.9301 80.9858 41.8263 80.9858 41.6044V36.6484C80.9812 36.5138 80.9414 36.3828 80.8701 36.2685L81.6017 35.8484C81.6661 35.9591 81.7026 36.0839 81.7079 36.2118Z" fill="black"/>
<path d="M73.2591 32.568L76.4121 34.3875C76.4807 34.4306 76.538 34.4895 76.5791 34.5593C76.6201 34.6292 76.6438 34.7078 76.6481 34.7887V35.0861C76.6481 35.2348 76.5442 35.2938 76.4121 35.2206L73.2638 33.4011C73.1958 33.358 73.1389 33.2993 73.0979 33.23C73.0569 33.1607 73.0329 33.0826 73.0278 33.0022V32.7096C73.0278 32.568 73.1317 32.5019 73.2591 32.568Z" fill="#E6E6E6"/>
<path d="M73.0255 38.0928C73.0221 38.0262 73.0031 37.9613 72.9699 37.9034C72.9366 37.8456 72.8902 37.7964 72.8343 37.76L72.1263 37.3564C72.1067 37.3424 72.0837 37.3338 72.0597 37.3313C72.0358 37.3288 72.0115 37.3326 71.9894 37.3423L71.6284 37.5523C71.6087 37.5663 71.5932 37.5853 71.5832 37.6073C71.5733 37.6292 71.5693 37.6534 71.5717 37.6774V38.0668C71.5755 38.1339 71.595 38.1992 71.6286 38.2574C71.6622 38.3156 71.709 38.3651 71.7652 38.4019L72.4732 38.8031C72.4922 38.8176 72.5148 38.8266 72.5385 38.8291C72.5622 38.8316 72.5862 38.8275 72.6078 38.8173L72.9712 38.6096C72.9905 38.5953 73.0058 38.5763 73.0157 38.5544C73.0256 38.5325 73.0298 38.5085 73.0278 38.4845L73.0255 38.0928Z" fill="#FD55A1"/>
<path d="M71.7747 37.5665L72.4827 37.9677C72.5386 38.0046 72.585 38.0542 72.6182 38.1124C72.6515 38.1706 72.6705 38.2359 72.6738 38.3028V38.704C72.6738 38.8267 72.5889 38.8763 72.4827 38.8149L71.7747 38.4137C71.7185 38.3769 71.6717 38.3274 71.638 38.2692C71.6044 38.211 71.5849 38.1457 71.5812 38.0786V37.6892C71.5812 37.5547 71.6685 37.5051 71.7747 37.5665Z" fill="#FD55A1"/>
<path opacity="0.15" d="M73.0255 38.0928V38.4845C73.0277 38.5085 73.0236 38.5326 73.0137 38.5545C73.0037 38.5764 72.9883 38.5954 72.9688 38.6096L72.6196 38.8102C72.6352 38.795 72.6474 38.7766 72.6551 38.7562C72.6629 38.7358 72.666 38.714 72.6644 38.6922V38.3028C72.6621 38.2364 72.6435 38.1715 72.6101 38.114L72.9712 37.904C73.004 37.9617 73.0227 38.0264 73.0255 38.0928Z" fill="black"/>
<path opacity="0.25" d="M72.9712 37.9039L72.6101 38.114C72.5779 38.0548 72.5307 38.0052 72.4732 37.97L71.7652 37.5665C71.7469 37.5536 71.7259 37.5452 71.7037 37.542C71.6816 37.5387 71.659 37.5406 71.6378 37.5476C71.6992 37.5122 71.9564 37.3611 71.9918 37.3446C72.0121 37.3323 72.0353 37.3258 72.0591 37.3258C72.0828 37.3258 72.106 37.3323 72.1263 37.3446L72.8343 37.7482C72.8928 37.7872 72.94 37.8409 72.9712 37.9039Z" fill="black"/>
<path d="M75.1967 39.3483C75.1929 39.2812 75.1734 39.2159 75.1398 39.1577C75.1062 39.0995 75.0594 39.05 75.0032 39.0131L74.307 38.6119C74.2875 38.5975 74.2646 38.5885 74.2405 38.586C74.2164 38.5835 74.1921 38.5876 74.1701 38.5978L73.8066 38.8078C73.7878 38.8219 73.7729 38.8406 73.7634 38.8621C73.7539 38.8836 73.7501 38.9072 73.7524 38.9305V39.3223C73.7558 39.3892 73.7751 39.4543 73.8088 39.5122C73.8424 39.57 73.8894 39.619 73.9459 39.6551L74.6421 40.0586C74.6627 40.0711 74.6864 40.0777 74.7105 40.0777C74.7347 40.0777 74.7583 40.0711 74.779 40.0586L75.14 39.8509C75.1597 39.8369 75.1752 39.818 75.1852 39.796C75.1951 39.7741 75.1991 39.7499 75.1967 39.7259V39.3483Z" fill="#FD55A1"/>
<path d="M73.9459 38.8196L74.6421 39.2232C74.6983 39.2595 74.7451 39.3086 74.7787 39.3664C74.8123 39.4242 74.8318 39.4892 74.8356 39.556V39.9477C74.8356 40.0704 74.7483 40.12 74.6421 40.0586L73.9459 39.648C73.8894 39.612 73.8424 39.563 73.8088 39.5051C73.7751 39.4472 73.7558 39.3821 73.7524 39.3152V38.94C73.7524 38.8078 73.8373 38.7583 73.9459 38.8196Z" fill="#FD55A1"/>
<path opacity="0.15" d="M75.1967 39.3483V39.7377C75.1993 39.7617 75.1955 39.786 75.1855 39.808C75.1755 39.83 75.1598 39.8489 75.14 39.8628L74.7908 40.0634C74.8067 40.0484 74.819 40.03 74.8268 40.0095C74.8346 39.9891 74.8376 39.9671 74.8356 39.9454V39.556C74.833 39.4893 74.8135 39.4243 74.779 39.3672L75.1424 39.1595C75.1755 39.2171 75.1941 39.2819 75.1967 39.3483Z" fill="black"/>
<path opacity="0.25" d="M75.1424 39.1595L74.779 39.3671C74.7468 39.3079 74.6996 39.2583 74.6421 39.2232L73.9341 38.822C73.9161 38.8084 73.8952 38.7994 73.873 38.7957C73.8508 38.792 73.828 38.7937 73.8066 38.8007L74.1606 38.5978C74.1815 38.586 74.2051 38.5798 74.2291 38.5798C74.2531 38.5798 74.2766 38.586 74.2975 38.5978L74.9937 39.0013C75.0558 39.0407 75.1069 39.0951 75.1424 39.1595Z" fill="black"/>
<path d="M77.3679 40.592C77.3641 40.5252 77.3446 40.4603 77.311 40.4025C77.2773 40.3446 77.2305 40.2956 77.1744 40.2592L76.4664 39.8557C76.4471 39.8419 76.4246 39.8333 76.401 39.8308C76.3774 39.8283 76.3536 39.832 76.3318 39.8415L75.9684 40.0516C75.9488 40.0656 75.9332 40.0845 75.9233 40.1065C75.9133 40.1285 75.9094 40.1527 75.9118 40.1766V40.566C75.9156 40.6332 75.935 40.6984 75.9686 40.7566C76.0023 40.8148 76.0491 40.8643 76.1053 40.9012L76.8133 41.3024C76.8326 41.3162 76.8551 41.3247 76.8787 41.3272C76.9023 41.3297 76.9261 41.326 76.9478 41.3165L77.3112 41.1065C77.331 41.0932 77.3468 41.0747 77.3568 41.0531C77.3668 41.0314 77.3706 41.0075 77.3679 40.9838V40.592Z" fill="#FD55A1"/>
<path d="M76.1147 40.0751L76.8227 40.4763C76.8786 40.5133 76.9251 40.5629 76.9583 40.6211C76.9915 40.6793 77.0105 40.7445 77.0139 40.8115V41.2009C77.0139 41.3236 76.9289 41.3731 76.8227 41.3118L76.1147 40.9106C76.0585 40.8738 76.0117 40.8243 75.9781 40.7661C75.9445 40.7079 75.925 40.6426 75.9212 40.5755V40.1861C75.9212 40.0633 76.0085 40.0138 76.1147 40.0751Z" fill="#FD55A1"/>
<path opacity="0.15" d="M77.3679 40.592V40.9838C77.3701 41.0076 77.3658 41.0317 77.3554 41.0533C77.345 41.0749 77.3289 41.0933 77.3089 41.1065L76.9596 41.3094C76.9758 41.2947 76.9884 41.2763 76.9962 41.2558C77.0039 41.2353 77.0068 41.2132 77.0044 41.1914V40.802C77.0022 40.7356 76.9835 40.6707 76.9502 40.6132L77.3112 40.4032C77.3447 40.4608 77.3641 40.5255 77.3679 40.592Z" fill="black"/>
<path opacity="0.25" d="M77.3112 40.4126L76.9502 40.6227C76.9186 40.5631 76.8712 40.5133 76.8133 40.4787L76.1053 40.0752C76.087 40.0623 76.0659 40.0539 76.0438 40.0507C76.0217 40.0474 75.9991 40.0493 75.9778 40.0563C76.0392 40.0209 76.2988 39.8698 76.3318 39.8533C76.3521 39.841 76.3754 39.8345 76.3991 39.8345C76.4228 39.8345 76.4461 39.841 76.4664 39.8533L77.1744 40.2569C77.2329 40.2959 77.2801 40.3496 77.3112 40.4126Z" fill="black"/>
<path d="M83.9806 40.0468V46.2843L83.4661 45.987V45.8666L82.836 45.5102L82.7345 45.5692L82.2177 45.2719V39.0344C82.2177 38.7984 82.3923 38.6875 82.6024 38.7984L83.5865 39.3672C83.7018 39.4407 83.7977 39.5407 83.8663 39.659C83.9349 39.7773 83.9741 39.9103 83.9806 40.0468Z" fill="#455A64"/>
<path d="M83.4661 43.66V45.8619L82.836 45.5102L82.7345 45.5692V43.247C82.7345 43.1668 82.777 43.1266 82.8431 43.1408C82.858 43.1442 82.8723 43.1498 82.8856 43.1573L83.3033 43.3933C83.3496 43.4217 83.3886 43.4606 83.4169 43.507C83.4452 43.5534 83.4621 43.6058 83.4661 43.66Z" fill="#263238"/>
<path d="M83.4661 43.66V45.8619L82.836 45.5102V43.188C82.8335 43.1724 82.8335 43.1564 82.836 43.1408C82.8509 43.1442 82.8652 43.1498 82.8785 43.1573L83.2962 43.3933C83.3439 43.4208 83.3842 43.4594 83.4138 43.5059C83.4434 43.5523 83.4613 43.6052 83.4661 43.66Z" fill="#37474F"/>
<path d="M83.0578 43.5939L82.9776 43.6411C82.9674 43.6582 82.9625 43.6779 82.9634 43.6978C82.9654 43.7404 82.9776 43.7819 82.9989 43.8189C83.0203 43.8559 83.0502 43.8872 83.0862 43.9102C83.1032 43.9207 83.1228 43.9264 83.1428 43.9267L83.2207 43.8818C83.2338 43.8732 83.2442 43.8612 83.2509 43.847C83.2575 43.8329 83.2602 43.8172 83.2584 43.8016C83.2559 43.7591 83.2435 43.7178 83.2222 43.6809C83.2009 43.644 83.1713 43.6126 83.1357 43.5892C83.1233 43.5839 83.1097 43.5816 83.0962 43.5824C83.0827 43.5832 83.0696 43.5871 83.0578 43.5939Z" fill="#FD55A1"/>
<path opacity="0.15" d="M83.0578 43.5939L82.9776 43.6411C82.9674 43.6582 82.9625 43.6779 82.9634 43.6978C82.9654 43.7404 82.9776 43.7819 82.9989 43.8189C83.0203 43.8559 83.0502 43.8872 83.0862 43.9102C83.1032 43.9207 83.1228 43.9264 83.1428 43.9267L83.2207 43.8818C83.2338 43.8732 83.2442 43.8612 83.2509 43.847C83.2575 43.8329 83.2602 43.8172 83.2584 43.8016C83.2559 43.7591 83.2435 43.7178 83.2222 43.6809C83.2009 43.644 83.1713 43.6126 83.1357 43.5892C83.1233 43.5839 83.1097 43.5816 83.0962 43.5824C83.0827 43.5832 83.0696 43.5871 83.0578 43.5939Z" fill="black"/>
<path d="M83.1876 43.8606C83.1876 43.9408 83.1334 43.9715 83.0649 43.9337C83.0289 43.9102 82.999 43.8785 82.9777 43.8412C82.9563 43.8038 82.9442 43.7619 82.9422 43.719C82.9422 43.6411 82.9965 43.6104 83.0649 43.6482C83.1006 43.6715 83.1303 43.7028 83.1516 43.7397C83.173 43.7766 83.1853 43.818 83.1876 43.8606Z" fill="#FD55A1"/>
<path d="M83.0012 39.9784L82.8266 40.0799V40.094C82.8054 40.1331 82.7948 40.1771 82.7959 40.2215C82.8003 40.3161 82.8272 40.4083 82.8744 40.4904C82.9216 40.5725 82.9877 40.6421 83.0673 40.6935C83.1048 40.7168 83.1482 40.729 83.1924 40.7289V40.7454L83.3694 40.6439C83.3964 40.624 83.4177 40.5975 83.4314 40.5669C83.445 40.5363 83.4505 40.5026 83.4472 40.4693C83.4431 40.3749 83.4166 40.2828 83.3698 40.2008C83.323 40.1187 83.2573 40.0489 83.1782 39.9973C83.1524 39.98 83.1229 39.9693 83.092 39.966C83.0612 39.9627 83.03 39.967 83.0012 39.9784Z" fill="#FD55A1"/>
<path opacity="0.15" d="M83.0012 39.9784L82.8266 40.0799V40.094C82.8054 40.1331 82.7948 40.1771 82.7959 40.2215C82.8003 40.3161 82.8272 40.4083 82.8744 40.4904C82.9216 40.5725 82.9877 40.6421 83.0673 40.6935C83.1048 40.7168 83.1482 40.729 83.1924 40.7289V40.7454L83.3694 40.6439C83.3964 40.624 83.4177 40.5975 83.4314 40.5669C83.445 40.5363 83.4505 40.5026 83.4472 40.4693C83.4431 40.3749 83.4166 40.2828 83.3698 40.2008C83.323 40.1187 83.2573 40.0489 83.1782 39.9973C83.1524 39.98 83.1229 39.9693 83.092 39.966C83.0612 39.9627 83.03 39.967 83.0012 39.9784Z" fill="black"/>
<path d="M83.2868 40.566C83.2868 40.7383 83.1664 40.802 83.0177 40.7218C82.9384 40.6701 82.8725 40.6004 82.8253 40.5184C82.7782 40.4364 82.7511 40.3443 82.7463 40.2498C82.7463 40.0775 82.869 40.0138 83.0177 40.094C83.0968 40.1457 83.1625 40.2154 83.2093 40.2975C83.2561 40.3796 83.2826 40.4717 83.2868 40.566Z" fill="#FD55A1"/>
<path d="M83.0578 44.4388L82.9776 44.4836C82.9677 44.5017 82.9628 44.5221 82.9634 44.5426C82.9658 44.5852 82.9781 44.6266 82.9994 44.6635C83.0208 44.7004 83.0505 44.7318 83.0862 44.755C83.1032 44.7656 83.1228 44.7713 83.1428 44.7716L83.2207 44.7267C83.2334 44.7178 83.2436 44.7057 83.2502 44.6916C83.2568 44.6775 83.2596 44.662 83.2584 44.6465C83.2559 44.604 83.2435 44.5626 83.2222 44.5258C83.2009 44.4889 83.1713 44.4575 83.1357 44.4341C83.1233 44.4288 83.1097 44.4264 83.0962 44.4273C83.0827 44.4281 83.0696 44.432 83.0578 44.4388Z" fill="#FD55A1"/>
<path opacity="0.15" d="M83.0578 44.4388L82.9776 44.4836C82.9677 44.5017 82.9628 44.5221 82.9634 44.5426C82.9658 44.5852 82.9781 44.6266 82.9994 44.6635C83.0208 44.7004 83.0505 44.7318 83.0862 44.755C83.1032 44.7656 83.1228 44.7713 83.1428 44.7716L83.2207 44.7267C83.2334 44.7178 83.2436 44.7057 83.2502 44.6916C83.2568 44.6775 83.2596 44.662 83.2584 44.6465C83.2559 44.604 83.2435 44.5626 83.2222 44.5258C83.2009 44.4889 83.1713 44.4575 83.1357 44.4341C83.1233 44.4288 83.1097 44.4264 83.0962 44.4273C83.0827 44.4281 83.0696 44.432 83.0578 44.4388Z" fill="black"/>
<path d="M83.1876 44.7055C83.1876 44.7857 83.1334 44.8164 83.0649 44.7763C83.029 44.7533 82.999 44.722 82.9777 44.685C82.9563 44.6481 82.9442 44.6065 82.9422 44.5639C82.9422 44.486 82.9965 44.4553 83.0649 44.4931C83.1006 44.5164 83.1303 44.5477 83.1516 44.5846C83.173 44.6215 83.1853 44.6629 83.1876 44.7055Z" fill="#FD55A1"/>
<path d="M83.0413 41.2245L82.9328 41.2882C82.9196 41.3128 82.9131 41.3405 82.9139 41.3684C82.917 41.4263 82.9339 41.4825 82.963 41.5326C82.9921 41.5826 83.0327 41.625 83.0814 41.6563C83.104 41.671 83.1301 41.6792 83.157 41.6799L83.2655 41.6162C83.2821 41.6037 83.2951 41.5872 83.3034 41.5681C83.3117 41.5491 83.3149 41.5283 83.3127 41.5077C83.3096 41.4501 83.2931 41.394 83.2644 41.344C83.2357 41.294 83.1957 41.2514 83.1475 41.2197C83.1306 41.2123 83.1123 41.2089 83.0939 41.2097C83.0755 41.2106 83.0575 41.2156 83.0413 41.2245Z" fill="#263238"/>
<path d="M83.216 41.5879C83.216 41.6941 83.1428 41.7366 83.0508 41.6847C83.0022 41.6526 82.9618 41.6097 82.9328 41.5593C82.9037 41.5089 82.8867 41.4525 82.8832 41.3944C82.8832 41.2882 82.9587 41.2457 83.0508 41.2976C83.0991 41.3297 83.1392 41.3727 83.1679 41.4231C83.1966 41.4735 83.2131 41.53 83.216 41.5879Z" fill="#37474F"/>
<path d="M83.0413 42.1378L82.9328 42.1992C82.9196 42.2238 82.9131 42.2515 82.9139 42.2794C82.917 42.3372 82.9339 42.3935 82.963 42.4435C82.9921 42.4936 83.0327 42.536 83.0814 42.5673C83.104 42.582 83.1301 42.5901 83.157 42.5909L83.2655 42.5272C83.2821 42.5147 83.2951 42.4981 83.3034 42.4791C83.3117 42.4601 83.3149 42.4393 83.3127 42.4186C83.31 42.361 83.2936 42.3048 83.2649 42.2547C83.2362 42.2047 83.1959 42.1621 83.1475 42.1307C83.1305 42.1233 83.112 42.1201 83.0936 42.1213C83.0751 42.1226 83.0572 42.1282 83.0413 42.1378Z" fill="#263238"/>
<path d="M83.216 42.5012C83.216 42.6074 83.1428 42.6499 83.0508 42.598C83.0022 42.5659 82.9618 42.523 82.9328 42.4726C82.9037 42.4222 82.8867 42.3658 82.8832 42.3077C82.8832 42.2015 82.9587 42.159 83.0508 42.2109C83.0991 42.243 83.1392 42.286 83.1679 42.3364C83.1966 42.3868 83.2131 42.4433 83.216 42.5012Z" fill="#37474F"/>
<path d="M86.2273 34.7274C86.2246 34.6907 86.2134 34.6552 86.1946 34.6237C86.1757 34.5921 86.1498 34.5654 86.1188 34.5457L85.0945 33.958C85.061 33.9406 85.0237 33.9316 84.986 33.9316C84.9482 33.9316 84.9109 33.9406 84.8774 33.958L83.4614 34.7699C83.4305 34.7893 83.4048 34.816 83.3867 34.8477C83.3686 34.8794 83.3586 34.9151 83.3576 34.9516C83.3604 34.9891 83.3722 35.0253 83.3919 35.0574C83.4116 35.0894 83.4387 35.1162 83.4708 35.1357L84.4904 35.7209C84.5239 35.7383 84.5611 35.7474 84.5989 35.7474C84.6367 35.7474 84.6739 35.7383 84.7075 35.7209L86.1235 34.9068C86.1533 34.8867 86.1781 34.8602 86.1961 34.8291C86.2141 34.798 86.2248 34.7632 86.2273 34.7274Z" fill="#FD55A1"/>
<path opacity="0.2" d="M86.2273 34.7274C86.2246 34.6907 86.2134 34.6552 86.1946 34.6237C86.1757 34.5921 86.1498 34.5654 86.1188 34.5457L85.0945 33.958C85.061 33.9406 85.0237 33.9316 84.986 33.9316C84.9482 33.9316 84.9109 33.9406 84.8774 33.958L83.4614 34.7699C83.4305 34.7893 83.4048 34.816 83.3867 34.8477C83.3686 34.8794 83.3586 34.9151 83.3576 34.9516C83.3604 34.9891 83.3722 35.0253 83.3919 35.0574C83.4116 35.0894 83.4387 35.1162 83.4708 35.1357L84.4904 35.7209C84.5239 35.7383 84.5611 35.7474 84.5989 35.7474C84.6367 35.7474 84.6739 35.7383 84.7075 35.7209L86.1235 34.9068C86.1533 34.8867 86.1781 34.8602 86.1961 34.8291C86.2141 34.798 86.2248 34.7632 86.2273 34.7274Z" fill="white"/>
<path d="M86.1188 34.6708L84.7028 35.4826C84.6692 35.5 84.632 35.509 84.5942 35.509C84.5564 35.509 84.5192 35.5 84.4856 35.4826L83.4614 34.8949C83.4024 34.8595 83.4024 34.8029 83.4614 34.7699L84.8774 33.958C84.911 33.9406 84.9482 33.9316 84.986 33.9316C85.0237 33.9316 85.061 33.9406 85.0945 33.958L86.1188 34.5457C86.1801 34.5811 86.1801 34.6377 86.1188 34.6708Z" fill="#FD55A1"/>
<path opacity="0.5" d="M86.1188 34.6708L84.7028 35.4826C84.6692 35.5 84.632 35.509 84.5942 35.509C84.5564 35.509 84.5192 35.5 84.4856 35.4826L83.4614 34.8949C83.4024 34.8595 83.4024 34.8029 83.4614 34.7699L84.8774 33.958C84.911 33.9406 84.9482 33.9316 84.986 33.9316C85.0237 33.9316 85.061 33.9406 85.0945 33.958L86.1188 34.5457C86.1801 34.5811 86.1801 34.6377 86.1188 34.6708Z" fill="white"/>
<path opacity="0.15" d="M84.488 35.721L83.4685 35.1357C83.4363 35.1162 83.4092 35.0894 83.3895 35.0574C83.3698 35.0254 83.3581 34.9891 83.3552 34.9516C83.3557 34.9179 83.3641 34.8848 83.3797 34.8549C83.3953 34.825 83.4176 34.7991 83.4449 34.7793C83.4 34.8147 83.4048 34.8619 83.459 34.895L84.4833 35.4826C84.5161 35.5019 84.5539 35.5109 84.5918 35.5086V35.7446C84.5558 35.7456 84.52 35.7375 84.488 35.721Z" fill="black"/>
<path d="M85.76 34.2601V34.5221C85.7583 34.549 85.7504 34.5751 85.7369 34.5985C85.7234 34.6218 85.7046 34.6417 85.6822 34.6566L84.6296 35.2631C84.6056 35.2759 84.5789 35.2826 84.5517 35.2826C84.5245 35.2826 84.4978 35.2759 84.4738 35.2631L83.9051 34.928C83.8824 34.9156 83.8635 34.8973 83.8504 34.8751C83.8372 34.8529 83.8303 34.8276 83.8303 34.8017C83.8303 34.7759 83.8372 34.7506 83.8504 34.7284C83.8635 34.7061 83.8824 34.6879 83.9051 34.6755L84.4738 34.3474C84.5245 34.3162 84.5706 34.2781 84.6107 34.2342L84.9765 33.8141C84.9932 33.7951 85.0159 33.7825 85.0408 33.7782C85.0657 33.7739 85.0913 33.7782 85.1134 33.7905L85.6822 34.1185C85.7056 34.1341 85.7249 34.1551 85.7385 34.1798C85.752 34.2044 85.7594 34.232 85.76 34.2601Z" fill="#FD55A1"/>
<path opacity="0.3" d="M85.76 34.2601V34.5221C85.7583 34.549 85.7504 34.5751 85.7369 34.5985C85.7234 34.6218 85.7046 34.6417 85.6822 34.6566L84.6296 35.2631C84.6056 35.2759 84.5789 35.2826 84.5517 35.2826C84.5245 35.2826 84.4978 35.2759 84.4738 35.2631L83.9051 34.928C83.8824 34.9156 83.8635 34.8973 83.8504 34.8751C83.8372 34.8529 83.8303 34.8276 83.8303 34.8017C83.8303 34.7759 83.8372 34.7506 83.8504 34.7284C83.8635 34.7061 83.8824 34.6879 83.9051 34.6755L84.4738 34.3474C84.5245 34.3162 84.5706 34.2781 84.6107 34.2342L84.9765 33.8141C84.9932 33.7951 85.0159 33.7825 85.0408 33.7782C85.0657 33.7739 85.0913 33.7782 85.1134 33.7905L85.6822 34.1185C85.7056 34.1341 85.7249 34.1551 85.7385 34.1798C85.752 34.2044 85.7594 34.232 85.76 34.2601Z" fill="black"/>
<path d="M84.6296 35.1003L85.1984 34.7722C85.2483 34.741 85.2936 34.7029 85.3329 34.659L85.701 34.2365C85.7085 34.2285 85.7139 34.219 85.717 34.2085C85.7202 34.1981 85.7208 34.1871 85.719 34.1764C85.7172 34.1657 85.7129 34.1555 85.7065 34.1467C85.7001 34.1379 85.6918 34.1307 85.6822 34.1256L85.1134 33.7976C85.0913 33.7853 85.0657 33.781 85.0408 33.7853C85.0159 33.7896 84.9932 33.8022 84.9765 33.8212L84.6107 34.2412C84.5706 34.2852 84.5245 34.3233 84.4738 34.3545L83.9051 34.692C83.8626 34.7156 83.8626 34.7557 83.9051 34.7817L84.4762 35.1097C84.5008 35.1199 84.5274 35.1244 84.554 35.1228C84.5806 35.1211 84.6064 35.1134 84.6296 35.1003Z" fill="#FD55A1"/>
<path opacity="0.15" d="M85.6822 34.1256L85.1134 33.7976C85.0913 33.7853 85.0657 33.781 85.0408 33.7853C85.0159 33.7896 84.9932 33.8022 84.9765 33.8212L84.6107 34.2412C84.5904 34.2642 84.5683 34.2855 84.5446 34.305L85.2668 34.7227C85.2905 34.7032 85.3126 34.6819 85.3329 34.659L85.701 34.2365C85.7085 34.2285 85.7139 34.219 85.7171 34.2085C85.7202 34.1981 85.7208 34.1871 85.719 34.1764C85.7172 34.1657 85.7129 34.1555 85.7065 34.1467C85.7001 34.1379 85.6918 34.1307 85.6822 34.1256Z" fill="black"/>
<path opacity="0.15" d="M84.5446 35.1168V35.282C84.52 35.2808 84.4958 35.2744 84.4738 35.2631L83.9074 34.9351C83.8853 34.9218 83.8666 34.9036 83.8527 34.8819C83.8388 34.8602 83.8301 34.8356 83.8272 34.81C83.8291 34.7871 83.8361 34.7649 83.8475 34.7449C83.8589 34.7249 83.8745 34.7077 83.8933 34.6944C83.865 34.7156 83.8697 34.751 83.9074 34.7722L84.4738 35.1003C84.496 35.1108 84.5201 35.1164 84.5446 35.1168Z" fill="black"/>
<path opacity="0.05" d="M85.2668 34.7227L84.5446 34.305C84.5223 34.3233 84.4987 34.3399 84.4738 34.3545L83.9051 34.692C83.8626 34.7156 83.8626 34.7557 83.9051 34.7817L84.4762 35.1097C84.5001 35.1214 84.5263 35.1275 84.5529 35.1275C84.5795 35.1275 84.6057 35.1214 84.6296 35.1097L85.1984 34.7817L85.2668 34.7227Z" fill="black"/>
<path d="M80.7427 30.8641V30.68H80.7875C80.8432 30.5813 80.9248 30.4997 81.0235 30.444C81.235 30.337 81.4686 30.2812 81.7056 30.2813C81.9425 30.2812 82.1762 30.337 82.3876 30.444C82.4869 30.499 82.5687 30.5807 82.6236 30.68H82.6684V30.8641C82.6613 30.9493 82.6313 31.0309 82.5814 31.1003C82.5315 31.1698 82.4637 31.2243 82.3852 31.2582C82.1738 31.3652 81.9402 31.421 81.7032 31.421C81.4662 31.421 81.2326 31.3652 81.0212 31.2582C80.9436 31.2236 80.8768 31.1688 80.8277 31.0994C80.7787 31.0301 80.7493 30.9488 80.7427 30.8641Z" fill="#263238"/>
<path d="M82.39 31.0741C82.7676 30.857 82.7676 30.503 82.39 30.2859C82.1785 30.1789 81.9449 30.1231 81.7079 30.1231C81.471 30.1231 81.2373 30.1789 81.0259 30.2859C80.6506 30.503 80.6506 30.857 81.0259 31.0741C81.2373 31.1811 81.471 31.2369 81.7079 31.2369C81.9449 31.2369 82.1785 31.1811 82.39 31.0741Z" fill="#37474F"/>
<path d="M80.9598 30.6068V30.2882H80.9952C81.0391 30.2135 81.1028 30.1522 81.1793 30.1112C81.3434 30.029 81.5244 29.9862 81.7079 29.9862C81.8915 29.9862 82.0725 30.029 82.2366 30.1112C82.3135 30.1524 82.3779 30.2135 82.423 30.2882H82.456V30.6068C82.45 30.6729 82.4265 30.7361 82.388 30.79C82.3494 30.844 82.2971 30.8866 82.2366 30.9136C82.0725 30.9959 81.8915 31.0387 81.7079 31.0387C81.5244 31.0387 81.3434 30.9959 81.1793 30.9136C81.1187 30.8866 81.0665 30.844 81.0279 30.79C80.9893 30.7361 80.9658 30.6729 80.9598 30.6068Z" fill="#FD55A1"/>
<path opacity="0.15" d="M80.9598 30.6068V30.2882H80.9952C81.0391 30.2135 81.1028 30.1522 81.1793 30.1112C81.3434 30.029 81.5244 29.9862 81.7079 29.9862C81.8915 29.9862 82.0725 30.029 82.2366 30.1112C82.3135 30.1524 82.3779 30.2135 82.423 30.2882H82.456V30.6068C82.45 30.6729 82.4265 30.7361 82.388 30.79C82.3494 30.844 82.2971 30.8866 82.2366 30.9136C82.0725 30.9959 81.8915 31.0387 81.7079 31.0387C81.5244 31.0387 81.3434 30.9959 81.1793 30.9136C81.1187 30.8866 81.0665 30.844 81.0279 30.79C80.9893 30.7361 80.9658 30.6729 80.9598 30.6068Z" fill="black"/>
<path d="M82.2366 30.595C82.5292 30.4251 82.5292 30.1537 82.2366 29.9838C82.0725 29.9016 81.8915 29.8588 81.7079 29.8588C81.5244 29.8588 81.3434 29.9016 81.1793 29.9838C80.8866 30.1537 80.8866 30.4251 81.1793 30.595C81.3434 30.6773 81.5244 30.7201 81.7079 30.7201C81.8915 30.7201 82.0725 30.6773 82.2366 30.595Z" fill="#FD55A1"/>
<path d="M84.5187 29.7714L83.7281 30.2292C83.6833 30.2513 83.634 30.2628 83.5841 30.2628C83.5342 30.2628 83.4849 30.2513 83.4402 30.2292L82.6496 29.7714C82.6323 29.7655 82.6174 29.7544 82.6068 29.7395C82.5963 29.7247 82.5906 29.707 82.5906 29.6888C82.5906 29.6706 82.5963 29.6528 82.6068 29.638C82.6174 29.6232 82.6323 29.6121 82.6496 29.6062L83.4402 29.1507C83.4846 29.1275 83.534 29.1154 83.5841 29.1154C83.6343 29.1154 83.6836 29.1275 83.7281 29.1507L84.5187 29.6062C84.5359 29.6121 84.5508 29.6232 84.5614 29.638C84.572 29.6528 84.5777 29.6706 84.5777 29.6888C84.5777 29.707 84.572 29.7247 84.5614 29.7395C84.5508 29.7544 84.5359 29.7655 84.5187 29.7714Z" fill="#263238"/>
<path d="M84.5187 29.7714L83.7281 30.2292C83.6833 30.2513 83.634 30.2628 83.5841 30.2628C83.5342 30.2628 83.4849 30.2513 83.4402 30.2292L82.6496 29.7714L83.4402 29.3159C83.4849 29.2939 83.5342 29.2824 83.5841 29.2824C83.634 29.2824 83.6833 29.2939 83.7281 29.3159L84.5187 29.7714Z" fill="#37474F"/>
<path d="M83.2396 29.7619V29.6156H83.2561C83.2763 29.5808 83.3057 29.5522 83.341 29.533C83.4167 29.4958 83.4998 29.4764 83.5841 29.4764C83.6684 29.4764 83.7516 29.4958 83.8272 29.533C83.8636 29.5509 83.8933 29.5798 83.9122 29.6156H83.9287V29.7619C83.9259 29.7924 83.915 29.8216 83.8972 29.8465C83.8793 29.8714 83.8552 29.8911 83.8272 29.9035C83.7519 29.9419 83.6686 29.9619 83.5841 29.9619C83.4996 29.9619 83.4163 29.9419 83.341 29.9035C83.3131 29.8911 83.2889 29.8714 83.2711 29.8465C83.2532 29.8216 83.2424 29.7924 83.2396 29.7619Z" fill="#FD55A1"/>
<path opacity="0.15" d="M83.2396 29.7619V29.6156H83.2561C83.2763 29.5808 83.3057 29.5522 83.341 29.533C83.4167 29.4958 83.4998 29.4764 83.5841 29.4764C83.6684 29.4764 83.7516 29.4958 83.8272 29.533C83.8636 29.5509 83.8933 29.5798 83.9122 29.6156H83.9287V29.7619C83.9259 29.7924 83.915 29.8216 83.8972 29.8465C83.8793 29.8714 83.8552 29.8911 83.8272 29.9035C83.7519 29.9419 83.6686 29.9619 83.5841 29.9619C83.4996 29.9619 83.4163 29.9419 83.341 29.9035C83.3131 29.8911 83.2889 29.8714 83.2711 29.8465C83.2532 29.8216 83.2424 29.7924 83.2396 29.7619Z" fill="black"/>
<path d="M83.8272 29.7572C83.8572 29.7476 83.8834 29.7287 83.902 29.7033C83.9205 29.6778 83.9305 29.6471 83.9305 29.6156C83.9305 29.5841 83.9205 29.5534 83.902 29.528C83.8834 29.5025 83.8572 29.4836 83.8272 29.474C83.7516 29.4368 83.6684 29.4174 83.5841 29.4174C83.4998 29.4174 83.4167 29.4368 83.341 29.474C83.311 29.4836 83.2849 29.5025 83.2663 29.528C83.2477 29.5534 83.2377 29.5841 83.2377 29.6156C83.2377 29.6471 83.2477 29.6778 83.2663 29.7033C83.2849 29.7287 83.311 29.7476 83.341 29.7572C83.4167 29.7945 83.4998 29.8139 83.5841 29.8139C83.6684 29.8139 83.7516 29.7945 83.8272 29.7572Z" fill="#FD55A1"/>
<path d="M86.0739 28.8746L85.2833 29.3301C85.2385 29.3521 85.1893 29.3636 85.1394 29.3636C85.0894 29.3636 85.0402 29.3521 84.9954 29.3301L84.2048 28.8746C84.1269 28.8274 84.1269 28.7542 84.2048 28.7094L84.9954 28.2516C85.0402 28.2295 85.0894 28.218 85.1394 28.218C85.1893 28.218 85.2385 28.2295 85.2833 28.2516L86.0739 28.7094C86.1542 28.7542 86.1542 28.8274 86.0739 28.8746Z" fill="#263238"/>
<path d="M86.0739 28.8746L85.2833 29.3301C85.2385 29.3521 85.1893 29.3636 85.1394 29.3636C85.0894 29.3636 85.0402 29.3521 84.9954 29.3301L84.2048 28.8746L84.9954 28.4191C85.0398 28.3959 85.0892 28.3839 85.1394 28.3839C85.1895 28.3839 85.2389 28.3959 85.2833 28.4191L86.0739 28.8746Z" fill="#37474F"/>
<path d="M84.7948 28.8652V28.7188H84.8113C84.8315 28.684 84.8609 28.6555 84.8963 28.6362C84.9716 28.5979 85.0549 28.5779 85.1394 28.5779C85.2239 28.5779 85.3072 28.5979 85.3824 28.6362C85.4188 28.6541 85.4485 28.683 85.4674 28.7188H85.4839V28.8652C85.4812 28.8954 85.4703 28.9243 85.4524 28.9488C85.4346 28.9733 85.4104 28.9925 85.3824 29.0044C85.3072 29.0427 85.2239 29.0627 85.1394 29.0627C85.0549 29.0627 84.9716 29.0427 84.8963 29.0044C84.8686 28.9921 84.8447 28.9728 84.8269 28.9484C84.8091 28.9239 84.798 28.8952 84.7948 28.8652Z" fill="#FD55A1"/>
<path opacity="0.15" d="M84.7948 28.8652V28.7188H84.8113C84.8315 28.684 84.8609 28.6555 84.8963 28.6362C84.9716 28.5979 85.0549 28.5779 85.1394 28.5779C85.2239 28.5779 85.3072 28.5979 85.3824 28.6362C85.4188 28.6541 85.4485 28.683 85.4674 28.7188H85.4839V28.8652C85.4812 28.8954 85.4703 28.9243 85.4524 28.9488C85.4346 28.9733 85.4104 28.9925 85.3824 29.0044C85.3072 29.0427 85.2239 29.0627 85.1394 29.0627C85.0549 29.0627 84.9716 29.0427 84.8963 29.0044C84.8686 28.9921 84.8447 28.9728 84.8269 28.9484C84.8091 28.9239 84.798 28.8952 84.7948 28.8652Z" fill="black"/>
<path d="M85.3824 28.8581C85.4116 28.8479 85.4369 28.829 85.4548 28.8038C85.4726 28.7786 85.4823 28.7485 85.4823 28.7177C85.4823 28.6868 85.4726 28.6567 85.4548 28.6315C85.4369 28.6064 85.4116 28.5874 85.3824 28.5772C85.3072 28.5389 85.2239 28.5189 85.1394 28.5189C85.0549 28.5189 84.9716 28.5389 84.8963 28.5772C84.8671 28.5874 84.8419 28.6064 84.824 28.6315C84.8061 28.6567 84.7965 28.6868 84.7965 28.7177C84.7965 28.7485 84.8061 28.7786 84.824 28.8038C84.8419 28.829 84.8671 28.8479 84.8963 28.8581C84.9716 28.8964 85.0549 28.9164 85.1394 28.9164C85.2239 28.9164 85.3072 28.8964 85.3824 28.8581Z" fill="#FD55A1"/>
<path d="M92.7197 35.9404L92.6276 35.8861C92.0872 35.6029 91.3556 35.6501 90.5461 36.1221C88.8776 37.0803 87.523 39.4261 87.5206 41.3425C87.5144 41.662 87.5582 41.9805 87.6504 42.2865C87.7457 42.6188 87.9331 42.9174 88.1908 43.1479C88.2491 43.1969 88.3106 43.2418 88.3749 43.2824H88.3867L88.4386 43.3107L90.4635 44.4907C90.3794 44.4385 90.3004 44.3784 90.2275 44.3113C89.8334 43.9503 89.6021 43.3461 89.6021 42.5461C89.6021 40.6227 90.9615 38.2839 92.63 37.3257C93.3238 36.9293 93.961 36.8301 94.4708 36.993C94.5527 37.0186 94.6318 37.0526 94.7068 37.0945L92.7197 35.9404Z" fill="#FD55A1"/>
<path opacity="0.25" d="M92.7197 35.9404L92.6276 35.8861C92.0872 35.6029 91.3556 35.6501 90.5461 36.1221C88.8776 37.0803 87.523 39.4261 87.5206 41.3425C87.5144 41.662 87.5582 41.9805 87.6504 42.2865C87.7457 42.6188 87.9331 42.9174 88.1908 43.1479C88.2491 43.1969 88.3106 43.2418 88.3749 43.2824H88.3867L88.4386 43.3107L90.4635 44.4907C90.3794 44.4385 90.3004 44.3784 90.2275 44.3113C89.8334 43.9503 89.6021 43.3461 89.6021 42.5461C89.6021 40.6227 90.9615 38.2839 92.63 37.3257C93.3238 36.9293 93.961 36.8301 94.4708 36.993C94.5527 37.0186 94.6318 37.0526 94.7068 37.0945L92.7197 35.9404Z" fill="black"/>
<path d="M88.1885 43.1502C88.2463 43.1998 88.3078 43.2447 88.3726 43.2848L87.3058 42.6641H87.294C86.7583 42.3431 86.4279 41.6705 86.4279 40.7171C86.4279 38.7937 87.7873 36.4573 89.4558 35.4991C89.8616 35.2472 90.3261 35.1057 90.8034 35.0885C91.0786 35.086 91.3496 35.156 91.5892 35.2914L92.6324 35.8956C92.0919 35.6124 91.3603 35.6596 90.5508 36.1316C88.8823 37.0898 87.5277 39.4356 87.5253 41.3519C87.5192 41.6714 87.563 41.9899 87.6551 42.2959C87.7479 42.6257 87.9329 42.9221 88.1885 43.1502Z" fill="#455A64"/>
<path d="M98.9454 40.9932C98.9454 42.9166 97.5884 45.253 95.9198 46.2111C95.5141 46.463 95.0496 46.6046 94.5723 46.6218C94.2988 46.6244 94.0295 46.5553 93.7911 46.4212L90.5249 44.5332L90.4824 44.5096C90.3983 44.4574 90.3193 44.3973 90.2464 44.3302C89.8523 43.9691 89.621 43.365 89.621 42.5649C89.621 40.6415 90.9804 38.3028 92.6489 37.3446C93.3427 36.9481 93.9799 36.849 94.4897 37.0119C94.5716 37.0375 94.6507 37.0715 94.7257 37.1133H94.7398L94.8248 37.1629L98.0556 39.0367C98.6102 39.3506 98.9477 40.0279 98.9454 40.9932Z" fill="#37474F"/>
<path d="M89.444 43.66C89.4294 43.6643 89.4138 43.6643 89.3992 43.66L88.2569 43.0039C88.2398 42.9902 88.2281 42.9709 88.224 42.9494C88.2198 42.9279 88.2235 42.9056 88.2343 42.8866C88.2451 42.8676 88.2624 42.853 88.2829 42.8455C88.3035 42.838 88.3261 42.8381 88.3466 42.8458L89.4888 43.5019C89.5096 43.5142 89.5249 43.5341 89.5315 43.5573C89.5381 43.5806 89.5355 43.6055 89.5242 43.627C89.5142 43.6382 89.5018 43.647 89.4879 43.6527C89.474 43.6584 89.459 43.6609 89.444 43.66Z" fill="#37474F"/>
<path d="M89.208 42.8387C89.1924 42.8381 89.1771 42.8341 89.1632 42.8269L88.028 42.1708C88.0071 42.1585 87.992 42.1385 87.9858 42.1151C87.9796 42.0917 87.9829 42.0667 87.995 42.0457C88.0008 42.0352 88.0088 42.0259 88.0183 42.0185C88.0278 42.0111 88.0388 42.0057 88.0505 42.0026C88.0621 41.9995 88.0743 41.9988 88.0863 42.0005C88.0982 42.0023 88.1097 42.0064 88.12 42.0127L89.2623 42.6688C89.279 42.6793 89.292 42.695 89.2991 42.7135C89.3062 42.732 89.3072 42.7522 89.3019 42.7713C89.2966 42.7904 89.2853 42.8073 89.2697 42.8194C89.254 42.8315 89.2349 42.8383 89.2151 42.8387H89.208Z" fill="#37474F"/>
<path d="M89.1254 42.0693C89.1099 42.0728 89.0937 42.0728 89.0782 42.0693L87.936 41.4109C87.9257 41.405 87.9167 41.3972 87.9095 41.3878C87.9023 41.3785 87.897 41.3678 87.8939 41.3564C87.8909 41.345 87.8901 41.3331 87.8916 41.3214C87.8932 41.3097 87.897 41.2984 87.9029 41.2882C87.9148 41.2669 87.9347 41.2513 87.9581 41.2446C87.9816 41.238 88.0067 41.2409 88.028 41.2528L89.1702 41.9112C89.1869 41.9217 89.1997 41.9371 89.2069 41.9554C89.2141 41.9736 89.2153 41.9937 89.2103 42.0127C89.2053 42.0317 89.1944 42.0485 89.1791 42.0608C89.1638 42.0732 89.145 42.0803 89.1254 42.0811V42.0693Z" fill="#37474F"/>
<path d="M89.1679 41.3684C89.1532 41.3727 89.1377 41.3727 89.123 41.3684L87.9808 40.7123C87.9702 40.7065 87.961 40.6985 87.9536 40.689C87.9461 40.6795 87.9407 40.6685 87.9376 40.6568C87.9345 40.6452 87.9338 40.633 87.9356 40.621C87.9373 40.6091 87.9415 40.5976 87.9478 40.5873C87.9536 40.577 87.9615 40.568 87.9708 40.5608C87.9802 40.5536 87.9909 40.5483 88.0023 40.5453C88.0137 40.5422 88.0256 40.5414 88.0373 40.5429C88.049 40.5445 88.0603 40.5483 88.0705 40.5542L89.2127 41.2103C89.2335 41.2227 89.2488 41.2425 89.2554 41.2658C89.262 41.2891 89.2594 41.314 89.2481 41.3354C89.2381 41.3466 89.2257 41.3554 89.2118 41.3612C89.1979 41.3669 89.1829 41.3694 89.1679 41.3684Z" fill="#37474F"/>
<path d="M89.3614 40.6982C89.3468 40.7025 89.3312 40.7025 89.3166 40.6982L88.1743 40.0421C88.1572 40.0285 88.1455 40.0091 88.1414 39.9876C88.1373 39.9661 88.1409 39.9439 88.1517 39.9248C88.1625 39.9058 88.1798 39.8912 88.2003 39.8837C88.2209 39.8762 88.2435 39.8763 88.264 39.884L89.4062 40.5401C89.427 40.5524 89.4423 40.5723 89.4489 40.5956C89.4555 40.6188 89.4529 40.6437 89.4416 40.6652C89.4319 40.6767 89.4195 40.6857 89.4055 40.6914C89.3916 40.6972 89.3764 40.6995 89.3614 40.6982Z" fill="#37474F"/>
<path d="M89.6304 40.0374C89.6144 40.0374 89.5987 40.0325 89.5856 40.0232L88.441 39.3672C88.4292 39.3619 88.4186 39.3542 88.4099 39.3446C88.4012 39.335 88.3947 39.3237 88.3907 39.3114C88.3867 39.2991 88.3854 39.286 88.3867 39.2732C88.3881 39.2603 88.3922 39.2479 88.3987 39.2367C88.4052 39.2255 88.414 39.2158 88.4245 39.2083C88.435 39.2007 88.447 39.1954 88.4597 39.1928C88.4724 39.1902 88.4855 39.1903 88.4981 39.1931C88.5107 39.1959 88.5226 39.2013 88.533 39.209L89.6753 39.8675C89.6858 39.8731 89.695 39.8808 89.7024 39.8901C89.7098 39.8995 89.7152 39.9102 89.7183 39.9217C89.7214 39.9332 89.7221 39.9452 89.7204 39.957C89.7187 39.9688 89.7146 39.9801 89.7083 39.9902C89.7007 40.0043 89.6895 40.0161 89.6758 40.0244C89.6621 40.0327 89.6465 40.0372 89.6304 40.0374Z" fill="#37474F"/>
<path d="M89.9656 39.3955C89.9492 39.3949 89.9331 39.3909 89.9184 39.3837L88.7761 38.7253C88.7553 38.7129 88.7401 38.6929 88.7339 38.6695C88.7277 38.6461 88.731 38.6212 88.7431 38.6002C88.7558 38.5798 88.7758 38.565 88.7991 38.5589C88.8223 38.5527 88.847 38.5557 88.8682 38.5671L90.0104 39.2256C90.0209 39.2312 90.0301 39.2389 90.0375 39.2482C90.0449 39.2576 90.0503 39.2683 90.0534 39.2798C90.0565 39.2913 90.0572 39.3033 90.0555 39.3151C90.0538 39.3269 90.0497 39.3382 90.0434 39.3483C90.0359 39.3624 90.0246 39.3742 90.0109 39.3825C89.9972 39.3908 89.9816 39.3953 89.9656 39.3955Z" fill="#37474F"/>
<path d="M90.3597 38.789C90.3429 38.789 90.3265 38.7841 90.3125 38.7748L89.1702 38.1187C89.1494 38.1064 89.1342 38.0864 89.128 38.063C89.1219 38.0395 89.1251 38.0146 89.1372 37.9936C89.1499 37.9732 89.17 37.9585 89.1932 37.9523C89.2164 37.9462 89.2411 37.9491 89.2623 37.9606L90.4045 38.619C90.4211 38.6295 90.434 38.6449 90.4412 38.6632C90.4484 38.6814 90.4496 38.7015 90.4446 38.7205C90.4396 38.7395 90.4287 38.7563 90.4134 38.7687C90.3981 38.781 90.3793 38.7881 90.3597 38.789Z" fill="#37474F"/>
<path d="M90.8034 38.232C90.7877 38.2318 90.7723 38.2277 90.7585 38.2202L89.6139 37.5618C89.5937 37.5495 89.579 37.5299 89.5728 37.507C89.5667 37.4842 89.5695 37.4598 89.5809 37.439C89.5932 37.4182 89.6131 37.403 89.6363 37.3964C89.6596 37.3898 89.6845 37.3924 89.7059 37.4036L90.8482 38.0621C90.8588 38.068 90.868 38.0759 90.8754 38.0854C90.8829 38.095 90.8883 38.1059 90.8914 38.1176C90.8944 38.1293 90.8951 38.1415 90.8934 38.1534C90.8917 38.1654 90.8875 38.1769 90.8812 38.1872C90.8732 38.2007 90.8618 38.2119 90.8481 38.2197C90.8345 38.2276 90.8191 38.2318 90.8034 38.232Z" fill="#37474F"/>
<path d="M91.2919 37.7317C91.2765 37.7363 91.2601 37.7363 91.2447 37.7317L90.1024 37.0756C90.0842 37.0621 90.0716 37.0424 90.0671 37.0202C90.0625 36.998 90.0663 36.9749 90.0777 36.9553C90.0891 36.9358 90.1073 36.9211 90.1288 36.9141C90.1504 36.9071 90.1738 36.9083 90.1945 36.9175L91.3367 37.5736C91.3576 37.5859 91.3727 37.6059 91.3789 37.6293C91.3851 37.6527 91.3818 37.6776 91.3698 37.6986C91.3604 37.71 91.3484 37.7189 91.3348 37.7246C91.3213 37.7304 91.3065 37.7328 91.2919 37.7317Z" fill="#37474F"/>
<path d="M91.804 37.3116C91.7892 37.3148 91.7739 37.3148 91.7592 37.3116L90.624 36.6414C90.6134 36.6355 90.6042 36.6276 90.5967 36.618C90.5893 36.6085 90.5839 36.5975 90.5808 36.5859C90.5777 36.5742 90.577 36.562 90.5788 36.55C90.5805 36.5381 90.5847 36.5266 90.591 36.5163C90.6032 36.4961 90.6228 36.4813 90.6457 36.4752C90.6685 36.469 90.6929 36.4719 90.7137 36.4832L91.8559 37.1417C91.8664 37.1474 91.8756 37.155 91.883 37.1643C91.8905 37.1736 91.896 37.1842 91.8993 37.1956C91.9026 37.2071 91.9036 37.219 91.9022 37.2308C91.9008 37.2426 91.8971 37.254 91.8913 37.2644C91.8828 37.2798 91.87 37.2924 91.8546 37.3008C91.8391 37.3091 91.8215 37.3129 91.804 37.3116Z" fill="#37474F"/>
<path d="M92.4365 36.9434C92.4217 36.9466 92.4064 36.9466 92.3916 36.9434L91.2494 36.285C91.2388 36.2791 91.2296 36.2712 91.2221 36.2617C91.2147 36.2521 91.2093 36.2412 91.2062 36.2295C91.2031 36.2178 91.2024 36.2056 91.2042 36.1937C91.2059 36.1817 91.2101 36.1702 91.2164 36.1599C91.2253 36.1381 91.2423 36.1206 91.2638 36.1109C91.2853 36.1012 91.3097 36.1002 91.332 36.108L92.4742 36.7664C92.4847 36.7721 92.4939 36.7798 92.5013 36.7891C92.5088 36.7983 92.5143 36.809 92.5176 36.8204C92.5209 36.8318 92.5219 36.8438 92.5205 36.8556C92.5192 36.8674 92.5154 36.8788 92.5096 36.8892C92.503 36.9037 92.4928 36.9162 92.48 36.9257C92.4672 36.9352 92.4523 36.9413 92.4365 36.9434Z" fill="#37474F"/>
<path d="M93.1657 36.698C93.1493 36.6977 93.1332 36.6937 93.1185 36.6862L91.9763 36.0301C91.9645 36.0249 91.9538 36.0172 91.9452 36.0076C91.9365 35.998 91.93 35.9867 91.926 35.9743C91.922 35.962 91.9206 35.949 91.922 35.9361C91.9234 35.9233 91.9275 35.9108 91.934 35.8997C91.9405 35.8885 91.9493 35.8788 91.9598 35.8712C91.9703 35.8637 91.9823 35.8584 91.995 35.8558C92.0077 35.8532 92.0207 35.8533 92.0334 35.8561C92.046 35.8589 92.0579 35.8643 92.0683 35.872L93.2106 36.5281C93.2272 36.5385 93.24 36.554 93.2473 36.5722C93.2545 36.5905 93.2557 36.6106 93.2506 36.6295C93.2456 36.6485 93.2347 36.6654 93.2194 36.6777C93.2041 36.69 93.1853 36.6971 93.1657 36.698Z" fill="#37474F"/>
<path opacity="0.15" d="M92.6064 42.0812C92.3322 42.7499 92.1842 43.4636 92.1698 44.1863C92.1487 44.7122 92.2745 45.2336 92.5332 45.692L90.5225 44.5285L90.4777 44.5025L88.4575 43.3225L88.408 43.2942H88.3938L87.3247 42.6735H87.3106C86.7748 42.3526 86.4444 41.68 86.4468 40.7265C86.4605 40.0453 86.5997 39.3725 86.8574 38.7418L92.6064 42.0812Z" fill="black"/>
<path d="M97.822 37.8709C97.1683 37.4886 96.2668 37.5381 95.2661 38.1069C93.2648 39.2562 91.6412 42.0599 91.6364 44.3656C91.6364 45.4961 92.0211 46.2937 92.6536 46.6808C92.866 46.8129 94.2867 47.5823 94.4873 47.7003C95.141 48.0826 96.0449 48.0331 97.0479 47.4643C99.0468 46.315 100.673 43.5137 100.678 41.2056C100.678 40.0681 100.283 39.2657 99.6439 38.881C99.4362 38.7559 98.0226 37.996 97.822 37.8709Z" fill="#455A64"/>
<path d="M92.0565 46.0837C92.075 46.1164 92.0955 46.1479 92.1179 46.1781C92.0943 46.1474 92.073 46.1144 92.0494 46.079L92.0565 46.0837Z" fill="#455A64"/>
<path d="M93.4324 45.3686C93.4324 47.6767 95.0466 48.616 97.0456 47.4643C99.0445 46.3126 100.673 43.5137 100.678 41.2056C100.682 38.8975 99.0634 37.9606 97.0621 39.1099C95.0608 40.2592 93.4371 43.0629 93.4324 45.3686Z" fill="#37474F"/>
<path d="M95.4313 47.0655C94.4283 47.0655 94.3221 45.8855 94.3245 45.371C94.3245 43.3862 95.7853 40.8728 97.5058 39.884C97.8601 39.6595 98.2668 39.531 98.6858 39.5111C99.6888 39.5111 99.795 40.6911 99.7926 41.2056C99.7926 43.1904 98.3318 45.7038 96.609 46.6926C96.2544 46.9167 95.8479 47.0452 95.429 47.0655H95.4313Z" fill="#263238"/>
<path d="M98.6008 40.0162C98.6009 39.8504 98.5899 39.6848 98.5678 39.5206C98.1913 39.5618 97.8286 39.6859 97.5058 39.884C95.7853 40.8728 94.3268 43.3862 94.3245 45.371C94.3244 45.5368 94.3354 45.7023 94.3575 45.8666C94.7334 45.8257 95.0953 45.7015 95.4172 45.5032C97.14 44.5143 98.5961 42.008 98.6008 40.0162Z" fill="#FD55A1"/>
<path opacity="0.3" d="M98.6008 40.0162C98.6009 39.8504 98.5899 39.6848 98.5678 39.5206C98.1913 39.5618 97.8286 39.6859 97.5058 39.884C95.7853 40.8728 94.3268 43.3862 94.3245 45.371C94.3244 45.5368 94.3354 45.7023 94.3575 45.8666C94.7334 45.8257 95.0953 45.7015 95.4172 45.5032C97.14 44.5143 98.5961 42.008 98.6008 40.0162Z" fill="black"/>
<path d="M96.5736 40.9979C97.2532 40.1766 98.1312 39.9052 98.268 40.2097C98.4049 40.5141 97.9707 43.4783 95.1056 45.2176C95.1056 45.2176 96.6562 43.8818 97.409 42.1968C97.8527 41.2103 97.4491 40.4032 96.5736 40.9979Z" fill="#E0E0E0"/>
<path opacity="0.15" d="M94.4 47.6578C94.3882 47.6578 94.3764 47.6437 94.3622 47.6389L94.3339 47.6224L94.2749 47.5894L94.2254 47.5611L94.1168 47.5044L93.8808 47.3676L93.017 46.8956L92.8164 46.7823L92.6607 46.6926C92.5771 46.6441 92.4981 46.588 92.4247 46.525L92.3256 46.433C92.2716 46.3795 92.2219 46.3219 92.1769 46.2607C92.1559 46.2358 92.1362 46.2098 92.1179 46.1828C92.0955 46.1526 92.0751 46.1211 92.0565 46.0884C91.7628 45.5691 91.6198 44.9782 91.6435 44.3821C91.6607 43.5631 91.8287 42.7543 92.1391 41.9962C92.1785 41.8923 92.2209 41.7909 92.2666 41.6917C92.2996 41.6186 92.3303 41.5431 92.368 41.4699C92.4058 41.3967 92.4388 41.3236 92.4742 41.2504L94.256 42.2841C93.7507 43.242 93.4706 44.3026 93.4371 45.3851C93.4142 45.9752 93.5529 46.5603 93.8383 47.0773C93.9809 47.3095 94.1726 47.5076 94.4 47.6578Z" fill="black"/>
<path d="M78.1939 23.3829V23.128H78.2552C78.3346 22.9931 78.4498 22.8828 78.588 22.8094C78.8822 22.6594 79.2077 22.5812 79.5379 22.5812C79.8681 22.5812 80.1936 22.6594 80.4878 22.8094C80.6265 22.8822 80.7418 22.9926 80.8206 23.128H80.8819V23.3852C80.8707 23.5033 80.8283 23.6162 80.7591 23.7124C80.6898 23.8086 80.5962 23.8847 80.4878 23.9328C80.1936 24.0828 79.8681 24.161 79.5379 24.161C79.2077 24.161 78.8822 24.0828 78.588 23.9328C78.4793 23.8845 78.3855 23.8081 78.3162 23.7114C78.2469 23.6147 78.2047 23.5013 78.1939 23.3829Z" fill="#263238"/>
<path d="M80.4878 23.6755C81.0117 23.3711 81.0117 22.8802 80.4878 22.5781C80.1933 22.4292 79.8679 22.3516 79.5379 22.3516C79.2079 22.3516 78.8825 22.4292 78.588 22.5781C78.0641 22.8802 78.0641 23.3711 78.588 23.6755C78.8825 23.8244 79.2079 23.902 79.5379 23.902C79.8679 23.902 80.1933 23.8244 80.4878 23.6755Z" fill="#37474F"/>
<path d="M86.9282 22.5663L80.7922 19.0263C80.6336 18.9347 80.4537 18.8865 80.2705 18.8866C80.0874 18.8866 79.9075 18.9348 79.7489 19.0264C79.5903 19.1181 79.4586 19.2498 79.3671 19.4085C79.2756 19.5671 79.2275 19.747 79.2276 19.9302V23.0124C79.2316 23.0385 79.2421 23.0633 79.2582 23.0843C79.2743 23.1053 79.2954 23.122 79.3196 23.1327C79.3892 23.168 79.4663 23.186 79.5444 23.1851C79.6224 23.1843 79.6991 23.1647 79.768 23.128C79.7923 23.1177 79.8134 23.1011 79.8291 23.08C79.8449 23.0588 79.8547 23.0339 79.8577 23.0076V19.9255C79.8574 19.8521 79.8768 19.7799 79.9137 19.7164C79.9506 19.653 80.0038 19.6005 80.0677 19.5644C80.1311 19.5261 80.2037 19.5058 80.2778 19.5058C80.3518 19.5058 80.4244 19.5261 80.4878 19.5644L86.6238 23.1044C86.6591 23.1251 86.6981 23.1386 86.7386 23.1441C86.7791 23.1496 86.8203 23.147 86.8598 23.1364C86.8994 23.1259 86.9364 23.1076 86.9688 23.0827C87.0012 23.0577 87.0283 23.0266 87.0486 22.9911C87.0885 22.9187 87.0983 22.8335 87.0757 22.754C87.0532 22.6744 87.0002 22.607 86.9282 22.5663Z" fill="#263238"/>
<path d="M95.318 27.0149C94.9334 26.3541 87.8935 21.8229 86.0645 20.7633C85.9478 20.7031 85.8168 20.6765 85.6859 20.6865C85.5551 20.6965 85.4296 20.7427 85.3234 20.8199C85.0253 21.0145 84.7772 21.2765 84.5992 21.5849C84.4213 21.8932 84.3185 22.2391 84.2992 22.5946C84.2846 22.7253 84.3067 22.8574 84.363 22.9762C84.4193 23.095 84.5075 23.1957 84.6178 23.2672C86.461 24.3292 93.7345 28.202 94.728 28.1572C94.8231 28.1572 94.9172 28.1384 95.0049 28.102C95.0927 28.0655 95.1724 28.0121 95.2395 27.9448C95.3066 27.8775 95.3597 27.7976 95.3959 27.7097C95.4321 27.6218 95.4505 27.5277 95.4502 27.4326C95.4514 27.2829 95.4052 27.1367 95.318 27.0149Z" fill="#FD55A1"/>
<path opacity="0.1" d="M95.4195 27.6356C95.2142 27.9235 94.8531 28.0722 93.7156 27.579C92.6583 27.107 86.5129 23.5292 84.337 22.2666C84.3138 22.3736 84.3019 22.4828 84.3016 22.5923C84.287 22.7229 84.3091 22.855 84.3654 22.9738C84.4216 23.0926 84.5099 23.1934 84.6202 23.2649C86.4633 24.3269 93.7368 28.1996 94.7304 28.1548C94.8864 28.1563 95.0386 28.1062 95.1632 28.0123C95.2878 27.9184 95.3779 27.786 95.4195 27.6356Z" fill="black"/>
<path d="M77.8045 29.854C77.8075 29.8178 77.8189 29.7827 77.8377 29.7516C77.8566 29.7205 77.8823 29.6942 77.913 29.6746L78.9373 29.0846C78.9708 29.0673 79.0081 29.0582 79.0458 29.0582C79.0836 29.0582 79.1208 29.0673 79.1544 29.0846L79.886 29.5071C79.9172 29.5267 79.9431 29.5538 79.9612 29.586C79.9794 29.6181 79.9892 29.6543 79.9898 29.6912C79.9866 29.7282 79.9747 29.764 79.955 29.7956C79.9353 29.8272 79.9084 29.8537 79.8766 29.8729L78.857 30.4605C78.8232 30.4768 78.7861 30.4853 78.7485 30.4853C78.7109 30.4853 78.6738 30.4768 78.6399 30.4605L77.913 30.0357C77.882 30.016 77.8561 29.9893 77.8372 29.9577C77.8184 29.9262 77.8072 29.8907 77.8045 29.854Z" fill="#FD55A1"/>
<path opacity="0.2" d="M77.8045 29.854C77.8075 29.8178 77.8189 29.7827 77.8377 29.7516C77.8566 29.7205 77.8823 29.6942 77.913 29.6746L78.9373 29.0846C78.9708 29.0673 79.0081 29.0582 79.0458 29.0582C79.0836 29.0582 79.1208 29.0673 79.1544 29.0846L79.886 29.5071C79.9172 29.5267 79.9431 29.5538 79.9612 29.586C79.9794 29.6181 79.9892 29.6543 79.9898 29.6912C79.9866 29.7282 79.9747 29.764 79.955 29.7956C79.9353 29.8272 79.9084 29.8537 79.8766 29.8729L78.857 30.4605C78.8232 30.4768 78.7861 30.4853 78.7485 30.4853C78.7109 30.4853 78.6738 30.4768 78.6399 30.4605L77.913 30.0357C77.882 30.016 77.8561 29.9893 77.8372 29.9577C77.8184 29.9262 77.8072 29.8907 77.8045 29.854Z" fill="white"/>
<path d="M77.913 29.7997L78.6446 30.2222C78.6782 30.2395 78.7154 30.2486 78.7532 30.2486C78.791 30.2486 78.8282 30.2395 78.8618 30.2222L79.886 29.6322C79.9474 29.5991 79.9474 29.5425 79.886 29.5071L79.1544 29.0846C79.1209 29.0673 79.0836 29.0582 79.0458 29.0582C79.0081 29.0582 78.9708 29.0673 78.9373 29.0846L77.913 29.6746C77.854 29.7077 77.854 29.7643 77.913 29.7997Z" fill="#FD55A1"/>
<path opacity="0.5" d="M77.913 29.7997L78.6446 30.2222C78.6782 30.2395 78.7154 30.2486 78.7532 30.2486C78.791 30.2486 78.8282 30.2395 78.8618 30.2222L79.886 29.6322C79.9474 29.5991 79.9474 29.5425 79.886 29.5071L79.1544 29.0846C79.1209 29.0673 79.0836 29.0582 79.0458 29.0582C79.0081 29.0582 78.9708 29.0673 78.9373 29.0846L77.913 29.6746C77.854 29.7077 77.854 29.7643 77.913 29.7997Z" fill="white"/>
<path opacity="0.15" d="M78.857 30.4605L79.8766 29.8729C79.9084 29.8537 79.9353 29.8272 79.955 29.7956C79.9747 29.764 79.9866 29.7282 79.9898 29.6912C79.9892 29.6577 79.981 29.6249 79.9659 29.595C79.9508 29.5652 79.9291 29.5392 79.9025 29.5189C79.945 29.5519 79.9403 29.6015 79.886 29.6322L78.8618 30.2222C78.8282 30.2394 78.7909 30.2483 78.7532 30.2481V30.4841C78.7892 30.4843 78.8247 30.4762 78.857 30.4605Z" fill="black"/>
<path d="M71.272 26.104C71.2751 26.0677 71.2864 26.0327 71.3053 26.0016C71.3241 25.9704 71.3499 25.9441 71.3806 25.9246L72.4072 25.3346C72.441 25.3183 72.4781 25.3098 72.5157 25.3098C72.5533 25.3098 72.5904 25.3183 72.6243 25.3346L73.3535 25.757C73.3844 25.7773 73.4101 25.8045 73.4285 25.8364C73.447 25.8684 73.4576 25.9043 73.4597 25.9411C73.455 25.9781 73.4425 26.0136 73.423 26.0454C73.4034 26.0771 73.3773 26.1043 73.3464 26.1252L72.3246 26.7105C72.291 26.7279 72.2538 26.7369 72.216 26.7369C72.1782 26.7369 72.141 26.7279 72.1074 26.7105L71.3806 26.2857C71.3496 26.2659 71.3236 26.2392 71.3048 26.2077C71.2859 26.1761 71.2747 26.1406 71.272 26.104Z" fill="#FD55A1"/>
<path opacity="0.2" d="M71.272 26.104C71.2751 26.0677 71.2864 26.0327 71.3053 26.0016C71.3241 25.9704 71.3499 25.9441 71.3806 25.9246L72.4072 25.3346C72.441 25.3183 72.4781 25.3098 72.5157 25.3098C72.5533 25.3098 72.5904 25.3183 72.6243 25.3346L73.3535 25.757C73.3844 25.7773 73.4101 25.8045 73.4285 25.8364C73.447 25.8684 73.4576 25.9043 73.4597 25.9411C73.455 25.9781 73.4425 26.0136 73.423 26.0454C73.4034 26.0771 73.3773 26.1043 73.3464 26.1252L72.3246 26.7105C72.291 26.7279 72.2538 26.7369 72.216 26.7369C72.1782 26.7369 72.141 26.7279 72.1074 26.7105L71.3806 26.2857C71.3496 26.2659 71.3236 26.2392 71.3048 26.2077C71.2859 26.1761 71.2747 26.1406 71.272 26.104Z" fill="white"/>
<path d="M71.3853 26.0497L72.1169 26.4721C72.1504 26.4895 72.1877 26.4986 72.2254 26.4986C72.2632 26.4986 72.3005 26.4895 72.334 26.4721L73.3582 25.8845C73.3722 25.8806 73.3845 25.8723 73.3933 25.8608C73.4021 25.8493 73.4068 25.8352 73.4068 25.8208C73.4068 25.8063 73.4021 25.7922 73.3933 25.7807C73.3845 25.7692 73.3722 25.7609 73.3582 25.757L72.629 25.3346C72.5951 25.3183 72.558 25.3098 72.5204 25.3098C72.4829 25.3098 72.4457 25.3183 72.4119 25.3346L71.3853 25.9246C71.3263 25.96 71.3263 26.0166 71.3853 26.0497Z" fill="#FD55A1"/>
<path opacity="0.5" d="M71.3853 26.0497L72.1169 26.4721C72.1504 26.4895 72.1877 26.4986 72.2254 26.4986C72.2632 26.4986 72.3005 26.4895 72.334 26.4721L73.3582 25.8845C73.3722 25.8806 73.3845 25.8723 73.3933 25.8608C73.4021 25.8493 73.4068 25.8352 73.4068 25.8208C73.4068 25.8063 73.4021 25.7922 73.3933 25.7807C73.3845 25.7692 73.3722 25.7609 73.3582 25.757L72.629 25.3346C72.5951 25.3183 72.558 25.3098 72.5204 25.3098C72.4829 25.3098 72.4457 25.3183 72.4119 25.3346L71.3853 25.9246C71.3263 25.96 71.3263 26.0166 71.3853 26.0497Z" fill="white"/>
<path opacity="0.15" d="M72.3293 26.7105L73.3512 26.1228C73.3826 26.1033 73.409 26.0768 73.4283 26.0452C73.4475 26.0136 73.4591 25.978 73.4621 25.9411C73.462 25.9076 73.454 25.8745 73.4389 25.8446C73.4237 25.8147 73.4018 25.7887 73.3748 25.7688C73.4196 25.8042 73.4125 25.8514 73.3582 25.8845L72.334 26.4721C72.301 26.4909 72.2634 26.4999 72.2254 26.4981V26.7341C72.2615 26.7351 72.2972 26.727 72.3293 26.7105Z" fill="black"/>
<path d="M72.9523 24.1452V25.7972L72.3033 26.1724V23.9705C72.3033 23.8572 72.3836 23.81 72.4827 23.8667L72.9523 24.1452Z" fill="black"/>
<path d="M79.4329 26.904V29.5897L78.824 29.9366L78.4063 29.7006V27.4987C78.4029 27.4373 78.3852 27.3775 78.3544 27.3242C78.3237 27.2709 78.2808 27.2256 78.2293 27.1919L73.1482 24.2584L72.4921 23.8785C72.393 23.8218 72.3128 23.8785 72.3128 23.9823V26.1842L71.895 25.9482V23.2531C71.8939 23.2413 71.8939 23.2294 71.895 23.2177C71.9029 23.1622 71.9225 23.1091 71.9527 23.0618C71.9828 23.0146 72.0227 22.9744 72.0697 22.9439L72.334 22.7905C72.3888 22.7625 72.4495 22.748 72.511 22.748C72.5725 22.748 72.6332 22.7625 72.688 22.7905L79.2606 26.5854C79.3131 26.6204 79.3563 26.6678 79.3863 26.7233C79.4163 26.7788 79.4323 26.8409 79.4329 26.904Z" fill="#37474F"/>
<path d="M78.824 27.2509V29.9366L78.4063 29.7006V27.4987C78.4029 27.4373 78.3852 27.3775 78.3544 27.3242C78.3237 27.2709 78.2808 27.2255 78.2293 27.1919L73.1482 24.2584L72.4921 23.8785C72.393 23.8218 72.3128 23.8785 72.3128 23.9823V26.1842L71.895 25.9482V23.2531C71.8939 23.2413 71.8939 23.2294 71.895 23.2177C71.9092 23.1303 71.9824 23.0997 72.0697 23.1492L78.6423 26.9441C78.6946 26.9774 78.7382 27.0225 78.7698 27.0758C78.8014 27.1291 78.82 27.1891 78.824 27.2509Z" fill="#263238"/>
</svg>
